<svg xmlns="http://www.w3.org/2000/svg" width="18" height="18" viewBox="0 0 18 18"><defs><linearGradient id="e8d71bab-3d3b-491d-9107-056cdfeedce0" x1="9.016" y1="3.116" x2="9.016" y2="7.162" gradientUnits="userSpaceOnUse"><stop offset="0" stop-color="#a3a3a3" /><stop offset="1" stop-color="#999" /></linearGradient></defs><polygon points="4.847 10.497 8.983 8.095 13.112 10.497 8.983 12.9 4.847 10.497" fill="#9cebff" /><polygon points="13.126 10.487 13.126 15.276 8.977 17.686 8.977 12.889 13.126 10.487" fill="#32bedd" /><polygon points="8.977 12.897 8.977 17.686 4.836 15.276 4.836 10.487 8.977 12.897" fill="#50e6ff" /><path d="M4,16.149l-.295.3a.2.2,0,0,1-.285,0l-3.3-3.294a.4.4,0,0,1,0-.571l.3-.295L4,15.865a.2.2,0,0,1,0,.28H4Z" fill="#50e6ff" /><path d="M3.642,9.337l.33.33a.2.2,0,0,1,0,.284L.448,13.486l-.33-.327a.406.406,0,0,1,0-.572l3.24-3.25A.2.2,0,0,1,3.642,9.337Z" fill="#1490df" /><path d="M14.023,16.13a.2.2,0,0,1,0-.278h0l0,0,3.564-3.554.3.3a.4.4,0,0,1,0,.568L14.6,16.426a.2.2,0,0,1-.279,0h0l0,0Z" fill="#50e6ff" /><path d="M14.66,9.362l3.223,3.231a.4.4,0,0,1,0,.565l-.328.328-3.5-3.513a.206.206,0,0,1,0-.286l.327-.325A.2.2,0,0,1,14.66,9.362Z" fill="#1490df" /><path d="M8.524,7.317a.916.916,0,0,1,.921,0l.132.077V2.186H8.455V7.357Z" fill="url(#e8d71bab-3d3b-491d-9107-056cdfeedce0)" /><path d="M10.663,1.961A1.647,1.647,0,1,1,9.016.314h0A1.648,1.648,0,0,1,10.663,1.961Z" fill="#1490df" />​
</svg>