<svg xmlns="http://www.w3.org/2000/svg" width="18" height="18" viewBox="0 0 18 18"><defs><linearGradient id="b46a589c-9b6c-4cba-85b8-9b0c79232365" x1="9" y1="12.513" x2="9" y2="1.065" gradientUnits="userSpaceOnUse"><stop offset="0" stop-color="#0078d4" /><stop offset="0.817" stop-color="#5ea0ef" /></linearGradient><linearGradient id="f9ff4bfd-d0f3-488c-bcc1-b7a2a5e0febb" x1="9.003" y1="16.935" x2="9.003" y2="12.512" gradientUnits="userSpaceOnUse"><stop offset="0.149" stop-color="#ccc" /><stop offset="1" stop-color="#707070" /></linearGradient><linearGradient id="e58c9e2b-1c86-4d40-8db1-5bdc0ef5cca5" x1="9.029" y1="0.189" x2="9.029" y2="10.695" gradientUnits="userSpaceOnUse"><stop offset="0" stop-color="#0078d4" /><stop offset="1" stop-color="#005ba1" /></linearGradient></defs><g id="aa44c09d-b8c2-48cf-b69e-11cd4c63b8b0"><g><g><rect x="0.415" y="1.065" width="17.171" height="11.447" rx="0.548" fill="url(#b46a589c-9b6c-4cba-85b8-9b0c79232365)" /><path d="M12.443,15.975c-1.7-.265-1.764-1.49-1.759-3.463H7.316c0,1.973-.062,3.2-1.76,3.463a1,1,0,0,0-.846.96H13.3A1,1,0,0,0,12.443,15.975Z" fill="url(#f9ff4bfd-d0f3-488c-bcc1-b7a2a5e0febb)" /></g><circle cx="9.029" cy="6.685" r="4.045" fill="url(#e58c9e2b-1c86-4d40-8db1-5bdc0ef5cca5)" /><polygon points="11.41 5.367 11.41 8.126 9.025 9.513 9.025 6.749 11.41 5.367" fill="#50e6ff" /><polygon points="11.41 5.367 9.026 6.753 6.641 5.367 9.026 3.98 11.41 5.367" fill="#c3f1ff" /><polygon points="9.031 6.763 9.007 9.523 6.635 8.116 6.659 5.356 9.031 6.763" fill="#9cebff" /><path d="M12.23,3.582h0a.324.324,0,0,0-.459,0l0,0a.336.336,0,0,0,0,.471h0a3.865,3.865,0,1,1-2.9-1.133l-.047.253a.125.125,0,0,0,.166.139l1.247-.474a.164.164,0,0,0,.043-.283l-1.04-.823a.124.124,0,0,0-.2.08l-.064.445A4.519,4.519,0,1,0,12.23,3.582Z" fill="#fff" /></g></g></svg>