<svg xmlns="http://www.w3.org/2000/svg" width="18" height="18" viewBox="0 0 18 18"><defs><linearGradient id="a2f58454-f917-4d1e-acd3-78dded8ce803" x1="-530.216" y1="-219.486" x2="-530.216" y2="-210.552" gradientTransform="matrix(1, 0, 0, -1, 541.126, -205.758)" gradientUnits="userSpaceOnUse"><stop offset="0" stop-color="#0078d4" /><stop offset="0.817" stop-color="#5ea0ef" /></linearGradient><linearGradient id="b9941531-993e-4ca9-b874-605f839ffc30" x1="-530.216" y1="-222.854" x2="-530.216" y2="-219.405" gradientTransform="matrix(1, 0, 0, -1, 541.126, -205.758)" gradientUnits="userSpaceOnUse"><stop offset="0.15" stop-color="#ccc" /><stop offset="1" stop-color="#707070" /></linearGradient><linearGradient id="ffd6f155-8e95-4b34-bc35-fc5e20c5d0fd" x1="10.752" y1="4.279" x2="10.752" y2="12.118" gradientUnits="userSpaceOnUse"><stop offset="0" stop-color="#0078d4" /><stop offset="1" stop-color="#005ba1" /></linearGradient></defs><g id="b0ac72aa-7dd2-4662-b016-c6ad00f1eabf"><g><rect x="0.41" y="0.904" width="13.361" height="8.92" rx="0.449" fill="#005ba1" /><rect x="2.453" y="2.72" width="13.361" height="8.92" rx="0.449" fill="#0078d4" /><rect x="4.23" y="4.794" width="13.361" height="8.92" rx="0.449" fill="url(#a2f58454-f917-4d1e-acd3-78dded8ce803)" /><path d="M13.553,16.343c-1.322-.211-1.322-1.163-1.322-2.643H9.588c0,1.533,0,2.484-1.321,2.643a.78.78,0,0,0-.661.753h6.608A.78.78,0,0,0,13.553,16.343Z" fill="url(#b9941531-993e-4ca9-b874-605f839ffc30)" /><circle cx="10.752" cy="9.126" r="3.018" fill="url(#ffd6f155-8e95-4b34-bc35-fc5e20c5d0fd)" /><polygon points="12.528 8.143 12.528 10.202 10.749 11.236 10.749 9.174 12.528 8.143" fill="#50e6ff" /><polygon points="12.528 8.143 10.749 9.177 8.97 8.142 10.749 7.108 12.528 8.143" fill="#c3f1ff" /><polygon points="10.754 9.185 10.736 11.244 8.965 10.194 8.983 8.135 10.754 9.185" fill="#9cebff" /><path d="M13.14,6.811h0a.243.243,0,0,0-.342,0l0,0a.25.25,0,0,0,0,.351h0a2.883,2.883,0,1,1-2.165-.845l-.035.189a.092.092,0,0,0,.124.1l.93-.353a.123.123,0,0,0,.033-.211L10.9,5.434a.093.093,0,0,0-.149.06l-.047.331a3.373,3.373,0,1,0,2.434.986Z" fill="#fff" /></g></g></svg>