<svg xmlns="http://www.w3.org/2000/svg" width="18" height="18" viewBox="0 0 18 18"><defs><linearGradient id="e28f6ef1-fd31-4751-9108-f94729c0f169" x1="9.049" y1="1.196" x2="9.049" y2="16.892" gradientUnits="userSpaceOnUse"><stop offset="0" stop-color="#0078d4" /><stop offset="1" stop-color="#005ba1" /></linearGradient></defs><g id="eb36956a-3212-4e09-b072-ae7cdb8dd87a"><g><g><path d="M16.444,8.968a7.392,7.392,0,0,1-7.39,7.39,7.5,7.5,0,0,1-.96-.06,7.184,7.184,0,0,1-2.82-.98l-.08-.59-.09-.7-.06-.43a.735.735,0,0,0-.23-.41.638.638,0,0,0-.83.05l-.21.21-.33.33a7.331,7.331,0,0,1-1.78-4.55,2.348,2.348,0,0,1-.01-.26,7.4,7.4,0,0,1,7.4-7.4A7.252,7.252,0,0,1,12.8,2.6l.08.6.1.69.07.51a.672.672,0,0,0,.17.36.647.647,0,0,0,.44.18.6.6,0,0,0,.44-.18l.57-.57A7.278,7.278,0,0,1,16.444,8.968Z" fill="url(#e28f6ef1-fd31-4751-9108-f94729c0f169)" /><path d="M14.514,4.7a1.462,1.462,0,0,0-.16-.19l-.25.25a.6.6,0,0,1-.44.18.647.647,0,0,1-.44-.18,8.074,8.074,0,0,1-1.15.32l-.11.02-.04-.11a8.115,8.115,0,0,0-.79-1.88l-.17-.29.32.12a6.294,6.294,0,0,1,1.7.95l-.1-.69a7,7,0,0,0-3.41-1.16c-.13,0-.28-.01-.42-.01s-.3.01-.42.01a6.715,6.715,0,0,0-.9.12,7.016,7.016,0,0,0-3.9,2.23c-.08.1-.17.2-.25.31a6.866,6.866,0,0,0-1.47,4.27,3.027,3.027,0,0,0,.02.44,6.829,6.829,0,0,0,1.45,3.83c.06.07.12.14.19.21l.21-.21a.638.638,0,0,1,.83-.05,10.309,10.309,0,0,1,1.22-.33l.11-.03.03.11a8.178,8.178,0,0,0,.79,1.88l.18.3L6.814,15a6.3,6.3,0,0,1-1.71-.97l.09.7a7.018,7.018,0,0,0,2.54,1.05c.07.01.15.03.22.04.22.03.45.06.68.07.12.01.26.02.42.02s.29-.01.42-.02a7.126,7.126,0,0,0,.9-.11,6.99,6.99,0,0,0,3.89-2.23c.08-.1.17-.21.26-.31a6.877,6.877,0,0,0,1.46-4.27A6.806,6.806,0,0,0,14.514,4.7Zm-6.58-2.04.03-.03L8,2.618a7.066,7.066,0,0,1,1.04-.08,7.452,7.452,0,0,1,1.06.08l.04.01.02.03a6.06,6.06,0,0,1,1.26,2.4l.04.13-.14.02a15.045,15.045,0,0,1-2.27.17,15.281,15.281,0,0,1-2.28-.17l-.13-.02.04-.13A5.931,5.931,0,0,1,7.934,2.658Zm-2.07,8.92h.02v.11c.03.18.07.36.11.54l.02.12-.12.02a11.445,11.445,0,0,0-1.79.55l-.09.04-.06-.07A6.443,6.443,0,0,1,2.664,9.7a5.846,5.846,0,0,1-.04-.73,6.464,6.464,0,0,1,1.33-3.92l.06-.08.09.04a10.688,10.688,0,0,0,1.79.55l.12.03-.02.12a14.81,14.81,0,0,0-.35,3.26A14.909,14.909,0,0,0,5.864,11.578Zm.17-6.5a9.092,9.092,0,0,1-1.5-.44l-.18-.06.13-.14a6.481,6.481,0,0,1,2.33-1.5l.33-.12-.18.29a8.371,8.371,0,0,0-.79,1.88l-.03.11Zm.48,7.18-.03-.12a14.479,14.479,0,0,1-.33-3.17,14.572,14.572,0,0,1,.33-3.18l.03-.11.11.02a16.052,16.052,0,0,0,2.43.19,16.154,16.154,0,0,0,2.43-.19l.11-.02.02.11a13.97,13.97,0,0,1,.34,3.18,13.881,13.881,0,0,1-.34,3.17l-.02.12-.11-.02a14.769,14.769,0,0,0-2.43-.19,14.683,14.683,0,0,0-2.43.19Zm3.65,3.02-.02.03H10.1a6.2,6.2,0,0,1-1.05.09A6.031,6.031,0,0,1,8,15.308l-.04-.01-.03-.03a3.168,3.168,0,0,1-.46-.6,6.411,6.411,0,0,1-.66-1.39,3.136,3.136,0,0,1-.13-.4l-.04-.14.13-.02a15.3,15.3,0,0,1,2.28-.16,15.071,15.071,0,0,1,2.27.16l.14.02-.04.14A6,6,0,0,1,10.164,15.278Zm3.45-1.79A6.421,6.421,0,0,1,11.284,15l-.32.12.17-.3a7.7,7.7,0,0,0,.79-1.88l.04-.11.11.03a10.187,10.187,0,0,1,1.5.43l.17.07Zm.53-.6-.05.07-.09-.04a10.877,10.877,0,0,0-1.8-.55l-.12-.02.03-.12a14.944,14.944,0,0,0,.35-3.26,14.877,14.877,0,0,0-.35-3.26l-.03-.12.12-.03a10.877,10.877,0,0,0,1.8-.55l.08-.04.06.08a6.4,6.4,0,0,1,0,7.84Z" fill="#5ea0ef" /><path d="M9.841,11.072c-.263,0-.527,0-.79,0s-.527,0-.791,0a.254.254,0,0,1-.245-.332c.041-.146.417-1.389.562-1.869a1.045,1.045,0,1,1,.948,0c.145.48.52,1.723.562,1.869A.255.255,0,0,1,9.841,11.072Z" fill="#003067" /></g><path d="M18,8.958a8.942,8.942,0,0,1-2.64,6.36.578.578,0,0,1-.4.17.561.561,0,0,1-.4-.17.567.567,0,0,1,0-.8,7.839,7.839,0,0,0,2.3-5.56,7.743,7.743,0,0,0-2.16-5.4l-.9.9a.2.2,0,0,1-.33-.11l-.42-3.04a.192.192,0,0,1,.22-.22l3.04.41a.2.2,0,0,1,.11.34l-.91.91A8.9,8.9,0,0,1,18,8.958Zm-13.39,4.7a.2.2,0,0,0-.33-.12l-.91.91A7.859,7.859,0,0,1,3.434,3.4a.562.562,0,0,0,0-.81.567.567,0,0,0-.8,0,9.018,9.018,0,0,0-.06,12.67l-.91.91a.192.192,0,0,0,.11.33l3.04.42a.2.2,0,0,0,.22-.23Z" fill="#50e6ff" /></g></g></svg>