<?xml version="1.0" encoding="utf-8"?>
<!-- Generator: Adobe Illustrator 22.1.0, SVG Export Plug-In . SVG Version: 6.00 Build 0)  -->
<svg version="1.1" id="Layer_1" xmlns="http://www.w3.org/2000/svg" xmlns:xlink="http://www.w3.org/1999/xlink" x="0px" y="0px"
	 width="32px" height="32px" viewBox="0 0 32 32" style="enable-background:new 0 0 32 32;" xml:space="preserve">
<style type="text/css">
	.st0{fill:#69A1D6;}
</style>
<path class="st0" d="M29.9483643,18.174284l-5.6288452-2.9107285c-0.5866089-0.3036671-1.2862549-0.2927341-1.8630371,0.0291939
	l-5.4796753,3.1412277c-0.6148682,0.3445854-0.9276123,0.9919853-0.9276123,1.6928864v5.8204193
	c0.0019531,0.6978455,0.3081665,1.3410912,0.914978,1.6851292l5.5285034,3.1348133
	C22.7932739,30.9395199,23.154356,31,23.4890118,31c0.3614502,0.000061,0.689455-0.0754433,0.9979877-0.2639217l5.5809937-3.3672676
	C30.6429443,27.0183601,31,26.3845806,31,25.715807v-5.8204193C31.0003052,19.1695671,30.5941162,18.5048237,29.9483643,18.174284z
	 M23.0655518,29.8910999l-5.6071777-3.1357918c-0.2928467-0.165514-0.4747925-0.4760208-0.4747925-0.8080254v-5.7961121
	l5.5090942,3.123148c0.1541748,0.0888653,0.3994141,0.1558647,0.572876,0.1986179V29.8910999z M22.9868774,22.3981934
	l-5.4798584-3.108551h0.0009766l5.4368896-3.1168594c0.2828369-0.1587944,0.6266479-0.1642914,0.9144897-0.0145969
	l5.6132812,2.9038887l-5.5071411,3.3215218C23.6678467,22.5646858,23.2923584,22.5734196,22.9868774,22.3981934z
	 M30.0655518,25.715807c-0.0026855,0.3244324-0.2421875,0.6244335-0.5189819,0.7934284l-5.5547485,3.3507156v-6.4006348h-0.0009766
	c0.1745605-0.0486774,0.3415527-0.121418,0.4961548-0.2161446l5.5785522-3.3215218V25.715807z"/>
<path class="st0" d="M13.9473267,18.2126389L8.3806152,15.262517c-0.5862427-0.3038502-1.2857666-0.2928562-1.8621826,0.0291939
	L0.9972534,18.373024C0.3823241,18.7176094,0,19.3650703,0,20.0659714v5.8208466
	c0.00177,0.6982136,0.3780518,1.3417034,0.9855347,1.6851902l5.5484619,3.1961956C6.8356323,30.9395199,7.1652832,31,7.5,31
	c0.361145,0.000061,0.7203369-0.0754433,1.0285034-0.2639828l5.5394287-3.3272629
	C14.6419678,27.0573273,15,26.4245243,15,25.7547112v-5.8208466C15.0001221,19.2078018,14.5935059,18.5429344,13.9473267,18.2126389
	z M6.9751587,29.8598289l-5.4953613-3.1649837H1.4788207C1.185974,26.5293293,0.981018,26.1796741,0.981018,25.8476677
	l0.0230102-5.339695L6.53302,23.2748089c0.1556396,0.088253,0.2891846,0.141449,0.4628296,0.1843243l0.0332031,6.4006958H6.9751587z
	 M7.0029907,22.3859787L1.22583,19.4945488l-0.0151978-0.0071449c0.0761108-0.0948505,0.1697998-0.1740646,0.2759399-0.2333698
	l5.5202637-3.0822277c0.2828369-0.1589794,0.62677-0.1644764,0.9145508-0.0145969l5.5511475,2.9432812L8.007019,22.3830471
	C7.708313,22.5660286,7.3337402,22.5718918,7.0029907,22.3859787z M13.5465088,26.5481415l-5.5650024,3.3116875v-6.3784637
	c0.1731567-0.0477009,0.3912964-0.1413288,0.5479736-0.2386818l5.4674683-3.2178783l0.0421143,5.7303333
	C14.0388184,26.0804882,13.8256226,26.3813438,13.5465088,26.5481415z"/>
<path class="st0" d="M22.0707397,13.3326826c0.5751953-0.3496561,0.8654175-0.9603481,0.8654175-1.6304674V5.8797803
	c0.0006104-0.7263083-0.3392944-1.4160318-0.9851685-1.747366l-5.5714722-2.9121943
	c-0.5869141-0.3036667-1.2868652-0.2926731-1.8639526,0.029194L8.9918213,4.3320699
	C8.376709,4.6759238,8.0425415,5.3489132,8.0425415,6.0501804v5.8244505
	c0.0025024,0.6980915,0.3294678,1.3168459,0.9366455,1.6606388l5.5154419,3.1976004
	c0.3017578,0.1714382,0.6375732,0.2561493,0.9714355,0.2561493H15.46698
	c0.3615723,0.0003662,0.7161865-0.0990639,1.0249634-0.2872982L22.0707397,13.3326826z M15,15.8251066l-5.5244141-3.1664515
	c-0.2939453-0.1665525-0.4759521-0.476265-0.4759521-0.80937V6.0507302l5.4959717,3.1863618
	C14.651062,9.3250408,14.8267212,9.3604031,15,9.4036446V15.8251066z M14.9910278,8.3595009L9.5233154,5.1892014H9.5223389
	l5.4828491-3.0592639c0.28302-0.158918,0.6269531-0.1644148,0.914917-0.014658l5.5559082,2.9054148l-5.5057983,3.3232322
	C15.6713867,8.52703,15.2957153,8.5328932,14.9910278,8.3595009z M15.9945679,9.4201965
	c0.1744995-0.0487995,0.3414917-0.1212349,0.4963989-0.215291l5.508667-3.3251252v5.7981277
	c0.0001831,0.3253479-0.1705933,0.6268158-0.449646,0.7937956l-5.5524902,3.3534031V9.4201965H15.9945679z"/>
</svg>
