<?xml version="1.0" encoding="utf-8"?>
<!-- Generator: Adobe Illustrator 22.1.0, SVG Export Plug-In . SVG Version: 6.00 Build 0)  -->
<svg version="1.1" id="Layer_1" xmlns="http://www.w3.org/2000/svg" xmlns:xlink="http://www.w3.org/1999/xlink" x="0px" y="0px"
	 width="32px" height="32px" viewBox="0 0 32 32" style="enable-background:new 0 0 32 32;" xml:space="preserve">
<style type="text/css">
	.st0{fill:#8CD211;}
	.st1{fill:#5AAAFA;}
	.st2{fill:#FFFFFF;}
	.st3{fill:#264A60;}
</style>
<polygon class="st0" points="23.8,12.5 16.3,16.4 16.3,9.2 23.8,5.3 "/>
<polygon class="st1" points="15.7,8 8.5,4.3 15.7,0.5 23,4.3 19.6,6 "/>
<polygon class="st2" points="9.1,7.5 13.7,10 13.7,11.7 9.1,9.3 "/>
<polygon class="st2" points="9.1,10.4 13.7,12.8 13.7,14.5 9.1,12.1 "/>
<polygon class="st2" points="9.1,13.2 13.7,15.6 13.7,17.3 9.1,15 "/>
<polygon class="st0" points="23.8,12.5 16.3,16.4 16.3,9.2 23.8,5.3 "/>
<polygon class="st1" points="15.7,8 8.5,4.3 15.7,0.5 23,4.3 19.6,6 "/>
<polygon class="st2" points="9.1,7.5 13.7,10 13.7,11.7 9.1,9.3 "/>
<polygon class="st2" points="9.1,10.4 13.7,12.8 13.7,14.5 9.1,12.1 "/>
<polygon class="st2" points="9.1,13.2 13.7,15.6 13.7,17.3 9.1,15 "/>
<polygon class="st0" points="23.8,12.5 16.3,16.4 16.3,9.2 23.8,5.3 "/>
<polygon class="st1" points="15.7,8 8.5,4.3 15.7,0.5 23,4.3 19.6,6 "/>
<polygon class="st2" points="9.1,7.5 13.7,10 13.7,11.7 9.1,9.3 "/>
<polygon class="st2" points="9.1,10.4 13.7,12.8 13.7,14.5 9.1,12.1 "/>
<polygon class="st2" points="9.1,13.2 13.7,15.6 13.7,17.3 9.1,15 "/>
<polygon class="st0" points="23.8,12.5 16.3,16.4 16.3,9.2 23.8,5.3 "/>
<polygon class="st0" points="30.1,27.9 22.7,31.3 22.7,21 30.1,17.1 "/>
<polygon class="st1" points="15.7,8 8.5,4.3 15.7,0.5 23,4.3 19.6,6 "/>
<polygon class="st1" points="22,19.9 17.1,17.4 24.4,13.6 29.3,16.2 "/>
<path class="st3" d="M15.1,17.7L15.1,17.7L15.1,17.7l0-8.6L7.7,5.3v8.6v0l-5.8-3v10.2L21,31.1V20.8L15.1,17.7z M9.1,7.5l4.6,2.4v1.7
	L9.1,9.3V7.5z M9.1,10.4l4.6,2.4v1.7l-4.6-2.4V10.4z M7.9,22.8l-4.6-2.4v-1.8L7.9,21V22.8z M7.9,19.9l-4.6-2.4v-1.8l4.6,2.4V19.9z
	 M7.9,17.1l-4.6-2.4V13l4.6,2.4V17.1z M9.1,13.2l4.6,2.4v1.7L9.1,15V13.2z M13.7,25.7l-4.6-2.4v-1.8l4.6,2.4V25.7z M13.7,22.9
	l-4.6-2.4v-1.8l4.6,2.4V22.9z M13.7,20.1l-4.6-2.4V16l4.6,2.4V20.1z M19.5,28.9l-4.6-2.4v-1.8l4.6,2.4V28.9z M19.5,26l-4.6-2.4v-1.8
	l4.6,2.4V26z M19.5,23.2l-4.6-2.4v-1.8l4.6,2.4V23.2z"/>
<g>
	<polygon class="st1" points="6.4,7.1 1.9,9.5 6.4,11.8 	"/>
</g>
</svg>
