<svg xmlns="http://www.w3.org/2000/svg" xmlns:xlink="http://www.w3.org/1999/xlink" width="32" height="32" viewBox="0 0 32 32"><defs><style>.a{fill:#fff;}.b{fill:url(#a);}.c{mask:url(#b);}.d{fill:url(#c);}.e{fill:#001d6c;}</style><linearGradient id="a" x1="-331.5" y1="-127.5" x2="-321.5" y2="-127.5" gradientTransform="translate(335.5 148.5)" gradientUnits="userSpaceOnUse"><stop offset="0.13"/><stop offset="0.89" stop-opacity="0"/></linearGradient><mask id="b" x="0" y="0" width="32" height="32" maskUnits="userSpaceOnUse"><circle class="a" cx="7" cy="25" r="1"/><path class="a" d="M28,20H26v2h2v6H4V22h9.94V20H4a2,2,0,0,0-2,2v6a2,2,0,0,0,2,2H28a2,2,0,0,0,2-2V22A2,2,0,0,0,28,20Z"/><rect class="b" x="4" y="19" width="10" height="4" transform="translate(18 42) rotate(180)"/></mask><linearGradient id="c" y1="32" x2="32" gradientUnits="userSpaceOnUse"><stop offset="0.1" stop-color="#a56eff"/><stop offset="0.9" stop-color="#0f62fe"/></linearGradient></defs><g class="c"><rect class="d" width="32" height="32"/></g><path class="e" d="M18,10H10V2h8ZM12,8h4V4H12Z"/><path class="e" d="M22,14H16v8h8V16h6V8H22Zm0,6H18V16h4Zm6-10v4H24V10Z"/></svg>
