<?xml version="1.0" encoding="utf-8"?>
<svg id="master-artboard" viewBox="0 0 32 32" version="1.1" xmlns="http://www.w3.org/2000/svg" x="0px" y="0px" style="enable-background:new 0 0 1400 980;" width="32px" height="32px"><rect id="ee-background" x="0" y="0" width="32" height="32" style="fill: white; fill-opacity: 0; pointer-events: none;"/><g transform="matrix(0.49230763362004204, 0, 0, 0.49230763362004204, -0.000006573377504537348, 0)"><title>MDMS</title><desc>Created with Sketch.</desc><g id="g-1" stroke="none" stroke-width="1" fill="none" fill-rule="evenodd">
        <g id="g-2">
            <g id="g-3" transform="translate(7.000000, 2.000000)">
                <g id="g-4">
                    <g id="g-5" transform="translate(0.883796, 0.198723)">
                        <path d="M39.6391661,12.1302953 C38.8930307,4.99965554 32.4600454,0.294857105 25.1329594,0.294857105 C18.102345,0.294857105 12.5697326,5.41777975 11.4496283,12.1302953 C10.8350578,12.0365778 10.211476,11.9734987 9.57077275,11.9734987 C4.58718745,11.9734987 1.87026139,14.8876569 0.74274855,19.1047387 C0.722338239,19.1810766 8.2318135,22.9994726 23.2711743,30.5599267 L23.2505776,17.8846521 L17.7638277,23.3653912 L14.997317,20.6041713 C21.8367655,13.8425164 25.215313,10.459954 25.1329594,10.4564839 C25.0032623,10.451019 35.3911661,20.6089355 35.259338,20.6041713 C35.1836763,20.601437 34.2563477,21.5218436 32.4773523,23.3653912 L26.991984,17.8846521 L26.991984,30.5432275 C40.9890647,23.5009059 48.3897562,19.7104676 49.1940585,19.1719123 C49.3178061,19.0890518 49.3483246,19.1931083 49.341932,19.1719123 C48.8121766,17.415411 47.9969866,15.6639527 46.7415712,14.4037252 C44.7859761,12.440634 42.4185077,11.6828241 39.6391661,12.1302953 Z" id="path-1" fill="#5AAAFA"/>
                        <path d="" id="path-2" stroke="#979797"/>
                    </g>
                    <path d="M 27.848745346069336 34.983253479003906 L 27.848745346069336 60.17803955078125 L 50.99080276489258 48.23149108886719 L 50.99080276489258 23.036706924438477 Z" id="path-1" fill="#8CD211"/>
                    <path d="M 1.0166666507720947 48.23214340209961 L 24.155466079711914 60.17706298828125 L 24.155466079711914 34.982276916503906 L 1.0166666507720947 23.035730361938477 Z" id="path-3" fill="#264A60"/>
                </g>
            </g>
        </g>
    </g></g></svg>