<svg id="e4258aaf-ab32-46d7-bc44-612faf1b6f0c" xmlns="http://www.w3.org/2000/svg" width="18" height="18" viewBox="0 0 18 18"><defs><linearGradient id="ad93528c-edf0-4e13-a06a-b4d1587d2374" x1="9" y1="8.112" x2="9" y2="19.5" gradientTransform="matrix(1, 0, 0, -1, 0, 20)" gradientUnits="userSpaceOnUse"><stop offset="0.251" stop-color="#32bedd" /><stop offset="0.83" stop-color="#50e6ff" /></linearGradient><linearGradient id="f2c224ca-a028-422a-8987-a303b889489a" x1="-120.971" y1="1279.27" x2="-120.971" y2="1293.115" gradientTransform="matrix(0.707, 0.707, 0.707, -0.707, -815.395, 1004.27)" gradientUnits="userSpaceOnUse"><stop offset="0" stop-color="#0078d4" /><stop offset="0.142" stop-color="#077bd6" /><stop offset="0.345" stop-color="#1a83db" /><stop offset="0.584" stop-color="#3990e4" /><stop offset="0.82" stop-color="#5ea0ef" /></linearGradient></defs><g><path d="M17.026,8.314A3.612,3.612,0,0,0,13.9,4.845,4.548,4.548,0,0,0,9.214.5,4.665,4.665,0,0,0,4.755,3.543,4.3,4.3,0,0,0,.974,7.681a4.37,4.37,0,0,0,4.521,4.2h7.714a.715.715,0,0,0,.2,0A3.647,3.647,0,0,0,17.026,8.314Z" fill="url(#ad93528c-edf0-4e13-a06a-b4d1587d2374)" /><path id="f855acc4-3095-4194-8f11-26936de0dea2" d="M12.3,10.954a1.6,1.6,0,0,0,1.6-1.6h0V5.478A1.57,1.57,0,0,0,12.335,3.9H8.429A1.6,1.6,0,0,0,6.842,5.5v3.22A.464.464,0,0,1,6.708,9L3.7,12.042a.537.537,0,0,0-.161.384v1.462a.357.357,0,0,0,.348.366H6.173a.205.205,0,0,0,.205-.205V13.46a.232.232,0,0,1,.232-.232h.606a.205.205,0,0,0,.206-.205V12.39a.222.222,0,0,1,.222-.223h.607a.205.205,0,0,0,.214-.2v-.847l.152-.161Zm.339-5.8a.911.911,0,1,1-.024-.023Z" fill="url(#f2c224ca-a028-422a-8987-a303b889489a)" /><path id="b2396197-5c12-4c76-9ea1-1394e64630bd" d="M15.171,14.2a1.587,1.587,0,0,0,1.588-1.587h0V8.733a1.588,1.588,0,0,0-1.588-1.587H11.3a1.6,1.6,0,0,0-1.6,1.6v3.229a.424.424,0,0,1-.134.312L6.565,15.288a.543.543,0,0,0-.151.384v1.471a.356.356,0,0,0,.356.357H9.045a.205.205,0,0,0,.205-.2v-.607a.223.223,0,0,1,.223-.223h.606a.2.2,0,0,0,.205-.2v-.615a.223.223,0,0,1,.223-.223h.607a.205.205,0,0,0,.205-.205v-.865l.16-.152Zm.33-5.788a.9.9,0,1,1-1.275,0A.9.9,0,0,1,15.5,8.412Z" fill="#50e6ff" /><path id="f6156ad6-00f4-4d40-82bb-baa8a27941e3" d="M7.083,15.734h0a.2.2,0,0,0,.205.187.2.2,0,0,0,.134-.062l2.47-2.4a.22.22,0,0,0,.062-.187h0a.2.2,0,0,0-.33-.089l-2.479,2.4A.248.248,0,0,0,7.083,15.734Z" fill="#fff" /><rect id="b78ec5a3-14b4-4a5f-b6ff-18075a1abe20" x="13.048" y="8.334" width="0.535" height="4.521" rx="0.241" transform="translate(-3.591 12.519) rotate(-45)" fill="#fff" /><rect id="bc7eaf3f-26be-43b7-9725-8d60a4683637" x="12.436" y="8.948" width="0.535" height="4.521" rx="0.241" transform="translate(-4.205 12.265) rotate(-45)" fill="#fff" /></g>​
</svg>