<svg xmlns="http://www.w3.org/2000/svg" width="18" height="18" viewBox="0 0 18 18"><defs><linearGradient id="eb8cfba9-1f06-42b9-a51c-4aa42ae81f6d" x1="7.726" y1="-4.417" x2="9.174" y2="18.808" gradientUnits="userSpaceOnUse"><stop offset="0" stop-color="#83b9f9" /><stop offset="1" stop-color="#0078d4" /></linearGradient><radialGradient id="f6edf879-abb3-4b77-9e12-b0c8719180a1" cx="13.959" cy="11.04" r="5.644" gradientUnits="userSpaceOnUse"><stop offset="0" stop-color="#b4ec36" /><stop offset="0.813" stop-color="#86d633" /></radialGradient><linearGradient id="f392598e-1a15-4279-9cb1-df26bb2ca301" x1="13.969" y1="782.479" x2="14.014" y2="776.813" gradientTransform="matrix(1, 0, 0, -1, 0, 791.516)" gradientUnits="userSpaceOnUse"><stop offset="0" stop-color="#f2f2f2" /><stop offset="1" stop-color="#b4ec36" stop-opacity="0.02" /></linearGradient></defs><path d="M9.2,10.945a4.755,4.755,0,0,1,4.72-5.3H14a4.8,4.8,0,0,1,.549.031,4.718,4.718,0,0,1,2.192.863V.613A.558.558,0,0,0,16.18.055H.557A.558.558,0,0,0,0,.613v10.8a.558.558,0,0,0,.558.558H9.481A3.575,3.575,0,0,1,9.2,10.945Z" fill="#0078d4" /><path d="M9.165,10.348a4.765,4.765,0,0,1,4.751-4.7H14a4.431,4.431,0,0,1,1.628.3V1.2a.161.161,0,0,0-.161-.161H1.282a.162.162,0,0,0-.161.161v9.523a.162.162,0,0,0,.161.161H9.193A4.794,4.794,0,0,1,9.165,10.348Z" opacity="0.9" fill="url(#eb8cfba9-1f06-42b9-a51c-4aa42ae81f6d)" /><rect x="6.974" y="0.355" width="2.836" height="0.386" rx="0.178" fill="#f2f2f2" /><path d="M9.917,10.347a4.026,4.026,0,0,0,.026.5c.184,1.678,1.78,2.459,2.236,4.586a.332.332,0,0,0,.319.258h2.921a.334.334,0,0,0,.32-.258c.455-2.127,2.038-2.908,2.235-4.586A4,4,0,0,0,14,6.386h-.082A4,4,0,0,0,9.917,10.347Z" fill="url(#f6edf879-abb3-4b77-9e12-b0c8719180a1)" /><path d="M15.628,8.63a.951.951,0,0,0-.917.978v.523H13.277V9.608a.957.957,0,0,0-.937-.978h-.021a.984.984,0,0,0,0,1.963h.435V14.67a.245.245,0,0,0,.489,0V10.593h1.468V14.67a.245.245,0,0,0,.489,0V10.593h.428a.95.95,0,0,0,.917-.983v0A.951.951,0,0,0,15.628,8.63Zm-2.874,1.5h-.462a.527.527,0,1,1,.462-.523Zm2.908,0H15.2v-.55a.462.462,0,0,1,.917-.112.42.42,0,0,1,0,.112.5.5,0,0,1-.437.549Z" fill="url(#f392598e-1a15-4279-9cb1-df26bb2ca301)" /><path d="M14.792,17.87l.551-.591V15.7H12.6v1.576l.55.591a.222.222,0,0,0,.129.075h1.359A.222.222,0,0,0,14.792,17.87Z" fill="#cecece" /><polygon points="12.571 16.79 15.343 16.253 15.343 15.947 12.571 16.491 12.571 16.79" fill="#999" /><polygon points="15.343 17 15.343 16.701 12.571 17.252 12.571 17.279 12.781 17.51 15.343 17" fill="#999" />​
</svg>