<svg id="a7e39c7a-0f50-4fda-b0dc-8e20d54e1945" xmlns="http://www.w3.org/2000/svg" width="18" height="18" viewBox="0 0 18 18"><defs><radialGradient id="bb4c4c3f-f7a9-416e-87c4-f79d59529ddb" cx="9" cy="9" r="8.5" gradientUnits="userSpaceOnUse"><stop offset="0.18" stop-color="#5ea0ef" /><stop offset="1" stop-color="#0078d4" /></radialGradient><clipPath id="bf38dd48-418e-4b19-93f3-eac77c97feef"><path id="a2f8fbdd-34b1-4cd6-8ce3-9f41841a5fd9" d="M14.21,15.72A8.5,8.5,0,0,1,3.79,2.28l.09-.06a8.5,8.5,0,0,1,10.33,13.5" fill="none" /></clipPath></defs><title>Icon-web-52</title><path id="a9e07728-1645-4b38-9a48-dd4b9b350c00" d="M14.21,15.72A8.5,8.5,0,0,1,3.79,2.28l.09-.06a8.5,8.5,0,0,1,10.33,13.5" fill="url(#bb4c4c3f-f7a9-416e-87c4-f79d59529ddb)" /><g clip-path="url(#bf38dd48-418e-4b19-93f3-eac77c97feef)"><path d="M4.13,7.05a.28.28,0,0,0,.2.48h6.12A1.55,1.55,0,0,1,11.6,8a1.61,1.61,0,0,1,.43.92,1.43,1.43,0,0,1-.36,1.15,1.41,1.41,0,0,1-1.12.54H8.44a.08.08,0,0,0-.09.06L7.81,12c-.12.29-.25.59-.37.89a.08.08,0,0,0,0,.09L9,14.48l2.59,2.59.46.49,2.14-1.19L13.72,16l-1.43-1.44L10.74,13l-.07,0,0,0,.52-.07A3.84,3.84,0,0,0,14,10.65a3.85,3.85,0,0,0,0-3.08,3.93,3.93,0,0,0-.73-1.12,3.67,3.67,0,0,0-1.24-.89,4,4,0,0,0-1.66-.34h-3V4.05A.14.14,0,0,0,7.18,4Z" fill="#f2f2f2" /></g></svg>