<svg width="64" height="64" xmlns="http://www.w3.org/2000/svg" xmlns:xlink="http://www.w3.org/1999/xlink"><defs><path d="M18.624 14.797a15.353 15.353 0 0 0-2.316-.194C7.793 14.603.89 21.507.89 30.023c0 8.515 6.903 15.419 15.418 15.419h30.84c8.515 0 15.419-6.904 15.419-15.419 0-6.361-3.853-11.817-9.35-14.175C52.298 7.061 44.869.212 35.84.212c-8.663 0-15.835 6.313-17.216 14.585z" id="a"/></defs><g fill="none" fill-rule="evenodd"><path d="M53.327 20.636C52.408 11.849 44.979 5 35.95 5c-8.663 0-15.835 6.313-17.216 14.585a15.222 15.222 0 0 0-2.315-.194C7.903 19.391 1 26.295 1 34.81c0 8.516 6.903 15.42 15.419 15.42h30.839c8.515 0 15.419-6.904 15.419-15.42 0-6.361-3.853-11.817-9.35-14.174" fill="#FFF"/><g transform="translate(0 5)"><mask id="b" fill="#fff"><use xlink:href="#a"/></mask><path fill="#FFF" mask="url(#b)" d="M.89 45.442h61.677V.212H.89z"/><path fill="#FFF" mask="url(#b)" d="M-4.25 50.582h71.956V-4.927H-4.25z"/><path stroke="#7CC7FF" stroke-width="1.5" mask="url(#b)" d="M-4.25 50.582h71.956V-4.927H-4.25z"/><path stroke="#7CC7FF" stroke-width="1.5" mask="url(#b)" d="M.89 45.442h61.677V.212H.89z"/></g><path d="M53.327 20.636C52.408 11.849 44.979 5 35.95 5c-8.663 0-15.835 6.313-17.216 14.585a15.222 15.222 0 0 0-2.315-.194C7.903 19.391 1 26.295 1 34.81c0 8.516 6.903 15.42 15.419 15.42h30.839c8.515 0 15.419-6.904 15.419-15.42 0-6.361-3.853-11.817-9.35-14.174z" stroke="#7CC7FF" stroke-width="1.5"/><path d="M19.025 46.939s-2.642.031-5.46-.857C9.625 44.839 5 41.715 5 34.701c0-6.508 4.106-10.09 7.884-11.461 3.205-1.163 8.507-.398 8.507-.398S22.641 9 35.927 9c13.429 0 13.997 13.748 13.997 13.748s8.599 2.38 8.598 12.28c-.178 9.959-10.693 11.799-12.221 11.875-1.528.076-27.276.036-27.276.036" fill="#4178BE"/><path fill="#6EEDD8" d="M52.421 20L40 27.158l1.441 2.498 12.419-7.158zM41.439 35l11.541 6.652-1.439 2.497L40 37.498z"/><path d="M60.454 22.923a6.559 6.559 0 1 1-9.792-8.728 6.559 6.559 0 0 1 9.792 8.728" fill="#FFF"/><path d="M60.454 22.923a6.559 6.559 0 1 1-9.792-8.728 6.559 6.559 0 0 1 9.792 8.728z" stroke="#6EEDD8" stroke-width="2"/><path d="M40.455 36.923a6.559 6.559 0 1 1-9.792-8.728 6.559 6.559 0 0 1 9.792 8.728" fill="#FFF"/><path d="M40.455 36.923a6.559 6.559 0 1 1-9.792-8.728 6.559 6.559 0 0 1 9.792 8.728z" stroke="#6EEDD8" stroke-width="2"/><path d="M60.455 49.923a6.56 6.56 0 0 1-9.792-8.73 6.56 6.56 0 0 1 9.792 8.73" fill="#FFF"/><path d="M60.455 49.923a6.56 6.56 0 0 1-9.792-8.73 6.56 6.56 0 0 1 9.792 8.73z" stroke="#6EEDD8" stroke-width="2"/></g></svg>