<svg xmlns="http://www.w3.org/2000/svg" width="32" height="32"><path d="M31.1210957 9.8789101c-.5859356-.5859432-1.3535156-.8789072-2.1210938-.8789072-.76758 0-1.5351601.292964-2.1210957.8789072-.3271503.3266582-.5527325.7123966-.6972618 1.1210938h-4.1816463l-6.000001-6.0000024-5.9999943 6.0000024H5.0000014v1.9999924h3.0000014l-3.0000014 3.000001 3.0000014 3.000001H5.8183579c-.1445293-.408205-.3701196-.79492-.6972632-1.1210938-.5854502-.5859356-1.3535144-.8789062-2.1210938-.8789062s-1.5356437.2929707-2.121094.8789062c-1.1718786 1.1709003-1.1718786 3.0703182 0 4.2421875C1.4643573 22.7070274 2.2324216 23 3.000001 23s1.5356436-.2929726 2.1210938-.8789082c.3271437-.3261738.5527339-.7128887.6972632-1.1210938h4.1816449L15.9999971 27l6.000001-6.0000019H27v-2h-3l3-3.000001-3-3.000001h2.1816444c.1445293.4086971.3701115.7944345.6972618 1.1211014.5859356.5859356 1.3535156.8788986 2.1210957.8788986.7675781 0 1.5351582-.292963 2.1210938-.8788986 1.1718692-1.1713933 1.1718692-3.0708026 0-4.2421874M3.7070296 20.7070351c-.254879.254879-.5522485.292963-.7070286.292963-.1547883 0-.4521496-.038084-.7070286-.292963-.3901439-.3896503-.3901439-1.0244141 0-1.4140663.254879-.2548866.5522404-.2929707.7070286-.2929707.1547801 0 .4521496.038084.7070286.2929707.390136.3896522.390136 1.0244159 0 1.4140663M15.9999971 7.8286095l3.1718798 3.1713943h-6.3432665l3.1713867-3.1713943m0 16.3432674l-3.1713867-3.1718788h6.3432665l-3.1718798 3.1718788m8.1718798-8.1718798l-3 3.000001H10.8286104l-3.000001-3.000001 3.000001-3.000001h10.3432665l3 3.000001m5.5351524-3.2929649c-.254879.254879-.5527325.292964-.7070274.292964-.1542969 0-.4521503-.038085-.7070293-.292964-.3896503-.3896503-.3896503-1.0244141 0-1.4140654.254879-.254879.5527325-.292963.7070293-.292963.154295 0 .4521484.038084.7070274.292963.3896504.3896513.3896504 1.0244151 0 1.4140654" fill="#0062ff"/><path d="M19.1718769 20.9999981h-1.1718788l.5859394.5859394.5859394-.5859394m6.8281231 0h-4.0000019l-2 2.0000019 2 2L26 20.9999981m-4.8281231-8.0000019H16l-3.0000038 3.000001 3.000001 3.000001h5.1718798l3-3.000001-3.0000001-3.000001m5.0097675 0H24l3 3.000001-3 3.000001h3v1l4.0000019-4.000001-1.1287708-1.1287689c-.2836056.0858374-.5774384.128768-.8712292.128768-.76758 0-1.5351601-.292963-2.1210957-.8788986-.3271503-.326667-.5527324-.7124044-.6972618-1.1211015m-7.5957546-2.5858889l-.5858955.5858965h1.1718826l-.5859871-.5858965m3.4141083-3.4141049l-2 1.9999995 2 2.0000019h4.0000057l-4.0000057-4.0000014" fill="#97c1ff"/><path d="M19.9999981 9.0000019l-1.4141083 1.4141054.5859871.5858965h-1.1718826L16 12.9999962h5.1718769l3 3.000001-3 3.000001h-5.1718798l2.000001 2h1.1718788l-.5859394.5859394L19.9999981 23l2-2.0000019H26l1-1v-1h-3l3-3.000001-3-3.000001h2.1816444c.1445293.4086971.3701115.7944345.6972618 1.1211014.5859356.5859356 1.3535156.8788986 2.1210957.8788986.2937908 0 .5876236-.0429306.8712292-.128768l-3.8712273-3.8712244h-4.0000057l-2-2.0000018" fill="#004aff"/></svg>