<?xml version="1.0" encoding="utf-8"?>
<!-- Generator: Adobe Illustrator 24.0.0, SVG Export Plug-In . SVG Version: 6.00 Build 0)  -->
<svg version="1.1" id="DNS_Icon" xmlns="http://www.w3.org/2000/svg" xmlns:xlink="http://www.w3.org/1999/xlink" x="0px" y="0px"
	 viewBox="0 0 32 32" style="enable-background:new 0 0 32 32;" xml:space="preserve">
<style type="text/css">
	.st0{fill:url(#Globe_1_);}
	.st1{fill:url(#Fade_Horizontal_1_);}
	.st2{fill:url(#Fade_Vertical_1_);}
	.st3{fill:#001D6C;}
</style>
<linearGradient id="Globe_1_" gradientUnits="userSpaceOnUse" x1="0.343" y1="31.6694" x2="31.693" y2="0.3195">
	<stop  offset="0.1" style="stop-color:#08BDBA"/>
	<stop  offset="0.9" style="stop-color:#0F62FE"/>
</linearGradient>
<path id="Globe" class="st0" d="M30,16c0-7.7-6.3-14-14-14S2,8.3,2,16c0,3.7,1.5,7.3,4.1,9.9C8.8,28.6,12.4,30,16,30
	s7.2-1.4,9.9-4.1l-1.4-1.4c-2.5,2.5-5.8,3.6-9,3.5l0,0c-1.8-2.5-3.2-6.5-3.4-11H30C30,16.7,30,16.3,30,16z M12.8,4.4
	C11.1,7.7,10.1,11.3,10,15H4C4.5,10,8,5.8,12.8,4.4z M12.8,27.6L12.8,27.6c-1.9-0.5-3.7-1.5-5.3-3c-2-2-3.2-4.7-3.5-7.5h6
	C10.2,21.2,11.3,24.8,12.8,27.6z M12,15c0.1-3.9,1.2-7.7,3.3-11c0.5,0,0.9,0,1.4,0c2.1,3.3,3.2,7.1,3.3,11H12z M22,15
	c-0.1-3.7-1-7.3-2.8-10.6C24,5.8,27.5,10,27.9,15H22z"/>
<linearGradient id="Fade_Horizontal_1_" gradientUnits="userSpaceOnUse" x1="10.032" y1="24" x2="27" y2="24">
	<stop  offset="0.1" style="stop-color:#FFFFFF;stop-opacity:0"/>
	<stop  offset="0.65" style="stop-color:#FFFFFF"/>
</linearGradient>
<rect id="Fade_Horizontal" x="10" y="17" class="st1" width="17" height="14"/>
<linearGradient id="Fade_Vertical_1_" gradientUnits="userSpaceOnUse" x1="12.75" y1="27.9668" x2="12.75" y2="16.983">
	<stop  offset="0.1997" style="stop-color:#FFFFFF;stop-opacity:0.9"/>
	<stop  offset="1" style="stop-color:#FFFFFF;stop-opacity:0"/>
</linearGradient>
<path id="Fade_Vertical" class="st2" d="M15.5,28c-1.8-2.6-3.2-6.5-3.4-11H10c0.2,4.2,1.2,7.8,2.8,10.6C13.7,27.8,14.7,27.9,15.5,28
	z"/>
<path id="Bars" class="st3" d="M30,22H20v-2h10V22z M26,24h-6v2h6V24z"/>
</svg>
