<?xml version="1.0" encoding="utf-8"?>
<!-- Generator: Adobe Illustrator 22.1.0, SVG Export Plug-In . SVG Version: 6.00 Build 0)  -->
<svg version="1.1" id="Layer_1" xmlns="http://www.w3.org/2000/svg" xmlns:xlink="http://www.w3.org/1999/xlink" x="0px" y="0px"
	 width="32px" height="32px" viewBox="0 0 32 32" style="enable-background:new 0 0 32 32;" xml:space="preserve">
<style type="text/css">
	.st0{fill:#69A1D6;}
</style>
<path class="st0" d="M31.9740086,14.974679c-0.0999184-0.3989019-0.2997551-0.6980782-0.6994324-0.7978039l-0.5995102-0.1994514
	l0.8992672-0.7978039c0.299757-0.1994505,0.4995918-0.5983534,0.3996754-0.9972544
	c-0.0999184-0.3989019-0.3996754-0.5983534-0.7993488-0.6980791L26.7782326,10.08813
	c-0.2997551-0.0997257-0.6994305-0.0997257-0.9991875,0.1994505l-3.5970764,2.6925888
	c-0.2997551,0.1994505-0.4995937,0.5983534-0.3996735,0.9972544c0.0999184,0.3989019,0.2997551,0.6980782,0.6994324,0.7978048
	l0.6994305,0.1994505l-0.8992672,0.4986277c-0.2997551,0.1994505-0.4995937,0.5983524-0.3996754,0.9972553
	c0.0999203,0.398901,0.2997551,0.6980782,0.6994324,0.797802l1.4258518,0.5078354l-0.0041485,1.495224L7.9935055,13.2793446
	V9.6892281l1.6986198-1.3961573c0.2997561-0.1994505,0.3996744-0.5983524,0.2997561-0.9972548
	C9.8919582,6.9966393,9.6921215,6.896914,9.3923645,6.7971888L8.7928524,6.5977373l0.8992691-0.7978039
	c0.2997561-0.199451,0.3996744-0.5983529,0.2997561-0.9972553C9.8919582,4.4037766,9.6921215,4.1046,9.3923645,4.1046
	l-4.3964257-1.495882c-0.3996749-0.199451-0.6994309-0.0997255-0.9991877,0.0997255L0.3996751,5.4010315
	C0.0999188,5.6004825,0,5.9993844,0,6.3982868C0.0999188,6.7971888,0.2997563,7.096365,0.6994314,7.1960907l0.5995127,0.199451
	l-0.899269,0.6980786C0.0999188,8.2930708,0,8.6919727,0,9.0908756c0.0999188,0.398901,0.2997563,0.6980782,0.6994314,0.7978039
	l1.3034291,0.4069386l0.0026727,6.1780815c0,0.398901,0.2925987,0.5952148,0.6922739,0.6949387L13.88871,21.1576576
	l-4.3964262,4.6870975c-0.1998377,0.1994514-0.3996744,0.5983543-0.2997561,0.7978039
	c0.0999174,0.1994495,0.3996744,0.2991753,0.6994305,0.4986267l3.9967518,2.1939621
	c0.4995937,0.2991753,0.9991875,0.0997257,1.0991068,0.0997257l4.1965895-2.1939621
	c0.4995937-0.2991753,0.5995121-0.398901,0.6994324-0.5983524c0.0999184-0.398901,0.0999184-0.4986286-0.0999203-0.7978039
	l-3.4971561-3.7895679l10.8911457,3.7895679c0.1998386,0.0997257,0.1998386,0.0997257,0.2997551,0.0997257
	c0.299757,0.0997257,0.4995937-0.0997257,0.6994324-0.2991753l1.4987831-1.3961563
	c0.1998367-0.1994514,0.2997551-0.2991753,0.2997551-0.5983543v-6.382431l1.6986198-1.3961563
	C31.9740086,15.6727571,31.9740086,15.4733067,31.9740086,14.974679z M22.8813992,13.5785227l3.5970764-2.6925888
	l4.3964272,1.495883l-1.3988628,1.1967058l-2.6978092-0.8975296c-0.2997551-0.0997257-0.6994305-0.0997257-0.9991875,0.1994514
	l-1.5986996,1.1967058L22.8813992,13.5785227z M28.6766891,14.3763256l-1.1990261,0.9972553l-2.1982136-0.7978048
	l1.1990261-0.8975286L28.6766891,14.3763256z M23.9805069,20.1604061v1.096981L6.6945577,14.8749533l0.8992691-0.6980782
	L23.9805069,20.1604061z M5.9951267,14.2766008v-2.8920403c0.1998372,0,0.0999184,0,0.2997565-0.0997257l0.7096658-0.6980782
	l0.0014815,2.8826857L5.9951267,14.2766008z M0.9991878,6.1988354L4.5962639,3.506247l4.3964262,1.4958825L7.6937456,6.1988354
	L4.9959388,5.2015805c-0.3996749-0.0997257-0.6994309,0-0.9991877,0.1994505L2.2981319,6.6974626L0.9991878,6.1988354z
	 M6.794477,6.896914L5.5954518,7.8941689L3.3972385,6.9966393l1.1990259-0.8975291
	C4.9959388,6.1988354,6.794477,6.896914,6.794477,6.896914z M0.9991878,8.8914232l1.4987818-1.0969801l2.7977257,0.9972544
	c0.0999188,0,0.1998377,0.0997257,0.3996754,0.0997257c0.1998372,0,0.4995937-0.0997257,0.6994309-0.2991762l1.4987817-1.296432
	l1.1990261,0.3989024L5.5954518,10.487031L0.9991878,8.8914232z M14.0028267,28.2458611l-3.5113554-1.9024754l3.5136967-3.833971
	C14.005168,22.6091404,14.0028267,28.2458611,14.0028267,28.2458611z M18.784729,26.1439342l-3.8175831,2.1493435
	l0.0206709-6.3378124L18.784729,26.1439342z M27.0012951,24.5562477L2.9975634,16.3708363v-5.7840796l2.0047731,0.7003136
	L5,14.7480364c0,0.3989019,0.2956953,0.7252693,0.5954514,0.8249941c0,0,17.6856251,6.6816082,18.3850555,6.781332
	c0.1998386,0,0.3996735-0.0997257,0.5995121-0.1994514c0.299757-0.1994514,0.299757-0.398901,0.299757-0.6980782v-3.390667
	l2.1245594,0.812521C27.0043354,18.8786907,27.0012951,24.5562477,27.0012951,24.5562477z M29.001215,23.5312958
	l-1.0239582,0.8175793l0.0225773-5.5996494c0.1998386-0.0997276,0.1772614-0.0847054,0.2771797-0.1844311l0.7257099-0.671217
	C29.0027237,17.8935795,29.001215,23.5312958,29.001215,23.5312958z M27.477663,17.8667183l-4.5962639-1.5956078l1.3988628-1.096982
	l2.7977257,0.9972544c0.0999184,0,0.1998386,0.0997276,0.3996735,0.0997276c0.1998367,0,0.4995937-0.0997276,0.6994324-0.2991772
	l1.5987015-1.3961573l1.1990261,0.3989029L27.477663,17.8667183z"/>
</svg>
