<svg xmlns="http://www.w3.org/2000/svg" width="32" height="32"><path d="M31.687 13.539a.477.477 0 0 0-.06-.067 1.615 1.615 0 0 0-.587-.456l-4.217-1.843a1.706 1.706 0 0 0-1.257-.045L22.532 12.2V8.412c0-.22-.063-.426-.152-.62-.004-.013-.001-.026-.006-.04-.013-.035-.037-.063-.058-.093a1.605 1.605 0 0 0-.745-.675l-4.215-1.842a1.735 1.735 0 0 0-1.258-.045L11.58 6.693a1.62 1.62 0 0 0-.817.651.456.456 0 0 0-.082.121c-.009.02-.007.04-.012.061-.095.2-.163.412-.163.64v3.758l-.188.076-3.469-1.516a1.702 1.702 0 0 0-1.256-.045l-4.52 1.596c-.64.227-1.073.82-1.073 1.472v4.401c0 .577.33 1.106.87 1.386l4.413 2.172a1.729 1.729 0 0 0 1.435.062l3.31-1.289v3.012c0 .576.33 1.105.87 1.384l4.414 2.174c.216.111.45.165.686.179.015.001.028.009.044.009l.01-.002c.016 0 .031.005.047.005.22 0 .442-.043.648-.13l4.321-1.695c.6-.25.987-.814.987-1.439v-3.144l3.202 1.563c.216.112.45.166.686.18.015.001.028.009.044.009.004 0 .007-.002.01-.003.016 0 .031.006.047.006.22 0 .442-.043.648-.13l4.322-1.695a1.57 1.57 0 0 0 .986-1.44v-4.639a1.51 1.51 0 0 0-.313-.904zm-12.404-1.383l1.532.692a1.6 1.6 0 0 0-.585.53c-.027.033-.056.065-.073.106-.007.018-.006.036-.01.055a1.487 1.487 0 0 0-.156.553l-2.987 1.152v-5.075c.05-.015.104-.025.153-.044l4.405-1.573v3.582l-1.875-.847a.488.488 0 0 0-.643.236.475.475 0 0 0 .24.633zm.69 2.97v2.053l-2.495-1.091 2.496-.962zm-3.549-9.129a.74.74 0 0 1 .54.02l3.978 1.739-4.127 1.474a.744.744 0 0 1-.575-.019l-4.141-1.686 4.325-1.528zm-4.949 6.568l2.087-.847c.247-.1.365-.38.263-.625a.488.488 0 0 0-.633-.26l-1.717.697V8.306l4.381 1.784c.057.025.118.038.178.057v5.028l-4.165-2.051a.25.25 0 0 0-.008-.017c-.003-.013 0-.026-.006-.04-.013-.034-.036-.06-.056-.089a1.577 1.577 0 0 0-.324-.392v-.021zm3.839 3.325l-3.288 1.16v-2.78l3.288 1.62zm-9.786 4.628l-4.215-2.076a.61.61 0 0 1-.343-.534v-4.347l4.38 1.871c.058.025.119.038.178.057v5.029zm.213-5.961L1.7 12.83l4.221-1.49a.736.736 0 0 1 .537.018l3.95 1.726-4.097 1.489a.74.74 0 0 1-.569-.016zm3.485 2a.49.49 0 0 0-.659.19.475.475 0 0 0 .192.649l1.448.785c-.105.207-.179.43-.179.669v.361l-3.53 1.375V15.51c.052-.015.106-.025.156-.044l4.403-1.6V17.4c-.05.02-.092.05-.138.074l-1.693-.917zm6.33 9.303l-4.215-2.076a.608.608 0 0 1-.343-.533v-4.319l4.38 1.842c.058.026.12.039.179.057v5.03zm.212-5.962l-4.075-1.713 4.256-1.503a.726.726 0 0 1 .538.019l3.78 1.652.005.002.178.078-4.111 1.482a.742.742 0 0 1-.571-.017zm5.317 3.838a.61.61 0 0 1-.384.554l-4.175 1.638v-5.075c.053-.014.106-.024.157-.044l4.402-1.586v4.513zm4.417-2.528l-3.447-1.684v-.427a1.49 1.49 0 0 0-.159-.635c-.003-.012-.001-.025-.006-.038-.003-.008-.009-.012-.012-.02l1.304-.553a.476.476 0 0 0 .254-.628.49.49 0 0 0-.637-.25l-1.68.712c-.008-.005-.015-.012-.024-.016l-.152-.066V14.324l4.38 1.797c.058.026.12.039.179.058v5.029zm.207-5.964l-4.126-1.693 4.31-1.522a.736.736 0 0 1 .538.018l3.827 1.673-3.976 1.542a.739.739 0 0 1-.573-.018zm5.321 3.839a.612.612 0 0 1-.384.554l-4.174 1.638v-5.076c.055-.015.112-.026.165-.047l4.393-1.704v4.635z" fill="#69a1d6"/></svg>