<?xml version="1.0" encoding="utf-8"?>
<!-- Generator: Adobe Illustrator 22.1.0, SVG Export Plug-In . SVG Version: 6.00 Build 0)  -->
<svg version="1.1" id="Layer_1" xmlns="http://www.w3.org/2000/svg" xmlns:xlink="http://www.w3.org/1999/xlink" x="0px" y="0px"
	 width="32px" height="32px" viewBox="0 0 32 32" style="enable-background:new 0 0 32 32;" xml:space="preserve">
<style type="text/css">
	.st0{fill:#69A1D6;}
</style>
<path class="st0" d="M32,13.1393881c0-2.8808651-1.6940002-5.3697495-4.1420002-6.5556946v-2.687875
	C27.8579998,1.7469187,26.0979996,0,23.9370003,0c-2.1620007,0-3.9200001,1.7469187-3.9200001,3.8958185v3.6298311
	c-0.8799992,0.6899676-1.7450008,1.6019254-2.6259995,2.7518716l-0.007,0.0149994
	c-1.1014519,1.3051615-1.7054415,2.9579983-1.7049999,4.6657829c0,4.0238132,3.2980003,7.2976608,7.3500004,7.2976608
	c1.7779751,0.0004406,3.4956741-0.6444683,4.8339996-1.8149166c0.0189991-0.0130005,0.0400009-0.0200005,0.0569992-0.0359974
	c0.0669994-0.0619984,0.1229992-0.1229935,0.1879997-0.1849918c0.0699997-0.0669956,0.1399994-0.1349926,0.2080002-0.2049904
	C30.7509995,17.6351776,32,15.323287,32,13.1393881z M21.0480003,3.8968186c0-1.5799265,1.2959995-2.8638668,2.8889999-2.8638668
	c1.5919991,0,2.8889999,1.2839402,2.8889999,2.8638668V6.169713c-0.7045631-0.2171669-1.4377251-0.3273888-2.1749992-0.3269854
	c-1.2800007,0-2.4599991,0.3239851-3.6030006,0.9899545V3.8958185V3.8968186z M16.7119999,14.9593039
	c0-3.4548397,2.8330002-6.265708,6.3169994-6.265708c3.4829998,0,6.3169994,2.8108683,6.3169994,6.265708
	c0,1.6999197-0.6879997,3.23985-1.7989998,4.3697958l-0.1450005,0.1419945
	c-1.176918,1.1266899-2.743679,1.755085-4.3729992,1.7539177C19.5450001,21.2250118,16.7119999,18.4151421,16.7119999,14.9593039z
	 M23.0289993,7.6616435C22.458004,7.663753,21.8891888,7.7322087,21.3339996,7.865634
	c1.0620003-0.6719685,2.1469994-0.9899535,3.3169994-0.9899535c0.7649994,0,1.4960003,0.1419935,2.1749992,0.3899817v0.9119577
	c-0.0002384,0.2849655,0.2305889,0.5161695,0.5155678,0.5164089s0.5161934-0.2305775,0.5164318-0.515543
	c0-0.000289,0-0.000577,0-0.0008659V7.7526393c1.8579998,1.091949,3.1100006,3.0948558,3.1100006,5.3887486
	c0,0.846961-0.2469997,1.681922-0.6240005,2.481885c0.0200005-0.2199898,0.0340004-0.4399786,0.0340004-0.6639681
	C30.3779984,10.9344921,27.0819988,7.6616445,23.0289993,7.6616435z M9.3289995,8.5116034
	c0.5116892-0.5067625,0.5156631-1.3323617,0.0088768-1.844027c-0.0743818-0.0750971-0.1576176-0.140872-0.2478771-0.1958776
	l-2.0549994-1.267941C6.5667191,4.915967,5.9697442,4.9453573,5.5319996,5.2777543L3.6300001,6.7296867
	C3.0558314,7.1625624,2.9413068,7.9789114,3.3742025,8.5530529c0.039207,0.052,0.0822604,0.1009836,0.1287975,0.1465416
	c-0.5139775,0.5052309-0.5210497,1.3314419-0.0157962,1.8453951c0.0552073,0.0561581,0.1153848,0.1072035,0.1797962,0.1525126
	l2.0539997,1.4539328c0.4965248,0.35495,1.1715903,0.323534,1.6329999-0.0759974l1.9039998-1.6379242
	c0.3219995-0.2769871,0.4869995-0.6769686,0.4540005-1.0999489c-0.0235415-0.3131676-0.1595774-0.6072474-0.3830004-0.827961
	V8.5116034z M4.2550001,7.5496488L6.158,6.0987158c0.0974727-0.074214,0.230515-0.0809655,0.335-0.0169992l2.0550003,1.267941
	C8.6263809,7.3963871,8.676836,7.4786057,8.6830006,7.5696473C8.690567,7.6595516,8.6540298,7.7475362,8.585001,7.8056364
	L8.4460011,7.9246306L7.0360012,7.0536714C6.5673375,6.7659936,5.97016,6.7953749,5.5320015,7.1276679L4.3240013,8.048625
	L4.2640014,8.0056267C4.1892686,7.9544978,4.1441212,7.8701773,4.1430016,7.7796373
	C4.1405768,7.6892943,4.1823816,7.6034498,4.2550001,7.5496488z M7.625,8.6315985L6.6809998,9.4435606
	C6.5786958,9.532999,6.428215,9.5400448,6.3179998,9.4605598l-1.1100001-0.785964l0.9499998-0.7249656
	c0.0974727-0.0742145,0.230515-0.0809655,0.335-0.0169997C6.4929996,7.9326305,7.6249995,8.6315985,7.625,8.6315985z
	 M8.585,9.6575499l-1.9050002,1.6359243c-0.102304,0.0894375-0.2527847,0.0964842-0.3629999,0.0169992L4.263,9.8565416
	c-0.0746408-0.0515537-0.1194324-0.136281-0.1199999-0.2269897c-0.0024247-0.0903435,0.0393801-0.1761885,0.112-0.2299891
	l0.092-0.0699968l1.3740001,0.9719553c0.4965248,0.3549509,1.1715903,0.323534,1.6329999-0.0759964l1.1929998-1.0259533
	c0.078764,0.0464945,0.1296177,0.1287537,0.1359997,0.2199898C8.6909008,9.5098066,8.6543322,9.5982399,8.585,9.6565514V9.6575499z
	 M9.0279999,18.8351231l-0.2950001-0.1819897l0.4630003-0.3979836c0.3201227-0.2717991,0.4892225-0.6814938,0.4539995-1.0999489
	c-0.0311699-0.4194603-0.2627735-0.7981243-0.6219997-1.0169525l-3.6359997-2.2438946
	c-0.4679708-0.2876177-1.0645685-0.2582264-1.5019999,0.0739965l-3.372,2.5698805
	C0.1838941,16.7908649-0.0087549,17.1884155,0,17.6071796c0.008,0.4229813,0.21,0.8049641,0.556,1.0499516l0.373,0.2639866
	l-0.41,0.3129845C0.184153,19.4857788-0.0090235,19.8832817,0,20.3020535c0.008,0.4239807,0.21,0.806963,0.556,1.0519524
	l3.6359999,2.5728798c0.4975047,0.3521042,1.1708355,0.3203564,1.6329999-0.0769958l3.3710003-2.8998642
	c0.3219995-0.276989,0.4870005-0.6789703,0.4539995-1.1009502c-0.0317945-0.4187317-0.2633209-0.796526-0.6219997-1.0149517
	V18.8351231z M1.1529999,17.8151703c-0.1279563-0.086832-0.1612903-0.2609501-0.0744536-0.3888988
	c0.0178056-0.0262356,0.0399382-0.0492554,0.0654536-0.0680809l3.3719997-2.5698795
	C4.6128521,14.7141972,4.7454877,14.7078247,4.849,14.7723122l3.6359997,2.2448959
	c0.0783625,0.0464211,0.1291313,0.12817,0.1359997,0.2189884c0.0079012,0.0902443-0.0286684,0.1786785-0.0979996,0.2369881
	l-0.71,0.6109734l-2.421-1.4939308C4.923737,16.303751,4.3278341,16.333107,3.8899999,16.6642227L1.79,18.2661476
	l-0.6370001-0.4499798V17.8151703z M6.9909997,18.7911243l-1.8400002,1.5819283
	c-0.1036425,0.0863323-0.2521629,0.0928764-0.3629999,0.0159988l-2.1159999-1.4979286l1.8440001-1.4059353
	C4.6125345,17.4104767,4.7453585,17.4036961,4.849,17.4681892C4.849,17.4681892,6.9910002,18.7911263,6.9909997,18.7911243z
	 M8.5229998,20.1690617L5.151,23.0689259c-0.1028733,0.0880127-0.2523513,0.0950127-0.3629999,0.0169983l-3.635-2.5738792
	c-0.0743811-0.0517826-0.1190959-0.136364-0.12-0.2269878c-0.0019187-0.0902328,0.0397788-0.1758575,0.112-0.22999L1.812,19.5470924
	l2.3800004,1.6849213c0.497611,0.3517399,1.1706953,0.3200054,1.6329999-0.0769958l2.0869999-1.7959175l0.5739999,0.3549843
	c0.0775843,0.0465794,0.1278725,0.1277828,0.1350002,0.217989C8.6289015,20.0223179,8.5923319,20.1107521,8.5229998,20.1690617z
	 M15.9629993,27.2217312l-0.0419998-0.0259972l0.2099991-0.1799908c0.3198223-0.2715893,0.4888916-0.6808357,0.4540005-1.0989513
	c-0.0311813-0.4197159-0.2627411-0.7986813-0.6219997-1.017952l-2.9349995-1.8099155
	c-0.4680214-0.2877979-1.0646334-0.2592163-1.5030003,0.0719986l-2.7200003,2.0759029
	c-0.3356457,0.2515621-0.5292797,0.6496124-0.5199995,1.0689507c0.0080004,0.4229813,0.21,0.8059616,0.5570002,1.0499496
	l0.1169996,0.0839958l-0.1549997,0.1189938c-0.3349781,0.2515678-0.5281897,0.6491413-0.5190001,1.0679512
	c0.0080004,0.4239807,0.21,0.8069611,0.5570002,1.0519505l2.9350004,2.0769043
	c0.4972792,0.3523846,1.1706009,0.3210468,1.6330004-0.0759964l2.7209997-2.3408909
	c0.3220005-0.2769871,0.4869995-0.6789703,0.4540005-1.1019478C16.5528831,27.818058,16.3214417,27.4403992,15.9629993,27.2217312z
	 M9.4379997,26.5137653c-0.0746403-0.0515537-0.1194324-0.1362801-0.1199999-0.2269897
	C9.3155756,26.196434,9.3573799,26.11059,9.4300003,26.0567875l2.7200003-2.0739021
	c0.0969534-0.0746021,0.2299728-0.0813713,0.3339996-0.0170002l2.9359999,1.8119164
	c0.0783806,0.04673,0.1288347,0.1289482,0.1350002,0.2199879c0.0077381,0.0899315-0.0288305,0.1779919-0.0979996,0.2359905
	l-0.4569998,0.3929806l-1.9730005-1.2179432c-0.4684649-0.2861862-1.0643759-0.2564316-1.5019999,0.0749969l-1.7049999,1.2999382
	C9.8200006,26.7837524,9.4380007,26.5137653,9.4379997,26.5137653z M14.1779995,27.3337269l-1.4400005,1.2399406
	c-0.1032791,0.0886478-0.253499,0.096056-0.3649998,0.0179996l-1.6700001-1.1829453l1.448-1.1039486
	c0.0963211-0.0750256,0.2291536-0.0822048,0.3330002-0.0179996v0.0009995l1.6949997,1.0459518L14.1779995,27.3337269z
	 M15.4579992,28.5566692l-2.7200003,2.3398914c-0.1036081,0.0883827-0.2540541,0.0949764-0.3649998,0.0159988l-2.9349995-2.0769024
	c-0.0746403-0.0515537-0.1194324-0.1362801-0.1199999-0.2269878c-0.0024242-0.0903435,0.0393801-0.1761875,0.1120005-0.22999
	L9.842,28.0646954l1.9350004,1.369936c0.4973984,0.3524704,1.1709757,0.3207111,1.6330004-0.0769958l1.6899996-1.4549313
	l0.3199997,0.1979904c0.1079998,0.0649967,0.1300001,0.1649933,0.1350002,0.2189903
	c0.0077295,0.0902157-0.0288086,0.1785755-0.0979996,0.2369881L15.4579992,28.5566692z M22.0459995,17.1641998
	c-0.2779999,0-0.5569992-0.0799961-0.7970009-0.2459888l-1.7180004-1.179945
	c-0.2320118-0.1654711-0.2859497-0.4876871-0.12047-0.7196884c0.1615677-0.2265196,0.47365-0.2841492,0.7054691-0.1302729
	l1.7180004,1.1799459c0.1459999,0.0999947,0.3460007,0.0849953,0.4750004-0.0379982l3.5699997-3.389843
	c0.2167072-0.1859112,0.5431004-0.1609535,0.7290211,0.0557432c0.1731815,0.2018499,0.1649532,0.5021563-0.019022,0.6942215
	l-3.5699997,3.389842C22.7499981,17.0342045,22.3989964,17.1641998,22.0459995,17.1641998z M14.96,13.709362
	C14.9021091,13.709281,14.8446436,13.6994781,14.79,13.6803627l-0.2390003-0.0829964
	c-0.195693-0.0687408-0.3312025-0.2479677-0.3439999-0.4549789c-0.1392908,0.1544561-0.3575821,0.2104053-0.5539999,0.1419935
	L13.158,13.1113892c-0.1964779-0.0680914-0.3328829-0.2474594-0.3459997-0.4549789
	c-0.1392908,0.1544561-0.3575821,0.2104053-0.5539999,0.1419935l-0.4949999-0.1729918
	c-0.1969633-0.0680027-0.3335381-0.2479887-0.3459997-0.4559793c-0.1391459,0.1546946-0.3575935,0.2106848-0.5539999,0.1419935
	l-0.4949999-0.1719923c-0.1965704-0.0683279-0.3326969-0.2482443-0.3450003-0.4559784
	c-0.1389999,0.1549349-0.3576059,0.2109642-0.5539999,0.1419935l-0.4960003-0.1729927
	c-0.2692385-0.0938835-0.4113884-0.3882437-0.3175001-0.6574697c0.0938883-0.269227,0.3882618-0.4113693,0.6575003-0.3174849
	l0.4949999,0.1729918c0.2030001,0.0699968,0.3339996,0.2549887,0.3459997,0.4559793
	c0.1389999-0.1549349,0.3576059-0.2109652,0.5539999-0.1419935l0.4949999,0.1729918
	c0.2030001,0.0699968,0.3330002,0.2539883,0.3450003,0.4549789c0.1394348-0.1542168,0.3575697-0.2101259,0.5539999-0.1419935
	l0.4960003,0.1729927c0.2019997,0.0699959,0.3330002,0.2549877,0.3450003,0.4559784
	c0.1389694-0.1542835,0.3568859-0.2102375,0.5529995-0.1419935l0.4960003,0.1719923
	c0.2030001,0.0699968,0.3339996,0.2539883,0.3459997,0.4559793c0.1390572-0.1548128,0.3573828-0.2111645,0.5539999-0.142993
	l0.2379999,0.0839958c0.2684317,0.0973234,0.4071379,0.393815,0.3098097,0.6622343
	C15.3664217,13.5710373,15.1752825,13.706768,14.96,13.709362z M15.1380005,24.0518818
	c-0.2849789-0.000494-0.5155983-0.231905-0.5151043-0.5168724c0.0001373-0.0787582,0.018302-0.1564407,0.0531044-0.2270927
	l0.2329998-0.4699783c0.088995-0.1895313,0.2862911-0.3039188,0.4949999-0.2869873
	c-0.1364727-0.1574268-0.164875-0.3814754-0.0719995-0.5679741l0.2329998-0.4699764
	c0.0953484-0.1828632,0.2879591-0.2939796,0.4939995-0.2849865c-0.1364727-0.1574268-0.164875-0.3814774-0.0719995-0.5679741
	l0.2330008-0.4699783c0.1416645-0.2478981,0.4574776-0.3340225,0.7053871-0.1923637
	c0.2273293,0.1298981,0.3216572,0.4092293,0.2196121,0.6503429l-0.2329998,0.4699764
	c-0.0906124,0.1879311-0.2869244,0.3013496-0.4950008,0.2859859c0.1362152,0.1578693,0.1649494,0.3818359,0.073,0.5689754
	l-0.2339993,0.4699764c-0.0898285,0.1885471-0.2868319,0.3019676-0.4949999,0.2849865
	c0.1362982,0.1571102,0.1647015,0.380785,0.0719995,0.5669727l-0.2329998,0.4699783
	C15.5133762,23.9408665,15.3341465,24.0522003,15.1380005,24.0518818z M10.7450008,18.8681221
	c-0.284976,0.0013885-0.5171204-0.2284908-0.5185089-0.5134544c-0.0011616-0.2383385,0.1610813-0.4464588,0.3925085-0.5034981
	l0.5100002-0.1279945c0.2069998-0.0499954,0.4169998,0.0300007,0.5380001,0.1909924
	c0.0310001-0.1999912,0.177-0.3699837,0.3850002-0.4229813l0.5089998-0.1279945
	c0.2089996-0.0499973,0.4180002,0.0299988,0.5389996,0.1909904c0.0299997-0.1999912,0.177-0.3699818,0.3839998-0.4229794
	l0.5100002-0.1279945c0.2015772-0.0490494,0.413023,0.0264072,0.5380001,0.1919899
	c0.0310001-0.1999912,0.177-0.3709831,0.3850002-0.4239788l0.3319998-0.0829964
	c0.2794275-0.0587196,0.5535517,0.1201916,0.6122732,0.3996048c0.0554867,0.2640266-0.1013985,0.526329-0.3602734,0.6023483
	l-0.3319998,0.0829964c-0.2016611,0.0491562-0.4132872-0.0258312-0.5389996-0.1909904
	c-0.0315475,0.2056046-0.1832542,0.3722782-0.3850002,0.4229794l-0.5089998,0.1279945
	c-0.2013741,0.0492687-0.4127741-0.0257778-0.5380001-0.1909904c-0.0315475,0.2056046-0.1832542,0.3722782-0.3850002,0.4229813
	l-0.5100002,0.1279945c-0.2016058,0.0495968-0.4133492-0.0259666-0.5380001-0.1919918
	c-0.0310278,0.2057133-0.1823473,0.3727875-0.3839998,0.4239807l-0.5100002,0.1279945
	C10.8297262,18.8630047,10.7874403,18.8680363,10.7450008,18.8681221z"/>
</svg>
