<svg xmlns="http://www.w3.org/2000/svg" width="18" height="18" viewBox="0 0 18 18"><defs><linearGradient id="a" x1="8.94" y1="18.11" x2="8.91" y2="13.59" gradientUnits="userSpaceOnUse"><stop offset="0" stop-color="#32bedd" /><stop offset="0.36" stop-color="#34c1e0" /><stop offset="0.63" stop-color="#3ccbe8" /><stop offset="0.88" stop-color="#48dbf6" /><stop offset="1" stop-color="#50e6ff" /></linearGradient></defs><title>Icon-Blockchain-363</title><polygon points="15.43 3.76 15.43 11.24 9 15 9 7.51 15.43 3.76" fill="#773adc" /><polygon points="15.43 3.76 9 7.52 2.57 3.76 9 0 15.43 3.76" fill="#b796f9" /><polygon points="9 7.52 9 15 2.57 11.24 2.57 3.76 9 7.52" fill="#a67af4" /><path d="M11.89,9,9.06,6.12a.15.15,0,0,0-.21,0L6,9a.14.14,0,0,0,.11.24H7.78a.15.15,0,0,1,.15.15V12a.15.15,0,0,0,.14.15H9.83A.15.15,0,0,0,10,12V9.35a.15.15,0,0,1,.14-.15h1.67A.14.14,0,0,0,11.89,9Z" fill="#fff" /><g><rect x="5.41" y="11.81" width="7.02" height="6.19" rx="0.37" fill="url(#a)" /><path d="M8.1,16.3,6.69,14.89l1.38-1.38a.1.1,0,0,0,0-.14l-.22-.22a.12.12,0,0,0-.14,0l-1.6,1.6a.22.22,0,0,0,0,.22.18.18,0,0,0,0,.07l1.62,1.62a.1.1,0,0,0,.14,0l.22-.22A.1.1,0,0,0,8.1,16.3Z" fill="#fff" /><path d="M12,14.75l-1.59-1.6a.12.12,0,0,0-.14,0l-.22.22a.1.1,0,0,0,0,.14l1.37,1.38L10,16.3a.1.1,0,0,0,0,.14l.22.22a.1.1,0,0,0,.14,0L12,15A.16.16,0,0,0,12,15,.2.2,0,0,0,12,14.75Z" fill="#fff" /></g></svg>