<?xml version="1.0" encoding="utf-8"?>
<!-- Generator: Adobe Illustrator 24.0.0, SVG Export Plug-In . SVG Version: 6.00 Build 0)  -->
<svg version="1.1" id="apic-light-small" xmlns="http://www.w3.org/2000/svg" xmlns:xlink="http://www.w3.org/1999/xlink" x="0px"
	 y="0px" width="32px" height="32px" viewBox="0 0 32 32" style="enable-background:new 0 0 32 32;" xml:space="preserve">
<style type="text/css">
	.st0{fill:#061F80;}
	.st1{fill:url(#outline-left_1_);}
	.st2{fill:url(#outline-right_1_);}
	.st3{fill:url(#outline-left-2_1_);}
	.st4{fill:url(#outline-right-2_1_);}
</style>
<path id="apic-icon" class="st0" d="M24,13c-1.7-2-5.2-2-6.9-0.1c-0.1,0.1-0.2,0.3-0.3,0.4l-2.7-1.4c0.1-0.9-0.2-1.9-0.8-2.6
	C12.1,8.2,10.1,8.2,9,9.4c-1.1,1.2-1.1,3,0,4.2c0.2,0.2,0.5,0.4,0.8,0.5l-0.6,4.5c-0.4,0.1-0.8,0.3-1.1,0.6c-0.9,1-0.8,2.6,0.2,3.6
	c1,0.9,2.4,0.9,3.4,0c0.5-0.5,0.7-1.1,0.7-1.8l4.2-1.8c0.2,0.3,0.4,0.5,0.6,0.7c2.2,1.8,5.3,1.4,7.1-0.7C25.7,17.4,25.6,14.8,24,13z
	 M11.6,19.2c-0.1-0.1-0.3-0.2-0.4-0.3l0.6-4.4c0.5-0.1,1-0.4,1.4-0.7l2.7,1.4c-0.2,0.8-0.3,1.6-0.1,2.3L11.6,19.2z M23.4,17.6
	c-1.1,2.4-4.3,2.5-5.5,0.2c-0.4-0.8-0.4-2,0-2.8c1-2,3.4-2.2,4.8-0.8l0,0C23.6,15,23.9,16.5,23.4,17.6z"/>
<linearGradient id="outline-left_1_" gradientUnits="userSpaceOnUse" x1="5.9361" y1="8.2758" x2="15.8485" y2="18.1882" gradientTransform="matrix(1 0 0 -1 0 34)">
	<stop  offset="0" style="stop-color:#43D1CF"/>
	<stop  offset="1" style="stop-color:#418CFF"/>
</linearGradient>
<path id="outline-left" class="st1" d="M16,30C8.3,30,2,23.7,2,16c0-3.7,1.5-7.3,4.1-9.9l1.4,1.4c-4.8,4.6-4.9,12.2-0.2,17
	c3.8,3.9,9.9,4.8,14.6,2l1,1.7C20.8,29.4,18.4,30,16,30z"/>
<linearGradient id="outline-right_1_" gradientUnits="userSpaceOnUse" x1="16.2268" y1="17.8104" x2="26.1392" y2="27.7228" gradientTransform="matrix(1 0 0 -1 0 34)">
	<stop  offset="0" style="stop-color:#43D1CF"/>
	<stop  offset="1" style="stop-color:#418CFF"/>
</linearGradient>
<path id="outline-right" class="st2" d="M25.9,25.9l-1.4-1.4c4.6-4.7,4.5-12.4-0.2-17c-3.7-3.6-9.4-4.5-14-2l-1-1.8
	c6.8-3.7,15.3-1.1,19,5.7C31.3,14.8,30.3,21.5,25.9,25.9z"/>
<linearGradient id="outline-left-2_1_" gradientUnits="userSpaceOnUse" x1="261.0981" y1="-151.328" x2="271.421" y2="-151.328" gradientTransform="matrix(0.3 -0.65 -0.91 -0.42 -213.67 121.6)">
	<stop  offset="5.000000e-02" style="stop-color:#FFFFFF;stop-opacity:0"/>
	<stop  offset="1" style="stop-color:#FFFFFF"/>
</linearGradient>
<path id="outline-left-2" class="st3" d="M6.9,8.2L5,7.3c-1.6,2-2.6,4.4-2.9,6.9l1.9,0.9C4.2,12.6,5.2,10.1,6.9,8.2z"/>
<circle id="circle-top" class="st0" cx="6.9" cy="6.8" r="2"/>
<linearGradient id="outline-right-2_1_" gradientUnits="userSpaceOnUse" x1="-1264.5785" y1="-590.0347" x2="-1254.2456" y2="-590.0347" gradientTransform="matrix(-0.3 0.65 0.91 0.42 182.86 1095.78)">
	<stop  offset="5.000000e-02" style="stop-color:#FFFFFF;stop-opacity:0"/>
	<stop  offset="1" style="stop-color:#FFFFFF"/>
</linearGradient>
<path id="outline-right-2" class="st4" d="M29.9,17.6L28,16.7c-0.1,2.5-1.1,5-2.7,6.9l1.9,0.9C28.7,22.5,29.6,20.1,29.9,17.6z"/>
<circle id="cirlce-bottom" class="st0" cx="25.3" cy="25.2" r="2"/>
</svg>
