<svg id="bba85be8-9732-442a-809b-d61dc92aa629" xmlns="http://www.w3.org/2000/svg" width="18" height="18" viewBox="0 0 18 18"><defs><linearGradient id="b1e7032f-a771-4e9c-8697-4742c3f961d9" x1="8.22" y1="8.09" x2="8.22" y2="4.71" gradientUnits="userSpaceOnUse"><stop offset="0" stop-color="#773adc" /><stop offset="1" stop-color="#b77af4" /></linearGradient><linearGradient id="bdda0d5c-f636-4ea8-9f0f-c234c5739420" x1="2.36" y1="12.63" x2="2.36" y2="9.25" gradientUnits="userSpaceOnUse"><stop offset="0" stop-color="#773adc" /><stop offset="1" stop-color="#b77af4" /></linearGradient><linearGradient id="e764e489-8213-4958-8dad-a441b8ecbd06" x1="8.22" y1="17.5" x2="8.22" y2="14.12" gradientUnits="userSpaceOnUse"><stop offset="0" stop-color="#773adc" /><stop offset="1" stop-color="#b77af4" /></linearGradient><linearGradient id="fa9d132d-3569-42e2-ae7f-64ec04cf2c7e" x1="14.08" y1="0.5" x2="14.08" y2="11.54" gradientUnits="userSpaceOnUse"><stop offset="0" stop-color="#b77af4" /><stop offset="0.62" stop-color="#8c4fe4" /><stop offset="1" stop-color="#773adc" /></linearGradient></defs><title>Icon-other-352</title><g><circle id="a0c1ba3e-b1b7-469c-bdc3-466c91eaeae0" cx="14.08" cy="10.94" r="1.34" fill="#9cebff" /><path d="M14.08,8.56A2.36,2.36,0,0,0,12.67,9L8.22,5.87,1.08,10.94l7.14,5.42,4.53-3.44a2.42,2.42,0,0,0,1.33.4,2.38,2.38,0,1,0,0-4.76Zm-1.61.63h0ZM8.22,15.06,2.83,11,8.22,7.14,12,9.82h0a2.32,2.32,0,0,0-.28,1.12A2.4,2.4,0,0,0,12,12.16h0Zm4.07-5.69v0Zm-.16.21v0Zm.21,3,0,0Zm-.16-.19h0Zm.35.37,0,0Zm1.55-.45a1.35,1.35,0,1,1,0-2.69,1.35,1.35,0,0,1,0,2.69Z" fill="#50e6ff" /><circle id="a9522cc2-b2ba-4b00-9796-5c509d789e81" cx="8.22" cy="6.4" r="1.69" fill="url(#b1e7032f-a771-4e9c-8697-4742c3f961d9)" /><circle id="f6bf0b63-bfa6-4c36-8883-b7c63ca6cc98" cx="2.36" cy="10.94" r="1.69" fill="url(#bdda0d5c-f636-4ea8-9f0f-c234c5739420)" /><circle id="a22c324d-f47e-42c6-beb7-a9e72fe96c3d" cx="8.22" cy="15.81" r="1.69" fill="url(#e764e489-8213-4958-8dad-a441b8ecbd06)" /><path d="M14.08.5A3.35,3.35,0,0,0,10.83,4c0,1.53,1.94,5.11,2.82,7.25a.46.46,0,0,0,.85,0c.89-2.16,2.83-5.77,2.83-7.25A3.4,3.4,0,0,0,14.08.5Zm0,4.74A1.45,1.45,0,1,1,15.52,3.8,1.44,1.44,0,0,1,14.08,5.24Z" fill="url(#fa9d132d-3569-42e2-ae7f-64ec04cf2c7e)" /></g></svg>