<svg xmlns="http://www.w3.org/2000/svg" xmlns:xlink="http://www.w3.org/1999/xlink" viewBox="0 0 32 32"><defs><style>.a{fill:#fff;}.a,.b{stroke:#061f80;stroke-linecap:round;stroke-linejoin:round;stroke-width:2px;}.b{fill:none;}.c{fill:url(#a);}.d{fill:url(#b);}</style><linearGradient id="a" x1="9.31477" y1="21.9152" x2="22.68856" y2="8.54141" gradientUnits="userSpaceOnUse"><stop offset="0" stop-color="#43d1cf"/><stop offset="0.99963" stop-color="#0062ff"/></linearGradient><linearGradient id="b" x1="543.59197" y1="289.16614" x2="549.42984" y2="289.16614" gradientTransform="translate(-383.04935 -268.39087) scale(0.72128 1)" gradientUnits="userSpaceOnUse"><stop offset="0.05429" stop-color="#fff" stop-opacity="0"/><stop offset="1" stop-color="#fff"/></linearGradient></defs><title>apic-gateway-icon-light</title><line class="a" x1="2.9898" y1="16" x2="3.9898" y2="16"/><line class="a" x1="6.97927" y1="16.00513" x2="15.51834" y2="16.00513"/><line class="a" x1="23.94417" y1="16.00513" x2="29.0312" y2="16.00513"/><polyline class="b" points="26.653 18.378 29.031 16 26.653 13.622"/><path class="c" d="M24.258,10.48926l-.06055-.439L16.00017,4.43652,7.80193,10.05029l-.06006.439a17.46735,17.46735,0,0,0-.1051,2.51611H9.62621A18.02009,18.02009,0,0,1,9.67888,11.189l6.32129-4.32861L22.32049,11.189c.16894,1.98584.415,10.13135-6.32032,14.02149a12.00878,12.00878,0,0,1-5.23571-6.20508H8.66411a14.11757,14.11757,0,0,0,6.8722,8.23193l.46386.24317.46387-.24317A14.52056,14.52056,0,0,0,23.9074,16.97119,20.66532,20.66532,0,0,0,24.258,10.48926Z"/><rect class="d" x="9.03404" y="17.53096" width="4.21075" height="6.49024" rx="0.59268" transform="translate(-9.63662 31.91556) rotate(-90.00018)"/></svg>