<svg id="schematics-appIcon" xmlns="http://www.w3.org/2000/svg" width="32" height="32">
  <style>
    .st1{fill:none;stroke:#fff;stroke-width:2;stroke-miterlimit:10}.st5{fill:#061f80}
  </style>
  <defs>
    <filter id="Adobe_OpacityMaskFilter" filterUnits="userSpaceOnUse" x="0" y="0" width="32" height="32">
      <feColorMatrix values="1 0 0 0 0 0 1 0 0 0 0 0 1 0 0 0 0 0 1 0"/>
    </filter>
  </defs>
  <mask maskUnits="userSpaceOnUse" x="0" y="0" width="32" height="32" id="schematicsConnection_1_">
    <!-- <g filter="url(#Adobe_OpacityMaskFilter)"> -->
      <path class="st1" d="M23 23h6v6h-6z"/>
      <circle class="st1" cx="6" cy="6" r="3"/>
      <path class="st1" d="M6 9v4c0 1.7 1.3 3 3 3h14c1.7 0 3 1.3 3 3v3M9 6h14M23 26H9"/>
      <linearGradient id="SVGID_1_" gradientUnits="userSpaceOnUse" x1="14" y1="6" x2="23" y2="6">
        <stop offset="0" stop-opacity="0"/>
        <stop offset=".9"/>
      </linearGradient>
      <path fill="url(#SVGID_1_)" d="M14 4h9v4h-9z"/>
      <linearGradient id="SVGID_2_" gradientUnits="userSpaceOnUse" x1="-76" y1="-68" x2="-67" y2="-68" gradientTransform="rotate(180 -29 -21)">
        <stop offset="0" stop-opacity="0"/>
        <stop offset=".9"/>
      </linearGradient>
      <path fill="url(#SVGID_2_)" d="M18 24H9v4h9z"/>
    <!-- </g> -->
  </mask>
  <linearGradient id="schematicsConnection_2_" gradientUnits="userSpaceOnUse" y1="32" x2="32">
    <stop offset=".1" stop-color="#00bab6"/>
    <stop offset=".9" stop-color="#0062ff"/>
  </linearGradient>
  <path id="schematicsConnection" mask="url(#schematicsConnection_1_)" fill="url(#schematicsConnection_2_)" d="M0 0h32v32H0z"/>
  <path class="st5" d="M6 30c-2.2 0-4-1.8-4-4s1.8-4 4-4 4 1.8 4 4-1.8 4-4 4zm0-6c-1.1 0-2 .9-2 2s.9 2 2 2 2-.9 2-2-.9-2-2-2z" id="circleBottom"/>
  <path class="st5" d="M26 10c-2.2 0-4-1.8-4-4s1.8-4 4-4 4 1.8 4 4-1.8 4-4 4zm0-6c-1.1 0-2 .9-2 2s.9 2 2 2 2-.9 2-2-.9-2-2-2z" id="circleTop"/>
</svg>
