<?xml version="1.0" encoding="utf-8"?>
<!-- Generator: Adobe Illustrator 19.2.1, SVG Export Plug-In . SVG Version: 6.00 Build 0)  -->
<svg version="1.1" id="Layer_1" xmlns="http://www.w3.org/2000/svg" xmlns:xlink="http://www.w3.org/1999/xlink" x="0px" y="0px"
	 viewBox="0 0 100 100" style="enable-background:new 0 0 100 100;" xml:space="preserve">
<path style="fill:#6CA8DB;" d="M50.2,42.1c-4.5,0-8.2,3.7-8.2,8.2s3.7,8.2,8.2,8.2s8.2-3.7,8.2-8.2S54.7,42.1,50.2,42.1z M50.2,55.8
	c-3,0-5.5-2.5-5.5-5.5c0-3,2.5-5.5,5.5-5.5c3,0,5.5,2.5,5.5,5.5C55.7,53.4,53.2,55.8,50.2,55.8z"/>
<g>
	<path style="fill:#91C83E;" d="M25.7,64.4c2.3,3.9,7.3,5.3,11.3,3s5.3-7.3,3-11.3s-7.3-5.3-11.3-3S23.4,60.5,25.7,64.4z M37.6,57.6
		c1.5,2.6,0.6,6-2,7.5c-2.6,1.5-6,0.6-7.5-2c-1.5-2.6-0.6-6,2-7.5C32.7,54,36,54.9,37.6,57.6z"/>
	<path style="fill:#5DA644;" d="M48.3,51.2l0.1,0.1c0.5,0.8,0.2,1.8-0.6,2.3L36.9,60c-0.8,0.5-1.8,0.2-2.3-0.6l-0.1-0.1
		c-0.5-0.8-0.2-1.8,0.6-2.3L46,50.6C46.8,50.2,47.9,50.4,48.3,51.2z"/>
</g>
<g>
	<path style="fill:#EE499A;" d="M50,78.5c4.5,0,8.2-3.7,8.2-8.2S54.6,62,50,62s-8.2,3.7-8.2,8.2S45.5,78.5,50,78.5z M50,64.8
		c3,0,5.5,2.5,5.5,5.5c0,3-2.5,5.5-5.5,5.5c-3,0-5.5-2.5-5.5-5.5C44.5,67.2,47,64.8,50,64.8z"/>
	<path style="fill:#DA2E81;" d="M50,52.3h0.2c0.9,0,1.7,0.8,1.7,1.7v12.6c0,0.9-0.8,1.7-1.7,1.7H50c-0.9,0-1.7-0.8-1.7-1.7V54
		C48.3,53,49,52.3,50,52.3z"/>
</g>
<g>
	<path style="fill:#875FA8;" d="M74.5,64.4c2.3-3.9,0.9-9-3-11.3s-9-0.9-11.3,3s-0.9,9,3,11.3S72.2,68.4,74.5,64.4z M62.6,57.5
		c1.5-2.6,4.9-3.5,7.5-2c2.6,1.5,3.5,4.9,2,7.5c-1.5,2.6-4.9,3.5-7.5,2C62,63.6,61.1,60.2,62.6,57.5z"/>
	<path style="fill:#734497;" d="M51.8,51.4l0.1-0.1c0.5-0.8,1.5-1.1,2.3-0.6L65,56.9c0.8,0.5,1.1,1.5,0.6,2.3l-0.1,0.1
		c-0.5,0.8-1.5,1.1-2.3,0.6l-10.9-6.3C51.6,53.2,51.3,52.2,51.8,51.4z"/>
</g>
<g>
	<path style="fill:#BC9A2F;" d="M50.1,22.1c-4.5,0-8.2,3.7-8.2,8.2s3.7,8.2,8.2,8.2s8.2-3.7,8.2-8.2S54.7,22.1,50.1,22.1z M50.1,35.8
		c-3,0-5.5-2.5-5.5-5.5c0-3,2.5-5.5,5.5-5.5c3,0,5.5,2.5,5.5,5.5C55.6,33.3,53.2,35.8,50.1,35.8z"/>
	<path style="fill:#FCD432;" d="M50.2,48.3H50c-0.9,0-1.7-0.8-1.7-1.7V34c0-0.9,0.8-1.7,1.7-1.7h0.2c0.9,0,1.7,0.8,1.7,1.7v12.6
		C51.9,47.5,51.1,48.3,50.2,48.3z"/>
	<path style="fill:#BC9A2F;" d="M50.1,2.1c-4.5,0-8.2,3.7-8.2,8.2s3.7,8.2,8.2,8.2s8.2-3.7,8.2-8.2S54.7,2.1,50.1,2.1z M50.1,15.8
		c-3,0-5.5-2.5-5.5-5.5c0-3,2.5-5.5,5.5-5.5c3,0,5.5,2.5,5.5,5.5C55.6,13.3,53.2,15.8,50.1,15.8z"/>
	<path style="fill:#FCD432;" d="M50.2,28.3H50c-0.9,0-1.7-0.8-1.7-1.7V14c0-0.9,0.8-1.7,1.7-1.7h0.2c0.9,0,1.7,0.8,1.7,1.7v12.6
		C51.9,27.5,51.1,28.3,50.2,28.3z"/>
</g>
<g>
	<path style="fill:#F05558;" d="M25.7,36.2c-2.3,3.9-0.9,9,3,11.3s9,0.9,11.3-3s0.9-9-3-11.3S28,32.3,25.7,36.2z M37.6,43.1
		c-1.5,2.6-4.9,3.5-7.5,2c-2.6-1.5-3.5-4.9-2-7.5c1.5-2.6,4.9-3.5,7.5-2C38.2,37.1,39.1,40.4,37.6,43.1z"/>
	<path style="fill:#E32439;" d="M48.4,49.2l-0.1,0.1c-0.5,0.8-1.5,1.1-2.3,0.6l-10.9-6.3c-0.8-0.5-1.1-1.5-0.6-2.3l0.1-0.1
		c0.5-0.8,1.5-1.1,2.3-0.6l10.9,6.3C48.6,47.4,48.9,48.4,48.4,49.2z"/>
	<g>
		<path style="fill:#F05558;" d="M8.4,26.2c-2.3,3.9-0.9,9,3,11.3s9,0.9,11.3-3s0.9-9-3-11.3S10.7,22.3,8.4,26.2z M20.3,33.1
			c-1.5,2.6-4.9,3.5-7.5,2c-2.6-1.5-3.5-4.9-2-7.5c1.5-2.6,4.9-3.5,7.5-2C20.9,27.1,21.8,30.5,20.3,33.1z"/>
		<path style="fill:#E32439;" d="M31.2,39.3l-0.1,0.1c-0.5,0.8-1.5,1.1-2.3,0.6l-10.9-6.3c-0.8-0.5-1.1-1.5-0.6-2.3l0.1-0.1
			c0.5-0.8,1.5-1.1,2.3-0.6L30.5,37C31.3,37.4,31.6,38.5,31.2,39.3z"/>
		<path style="fill:#F05558;" d="M25.7,36.3c-2.3,3.9-0.9,9,3,11.3s9,0.9,11.3-3s0.9-9-3-11.3S27.9,32.3,25.7,36.3z M37.6,43.1
			c-1.5,2.6-4.9,3.5-7.5,2c-2.6-1.5-3.5-4.9-2-7.5c1.5-2.6,4.9-3.5,7.5-2C38.2,37.1,39.1,40.5,37.6,43.1z"/>
	</g>
</g>
<g>
	<path style="fill:#1EB3A0;" d="M74.6,36.2c-2.3-3.9-7.3-5.3-11.3-3s-5.3,7.3-3,11.3s7.3,5.3,11.3,3S76.9,40.1,74.6,36.2z M62.7,43.1
		c-1.5-2.6-0.6-6,2-7.5c2.6-1.5,6-0.6,7.5,2c1.5,2.6,0.6,6-2,7.5C67.6,46.6,64.2,45.7,62.7,43.1z"/>
	<path style="fill:#168572;" d="M52,49.4l-0.1-0.1c-0.5-0.8-0.2-1.8,0.6-2.3l10.9-6.3c0.8-0.5,1.8-0.2,2.3,0.6l0.1,0.1
		c0.5,0.8,0.2,1.8-0.6,2.3L54.3,50C53.5,50.5,52.4,50.2,52,49.4z"/>
	<g>
		<path style="fill:#1EB3A0;" d="M91.9,26.2c-2.3-3.9-7.3-5.3-11.3-3s-5.3,7.3-3,11.3s7.3,5.3,11.3,3S94.2,30.1,91.9,26.2z M80,33.1
			c-1.5-2.6-0.6-6,2-7.5c2.6-1.5,6-0.6,7.5,2c1.5,2.6,0.6,6-2,7.5C84.9,36.6,81.5,35.7,80,33.1z"/>
		<path style="fill:#168572;" d="M69.3,39.4l-0.1-0.1c-0.5-0.8-0.2-1.8,0.6-2.3l10.9-6.3c0.8-0.5,1.8-0.2,2.3,0.6l0.1,0.1
			c0.5,0.8,0.2,1.8-0.6,2.3L71.6,40C70.8,40.4,69.7,40.2,69.3,39.4z"/>
		<path style="fill:#1EB3A0;" d="M74.6,36.2c-2.3-3.9-7.3-5.3-11.3-3s-5.3,7.3-3,11.3s7.3,5.3,11.3,3C75.5,45.2,76.9,40.1,74.6,36.2z
			 M62.7,43.1c-1.5-2.6-0.6-6,2-7.5c2.6-1.5,6-0.6,7.5,2c1.5,2.6,0.6,6-2,7.5C67.6,46.6,64.2,45.7,62.7,43.1z"/>
	</g>
</g>
<g>
	<path style="fill:#875FA8;" d="M74.5,64.4c2.3-3.9,0.9-9-3-11.3s-9-0.9-11.3,3s-0.9,9,3,11.3S72.2,68.3,74.5,64.4z M62.6,57.5
		c1.5-2.6,4.9-3.5,7.5-2c2.6,1.5,3.5,4.9,2,7.5c-1.5,2.6-4.9,3.5-7.5,2C62,63.5,61.1,60.2,62.6,57.5z"/>
	<path style="fill:#875FA8;" d="M91.8,74.4c2.3-3.9,0.9-9-3-11.3c-3.9-2.3-9-0.9-11.3,3s-0.9,9,3,11.3S89.6,78.3,91.8,74.4z M79.9,67.5
		c1.5-2.6,4.9-3.5,7.5-2c2.6,1.5,3.5,4.9,2,7.5c-1.5,2.6-4.9,3.5-7.5,2C79.3,73.5,78.4,70.2,79.9,67.5z"/>
	<path style="fill:#734497;" d="M69.1,61.4l0.1-0.1c0.5-0.8,1.5-1.1,2.3-0.6l10.9,6.3c0.8,0.5,1.1,1.5,0.6,2.3l-0.1,0.1
		c-0.5,0.8-1.5,1.1-2.3,0.6l-10.9-6.3C68.9,63.2,68.6,62.2,69.1,61.4z"/>
</g>
<g>
	<path style="fill:#EE499A;" d="M50,98.4c4.5,0,8.2-3.7,8.2-8.2S54.6,82,50,82s-8.2,3.7-8.2,8.2S45.5,98.4,50,98.4z M50,84.7
		c3,0,5.5,2.5,5.5,5.5c0,3-2.5,5.5-5.5,5.5c-3,0-5.5-2.5-5.5-5.5C44.5,87.2,47,84.7,50,84.7z"/>
	<path style="fill:#DA2E81;" d="M50,72.2h0.2c0.9,0,1.7,0.8,1.7,1.7v12.6c0,0.9-0.8,1.7-1.7,1.7H50c-0.9,0-1.7-0.8-1.7-1.7V73.9
		C48.3,73,49,72.2,50,72.2z"/>
</g>
<g>
	<path style="fill:#91C83E;" d="M25.7,64.4c2.3,3.9,7.3,5.3,11.3,3s5.3-7.3,3-11.3s-7.3-5.3-11.3-3S23.4,60.5,25.7,64.4z M37.6,57.6
		c1.5,2.6,0.6,6-2,7.5c-2.6,1.5-6,0.6-7.5-2c-1.5-2.6-0.6-6,2-7.5C32.7,54,36,54.9,37.6,57.6z"/>
	<path style="fill:#91C83E;" d="M8.3,74.4c2.3,3.9,7.3,5.3,11.3,3s5.3-7.3,3-11.3c-2.3-3.9-7.3-5.3-11.3-3S6.1,70.5,8.3,74.4z M20.2,67.6
		c1.5,2.6,0.6,6-2,7.5c-2.6,1.5-6,0.6-7.5-2c-1.5-2.6-0.6-6,2-7.5C15.3,64,18.7,64.9,20.2,67.6z"/>
	<path style="fill:#5DA644;" d="M31,61.3l0.1,0.1c0.5,0.8,0.2,1.8-0.6,2.3L19.6,70c-0.8,0.5-1.8,0.2-2.3-0.6l-0.1-0.1
		c-0.5-0.8-0.2-1.8,0.6-2.3l10.9-6.3C29.5,60.2,30.5,60.4,31,61.3z"/>
</g>
</svg>
