<svg id="bb37ee11-1d78-42dc-9e68-1ef6f693c14b" xmlns="http://www.w3.org/2000/svg" width="18" height="18" viewBox="0 0 18 18"><defs><linearGradient id="a2546c3d-06f2-4d81-b3fa-b5b62d9f6f89" x1="9" y1="17" x2="9" y2="1" gradientUnits="userSpaceOnUse"><stop offset="0" stop-color="#0078d4" /><stop offset="0.16" stop-color="#1380da" /><stop offset="0.53" stop-color="#3c91e5" /><stop offset="0.82" stop-color="#559cec" /><stop offset="1" stop-color="#5ea0ef" /></linearGradient></defs><title>Icon-intune-331</title><path d="M6.6,12.2h4.8V17H6.6ZM1,5.8H5.8V1H1.67A.67.67,0,0,0,1,1.67ZM1.67,17H5.8V12.2H1v4.13A.67.67,0,0,0,1.67,17ZM1,11.4H5.8V6.6H1ZM12.2,17h4.13a.67.67,0,0,0,.67-.67V12.2H12.2ZM6.6,11.4h4.8V6.6H6.6Zm5.6,0H17V6.6H12.2ZM12.2,1V5.8H17V1.67A.67.67,0,0,0,16.33,1ZM6.6,5.8h4.8V1H6.6Z" fill="url(#a2546c3d-06f2-4d81-b3fa-b5b62d9f6f89)" /></svg>