<svg id="aecd8949-dd65-4b8e-aabf-eddff3165192" xmlns="http://www.w3.org/2000/svg" width="18" height="18" viewBox="0 0 18 18"><defs><linearGradient id="abf6a700-8f89-4d29-9777-d6ea9f96825e" x1="11.08" y1="13.63" x2="3.17" y2="-0.04" gradientUnits="userSpaceOnUse"><stop offset="0" stop-color="#5e9624" /><stop offset="0.26" stop-color="#70a828" /><stop offset="0.79" stop-color="#9fd732" /><stop offset="1" stop-color="#b4ec36" /></linearGradient></defs><title>Icon-intune-336</title><path d="M12.38,7.12c0,3.81-4.7,6.88-5.72,7.5a.35.35,0,0,1-.39,0C5.25,14,.56,10.93.56,7.12V2.53a.37.37,0,0,1,.36-.36C4.57,2.07,3.73.5,6.47.5S8.36,2.07,12,2.17a.38.38,0,0,1,.37.36Z" fill="#86d633" /><path d="M11.89,7.16c0,3.5-4.31,6.31-5.24,6.88a.33.33,0,0,1-.36,0c-.94-.57-5.24-3.38-5.24-6.88V3a.33.33,0,0,1,.33-.33C4.73,2.53,4,1.09,6.47,1.09s1.74,1.44,5.08,1.53a.34.34,0,0,1,.34.33Z" fill="url(#abf6a700-8f89-4d29-9777-d6ea9f96825e)" /><path d="M6.29,8.65H17.07a.35.35,0,0,1,.37.33v8.19a.35.35,0,0,1-.37.33H6.29a.36.36,0,0,1-.37-.33V9A.36.36,0,0,1,6.29,8.65Z" fill="#9cebff" /><path d="M6.27,8.65H17.09a.33.33,0,0,1,.35.31h0V10.2H5.92V9a.33.33,0,0,1,.35-.31Z" fill="#0078d4" /><path d="M15.87,13.41H8.76c-.16,0-.28.08-.28.16V14c0,.09.12.16.28.16h7.11c.16,0,.29-.07.29-.16v-.4C16.16,13.49,16,13.41,15.87,13.41Z" fill="#0078d4" /><path d="M15.87,11.61H8.76c-.16,0-.28.07-.28.16v.39c0,.09.12.16.28.16h7.11c.16,0,.29-.07.29-.16v-.39C16.16,11.68,16,11.61,15.87,11.61Z" fill="#0078d4" /><path d="M15.87,15.44H8.76c-.16,0-.28.07-.28.16V16c0,.09.12.16.28.16h7.11c.16,0,.29-.07.29-.16v-.4C16.16,15.51,16,15.44,15.87,15.44Z" fill="#0078d4" /><circle cx="7.3" cy="11.96" r="0.47" fill="#0078d4" /><circle cx="7.3" cy="13.77" r="0.47" fill="#0078d4" /><circle cx="7.3" cy="15.8" r="0.47" fill="#0078d4" /></svg>