<?xml version="1.0" ?><!DOCTYPE svg  PUBLIC '-//W3C//DTD SVG 1.1//EN'  'http://www.w3.org/Graphics/SVG/1.1/DTD/svg11.dtd'><svg enable-background="new 0 0 512 512" height="512px" id="icon" version="1.1" viewBox="0 0 512 512" width="512px" xml:space="preserve" xmlns="http://www.w3.org/2000/svg" xmlns:xlink="http://www.w3.org/1999/xlink"><g><g id="XMLID_171_"><g><rect fill="#FF8959" height="97.881" width="97.819" x="394.667" y="373.732"/><rect fill="#FF8959" height="97.876" width="97.821" x="19.516" y="40.386"/><path d="M388.884,86.462V34.605h109.383v109.439H388.884V92.243h-52.895v93.715h-5.781V86.462H388.884z      M492.486,138.262V40.386h-97.819v97.876H492.486z" fill="#1D1D1B"/><path d="M65.531,298.287V144.044H13.733V34.605h109.386v109.439H71.313v148.462h264.677v85.393h-5.781v-79.611     H65.531z M19.516,138.262h97.821V40.386H19.516V138.262z" fill="#1D1D1B"/><path d="M446.467,238.916v129.035h51.8v109.443H388.884V367.951h51.8V244.697H256.896v-98.225h-80.82v-5.782     h86.602v98.226H446.467z M492.486,471.613v-97.881h-97.819v97.881H492.486z" fill="#1D1D1B"/><path d="M224.292,367.951v103.662h108.806v5.781H218.511V373.732h-43.016v51.863h-52.376v51.799H13.733V367.951     h109.386v51.861h46.594v-51.861H224.292z M117.337,471.613v-97.881H19.516v97.881H117.337z" fill="#1D1D1B"/><rect fill="#99A4E3" height="97.881" width="97.821" x="19.516" y="373.732"/><rect fill="#99A4E3" height="97.876" width="97.819" x="394.667" y="40.386"/></g></g></g></svg>