<svg xmlns="http://www.w3.org/2000/svg" viewBox="0 0 32 32"><path fill="#9855D4" d="M25.723 0c-3.46 0-6.274 2.816-6.274 6.277s2.816 6.275 6.275 6.275l-.003.003c3.463 0 6.277-2.816 6.277-6.277S29.182 0 25.723 0zm0 11.702a5.43 5.43 0 0 1-5.424-5.426A5.432 5.432 0 0 1 25.721.849v.003a5.432 5.432 0 0 1 5.427 5.426 5.429 5.429 0 0 1-5.425 5.424z"/><path fill="#9855D4" d="M28.656 8.717l-2.531-6.051a.425.425 0 0 0-.784-.002l-2.548 6.047a.424.424 0 0 0 .225.558l-.002.002a.426.426 0 0 0 .557-.226l.587-1.386h3.134l.578 1.386a.424.424 0 0 0 .556.227.422.422 0 0 0 .228-.555zm-4.141-1.909l1.215-2.88h.002l1.203 2.88h-2.42zm-12.44 12.697l.003-.003H.429a.426.426 0 0 0-.427.424v11.649c0 .234.191.425.425.425h11.649a.423.423 0 0 0 .424-.424V19.927a.425.425 0 0 0-.425-.422zm-.424 11.645H.851V20.353H11.65V31.15z"/><path fill="#9855D4" d="M3.158 24.409h4.277c.012.624-.079 1.917-.922 2.883-.084.091-.188.159-.28.241-.453-.416-.784-.959-.977-1.636a.425.425 0 1 0-.818.234c.181.632.52 1.311 1.083 1.886-.629.315-1.391.494-2.313.494a.425.425 0 0 0-.001.848c1.224 0 2.234-.265 3.037-.766.729.458 1.705.768 3.05.768a.422.422 0 0 0 0-.844c-.935 0-1.71-.171-2.338-.491.06-.06.134-.106.193-.171 1.026-1.17 1.146-2.682 1.135-3.441h1.059a.425.425 0 0 0-.002-.848h-2.67v-.994a.425.425 0 0 0-.426-.424.425.425 0 0 0-.426.424v.996H3.156a.426.426 0 0 0-.426.426c0 .235.191.422.426.422l.002-.007zM.426 16.454a.426.426 0 0 0 .426-.426V6.391c0-.897.727-1.626 1.622-1.626h12.512l-3.188 3.191a.42.42 0 0 0 0 .6.42.42 0 0 0 .302.124.42.42 0 0 0 .298-.124l3.915-3.914a.418.418 0 0 0 .092-.137.39.39 0 0 0 .034-.163.378.378 0 0 0-.034-.163.362.362 0 0 0-.091-.137L12.395.128a.42.42 0 0 0-.6 0 .42.42 0 0 0 0 .6l3.188 3.188H2.474A2.476 2.476 0 0 0 .002 6.39v9.638c0 .235.189.426.424.426zm31.148-.905a.425.425 0 0 0-.424.426v9.638c0 .897-.729 1.626-1.626 1.626H17.012L20.2 24.05a.425.425 0 1 0-.6-.603l-3.917 3.914c-.01.01-.013.023-.023.034-.028.034-.054.064-.07.104a.407.407 0 0 0 0 .327c.017.039.042.07.067.104.01.01.017.025.025.034l3.914 3.914a.432.432 0 0 0 .603-.002.424.424 0 0 0 0-.603l-3.19-3.185h12.514a2.476 2.476 0 0 0 2.474-2.474v-9.638a.427.427 0 0 0-.426-.429l.003.002z"/></svg>