<svg xmlns="http://www.w3.org/2000/svg" viewBox="0 0 32 31.78"><path fill="#9855D4" d="M14 4.05V4L10.09.081a.43.43 0 0 0-.6.6l3.19 3.18H4.56A2.48 2.48 0 0 0 2.09 6.35v5.59a.425.425 0 1 0 .85 0V6.35a1.63 1.63 0 0 1 1.62-1.63h8.12L9.49 7.91a.43.43 0 0 0 .6.6L14 4.6v-.06a.41.41 0 0 0 .05-.08.43.43 0 0 0 0-.33.41.41 0 0 0-.05-.08zM3 27.69h8.14a.43.43 0 0 0 0-.85H3a.43.43 0 0 0 0 .85zm0-3.73h8.14a.43.43 0 0 0 0-.85H3a.43.43 0 0 0 0 .85zm0-3.74h8.14a.43.43 0 0 0 0-.85H3a.43.43 0 0 0 0 .85z"/><path fill="#9855D4" d="M13.71 15.32H.42a.42.42 0 0 0-.42.42v15.61a.42.42 0 0 0 .41.43h13.3a.42.42 0 0 0 .42-.42V15.74a.42.42 0 0 0-.42-.42zm-.42 15.6H.85V16.17h12.43zM22.24 8.1v2.51a.42.42 0 0 0 .41.43h8.92a.42.42 0 0 0 .42-.42V8.1a.42.42 0 0 0-.41-.43h-8.92a.42.42 0 0 0-.42.42zm.85.43h8.06v1.66h-8.06zm8.48 4.33h-8.91a.42.42 0 0 0-.42.42v2.58a.42.42 0 0 0 .41.43h8.92a.42.42 0 0 0 .43-.41V13.3a.42.42 0 0 0-.4-.44zm-.42 2.51h-8.06v-1.64h8.06zm.43 7.92h-8.91a.42.42 0 0 0-.42.42v2.52a.42.42 0 0 0 .41.43h8.92a.42.42 0 0 0 .42-.42v-2.52a.42.42 0 0 0-.41-.43zm-.42 2.51h-8.07v-1.66h8.06zm-5.76-4.77v-2.52a.42.42 0 0 0-.41-.43h-6.74a.42.42 0 0 0-.42.42v2.52a.42.42 0 0 0 .41.43H25a.42.42 0 0 0 .4-.42zm-.85-.43h-5.87v-1.66h5.88zm-6.3-14.74H25a.42.42 0 0 0 .42-.42V2.861a.42.42 0 0 0-.42-.39h-6.75a.42.42 0 0 0-.42.42V5.41a.42.42 0 0 0 .389.449zm.42-2.51h5.88v1.63h-5.87z"/></svg>