<svg xmlns="http://www.w3.org/2000/svg" viewBox="0 0 32 32"><path fill="#9855D4" d="M9.275 13.834v.002H5.278v-7.08a3.389 3.389 0 0 0 2.971-3.355A3.401 3.401 0 0 0 4.852.004a3.4 3.4 0 0 0-3.399 3.397c0 1.726 1.301 3.143 2.972 3.355v7.079H.426a.426.426 0 0 0-.426.426v3.493c0 .235.191.424.426.424h8.849a.426.426 0 0 0 .426-.426v-3.493a.425.425 0 0 0-.426-.425zM2.306 3.401A2.55 2.55 0 0 1 4.853.853a2.55 2.55 0 0 1 2.548 2.548 2.552 2.552 0 0 1-2.548 2.547 2.548 2.548 0 0 1-2.547-2.547zm6.545 13.927h-8v-2.641h8v2.641zm11.574-3.493h-8.851a.426.426 0 0 0-.426.426v3.493c0 .235.191.424.426.424h3.999v7.173H13.1a.424.424 0 0 0-.426.422v5.799c0 .235.191.424.426.424h5.799a.423.423 0 0 0 .424-.424v-5.799a.423.423 0 0 0-.424-.424h-2.474v-7.17h4.001a.426.426 0 0 0 .426-.426V14.26a.428.428 0 0 0-.427-.425zm-1.952 12.366v4.948h-4.949v-4.948h4.949zM20 17.328h-8v-2.641h8v2.641zm11.573-3.494v.002H27.57V6.438h2.799a.425.425 0 0 0 .369-.637L27.515.22c-.151-.265-.583-.265-.734 0l-3.223 5.581a.418.418 0 0 0 0 .424.416.416 0 0 0 .369.213h2.799v7.398h-4.001a.425.425 0 0 0-.424.426v3.493c0 .235.189.424.424.424h8.849a.426.426 0 0 0 .426-.426V14.26a.428.428 0 0 0-.427-.426zm-6.914-8.248l2.487-4.307h.002l2.486 4.307h-4.975zm-1.513 11.742v-2.641h8.001v2.641h-8.001z"/></svg>