<svg xmlns="http://www.w3.org/2000/svg" viewBox="0 0 32 32"><path fill="#9855D4" d="M31.954 6.553L28.856.445c-.146-.285-.614-.285-.759 0l-3.093 6.108a.426.426 0 0 0 .379.619h2.674V9.63c0 1.25-.608 1.884-1.81 1.884h-9.826V7.17h2.623a.425.425 0 0 0 .424-.426V.637a.424.424 0 0 0-.422-.426h-6.108a.428.428 0 0 0-.426.427v6.108c0 .235.191.424.426.424h2.635v4.345H5.699c-1.19 0-1.794-.634-1.794-1.884V7.133C5.62 6.92 6.956 5.468 6.956 3.696A3.483 3.483 0 0 0 3.478.216 3.483 3.483 0 0 0 0 3.696C0 5.47 1.338 6.92 3.056 7.133V9.63c0 1.71.989 2.732 2.645 2.732h9.876v3.47c-1.822.215-3.245 1.75-3.245 3.627 0 1.116.51 2.154 1.349 2.841a6.089 6.089 0 0 0-3.797 5.662v3.825h.852v-3.825a5.25 5.25 0 0 1 4.05-5.126.425.425 0 0 0 .074-.801 2.835 2.835 0 0 1-1.676-2.581 2.822 2.822 0 0 1 5.644 0 2.834 2.834 0 0 1-1.676 2.581.423.423 0 0 0 .076.8 5.25 5.25 0 0 1 4.05 5.126v3.825h.85v-3.825a6.092 6.092 0 0 0-3.797-5.662 3.683 3.683 0 0 0 1.349-2.841c0-1.877-1.425-3.415-3.245-3.627v-3.468h9.823c1.668 0 2.662-1.023 2.662-2.732V7.17h2.665a.427.427 0 0 0 .362-.201.462.462 0 0 0 .007-.416zM13.36 1.065h5.258V6.32H13.36V1.065zM.847 3.69c0-1.45 1.18-2.628 2.628-2.628 1.45 0 2.628 1.178 2.628 2.627s-1.18 2.628-2.628 2.628A2.631 2.631 0 0 1 .847 3.689v.001zm25.23 2.628l2.4-4.74 2.402 4.74h-4.804.002z"/></svg>