<svg xmlns="http://www.w3.org/2000/svg" viewBox="0 0 32 32"><path fill="#9855D4" d="M31.575.002H13.926a.426.426 0 0 0-.426.426v15.393a4.343 4.343 0 0 0-1.411-.245H4.305c-2.373 0-4.304 1.938-4.304 4.319v3.821c0 2.38 1.931 4.319 4.304 4.319h1.517l2.167 3.754a.429.429 0 0 0 .582.154.424.424 0 0 0 .156-.58l-2.414-4.177H4.307c-1.904 0-3.453-1.559-3.453-3.47v-3.821c0-1.911 1.547-3.47 3.453-3.47h7.785c.486 0 .965.124 1.408.323v5.053c0 .235.193.424.427.424h1.651v1.492c0 1.911-1.564 3.47-3.486 3.47H8.849a.424.424 0 1 0-.002.846h3.245c2.388 0 4.334-1.938 4.334-4.319v-1.488h15.149a.423.423 0 0 0 .424-.424V.426A.426.426 0 0 0 31.573 0l.002.002zm-.426 21.377H14.348V.853h16.803v20.525h-.002z"/><path fill="#9855D4" d="M17.337 17.011h10.828a.423.423 0 0 0 .422-.426.425.425 0 0 0-.424-.426H17.335a.426.426 0 0 0 .002.852zm.003-5.359h10.828a.425.425 0 0 0 0-.85H17.34a.427.427 0 0 0 .002.853l-.002-.003zm.003-5.613h10.828a.423.423 0 0 0 .422-.426.425.425 0 0 0-.424-.426H17.345a.426.426 0 0 0 0 .852h-.002zM2.49 10.576a.425.425 0 0 0 .424-.426c0-3 2.439-5.439 5.437-5.439h1.441l-1.237 1.24a.42.42 0 0 0 0 .6c.08.084.189.124.298.124a.432.432 0 0 0 .302-.124l1.961-1.964a.382.382 0 0 0 .121-.266c0-.01.007-.02.007-.034 0-.01-.005-.02-.007-.034a.415.415 0 0 0-.025-.127.468.468 0 0 0-.092-.139L9.156 2.026a.424.424 0 0 0-.603 0 .427.427 0 0 0 0 .6l1.24 1.24H8.348a6.295 6.295 0 0 0-6.289 6.289c0 .235.191.424.427.424l.004-.003z"/><circle fill="#9855D4" cx="11.794" cy="21.664" r=".753"/><circle fill="#9855D4" cx="8.356" cy="21.664" r=".753"/><circle fill="#9855D4" cx="4.922" cy="21.662" r=".753"/></svg>