<svg version="1.1" xmlns="http://www.w3.org/2000/svg" xmlns:xlink="http://www.w3.org/1999/xlink" x="0px" y="0px" viewBox="0 0 32 32" style="enable-background:new 0 0 32 32;" xml:space="preserve"><circle fill="#9855D4" cx="7.928" cy="14.96" r="0.615"/><circle fill="#9855D4" cx="14.511" cy="14.96" r="0.615"/><circle fill="#9855D4" cx="21.472" cy="4.053" r="0.615"/><circle fill="#9855D4" cx="26.391" cy="4.053" r="0.615"/><path fill="#9855D4" d="M27.759,0h-7.945c-2.338,0-4.241,1.901-4.241,4.241v5.319H5.726C2.568,9.559,0,12.129,0,15.285v5.545 c0,3.16,2.571,5.728,5.728,5.728H7.94l2.89,5.225C10.909,31.923,11.054,32,11.204,32c0.067,0,0.141-0.017,0.204-0.05 c0.206-0.117,0.28-0.374,0.168-0.58l-3.134-5.662H5.726c-2.689,0-4.878-2.187-4.878-4.878v-5.543c0-2.689,2.189-4.878,4.878-4.878 h10.987c2.689,0,4.878,2.189,4.878,4.878v5.545c0,2.69-2.189,4.878-4.878,4.878h-4.811c-0.235,0-0.424,0.189-0.424,0.424 s0.189,0.424,0.424,0.424h4.811c3.156,0,5.724-2.568,5.724-5.726v-5.545c0-1.022-0.273-1.985-0.748-2.816h2.394 c0.235,0,0.424-0.193,0.424-0.427s-0.189-0.426-0.424-0.426H21.1c-1.049-1.257-2.627-2.058-4.392-2.058H16.42v-5.32 c0-1.869,1.52-3.386,3.389-3.386h7.945c1.871,0,3.391,1.519,3.391,3.386v3.989c0,1.869-1.52,3.389-3.389,3.389H27.03l-2.409,4.17 c-0.117,0.201-0.05,0.464,0.156,0.582c0.067,0.039,0.141,0.057,0.213,0.057c0.148,0,0.29-0.075,0.369-0.213l2.162-3.746h0.238 c2.337,0,4.241-1.902,4.241-4.241V4.237C32,1.902,30.098,0,27.759,0z"/><path fill="#9855D4" d="M21.47,8.619c0.235,0,0.426-0.191,0.426-0.426c0-1.123,0.914-2.035,2.035-2.035 c1.123,0,2.035,0.912,2.035,2.035c0,0.235,0.189,0.426,0.424,0.426s0.424-0.191,0.424-0.426c0-1.592-1.294-2.883-2.883-2.883 c-1.592,0-2.886,1.291-2.886,2.883c0,0.235,0.193,0.426,0.427,0.426H21.47z"/><path fill="#9855D4" d="M11.22,21.202c2.05,0,3.716-1.668,3.716-3.716c0-0.235-0.191-0.424-0.426-0.424 c-0.235,0-0.426,0.189-0.426,0.424c0,1.579-1.286,2.866-2.866,2.866s-2.866-1.286-2.866-2.866c0-0.235-0.191-0.424-0.426-0.424 c-0.235,0-0.426,0.189-0.426,0.424c0.003,2.048,1.669,3.716,3.721,3.716H11.22z"/></svg>
