<?xml version="1.0" encoding="UTF-8" standalone="no"?>
<svg
   xmlns:dc="http://purl.org/dc/elements/1.1/"
   xmlns:cc="http://creativecommons.org/ns#"
   xmlns:rdf="http://www.w3.org/1999/02/22-rdf-syntax-ns#"
   xmlns:svg="http://www.w3.org/2000/svg"
   xmlns="http://www.w3.org/2000/svg"
   xmlns:sodipodi="http://sodipodi.sourceforge.net/DTD/sodipodi-0.dtd"
   xmlns:inkscape="http://www.inkscape.org/namespaces/inkscape"
   version="1.1"
   id="svg2"
   xml:space="preserve"
   width="39.786667"
   height="42.493332"
   viewBox="0 0 39.786667 42.493332"
   sodipodi:docname="feature.eps"><metadata
     id="metadata8"><rdf:RDF><cc:Work
         rdf:about=""><dc:format>image/svg+xml</dc:format><dc:type
           rdf:resource="http://purl.org/dc/dcmitype/StillImage" /></cc:Work></rdf:RDF></metadata><defs
     id="defs6" /><sodipodi:namedview
     pagecolor="#ffffff"
     bordercolor="#666666"
     borderopacity="1"
     objecttolerance="10"
     gridtolerance="10"
     guidetolerance="10"
     inkscape:pageopacity="0"
     inkscape:pageshadow="2"
     inkscape:window-width="640"
     inkscape:window-height="480"
     id="namedview4" /><g
     id="g10"
     inkscape:groupmode="layer"
     inkscape:label="ink_ext_XXXXXX"
     transform="matrix(1.3333333,0,0,-1.3333333,0,42.493333)"><g
       id="g12"
       transform="scale(0.1)"><path
         d="m 274.473,69.6211 c -4.981,0 -9.035,4.043 -9.035,9.0234 0,4.9805 4.054,9.0352 9.035,9.0352 4.98,0 9.023,-4.0547 9.023,-9.0352 0,-4.9804 -4.043,-9.0234 -9.023,-9.0234 z m -12.864,21.5937 -98.093,56.5702 c 0.429,1.543 0.73,3.133 0.73,4.801 0,1.676 -0.301,3.262 -0.73,4.801 l 108.64,62.656 c 10.942,-20.27 17.258,-43.258 17.258,-67.457 0,-19.313 -4.07,-38.688 -11.601,-56.2657 -1.083,0.207 -2.2,0.3438 -3.34,0.3438 -5.039,0 -9.59,-2.1016 -12.864,-5.4493 z M 159.07,165.184 c -2.254,2.296 -5.129,3.941 -8.34,4.769 v 113.352 c 5.895,1.527 10.579,5.941 12.5,11.664 44.083,-5.375 82.051,-31.055 104.504,-67.114 z m -12.832,-21.625 c -4.976,0 -9.031,4.05 -9.031,9.027 0,4.977 4.055,9.027 9.031,9.027 4.985,0 9.028,-4.05 9.028,-9.027 0,-4.977 -4.043,-9.027 -9.028,-9.027 z m -9.031,157.113 c 0,4.98 4.055,9.035 9.031,9.035 4.985,0 9.028,-4.055 9.028,-9.035 0,-4.981 -4.043,-9.031 -9.028,-9.031 -4.976,0 -9.031,4.05 -9.031,9.031 z M 18.0078,69.6211 c -4.9805,0 -9.02342,4.043 -9.02342,9.0234 0,4.9805 4.04292,9.0352 9.02342,9.0352 4.9805,0 9.0313,-4.0547 9.0313,-9.0352 0,-4.9804 -4.0508,-9.0234 -9.0313,-9.0234 z M 277.07,229.539 c -23.672,39.981 -64.941,68.77 -113.164,74.504 -1.582,8.324 -8.886,14.637 -17.668,14.637 -9.015,0 -16.441,-6.676 -17.746,-15.332 -20.527,-2.203 -40.6756,-8.657 -58.4529,-19.086 -2.1368,-1.254 -2.8633,-4.004 -1.6016,-6.145 0.832,-1.426 2.3359,-2.215 3.8672,-2.215 0.7734,0 1.5508,0.196 2.2656,0.614 16.6797,9.785 35.5747,15.836 54.8317,17.91 2.043,-5.461 6.633,-9.641 12.344,-11.121 V 169.953 c -3.215,-0.832 -6.101,-2.484 -8.355,-4.789 L 20.2539,230.41 c -2.168,1.238 -4.9023,0.5 -6.1328,-1.648 -1.2383,-2.149 -0.5078,-4.891 1.6406,-6.125 L 128.945,157.363 c -0.422,-1.531 -0.722,-3.113 -0.722,-4.777 0,-1.66 0.3,-3.246 0.722,-4.77 L 30.8594,91.2344 C 27.582,94.5742 23.0352,96.6641 18.0078,96.6641 8.07422,96.6641 0,88.5781 0,78.6445 0,68.7148 8.07422,60.6367 18.0078,60.6367 c 9.9336,0 18.0195,8.0781 18.0195,18.0078 0,1.6719 -0.3046,3.2539 -0.7304,4.7852 l 98.0861,56.5743 c 2.262,-2.305 5.148,-3.965 8.363,-4.797 V 4.49609 c 0,-2.48046 2.016,-4.49218375 4.492,-4.49218375 2.485,0 4.492,2.01172375 4.492,4.49218375 V 135.207 c 3.211,0.832 6.09,2.481 8.348,4.777 L 257.18,83.4102 c -0.422,-1.5313 -0.727,-3.1055 -0.727,-4.7657 0,-9.9297 8.086,-18.0078 18.02,-18.0078 9.929,0 18.007,8.0781 18.007,18.0078 0,5.5586 -2.585,10.4805 -6.562,13.7891 8.105,18.7894 12.48,39.4924 12.48,60.1524 0,26.906 -7.363,52.387 -20.019,74.633 l -1.309,2.32"
         style="fill:#9855d4;fill-opacity:1;fill-rule:nonzero;stroke:none"
         id="path14" /></g></g></svg>
