<svg xmlns="http://www.w3.org/2000/svg" viewBox="0 0 32 32"><path fill="#9855D4" d="M32 5.1c0-.1-.1-.2-.1-.3L26.8.1c-.1 0-.1-.1-.2-.1H16c-.3 0-.5.2-.5.5V2c0 .3.2.5.5.5s.5-.2.5-.5V1h9.4v4.2c0 .3.2.5.5.5H31v13h-6.9c-.3 0-.5.2-.5.5s.2.5.5.5h7.4c.3 0 .5-.2.5-.5V5.1zm-5.1-.4V1.6l3.4 3.1h-3.4z"/><path fill="#9855D4" d="M28.5 31.1l-8.7-8.7c4.2-4.6 3.9-11.8-.8-16.1S7.2 2.4 3 7s-3.9 11.8.7 16.1c4.3 4 11 4 15.4 0l8.7 8.7c.2.2.5.2.7 0s.2-.5 0-.7zM1 14.7C1 9 5.7 4.3 11.4 4.4c5.7 0 10.4 4.6 10.3 10.4 0 5.7-4.6 10.3-10.3 10.3C5.7 25.1 1 20.4 1 14.7z"/><path fill="#9855D4" d="M16.2 9.7c-.2-.9-1.2-1.5-2.1-1.3-.5.1-.9.4-1.1.9-.2.4-.3.9-.2 1.3l-3.3 1.9c-.7-.7-1.8-.6-2.5.1s-.6 1.8.1 2.5c.4.4 1 .5 1.6.4l1.7 2.9-.3.3c-.5.8-.2 1.9.6 2.4.3.2.6.2.9.2.2 0 .3 0 .5-.1.9-.2 1.5-1.2 1.3-2.1-.2-.9-1.2-1.5-2.1-1.3L9.6 15c.4-.4.6-1.1.4-1.7l3.3-1.9c.7.7 1.8.7 2.5 0 .4-.4.6-1.1.4-1.7zm-7.9 4.9c-.4 0-.8-.4-.8-.8s.4-.8.8-.8.8.4.8.8-.4.8-.8.8zm2.7 4.6c.2-.4.7-.5 1.1-.3.4.2.5.7.3 1.1-.2.4-.7.5-1.1.3-.4-.2-.5-.7-.3-1.1zm4.1-8.7c-.2.4-.7.5-1.1.3-.4-.2-.5-.7-.3-1.1.2-.4.7-.5 1.1-.3.2.1.3.3.4.5.1.2.1.5-.1.6z"/></svg>