<svg id="Layer_1" data-name="Layer 1" xmlns="http://www.w3.org/2000/svg" viewBox="0 0 64 63.8"><defs><style>.cls-1{fill:#9950D7;}</style></defs><title>STUDIO-pictogram</title><path class="cls-1" d="M19.12,24.8l15.22,9a1.76,1.76,0,0,0,1,.2H35.9a1.79,1.79,0,0,0,1.17-.78s7.22-12.49,7.22-12.68A10.51,10.51,0,0,0,40,6.27,10.64,10.64,0,0,0,31.61,5.1a10.36,10.36,0,0,0-6,4.68L18.34,22.46h0A1.79,1.79,0,0,0,19.12,24.8ZM19.9,23l7.22-12.68a8.45,8.45,0,0,1,5.07-3.9,9.82,9.82,0,0,1,7,1c4.29,2.54,6,8,3.71,12.1,0,0.2-7.22,12.68-7.41,12.68h-0.2l-15.22-9C19.9,23.24,19.71,23,19.9,23Z" transform="translate(0 -0.22)"/><path class="cls-1" d="M63.22,62.46H0.78A0.78,0.78,0,0,0,.78,64H63.22A0.84,0.84,0,0,0,64,63.24,0.71,0.71,0,0,0,63.22,62.46Z" transform="translate(0 -0.22)"/><path class="cls-1" d="M10.15,57.78H25A0.84,0.84,0,0,0,25.76,57V42.37A0.84,0.84,0,0,0,25,41.59H23.61V35.15a0.69,0.69,0,0,0-.78-0.78H19.51a0.84,0.84,0,0,0-.78.78v6.44H16.59l0.2-7.41c0-.2,0-0.39-0.2-0.39l-1.76-3.12A1,1,0,0,0,14,30.27h0a1,1,0,0,0-.78.39l-1.76,2.73c0,0.2-.2.2-0.2,0.39v7.61H10.15a0.84,0.84,0,0,0-.78.78V56.8A0.89,0.89,0,0,0,10.15,57.78Zm10.15-22H22v5.66H20.29V35.73Zm-7.22-1.56,1-1.56,1,1.56-0.2,7.22H13.07V34.17Zm-2,8.78H24.2V56H11.12V43Z" transform="translate(0 -0.22)"/><path class="cls-1" d="M46.83,8L58.15,29.49a3.13,3.13,0,0,0-1,2.15A4.09,4.09,0,0,0,58,33.78L45.27,56.22H36.49a0.78,0.78,0,1,0,0,1.56H57a0.78,0.78,0,0,0,0-1.56H47.22L59.51,34.56h0.78a2.93,2.93,0,1,0,0-5.85H59.71L48.2,7.24A0.94,0.94,0,0,0,47,6.85,0.74,0.74,0,0,0,46.83,8ZM60.29,30.27a1.37,1.37,0,1,1-1.37,1.37A1.33,1.33,0,0,1,60.29,30.27Z" transform="translate(0 -0.22)"/><path class="cls-1" d="M43.71,6.07a3,3,0,0,0,2.93-2.93,2.93,2.93,0,1,0-5.85,0A3,3,0,0,0,43.71,6.07Zm0-4.29a1.33,1.33,0,0,1,1.37,1.37,1.37,1.37,0,0,1-2.73,0A1.47,1.47,0,0,1,43.71,1.78Z" transform="translate(0 -0.22)"/></svg>