<svg version="1.1" xmlns="http://www.w3.org/2000/svg" xmlns:xlink="http://www.w3.org/1999/xlink" x="0px" y="0px" viewBox="0 0 32 32" style="enable-background:new 0 0 32 32;" xml:space="preserve"><path fill="#9855D4" d="M27.759,0h-7.948c-2.336,0-4.241,1.901-4.241,4.241v5.447H5.675c-3.129,0-5.674,2.553-5.674,5.692v5.561 c0,3.139,2.548,5.694,5.674,5.694h2.139l2.975,5.154C10.868,31.923,11.01,32,11.158,32c0.072,0,0.146-0.017,0.211-0.057 c0.204-0.117,0.273-0.377,0.156-0.582l-3.218-5.576H5.675c-2.66,0-4.824-2.174-4.824-4.844v-5.563c0-2.668,2.162-4.844,4.822-4.844 h10.921c2.682,0,4.866,2.174,4.866,4.844v5.561c0,2.67-2.182,4.844-4.866,4.844h-4.782c-0.235,0-0.424,0.189-0.424,0.424 c0,0.235,0.191,0.426,0.426,0.426h4.782c3.151,0,5.715-2.554,5.715-5.694v-5.561c0-1.066-0.302-2.062-0.815-2.916h2.588 c0.235,0,0.426-0.189,0.426-0.424c0-0.235-0.189-0.426-0.424-0.426h-3.211c-1.048-1.18-2.574-1.928-4.274-1.928h-0.174V4.237 c0-1.871,1.52-3.391,3.389-3.391h7.948c1.867,0,3.386,1.52,3.386,3.389v3.989c0,1.869-1.519,3.389-3.386,3.389h-0.732l-2.409,4.17 c-0.117,0.201-0.05,0.463,0.156,0.58c0.067,0.039,0.141,0.057,0.213,0.057c0.147,0,0.29-0.075,0.369-0.213l2.162-3.746h0.238 c2.336,0,4.237-1.901,4.237-4.241V4.232c0-2.33-1.902-4.232-4.241-4.232L27.759,0z"/><path fill="#9855D4" d="M24.489,5.607c-0.53,0.536-0.816,0.984-0.816,1.819c0,0.235,0.189,0.424,0.424,0.424 c0.235,0,0.422-0.189,0.422-0.424c0-0.546,0.151-0.794,0.62-1.269c0.397-0.402,0.811-0.818,0.952-1.488 c0.107-0.51-0.01-1.022-0.33-1.441c-0.355-0.463-0.925-0.761-1.525-0.794c-0.677-0.034-1.281,0.184-1.693,0.62 c-0.402,0.431-0.582,1.034-0.503,1.7c0.028,0.235,0.258,0.397,0.473,0.372c0.235-0.028,0.402-0.24,0.372-0.473 c-0.05-0.419,0.045-0.768,0.278-1.014c0.238-0.251,0.6-0.377,1.027-0.355c0.349,0.02,0.694,0.198,0.898,0.464 c0.117,0.154,0.243,0.409,0.173,0.746c-0.091,0.427-0.369,0.709-0.774,1.116L24.489,5.607z"/><circle fill="#9855D4" cx="24.085" cy="9.436" r="0.595"/><circle fill="#9855D4" cx="15.807" cy="18.16" r="1.019"/><circle fill="#9855D4" cx="11.156" cy="18.159" r="1.019"/><circle fill="#9855D4" cx="6.51" cy="18.159" r="1.019"/></svg>
