<svg id="b48313d9-a7f2-4a40-8505-0ac57630ad00" xmlns="http://www.w3.org/2000/svg" width="18" height="18" viewBox="0 0 18 18"><defs><linearGradient id="ac0afb58-624a-4534-9b45-558d28fb058f" x1="4.03" y1="20" x2="4.03" y2="11.941" gradientTransform="matrix(1, 0, 0, -1, 0, 20)" gradientUnits="userSpaceOnUse"><stop offset="0" stop-color="#86d633" /><stop offset="1" stop-color="#76bc2d" /></linearGradient><linearGradient id="b4667b89-560e-4b9c-a374-2f6487abd4e5" x1="4.03" y1="10.059" x2="4.03" y2="2" gradientUnits="userSpaceOnUse"><stop offset="0" stop-color="#86d633" /><stop offset="1" stop-color="#76bc2d" /></linearGradient><linearGradient id="b94f61f9-ce51-4f58-96d0-e2e3992a685d" x1="13.97" y1="10.059" x2="13.97" y2="2" gradientUnits="userSpaceOnUse"><stop offset="0" stop-color="#86d633" /><stop offset="1" stop-color="#76bc2d" /></linearGradient></defs><path d="M13.971,8.059a.3.3,0,0,1-.3-.3h0A3.433,3.433,0,0,0,10.242,4.33a.3.3,0,0,1-.3-.3h0a.3.3,0,0,1,.3-.3h0A3.432,3.432,0,0,0,13.67.3a.3.3,0,0,1,.3-.3h0a.3.3,0,0,1,.3.3h0A3.433,3.433,0,0,0,17.7,3.729a.3.3,0,0,1,0,.6h0a3.432,3.432,0,0,0-3.428,3.428.3.3,0,0,1-.3.3Z" fill="#5e9624" /><rect width="8.059" height="8.059" rx="0.6" fill="url(#ac0afb58-624a-4534-9b45-558d28fb058f)" /><rect y="9.941" width="8.059" height="8.059" rx="0.6" fill="url(#b4667b89-560e-4b9c-a374-2f6487abd4e5)" /><rect x="9.941" y="9.941" width="8.059" height="8.059" rx="0.6" fill="url(#b94f61f9-ce51-4f58-96d0-e2e3992a685d)" /><path d="M6.516,7.118H1.543a.6.6,0,0,1-.6-.6V1.54a.6.6,0,0,1,.6-.6H6.516a.6.6,0,0,1,.6.6V6.516a.6.6,0,0,1-.6.6Zm.6,9.339V11.484a.6.6,0,0,0-.6-.6H1.54a.6.6,0,0,0-.6.6h0v4.975a.6.6,0,0,0,.6.6H6.516a.6.6,0,0,0,.6-.6v0Zm9.942,0V11.484a.6.6,0,0,0-.6-.6H11.482a.6.6,0,0,0-.6.6h0v4.975a.6.6,0,0,0,.6.6h4.973a.6.6,0,0,0,.605-.6v-.007Z" fill="#86d633" /></svg>