<svg id="e4ba5d2b-e6e4-4101-93ac-7c6b3d568a27" xmlns="http://www.w3.org/2000/svg" width="18" height="18" viewBox="0 0 18 18"><defs><linearGradient id="bd2f9494-d3ff-43bd-b599-4ec170f090bd" x1="8.63" y1="17.59" x2="8.63" y2="0.59" gradientUnits="userSpaceOnUse"><stop offset="0" stop-color="#0078d4" /><stop offset="0.82" stop-color="#5ea0ef" /></linearGradient></defs><title>Icon-general-9</title><path d="M9.59.72H2.36a.56.56,0,0,0-.57.57v15.6a.56.56,0,0,0,.57.57H14.89a.57.57,0,0,0,.58-.57V6.56A.58.58,0,0,0,14.89,6H10.73a.57.57,0,0,1-.57-.57V1.29A.56.56,0,0,0,9.59.72Z" fill="#fff" /><path d="M9.33,1.45V5.37A1.43,1.43,0,0,0,10.76,6.8h4v9.93H2.54V1.45H9.33M9.6.59H2.26a.58.58,0,0,0-.58.58V17a.58.58,0,0,0,.58.58H15a.58.58,0,0,0,.58-.58V6.53A.58.58,0,0,0,15,6H10.76a.58.58,0,0,1-.58-.58V1.17A.58.58,0,0,0,9.6.59Z" fill="url(#bd2f9494-d3ff-43bd-b599-4ec170f090bd)" /><path d="M15.35,6.06,10,.72V5.07a1,1,0,0,0,1,1Z" fill="#0078d4" /><path d="M5.27,10.56a1.21,1.21,0,0,1-.26.83.89.89,0,0,1-.72.29,1,1,0,0,1-.39-.08V11a.55.55,0,0,0,.35.12c.27,0,.41-.21.41-.62V8.93h.61Zm.46,1v-.6a1.31,1.31,0,0,0,.36.21,1.22,1.22,0,0,0,.38.07l.2,0,.15-.06A.34.34,0,0,0,6.9,11a.2.2,0,0,0,0-.11.23.23,0,0,0,0-.14.47.47,0,0,0-.13-.11.77.77,0,0,0-.18-.1l-.23-.1a1.25,1.25,0,0,1-.47-.32.68.68,0,0,1-.16-.46.87.87,0,0,1,.08-.37A.92.92,0,0,1,6,9.07a1.16,1.16,0,0,1,.34-.14,1.84,1.84,0,0,1,.41,0,2.05,2.05,0,0,1,.37,0,1.32,1.32,0,0,1,.3.08v.56a.53.53,0,0,0-.15-.08.44.44,0,0,0-.16-.06L7,9.37H6.81l-.19,0a.59.59,0,0,0-.14.06.21.21,0,0,0-.12.2.27.27,0,0,0,0,.12.55.55,0,0,0,.11.1l.16.09.21.1a2,2,0,0,1,.29.14,1.28,1.28,0,0,1,.22.17.74.74,0,0,1,.14.22.88.88,0,0,1,.05.29.74.74,0,0,1-.09.38.68.68,0,0,1-.23.25.93.93,0,0,1-.34.13,1.84,1.84,0,0,1-.41,0,2.72,2.72,0,0,1-.42,0A1.11,1.11,0,0,1,5.73,11.52Zm3.42.16a1.26,1.26,0,0,1-.94-.38,1.38,1.38,0,0,1-.37-1,1.48,1.48,0,0,1,.37-1,1.31,1.31,0,0,1,1-.4,1.24,1.24,0,0,1,.94.38,1.4,1.4,0,0,1,.35,1,1.43,1.43,0,0,1-.37,1A1.24,1.24,0,0,1,9.15,11.68Zm0-2.27a.61.61,0,0,0-.51.24,1.16,1.16,0,0,0,0,1.27.62.62,0,0,0,.49.23.61.61,0,0,0,.5-.23,1,1,0,0,0,.18-.63,1,1,0,0,0-.17-.65A.61.61,0,0,0,9.18,9.41Zm4.18,2.22h-.62l-1.11-1.7a2.34,2.34,0,0,1-.13-.22h0c0,.09,0,.24,0,.44v1.48h-.57V8.93h.66l1.06,1.64.14.22h0a2.51,2.51,0,0,1,0-.37V8.93h.58Z" fill="#5ea0ef" /></svg>