<svg id="b1ee46c6-ba3c-46bc-b019-18f22bb5d20a" xmlns="http://www.w3.org/2000/svg" width="18" height="18" viewBox="0 0 18 18"><defs><linearGradient id="b09d7f9a-69b3-43f5-ae5f-e25dbe60ead2" x1="9" y1="1" x2="9" y2="17" gradientUnits="userSpaceOnUse"><stop offset="0" stop-color="#198ab3" /><stop offset="0.29" stop-color="#1786b1" /><stop offset="0.59" stop-color="#1079ad" /><stop offset="0.89" stop-color="#0565a5" /><stop offset="1" stop-color="#005ba1" /></linearGradient><linearGradient id="faf99971-18aa-4520-879b-e0f5be430608" x1="8.96" y1="1.1" x2="8.96" y2="16.98" gradientUnits="userSpaceOnUse"><stop offset="0" stop-color="#32d4f5" /><stop offset="0.23" stop-color="#31d0f1" /><stop offset="0.46" stop-color="#2cc3e6" /><stop offset="0.7" stop-color="#25afd4" /><stop offset="0.94" stop-color="#1c92ba" /><stop offset="1" stop-color="#198ab3" /></linearGradient></defs><title>Icon-intune-341</title><path id="b5a41e5e-621e-4e56-aaec-3e36f2ddfa5b" d="M14.37,4.17l.08.07a.14.14,0,0,0,.19,0l.74-.62,1.34-2.21a.14.14,0,0,0,0-.17L16.49,1a.14.14,0,0,0-.17,0L14.21,2.43l-.6.77a.14.14,0,0,0,0,.18l.08.08L9.33,8,8.43,7l-1,1A1.81,1.81,0,0,1,7,9.51a1.57,1.57,0,0,1-1.37.5L1.34,14.36a.27.27,0,0,0,0,.39l2.08,2.16a.27.27,0,0,0,.4,0L8,12.55a1.72,1.72,0,0,1,.5-1.44,1.6,1.6,0,0,1,1.37-.5l1-1L10,8.64Z" fill="url(#b09d7f9a-69b3-43f5-ae5f-e25dbe60ead2)" /><path d="M16.1,14.07l-1-1.07L8.42,6.15h0l-.33-.36a3.72,3.72,0,0,0-.87-3.64,3.43,3.43,0,0,0-3.09-1,.15.15,0,0,0-.08.24L5.79,3.16a.15.15,0,0,1,0,.14L5.37,5.11a.14.14,0,0,1-.1.1L3.49,5.7a.14.14,0,0,1-.14,0L1.66,3.91A.14.14,0,0,0,1.42,4a3.63,3.63,0,0,0,1,3.18,3.37,3.37,0,0,0,3.37.9l.06.07.38.39h0l7.61,8a1.58,1.58,0,0,0,2.22.08l.08-.08a1.68,1.68,0,0,0,.47-1.2A1.85,1.85,0,0,0,16.1,14.07Z" fill="url(#faf99971-18aa-4520-879b-e0f5be430608)" /></svg>