<svg data-name="Layer 1" xmlns="http://www.w3.org/2000/svg" viewBox="0 0 1693 1996.66"><path d="M0 584.44c0 26.86 14.78 53.73 44.31 74.11l694.72 479.41c59.08 40.77 155.77 40.78 214.86 0l694.77-479.34c29.55-20.38 44.32-47.26 44.32-74.13v828.13c0 26.87-14.77 53.74-44.32 74.13l-694.77 479.34c-59.09 40.77-155.78 40.76-214.86 0L44.31 1486.67C14.77 1466.29 0 1439.42 0 1412.54z"/><path d="M0 584.44c0 26.86 14.78 53.73 44.31 74.11L537 998.51l202.1-139.43c59.09-40.77 155.78-40.76 214.86 0L1156 998.53l492.67-339.9c29.55-20.39 44.32-47.26 44.32-74.13v-.38c0-26.88-14.77-53.75-44.31-74.13L954 30.58c-59.12-40.75-155.8-40.75-214.89-.01L44.34 509.91C14.79 530.29 0 557.17 0 584.03v818.2z" fill="#0f6fff"/></svg>