<?xml version="1.0" encoding="utf-8"?>
<!-- Generator: Adobe Illustrator 22.0.0, SVG Export Plug-In . SVG Version: 6.00 Build 0)  -->
<svg version="1.1" id="OpenShiftLogo" xmlns="http://www.w3.org/2000/svg" xmlns:xlink="http://www.w3.org/1999/xlink" x="0px"
	 y="0px" width="32px" height="32px" viewBox="0 0 32 32" style="enable-background:new 0 0 32 32;" xml:space="preserve">
<style type="text/css">
	.st0{fill:#A30000;}
	.st1{fill:#CC0000;}
	.st2{fill:#820000;}
</style>
<path id="shadow3" class="st0" d="M9.3,14.46993l-5.13,1.90009c0.06,0.84004,0.19,1.68007,0.41,2.49011l4.89-1.82008
	C9.28,16.20001,9.22,15.32997,9.3,14.46993 M32,8.66968c-0.36-0.76003-0.77-1.48007-1.26-2.1901l-5.13,1.90008
	c0.6,0.62003,1.1,1.32006,1.51,2.07009L32,8.66968z"/>
<path id="top" class="st1" d="M20.69,7.17961c1.04,0.50002,1.98,1.18005,2.77,2.02009l5.13-1.90008
	C23.9,0.53932,14.74-1.02075,8.12,3.78946C3.92,6.8496,1.62,11.91982,2,17.18005l5.13-1.93009
	c0.39-5.35024,4.97-9.38041,10.21-8.9604C18.5,6.36957,19.65,6.67959,20.69,7.17961 M4.89,18.72012L0,20.5402
	c0.44,1.82008,1.23,3.56016,2.31,5.07022l5.1-1.88008C6.1041,22.33848,5.22889,20.59841,4.89,18.72012"/>
<path id="bottom" class="st1" d="M26.18,16.76003c-0.08,1.18005-0.38,2.3001-0.85,3.36015c-2.25,4.87021-7.9,6.97031-12.71,4.71021
	c-1.03979-0.49714-1.97886-1.18198-2.77-2.02009l-5.13,1.91008c1.45,2.10009,3.43,3.78017,5.71,4.87021
	c7.36,3.50015,16.11,0.25001,19.54-7.25032c1.07-2.3301,1.54-4.93022,1.32-7.48033L26.18,16.76003z"/>
<path id="right_side" class="st1" d="M27.47,10.34975l-4.88,1.82008c0.91425,1.67888,1.3338,3.58257,1.21,5.49024l5.13-1.90008
	C28.76,13.87991,28.27,12.05983,27.47,10.34975"/>
<path id="shadow2" class="st2" d="M9.28,15.49998c0-0.36002,0-0.70003,0.03-1.06005l-5.13,1.90008
	c0.03,0.34002,0.06,0.67003,0.11,1.01004C4.29,17.35006,9.28,15.49998,9.28,15.49998z M31.26,7.26961
	c-0.16-0.28001-0.33-0.53002-0.52-0.78004l-5.13,1.90008c0.22,0.22001,0.44,0.48002,0.63,0.76003
	C26.24,9.1497,31.26,7.26961,31.26,7.26961z"/>
<path id="shadow" class="st0" d="M4.72,24.75039c0.38,0.56002,0.82,1.12005,1.32,1.62007l5.57-2.07009
	c-0.63-0.42002-1.23-0.90004-1.76-1.46006C9.85,22.8403,4.72,24.75039,4.72,24.75039z M31.31,14.85995l-5.13,1.90009
	c-0.05,0.76003-0.19,1.51007-0.44,2.2401l5.57-2.07009C31.37,16.23001,31.37,15.52998,31.31,14.85995"/>
</svg>
