<svg version="1.1" id="Layer_1" xmlns="http://www.w3.org/2000/svg" x="0" y="0" width="64" height="64" xml:space="preserve"><style>.st0{fill:#9e7bff}.st1{fill:#0f3659}</style><path class="st0" d="M15.8 55.6l-11.6-8c.8.5 1.8.6 2.9.2l26.7-10.1c2.3-.9 4.1-3.6 4.1-6V3.2c0-1.2-.5-2.1-1.2-2.7l11.5 7.9c.7.5 1.2 1.4 1.2 2.7v28.5c0 2.4-1.9 5.1-4.1 6L18.7 55.8c-1.2.4-2.2.3-2.9-.2z"/><path class="st0" d="M59.8 16.4l-6.5-4.5c.7.5 1.2 1.4 1.2 2.7v28.5c0 2.4-1.9 5.1-4.1 6L23.7 59.2c-1.1.4-2.2.3-2.9-.2l6.5 4.5c.7.5 1.8.6 2.9.2l26.7-10.1c2.3-.9 4.1-3.6 4.1-6V19c0-1.2-.5-2.1-1.2-2.6z"/><path class="st1" d="M48.2 8.4c-.7-.5-1.8-.6-2.9-.2L18.7 18.4c-2.3.9-4.1 3.6-4.1 6v28.5c0 1.2.5 2.1 1.2 2.7L4.3 47.7C3.5 47.1 3 46.2 3 45V16.5c0-2.4 1.9-5.1 4.1-6L33.8.3c1.1-.4 2.2-.3 2.9.2l11.5 7.9z"/><path class="st1" d="M20.8 59c-.7-.5-1.2-1.4-1.2-2.7V27.8c0-2.4 1.9-5.1 4.1-6l26.7-10.1c1.1-.4 2.2-.3 2.9.2l6.5 4.5c-.7-.5-1.8-.6-2.9-.2L30.2 26.3c-2.3.9-4.1 3.6-4.1 6v28.5c0 1.2.5 2.1 1.2 2.7L20.8 59z"/></svg>