<svg id="a77476ec-9e85-432a-ab9d-7f79bc9f41f3" xmlns="http://www.w3.org/2000/svg" width="18" height="18" viewBox="0 0 18 18"><defs><linearGradient id="b734931e-8934-4af3-8c82-4538553c4341" x1="8.41" y1="17.49" x2="8.41" y2="0.44" gradientUnits="userSpaceOnUse"><stop offset="0" stop-color="#0078d4" /><stop offset="0.06" stop-color="#0a7cd7" /><stop offset="0.34" stop-color="#2e8ce1" /><stop offset="0.59" stop-color="#4897e9" /><stop offset="0.82" stop-color="#589eed" /><stop offset="1" stop-color="#5ea0ef" /></linearGradient></defs><title>Icon-iot-203</title><g><path d="M15.23,3.76,13.85,2.42h-.14l-1.86,1-1.33-.59L9.68.44,7.75.46,7.66.73,7,2.81l-1.33.57-2.26-1L2.07,3.73,2.21,4l1,1.93L2.68,7.26.36,8.13v1.95l.27.09,2.08.64.57,1.33-1,2.27,1.39,1.35.25-.14,1.93-1,.62.76,1.6,2.11,1.93,0,.09-.27L10.78,16l1.1-.55,2.18-.13,1.36-1.39V13.8l.27-1,.79-2.37ZM8.87,13.33A4.37,4.37,0,1,1,13.23,9,4.36,4.36,0,0,1,8.87,13.33Z" fill="url(#b734931e-8934-4af3-8c82-4538553c4341)" /><path d="M11.88,8.89c0,1.94-2.39,3.5-2.91,3.82a.23.23,0,0,1-.2,0c-.52-.32-2.9-1.88-2.9-3.82V6.56a.19.19,0,0,1,.18-.19c1.86,0,1.43-.85,2.82-.85s1,.8,2.82.85a.2.2,0,0,1,.19.19Z" fill="#32bedd" /><path d="M11.63,8.91c0,1.78-2.19,3.21-2.67,3.5a.19.19,0,0,1-.18,0c-.48-.29-2.66-1.72-2.66-3.5V6.77a.17.17,0,0,1,.16-.17c1.71,0,1.32-.78,2.59-.78s.89.74,2.59.78a.18.18,0,0,1,.17.17Z" fill="#50e6ff" /><path d="M10.08,8.56H9.91V8a1.14,1.14,0,0,0-.3-.77.94.94,0,0,0-.74-.32,1,1,0,0,0-.74.32,1.14,1.14,0,0,0-.3.77v.6H7.66a.14.14,0,0,0-.14.14v1.56a.14.14,0,0,0,.14.13h2.42a.13.13,0,0,0,.14-.13V8.7A.14.14,0,0,0,10.08,8.56Zm-.66,0H8.32V8a.59.59,0,0,1,.17-.42.52.52,0,0,1,.38-.17.5.5,0,0,1,.38.17l.07.08h0a.67.67,0,0,1,.1.34Z" fill="#f2f2f2" /><path d="M14.16,2.39,14.87.92A.15.15,0,0,0,14.8.71h-.08l-5.51.42a.16.16,0,0,0-.14.17.13.13,0,0,0,0,.08l3.12,4.5a.16.16,0,0,0,.22,0l.05-.06.62-1.29a.17.17,0,0,1,.21-.08l0,0A6.33,6.33,0,0,1,15.61,9a6.42,6.42,0,0,1-6.29,6.56,6.68,6.68,0,0,1-3.11-.7.16.16,0,0,0-.21.06L5.18,16.4a.16.16,0,0,0,.06.21h0A8.52,8.52,0,0,0,16.69,13a8.31,8.31,0,0,0,.95-4.08A8.42,8.42,0,0,0,14.2,2.58.17.17,0,0,1,14.16,2.39Z" fill="#86d633" /></g></svg>