<?xml version="1.0" encoding="utf-8"?>
<svg version="1.1" id="Padding" xmlns="http://www.w3.org/2000/svg" xmlns:xlink="http://www.w3.org/1999/xlink" x="0px" y="0px"
	 viewBox="0 0 32 32" style="enable-background:new 0 0 32 32;" xml:space="preserve">
<style type="text/css">
	.st0{fill:url(#SVGID_1_);}
</style>
<g>

		<linearGradient id="SVGID_1_" gradientUnits="userSpaceOnUse" x1="1.2299" y1="1.4089" x2="29.5689" y2="30.7547" gradientTransform="matrix(1 0 0 -1 0 32)">
		<stop  offset="0.1" style="stop-color:#4589FF"/>
		<stop  offset="0.8995" style="stop-color:#0043CE"/>
	</linearGradient>
	<path class="st0" d="M4.2,7.9H10c1,0,2,0.2,2.8,0.5c0.9,0.3,1.6,0.8,2.2,1.5c0.6,0.7,1.1,1.5,1.4,2.5s0.5,2.2,0.5,3.5
		s-0.2,2.5-0.5,3.5s-0.8,1.8-1.4,2.5c-0.6,0.7-1.3,1.2-2.2,1.5S11,23.9,10,23.9H4.2C4.2,23.9,4.2,7.9,4.2,7.9z M10.1,21.3
		c1.1,0,2-0.3,2.7-1s1-1.7,1-3.1v-2.5c0-1.4-0.3-2.4-1-3.1s-1.6-1-2.7-1H7.3v10.7H10.1z M23.8,24.3c-1.1,0-2.1-0.2-2.9-0.6
		s-1.5-0.9-2.1-1.6l1.8-1.7c0.4,0.5,0.9,0.9,1.5,1.2c0.5,0.3,1.1,0.4,1.8,0.4s1.2-0.1,1.5-0.4s0.5-0.6,0.5-1s-0.1-0.6-0.3-0.8
		c-0.2-0.2-0.6-0.3-1.1-0.4l-1.2-0.2C22,19,21,18.6,20.3,18s-1-1.4-1-2.5c0-0.6,0.1-1.1,0.3-1.6c0.2-0.5,0.5-0.9,0.9-1.2
		s0.9-0.6,1.4-0.8c0.6-0.2,1.2-0.3,1.9-0.3c0.6,0,1.1,0,1.6,0.1s0.9,0.2,1.2,0.4s0.7,0.4,1,0.6s0.6,0.5,0.9,0.8l-1.7,1.7
		c-0.4-0.4-0.8-0.7-1.3-0.9s-1-0.4-1.6-0.4s-1.1,0.1-1.4,0.3s-0.4,0.5-0.4,0.9s0.1,0.7,0.4,0.9c0.2,0.2,0.5,0.3,1.2,0.5
		c0.3,0.1,1.3,0.3,1.3,0.3c2.4,0.3,3.7,1.8,3.7,3.3c0,0.6,0,1.1-0.3,1.6c-0.2,0.5-0.5,0.9-0.9,1.3c-0.4,0.4-0.7,0.6-1.5,1
		C25.2,24.4,24.6,24.3,23.8,24.3z"/>
</g>
</svg>
