<?xml version="1.0" encoding="UTF-8"?>
<svg width="20px" height="20px" viewBox="0 0 20 20" version="1.1" xmlns="http://www.w3.org/2000/svg" xmlns:xlink="http://www.w3.org/1999/xlink">
    <title>Thicker WoC</title>
    <g id="Thicker-WoC" stroke="none" stroke-width="1" fill="none" fill-rule="evenodd">
        <g id="Group">
            <path d="M17.0939536,3.04308228 C15.5619536,2.16008228 13.6379536,2.05808228 12.0159536,2.77708228 L11.9649536,2.79908228 L11.9289536,2.75808228 C11.5339536,2.31308228 11.0699536,1.93508228 10.5509536,1.63608228 C9.69195356,1.14008228 8.71095356,0.878082275 7.71395356,0.878082275 C6.73695356,0.878082275 5.77595356,1.13408228 4.93495356,1.62008228 C2.64395356,2.94308228 1.58795356,5.72908228 2.42395356,8.24508228 L2.44095356,8.29808228 L2.39695356,8.33008228 C0.951953564,9.38408228 0.0889535645,11.0780823 0.0889535645,12.8610823 C0.0889535645,14.8900823 1.13195356,16.7040823 2.87895356,17.7120823 C3.12095356,17.8520823 3.37695356,17.9750823 3.63895356,18.0780823 C3.71895356,18.1100823 3.80495356,18.1260823 3.89095356,18.1260823 C4.17695356,18.1260823 4.42895356,17.9550823 4.53395356,17.6890823 C4.65795356,17.3740823 4.53095356,17.0080823 4.23695356,16.8380823 C4.20695356,16.8210823 4.17495356,16.8050823 4.14495356,16.7940823 C3.94695356,16.7160823 3.75395356,16.6220823 3.57095356,16.5170823 C2.25495356,15.7570823 1.46895356,14.3900823 1.46895356,12.8610823 C1.46895356,11.3350823 2.29695356,9.92108228 3.62895356,9.17308228 L3.72095356,9.10808228 C3.74295356,9.09108228 3.76095356,9.07408228 3.78095356,9.05408228 C3.80195356,9.03208228 3.80995356,9.02408228 3.81895356,9.01408228 C3.83595356,8.99308228 3.84995356,8.97308228 3.87095356,8.94008228 L3.89395356,8.90408228 C3.90595356,8.88208228 3.91495356,8.86108228 3.93295356,8.81708228 L3.94495356,8.78608228 C3.95395356,8.75908228 3.95895356,8.73408228 3.96895356,8.68708228 L3.97495356,8.65108228 C3.97695356,8.62808228 3.97795356,8.60308228 3.97795356,8.58208228 C3.97895356,8.55008228 3.97895356,8.53408228 3.97695356,8.51808228 C3.97495356,8.49708228 3.97195356,8.47408228 3.96795356,8.44908228 C3.96295356,8.42708228 3.95995356,8.40808228 3.95495356,8.39008228 C3.94795356,8.36408228 3.93895356,8.34108228 3.93195356,8.32708228 L3.91395356,8.27608228 C2.98395356,6.30608228 3.73495356,3.90708228 5.62495356,2.81508228 C6.90595356,2.07708228 8.58195356,2.08608228 9.86195356,2.82608228 C10.4039536,3.13908228 10.8569536,3.55608228 11.2109536,4.06608228 L11.2379536,4.09808228 C11.2529536,4.11708228 11.2689536,4.13608228 11.2849536,4.15308228 C11.3009536,4.17008228 11.3179536,4.18408228 11.3399536,4.20208228 C11.3589536,4.21808228 11.3749536,4.23108228 11.3899536,4.24008228 L11.4379536,4.27008228 C11.4639536,4.28408228 11.4859536,4.29608228 11.5049536,4.30408228 C11.5179536,4.31008228 11.5319536,4.31408228 11.5509536,4.32108228 C11.5899536,4.33408228 11.6119536,4.34008228 11.6339536,4.34508228 C11.6469536,4.34808228 11.6609536,4.35008228 11.6849536,4.35308228 C11.7119536,4.35608228 11.7389536,4.35908228 11.7689536,4.36008228 L11.8139536,4.35808228 C11.8469536,4.35608228 11.8729536,4.35408228 11.9009536,4.34908228 L11.9419536,4.33908228 C11.9789536,4.32908228 12.0019536,4.32308228 12.0289536,4.31308228 L12.1189536,4.27008228 C13.4239536,3.49908228 15.1079536,3.48908228 16.4039536,4.23908228 C17.9169536,5.11208228 18.7289536,6.79408228 18.4709536,8.52408228 C18.4449536,8.70608228 18.4909536,8.88808228 18.5989536,9.03508228 C18.6569536,9.11208228 18.7269536,9.17508228 18.8079536,9.22208228 C18.8819536,9.26508228 18.9639536,9.29408228 19.0529536,9.30808228 C19.4289536,9.36008228 19.7819536,9.09508228 19.8369536,8.72708228 C20.1779536,6.43308228 19.1009536,4.20208228 17.0939536,3.04308228 L17.0939536,3.04308228 Z" id="Path" fill="#1B76BC"></path>
            <path d="M14.2976536,17.7193823 L14.2716536,17.7663823 L9.07165356,17.7663823 L10.4106536,15.4443823 L10.4916536,15.4683823 C10.7626536,15.5473823 11.0396536,15.5883823 11.3166536,15.5883823 C12.6686536,15.5883823 13.8376536,14.6693823 14.1586536,13.3533823 L14.1756536,13.2793823 L16.8616536,13.2773823 L14.2976536,17.7193823 Z M10.4956536,9.85238228 L10.4146536,9.87638228 L9.52265356,8.33438228 L9.07565356,7.54938228 L14.2606536,7.54938228 L16.8586536,12.0493823 L14.1786536,12.0493823 L14.1586536,11.9673823 C13.9686536,11.1923823 13.4656536,10.5203823 12.7786536,10.1233823 C12.1016536,9.73138228 11.2766536,9.62438228 10.4956536,9.85238228 L10.4956536,9.85238228 Z M10.1906536,11.5363823 C10.4926536,11.2353823 10.8926536,11.0693823 11.3176536,11.0693823 C11.5976536,11.0693823 11.8726536,11.1423823 12.1126536,11.2823823 C12.6056536,11.5663823 12.9126536,12.0953823 12.9126536,12.6633823 C12.9126536,13.5423823 12.1966536,14.2583823 11.3176536,14.2583823 C11.0396536,14.2583823 10.7646536,14.1843823 10.5236536,14.0453823 C10.0296536,13.7613823 9.72265356,13.2313823 9.72265356,12.6633823 C9.72265356,12.2383823 9.88865356,11.8383823 10.1906536,11.5363823 L10.1906536,11.5363823 Z M5.44465356,12.7123823 L5.41465356,12.6603823 L8.00365356,8.17638228 L8.01165356,8.16038228 L9.31565356,10.4173823 L9.35765356,10.4893823 L9.29665356,10.5473823 C8.71065356,11.1073823 8.38865356,11.8573823 8.38965356,12.6603823 C8.38865356,13.4643823 8.71165356,14.2153823 9.29865356,14.7773823 L9.35965356,14.8333823 L8.01165356,17.1573823 L5.44465356,12.7123823 Z M18.2286536,11.7703823 L15.5426536,7.11938228 C15.3876536,6.84938228 15.1626536,6.62438228 14.8916536,6.46838228 C14.6196536,6.31138228 14.3126536,6.22838228 14.0016536,6.22838228 L13.9986536,6.22838228 L8.63265356,6.22838228 C8.47065356,6.21838228 8.30265356,6.25238228 8.14565356,6.29938228 C7.86665356,6.37738228 7.60765356,6.52538228 7.39565356,6.72838228 C7.27465356,6.84738228 7.17065356,6.98038228 7.08665356,7.12338228 L4.40465356,11.7673823 C4.08765356,12.3193823 4.08765356,13.0023823 4.40465356,13.5513823 L7.08965356,18.2083823 C7.18165356,18.3603823 7.28565356,18.4903823 7.39665356,18.5963823 C7.50365356,18.6983823 7.62165356,18.7853823 7.74565356,18.8573823 C7.86965356,18.9283823 8.00065356,18.9853823 8.13365356,19.0233823 C8.29265356,19.0693823 8.46065356,19.0933823 8.63165356,19.0933823 L14.0036536,19.0933823 C14.6366536,19.0933823 15.2276536,18.7513823 15.5456536,18.2013823 L18.2286536,13.5543823 C18.5466536,13.0043823 18.5466536,12.3203823 18.2286536,11.7703823 L18.2286536,11.7703823 Z" id="Fill-3" fill="#1B76BC"></path>
            <rect id="Rectangle" x="0" y="0" width="20" height="20"></rect>
        </g>
    </g>
</svg>