<?xml version="1.0" encoding="UTF-8"?>
<svg width="20px" height="20px" viewBox="0 0 20 20" version="1.1" xmlns="http://www.w3.org/2000/svg" xmlns:xlink="http://www.w3.org/1999/xlink">
    <title>Thicker Db2</title>
    <g id="Thicker-Db2" stroke="none" stroke-width="1" fill="none" fill-rule="evenodd">
        <g id="Group">
            <path d="M6.41529309,15.9418177 L6.98629309,16.1678177 C7.04429309,16.1868177 7.10229309,16.2058177 7.16229309,16.2238177 L7.20429309,16.2358177 C7.26929309,16.2548177 7.33529309,16.2738177 7.41329309,16.2938177 L7.76429309,16.3778177 C7.84729309,16.3968177 7.93129309,16.4138177 8.02329309,16.4308177 L8.62129309,16.5248177 C8.71029309,16.5358177 8.79829309,16.5458177 8.89829309,16.5568177 L9.87529309,16.6178177 C10.0592931,16.6228177 10.2422931,16.6228177 10.4282931,16.6178177 L10.9602931,16.5938177 L11.4122931,16.5558177 C11.5012931,16.5458177 11.5912931,16.5358177 11.7122931,16.5208177 L12.2842931,16.4298177 C12.3702931,16.4138177 12.4542931,16.3968177 12.5432931,16.3768177 L12.8972931,16.2908177 C12.9652931,16.2738177 13.0322931,16.2548177 13.0992931,16.2348177 L13.1372931,16.2238177 C13.2032931,16.2048177 13.2672931,16.1838177 13.3352931,16.1608177 L13.5412931,16.0868177 L13.8852931,15.9338177 L13.8852931,17.0718177 C13.8592931,17.2648177 12.6402931,18.0148177 10.1502931,18.0148177 C7.66129309,18.0148177 6.44129309,17.2648177 6.41529309,17.0728177 L6.41529309,15.9418177 Z M12.3982931,9.74181771 C12.1702931,9.79681771 11.9252931,9.84281771 11.6712931,9.87981771 C10.7022931,10.0168177 9.59429309,10.0168177 8.62829309,9.87981771 C8.37429309,9.84281771 8.12929309,9.79681771 7.90029309,9.74181771 C6.75729309,9.46881771 6.43329309,9.10881771 6.41529309,9.04381771 C6.44229309,8.85081771 7.66529309,8.10481771 10.1502931,8.10481771 C12.6352931,8.10481771 13.8582931,8.85081771 13.8862931,9.03481771 C13.8672931,9.10881771 13.5432931,9.46881771 12.3982931,9.74181771 L12.3982931,9.74181771 Z M7.73929309,13.6978177 C9.18129309,14.0158177 11.1192931,14.0158177 12.5612931,13.6978177 C12.7662931,13.6528177 12.9562931,13.6038177 13.1272931,13.5518177 C13.2862931,13.5048177 13.4372931,13.4538177 13.5792931,13.3988177 C13.6852931,13.3588177 13.7872931,13.3148177 13.8852931,13.2698177 L13.8852931,14.3928177 C13.8582931,14.5858177 12.6392931,15.3348177 10.1502931,15.3348177 C7.66329309,15.3348177 6.44129309,14.5858177 6.41529309,14.3938177 L6.41529309,13.2698177 C6.51229309,13.3148177 6.61429309,13.3588177 6.72129309,13.3998177 C6.86129309,13.4528177 7.01329309,13.5038177 7.17129309,13.5518177 C7.35029309,13.6058177 7.54129309,13.6548177 7.73929309,13.6978177 L7.73929309,13.6978177 Z M6.68829309,10.7078177 L6.72029309,10.7198177 C6.78129309,10.7428177 6.84329309,10.7658177 6.90629309,10.7878177 L6.97129309,10.8108177 C7.03329309,10.8308177 7.09729309,10.8508177 7.16629309,10.8718177 L7.20429309,10.8838177 C7.28229309,10.9068177 7.36029309,10.9278177 7.44229309,10.9488177 L7.50429309,10.9638177 C7.56729309,10.9808177 7.63229309,10.9958177 7.69729309,11.0108177 L7.76529309,11.0258177 C7.84829309,11.0438177 7.93129309,11.0608177 8.01929309,11.0768177 L8.05929309,11.0848177 C8.13229309,11.0978177 8.20529309,11.1098177 8.28129309,11.1228177 L8.35329309,11.1338177 C8.43229309,11.1458177 8.51329309,11.1578177 8.62029309,11.1718177 C8.70929309,11.1838177 8.79829309,11.1928177 8.89229309,11.2038177 L8.96329309,11.2108177 C9.03529309,11.2168177 9.10829309,11.2238177 9.17829309,11.2298177 L9.24529309,11.2348177 C9.33529309,11.2418177 9.42629309,11.2478177 9.51929309,11.2528177 L9.87329309,11.2648177 C10.0582931,11.2698177 10.2412931,11.2698177 10.4262931,11.2648177 L10.7842931,11.2528177 C10.8752931,11.2478177 10.9662931,11.2418177 11.0582931,11.2338177 L11.1192931,11.2298177 C11.1892931,11.2238177 11.2602931,11.2178177 11.3372931,11.2108177 L11.4112931,11.2028177 C11.5012931,11.1928177 11.5912931,11.1838177 11.7072931,11.1678177 C11.7872931,11.1578177 11.8682931,11.1458177 11.9472931,11.1338177 L12.0202931,11.1218177 C12.0952931,11.1098177 12.1682931,11.0978177 12.2422931,11.0848177 L12.2842931,11.0758177 C12.3692931,11.0608177 12.4532931,11.0438177 12.5382931,11.0248177 L12.6032931,11.0108177 C12.6682931,10.9958177 12.7322931,10.9808177 12.7952931,10.9648177 L12.8602931,10.9488177 C12.9402931,10.9278177 13.0192931,10.9058177 13.0982931,10.8828177 L13.1392931,10.8708177 C13.2042931,10.8508177 13.2682931,10.8308177 13.3312931,10.8088177 L13.3942931,10.7878177 C13.4502931,10.7688177 13.5052931,10.7478177 13.5782931,10.7218177 L13.6172931,10.7068177 C13.6872931,10.6778177 13.7552931,10.6498177 13.8262931,10.6178177 L13.8792931,10.5928177 L13.8852931,10.5898177 L13.8862931,11.7078177 C13.8712931,11.7708177 13.5482931,12.1438177 12.3882931,12.4188177 C12.1602931,12.4728177 11.9122931,12.5188177 11.6512931,12.5568177 C10.7112931,12.6888177 9.58929309,12.6888177 8.64829309,12.5568177 C8.39429309,12.5208177 8.14629309,12.4738177 7.91329309,12.4188177 C6.75229309,12.1438177 6.43029309,11.7708177 6.41529309,11.7148177 L6.41529309,10.5908177 C6.41829309,10.5928177 6.42129309,10.5938177 6.42429309,10.5958177 L6.47729309,10.6188177 C6.54429309,10.6498177 6.61429309,10.6788177 6.68829309,10.7078177 L6.68829309,10.7078177 Z M10.1502931,6.81881771 C7.73229309,6.81881771 5.12929309,7.51481771 5.12929309,9.04181771 L5.12929309,17.0728177 C5.12929309,18.6038177 7.73229309,19.2998177 10.1502931,19.2998177 C12.5682931,19.2998177 15.1712931,18.6038177 15.1712931,17.0728177 L15.1712931,9.04181771 C15.1712931,7.51481771 12.5682931,6.81881771 10.1502931,6.81881771 L10.1502931,6.81881771 Z" id="Fill-1" fill="#1B76BC"></path>
            <path d="M18.8312931,6.57801771 C18.0582931,5.64201771 16.9682931,5.06301771 15.7632931,4.94901771 C15.4722931,4.92201771 15.1752931,4.92401771 14.8802931,4.95301771 C14.4262931,2.66901771 12.5052931,0.931017715 10.1702931,0.709017715 C7.49429309,0.452017715 5.00929309,2.29401771 4.45829309,4.91001771 C2.21729309,5.02301771 0.381293091,6.77001771 0.167293091,9.01301771 C-0.0257069092,11.0460177 1.17129309,12.9680177 3.07729309,13.6870177 C3.13129309,13.7090177 3.18929309,13.7230177 3.24929309,13.7280177 C3.26929309,13.7300177 3.29029309,13.7310177 3.31029309,13.7310177 C3.57829309,13.7310177 3.82229309,13.5650177 3.91829309,13.3100177 C4.04429309,12.9750177 3.87429309,12.6000177 3.53929309,12.4740177 C2.17829309,11.9600177 1.32329309,10.5870177 1.46129309,9.13501771 C1.62829309,7.37601771 3.19629309,6.06201771 4.96029309,6.21501771 C5.32029309,6.24901771 5.62829309,5.98001771 5.66129309,5.62701771 C5.87229309,3.41901771 7.83329309,1.79501771 10.0472931,2.00201771 C12.0282931,2.19001771 13.5542931,3.76801771 13.6772931,5.75401771 C13.6892931,5.94901771 13.7872931,6.12601771 13.9462931,6.24101771 C14.1052931,6.35701771 14.3042931,6.39401771 14.4942931,6.34101771 C14.8732931,6.24001771 15.2572931,6.20701771 15.6402931,6.24201771 C17.4192931,6.41101771 18.7282931,7.99601771 18.5602931,9.77501771 C18.4572931,10.8490177 17.8302931,11.7990177 16.8812931,12.3160177 C16.5682931,12.4880177 16.4522931,12.8830177 16.6232931,13.1970177 C16.7062931,13.3490177 16.8442931,13.4600177 17.0102931,13.5090177 C17.1772931,13.5570177 17.3522931,13.5390177 17.5042931,13.4560177 C18.8322931,12.7310177 19.7102931,11.4010177 19.8522931,9.89801771 C19.9672931,8.69301771 19.6042931,7.51401771 18.8312931,6.57801771" id="Fill-3" fill="#1B76BC"></path>
            <rect id="Rectangle-Copy" x="0" y="0" width="20" height="20"></rect>
        </g>
    </g>
</svg>