<?xml version="1.0" encoding="utf-8"?>
<svg version="1.1" id="Padding" xmlns="http://www.w3.org/2000/svg" xmlns:xlink="http://www.w3.org/1999/xlink" x="0px" y="0px"
	 viewBox="0 0 32 32" style="enable-background:new 0 0 32 32;" xml:space="preserve">
<style type="text/css">
	.st0{fill:url(#SVGID_1_);}
</style>
<linearGradient id="SVGID_1_" gradientUnits="userSpaceOnUse" x1="0.9903" y1="30.4217" x2="30.1814" y2="1.2305">
	<stop  offset="9.954491e-02" style="stop-color:#EE5396"/>
	<stop  offset="0.8983" style="stop-color:#8A3FFC"/>
</linearGradient>
<path class="st0" d="M5.2,24V7.9h10.6v2.7H8.3v3.9H15v2.7H8.3v4.1h7.5V24H5.2z M22.8,24.3c-1.1,0-2.1-0.2-2.9-0.6s-1.5-0.9-2.1-1.6
	l1.8-1.7c0.4,0.5,0.9,0.9,1.5,1.2c0.5,0.3,1.1,0.4,1.8,0.4s1.2-0.1,1.5-0.4s0.5-0.6,0.5-1s-0.1-0.6-0.3-0.8
	c-0.2-0.2-0.6-0.3-1.1-0.4l-1.2-0.2c-1.3-0.2-2.3-0.5-3-1.1s-1-1.4-1-2.5c0-0.6,0.1-1.1,0.3-1.6c0.2-0.5,0.6-1,1-1.3
	s0.8-0.5,1.3-0.7c0.6-0.2,1.2-0.3,1.9-0.3c0.6,0,1.1,0,1.6,0.1s0.8,0.2,1.2,0.4c0.4,0.2,0.7,0.4,1,0.6s0.6,0.5,0.9,0.8l-1.7,1.7
	c-0.4-0.4-0.8-0.7-1.3-0.9s-1-0.4-1.6-0.4c-0.7,0-1.1,0.1-1.4,0.3s-0.4,0.5-0.4,0.9s0.1,0.7,0.4,0.9c0.2,0.2,0.6,0.3,1.2,0.4
	c0.3,0.1,1.2,0.2,1.2,0.2c2.2,0.3,3.8,1.5,3.8,3.5c0,0.6,0,1.1-0.2,1.6c-0.3,0.5-0.5,1-0.9,1.3s-0.7,0.6-1.5,0.9
	C24.2,24.3,23.5,24.3,22.8,24.3z"/>
</svg>
