<svg xmlns="http://www.w3.org/2000/svg" viewBox="0 0 32 32"><path d="M16 1.08L4.51 7.71 4 6.84 15.75.07a.5.5 0 0 1 .5 0l11.69 6.74-.5.87zM2.76 9.6l1-.18Q5.34 18.23 8.9 23.1a20 20 0 0 0 5.94 5.83l-.49.88a20.91 20.91 0 0 1-6.25-6.12Q4.38 18.61 2.76 9.6zm14.86 20.2l-.47-.89a17.75 17.75 0 0 0 6.43-6.28q3.08-4.77 4.67-13.27l1 .18q-1.62 8.69-4.81 13.63a18.79 18.79 0 0 1-6.82 6.63z"/><path d="M29 10a2 2 0 1 1 2-2 2 2 0 0 1-2 2zm0-1a1 1 0 1 0-1-1 1 1 0 0 0 1 1z"/><path data-name="circle" d="M3 10a2 2 0 1 1 2-2 2 2 0 0 1-2 2zm0-1a1 1 0 1 0-1-1 1 1 0 0 0 1 1z"/><path data-name="circle" d="M16 32a2 2 0 1 1 2-2 2 2 0 0 1-2 2zm0-1a1 1 0 1 0-1-1 1 1 0 0 0 1 1z"/><path d="M8 21.44v.11a.45.45 0 0 1-.33.42.37.37 0 0 1-.21.06.45.45 0 0 1-.39-.25.45.45 0 0 1-.07-.23V9.45a.31.31 0 0 1 0-.1C7.24 7.85 11.07 7 16 7s8.76.85 9 2.35a.31.31 0 0 1 0 .1v12.1a.31.31 0 0 1 0 .1c-.24 1.5-4.07 2.35-9 2.35a31.28 31.28 0 0 1-5.29-.42.53.53 0 0 1-.4-.6.48.48 0 0 1 .53-.45 30.78 30.78 0 0 0 5.16.41 27.83 27.83 0 0 0 6-.57 7.24 7.24 0 0 0 1.72-.58 1.68 1.68 0 0 0 .33-.23v-.11a1.68 1.68 0 0 0-.33-.23 7.24 7.24 0 0 0-1.72-.59 27.83 27.83 0 0 0-6-.57 27.83 27.83 0 0 0-5.95.57 7.24 7.24 0 0 0-1.72.58 1.68 1.68 0 0 0-.33.23zm0-1.19c1.48-.81 4.45-1.25 8-1.25s6.52.44 8 1.25v-3.5c-1.48.81-4.45 1.25-8 1.25a31.28 31.28 0 0 1-5.29-.42.53.53 0 0 1-.4-.6.48.48 0 0 1 .53-.45 30.78 30.78 0 0 0 5.16.41 27.83 27.83 0 0 0 6-.57 7.24 7.24 0 0 0 1.72-.58 1.68 1.68 0 0 0 .33-.23v-.12a1.68 1.68 0 0 0-.33-.23 7.24 7.24 0 0 0-1.72-.58 27.83 27.83 0 0 0-6-.57 27.83 27.83 0 0 0-5.95.57 7.24 7.24 0 0 0-1.72.58 1.68 1.68 0 0 0-.33.23zm0-6c1.48-.81 4.45-1.25 8-1.25s6.52.44 8 1.25v-3.5c-1.48.81-4.45 1.25-8 1.25a31.28 31.28 0 0 1-5.29-.42.53.53 0 0 1-.4-.6.48.48 0 0 1 .53-.45 30.78 30.78 0 0 0 5.16.41 27.83 27.83 0 0 0 6-.57 7.24 7.24 0 0 0 1.72-.58 1.68 1.68 0 0 0 .28-.23v-.11a1.68 1.68 0 0 0-.33-.23A7.24 7.24 0 0 0 22 8.63a27.83 27.83 0 0 0-6-.57 27.83 27.83 0 0 0-5.95.57 7.24 7.24 0 0 0-1.72.58 1.68 1.68 0 0 0-.33.23z"/></svg>