<?xml version="1.0" encoding="utf-8"?>
<svg version="1.1" id="Padding" xmlns="http://www.w3.org/2000/svg" xmlns:xlink="http://www.w3.org/1999/xlink" x="0px" y="0px"
	 viewBox="0 0 32 32" style="enable-background:new 0 0 32 32;" xml:space="preserve">
<style type="text/css">
	.st0{fill:url(#SVGID_1_);}
</style>
<linearGradient id="SVGID_1_" gradientUnits="userSpaceOnUse" x1="1.7203" y1="-0.4993" x2="32.0264" y2="29.8067" gradientTransform="matrix(1 0 0 -1 0 32)">
	<stop  offset="0.1" style="stop-color:#009D9A"/>
	<stop  offset="0.9" style="stop-color:#24A148"/>
</linearGradient>
<path class="st0" d="M14.3,12.7l-4.6,8.4l-4.6-8.7V24H2.2V7.9h3.4l4.2,7.9l4.1-7.9h3.3V24h-2.9V12.7L14.3,12.7z M31.7,25
	c0,0.6-0.1,1.2-0.3,1.7c-0.2,0.5-0.6,0.9-1.1,1.2c-0.5,0.3-1.2,0.6-2.1,0.8c-0.9,0.2-1.7,0.2-2.8,0.2c-1,0-1.9-0.1-2.6-0.2
	s-1.2-0.2-1.7-0.5c-0.5-0.3-0.8-0.6-1-1s-0.3-0.8-0.3-1.2c0-0.7,0.2-1.2,0.6-1.6s0.9-0.6,1.6-0.7v-0.3c-0.5-0.1-0.9-0.4-1.1-0.7
	c-0.3-0.4-0.4-0.8-0.4-1.3c0-0.3,0.1-0.6,0.2-0.8c0.1-0.2,0.2-0.4,0.4-0.6s0.5-0.4,0.8-0.5s0.5-0.1,0.8-0.2v-0.1
	c-0.7-0.3-1.3-0.8-1.6-1.4s-0.5-1.3-0.5-2.1c0-1.2,0.4-2.2,1.3-3c0.8-0.7,2.1-1.1,3.7-1.1c0.4,0,0.8,0,1.2,0.1
	c0.5,0.1,0.6,0.1,0.9,0.2v-0.4c0-1.2,0.6-1.7,1.7-1.7H31v2.3h-2.6v0.3c0.6,0.4,1.1,0.8,1.4,1.4c0.3,0.6,0.5,1.2,0.5,2
	c0,1.2-0.4,2.2-1.3,2.9c-0.8,0.7-2.1,1.1-3.7,1.1c-0.7,0-1.3-0.1-1.8-0.2c-0.2,0.1-0.4,0.2-0.6,0.4c-0.2,0.2-0.3,0.4-0.3,0.7
	c0,0.6,0.5,0.9,1.6,0.9h3.2c1.5,0,2.5,0.3,3.2,0.9S31.7,23.9,31.7,25z M28.9,25.4c0-0.4-0.2-0.7-0.5-0.9c-0.3-0.2-0.8-0.3-1.6-0.3
	h-4.1c-0.4,0.3-0.6,0.7-0.6,1.2s0.2,0.8,0.6,1.1c0.4,0.3,1,0.4,2,0.4h1.5c1,0,1.7-0.1,2.1-0.4S28.9,25.9,28.9,25.4z M25.3,17.8
	c1.4,0,2.2-0.6,2.2-1.8v-0.4c0-1.2-0.7-1.8-2.2-1.8c-1.4,0-2.2,0.6-2.2,1.8V16C23.2,17.2,23.9,17.8,25.3,17.8z"/>
</svg>
