<svg version="1.1" id="Padding" xmlns="http://www.w3.org/2000/svg" x="0" y="0" viewBox="0 0 32 32" xml:space="preserve"><style></style><linearGradient id="SVGID_1_" gradientUnits="userSpaceOnUse" x1="7.4037185" y1="26.8002033" x2="26.4823322" y2="7.7215896"><stop offset=".1008343" stop-color="#a56eff"/><stop offset=".9" stop-color="#0043ce"/></linearGradient><path d="M15.3212891 9.3144531c-.4130859-.4370117-.9160156-.7739258-1.5058594-1.0117188-.5908203-.237793-1.2539062-.3569336-1.9892578-.3569336H4.6035156V24h3.0361328v-6.1181641h4.1865234c.7353516 0 1.3984375-.1181641 1.9892578-.3564453.5898438-.2373047 1.0927734-.574707 1.5058594-1.0117188.4140625-.4370117.7285156-.9584961.9433594-1.5639648.2148438-.605957.3222656-1.2841797.3222656-2.0356445 0-.7358398-.1074219-1.4106445-.3222656-2.0239258s-.5292968-1.1386719-.9433593-1.5756836zm-1.8857422 4.128418c0 .5830078-.1689453 1.0317383-.5058594 1.3457031-.3369141.3144531-.7978516.4711914-1.3798828.4711914H7.6396484v-4.6689453h3.9101562c.5820312 0 1.0429688.1538086 1.3798828.4599609.3369141.3071289.5058594.7514648.5058594 1.3339844v1.0581055zm14.8466797 9.0512695c-.6669922-.6054688-1.7363281-.9091797-3.2080078-.9091797h-3.2197266c-1.0429688 0-1.5644531-.2988281-1.5644531-.8974609 0-.2597656.0839844-.4785156.2529297-.6542969.1689453-.1767578.3681641-.3183594.5976562-.4257812.5214844.1376953 1.1347656.2070312 1.8408203.2070312 1.640625 0 2.8779297-.3691406 3.7138672-1.1044922S27.9492188 17 27.9492188 15.7890625c0-.7358398-.1533203-1.3876953-.4599609-1.9550781-.3066406-.5668945-.7744141-1.0268555-1.4033203-1.3798828v-.3222656h2.5527344V9.8779297h-1.8623047c-1.1347656 0-1.7021484.5830078-1.7021484 1.7480469v.3911133c-.3066406-.1074219-.640625-.184082-1.0009766-.2299805s-.7246094-.0693359-1.0917969-.0693359c-1.6259766 0-2.8603516.371582-3.703125 1.1152344-.84375.7431641-1.265625 1.7270508-1.265625 2.9526367 0 .796875.1806641 1.4936523.5410156 2.0913086s.9082031 1.0644531 1.6445312 1.4023438v.0917969c-.2919922.0615234-.5673828.1503906-.828125.265625-.2607422.1142578-.4941406.2558594-.7011719.4257812-.2070312.1679688-.3720703.3720703-.4951172.609375-.1230469.2382812-.1835938.5117188-.1835938.8183594 0 .4921875.1337891.9179688.4023438 1.2783203.2675781.3603516.6474609.6025391 1.1386719.7255859v.2529297c-.6748047.1074219-1.2001953.3486328-1.5761719.7246094-.375.3759766-.5634766.9003906-.5634766 1.5751953 0 .4443359.0996094.8427734.2998047 1.1962891.1992188.3525391.5244141.6474609.9775391.8857422.4521484.2373047 1.0302734.4208984 1.7363281.5517578.7050781.1298828 1.5634766.1953125 2.5761719.1953125 1.1494141 0 2.1230469-.0839844 2.9208984-.2529297.796875-.1689453 1.4482422-.4140625 1.9550781-.7363281.5058594-.3212891.8701172-.7246094 1.0917969-1.2070312.2226562-.4833984.3339844-1.0390625.3339844-1.6679688 0-1.0722658-.3339843-1.9121095-1.0009765-2.5175783zm-7.4628907-6.9223633c0-1.2197266.7207031-1.8295898 2.1621094-1.8295898 1.4404297 0 2.1611328.6098633 2.1611328 1.8295898v.3886719c0 1.2192383-.7207031 1.8295898-2.1611328 1.8295898-1.4414062 0-2.1621094-.6103516-2.1621094-1.8295898v-.3886719zm5.0478516 10.9125977c-.4365234.2451172-1.1376953.3671875-2.1044922.3671875h-1.4716797c-.9199219 0-1.5722656-.1298828-1.9550781-.390625-.3837891-.2607422-.5751953-.6210938-.5751953-1.0810547 0-.5214844.2070312-.9355469.6210938-1.2412109h4.09375c.7519531 0 1.2802734.1064453 1.5878906.3212891.3056641.2138672.4599609.5136719.4599609.8974609 0 .5058593-.21875.8808593-.65625 1.1269531z" fill="url(#SVGID_1_)"/></svg>
