<?xml version="1.0" encoding="utf-8"?>
<svg version="1.1" id="Padding" xmlns="http://www.w3.org/2000/svg" xmlns:xlink="http://www.w3.org/1999/xlink" x="0px" y="0px"
	 viewBox="0 0 32 32" style="enable-background:new 0 0 32 32;" xml:space="preserve">
<style type="text/css">
	.st0{fill:url(#SVGID_1_);}
</style>
<linearGradient id="SVGID_1_" gradientUnits="userSpaceOnUse" x1="0.9205" y1="0.3205" x2="31.6234" y2="31.0234" gradientTransform="matrix(1 0 0 -1 0 32)">
	<stop  offset="9.992285e-02" style="stop-color:#EE5396"/>
	<stop  offset="0.8986" style="stop-color:#DA1E28"/>
</linearGradient>
<path class="st0" d="M7,24H4V7.9h7.2c0.7,0,1.4,0.1,2,0.3s1.1,0.6,1.5,1s0.7,1,0.9,1.6s0.3,1.3,0.3,2c0,1.1-0.2,2.1-0.7,2.9
	S14,17.1,13,17.4l3.3,6.5h-3.4l-3-6.2H7V24z M10.9,15.3c0.6,0,1-0.2,1.4-0.5c0.3-0.3,0.5-0.8,0.5-1.3v-1.1c0-0.6-0.2-1-0.5-1.3
	s-0.8-0.5-1.4-0.5H7v4.7C7,15.3,10.9,15.3,10.9,15.3z M27.6,24c-0.6,0-1.2-0.2-1.5-0.6c-0.4-0.4-0.6-0.9-0.7-1.5h-0.1
	c-0.2,0.8-0.6,1.4-1.2,1.8s-1.4,0.6-2.3,0.6c-1.2,0-2.2-0.3-2.8-1s-1-1.5-1-2.6c0-1.2,0.4-2.2,1.3-2.8c0.9-0.6,2.2-0.9,3.8-0.9h2
	v-0.9c0-0.7-0.2-1.2-0.5-1.6c-0.4-0.4-0.9-0.6-1.7-0.6c-0.7,0-1.2,0.1-1.7,0.4c-0.4,0.3-0.8,0.7-1.1,1.1L18.4,14
	c0.4-0.7,1-1.3,1.8-1.7c0.7-0.4,1.7-0.6,2.9-0.6c1.6,0,2.9,0.4,3.7,1.1c0.8,0.7,1.3,1.8,1.3,3.2v5.6h1.2V24C29.3,24,27.6,24,27.6,24
	z M22.8,22.1c0.7,0,1.2-0.1,1.7-0.4s0.7-0.7,0.7-1.3v-1.6h-1.9c-1.5,0-2.3,0.5-2.3,1.5v0.4c0,0.5,0.2,0.8,0.5,1.1
	S22.2,22.1,22.8,22.1z"/>
</svg>
