<svg data-name="Layer 6" xmlns="http://www.w3.org/2000/svg" viewBox="0 0 32 32"><path fill="#1d364d" d="M26 26a1 1 0 0 1 0-2 3 3 0 0 0 3-3 1 1 0 0 1 2 0 5 5 0 0 1-5 5z"/><path d="M28.19 19l-.77-.54.85-1.18-1.27-.46.29-.91 1.24.48V15h.94v1.39l1.24-.48.29.91-1.27.46.85 1.18-.77.54-.81-1.17z" fill="#1c374d"/><path fill="#1d364d" d="M6.22 20.75l1-1.05a2.63 2.63 0 0 0 1.94.9c.78 0 1.21-.36 1.21-1s-.29-.79-1-.92l-.8-.13a2.08 2.08 0 0 1-2-2.2c0-1.47 1-2.33 2.76-2.33a3.38 3.38 0 0 1 2.62 1L11 16.07a2.21 2.21 0 0 0-1.68-.73c-.73 0-1.11.31-1.11.92s.31.75 1.06.89l.8.14A2.09 2.09 0 0 1 12 19.45c0 1.44-1 2.49-2.94 2.49a3.53 3.53 0 0 1-2.84-1.19zm12.27 3.16h-1.56c-1.19 0-1.64-.62-1.64-1.58v-.45C13.73 21.57 13 20.17 13 18c0-2.51.95-4 3-4s3 1.46 3 4c0 2.2-.73 3.6-2.29 3.91v.85h1.77zm-1.24-5.28V17.3c0-1.23-.31-2-1.25-2s-1.24.74-1.24 2v1.34c0 1.24.31 2 1.24 2s1.25-.76 1.25-2.01zM20 21.81v-7.68h1.66v6.33H25v1.35z"/><path fill="#1d364d" d="M9 26H6a5 5 0 0 1-5-5 4.89 4.89 0 0 1 2-4v-1a6 6 0 0 1 5.51-6 9 9 0 0 1 15.12.21 6 6 0 0 1 1.93.94 6.12 6.12 0 0 1 1.94 2.42 1 1 0 0 1-1.83.81 4 4 0 0 0-1.3-1.62 3.88 3.88 0 0 0-1.58-.7l-.46-.06-.22-.4a7 7 0 0 0-12.17-.08l-.3.52L9 12a4 4 0 0 0-4 4v2.15l-.5.29A2.93 2.93 0 0 0 3 21a3 3 0 0 0 3 3h3a1 1 0 0 1 0 2z"/></svg>