<svg id="ab3a9672-a2e2-4826-a910-2e6b2c6404c9" xmlns="http://www.w3.org/2000/svg" width="18" height="18" viewBox="0 0 18 18"><defs><linearGradient id="ac8acba0-fcad-4e54-8c97-734c09b955aa" x1="11.091" y1="16.84" x2="14.933" y2="16.84" gradientTransform="matrix(1, 0, 0, -1, 0, 20)" gradientUnits="userSpaceOnUse"><stop offset="0" stop-color="#005ba1" /><stop offset="0.068" stop-color="#0060a9" /><stop offset="0.517" stop-color="#0078d4" /><stop offset="0.82" stop-color="#006abb" /><stop offset="1" stop-color="#005ba1" /></linearGradient><linearGradient id="a4a83e6d-99f2-4a90-9db2-be369371220e" x1="9.813" y1="6.578" x2="9.813" y2="17.649" gradientTransform="matrix(1, 0, 0, -1, 0, 20)" gradientUnits="userSpaceOnUse"><stop offset="0" stop-color="#198ab3" /><stop offset="0.097" stop-color="#209ec5" /><stop offset="0.396" stop-color="#2ec7e9" /><stop offset="0.775" stop-color="#32d4f5" /></linearGradient><linearGradient id="a71c004a-5d5d-412e-b751-34ae0b69e153" x1="5.171" y1="6.037" x2="11.757" y2="6.037" gradientUnits="userSpaceOnUse"><stop offset="0" stop-color="#005ba1" /><stop offset="0.068" stop-color="#0060a9" /><stop offset="0.517" stop-color="#0078d4" /><stop offset="0.82" stop-color="#006abb" /><stop offset="1" stop-color="#005ba1" /></linearGradient><radialGradient id="b1836271-e91b-48db-815f-ae9f59b03dcf" cx="8.647" cy="5.828" r="3.632" gradientTransform="matrix(1, 0, 0, -1, 0, 20)" gradientUnits="userSpaceOnUse"><stop offset="0" stop-color="#f2f2f2" /><stop offset="0.58" stop-color="#eee" /><stop offset="1" stop-color="#e6e6e6" /></radialGradient></defs><g><path d="M13.012,1.659c-1.06,0-1.921-.311-1.921-.7v3.7c0,.381.845.69,1.893.7h.028c1.06,0,1.921-.311,1.921-.7V.963C14.93,1.348,14.071,1.659,13.012,1.659Z" fill="url(#ac8acba0-fcad-4e54-8c97-734c09b955aa)" /><path d="M14.93.963c0,.385-.859.7-1.921.7s-1.918-.311-1.918-.7S11.95.268,13.012.268s1.921.312,1.921.7" fill="#e8e8e8" /><path d="M14.482.907c0,.245-.659.442-1.472.442s-1.471-.2-1.471-.442S12.2.465,13.012.465s1.471.2,1.471.442" fill="#50e6ff" /><path d="M13.012,1.009a3.576,3.576,0,0,0-1.166.168,3.42,3.42,0,0,0,1.166.174,3.458,3.458,0,0,0,1.164-.174A3.56,3.56,0,0,0,13.012,1.009Z" fill="#198ab3" /><path d="M17.622,9.954a3.509,3.509,0,0,0-3.045-3.373,4.422,4.422,0,0,0-4.556-4.229A4.537,4.537,0,0,0,5.685,5.309,4.188,4.188,0,0,0,2,9.338a4.25,4.25,0,0,0,4.4,4.084c.13,0,.259-.007.387-.017h7.122a.742.742,0,0,0,.187-.028A3.552,3.552,0,0,0,17.622,9.954Z" fill="url(#a4a83e6d-99f2-4a90-9db2-be369371220e)" /><path d="M17.283,3.177a2.365,2.365,0,0,0-1.359-.813V3.449a1.194,1.194,0,0,1,.531.364c.883,1.158-.722,4.954-5.342,8.506S2.425,16.44,1.542,15.281c-.433-.568-.256-1.776.574-3.275a4.691,4.691,0,0,1-.558-1.1c-1.29,2.041-1.685,3.9-.845,5.007,1.519,1.991,6.459.753,11.035-2.766S18.8,5.168,17.283,3.177Z" fill="#0072c6" /><path d="M8.464,11.387c-1.818,0-3.293-.534-3.293-1.192v6.344c0,.653,1.45,1.184,3.248,1.193h.045c1.819,0,3.293-.534,3.293-1.193V10.2C11.757,10.853,10.283,11.387,8.464,11.387Z" fill="url(#a71c004a-5d5d-412e-b751-34ae0b69e153)" /><path d="M11.757,10.2c0,.658-1.474,1.192-3.293,1.192S5.171,10.853,5.171,10.2,6.646,9,8.464,9s3.293.534,3.293,1.193" fill="#e8e8e8" /><path d="M10.988,10.1c0,.419-1.13.759-2.524.759S5.94,10.517,5.94,10.1,7.07,9.34,8.464,9.34s2.524.34,2.524.758" fill="#50e6ff" /><path d="M8.464,10.273a6.083,6.083,0,0,0-2,.288,5.9,5.9,0,0,0,2,.3,5.9,5.9,0,0,0,2-.3A6.083,6.083,0,0,0,8.464,10.273Z" fill="#198ab3" /><path d="M10.466,14.6V12.864H9.988v2.122h1.264V14.6ZM6.8,13.743a1.026,1.026,0,0,1-.264-.159.223.223,0,0,1-.065-.165.186.186,0,0,1,.08-.156.364.364,0,0,1,.217-.059.841.841,0,0,1,.489.148V12.91a1.408,1.408,0,0,0-.515-.082A.86.86,0,0,0,6.183,13a.56.56,0,0,0-.212.458.7.7,0,0,0,.485.621,1.433,1.433,0,0,1,.317.184.22.22,0,0,1,.077.167.182.182,0,0,1-.081.157.384.384,0,0,1-.228.06.854.854,0,0,1-.561-.217v.474a1.146,1.146,0,0,0,.549.118.975.975,0,0,0,.605-.165.553.553,0,0,0,.219-.468.523.523,0,0,0-.126-.361A1.286,1.286,0,0,0,6.8,13.743Zm2.663.817a1.316,1.316,0,0,0,.043-1.214.925.925,0,0,0-.36-.384,1.032,1.032,0,0,0-.524-.135,1.106,1.106,0,0,0-.557.14.954.954,0,0,0-.377.4,1.249,1.249,0,0,0-.134.588,1.178,1.178,0,0,0,.124.54.936.936,0,0,0,.349.381,1.022,1.022,0,0,0,.51.149l.44.494H9.6l-.615-.57A.906.906,0,0,0,9.466,14.56Zm-.478-.13a.476.476,0,0,1-.392.18.468.468,0,0,1-.389-.186.909.909,0,0,1,0-1,.483.483,0,0,1,.4-.188.449.449,0,0,1,.384.187.831.831,0,0,1,.14.51A.756.756,0,0,1,8.988,14.43Z" fill="url(#b1836271-e91b-48db-815f-ae9f59b03dcf)" /></g></svg>