<svg id="a5a9981f-29e5-449a-b083-17f85d947f14" xmlns="http://www.w3.org/2000/svg" width="18" height="18" viewBox="0 0 18 18"><defs><linearGradient id="f4235b1f-7143-4b32-9804-b021fa2010fe" x1="2.447" y1="9.339" x2="15.27" y2="9.339" gradientTransform="matrix(1, 0, 0, -1, 0.143, 19.5)" gradientUnits="userSpaceOnUse"><stop offset="0" stop-color="#005ba1" /><stop offset="0.07" stop-color="#0060a9" /><stop offset="0.36" stop-color="#0071c8" /><stop offset="0.52" stop-color="#0078d4" /><stop offset="0.64" stop-color="#0074cd" /><stop offset="0.82" stop-color="#006abb" /><stop offset="1" stop-color="#005ba1" /></linearGradient></defs><path d="M9,5.14c-3.54,0-6.41-1-6.41-2.32V15.18c0,1.27,2.82,2.3,6.32,2.32H9c3.54,0,6.41-1,6.41-2.32V2.82C15.41,4.1,12.54,5.14,9,5.14Z" fill="url(#f4235b1f-7143-4b32-9804-b021fa2010fe)" /><path d="M15.41,2.82c0,1.28-2.87,2.32-6.41,2.32s-6.41-1-6.41-2.32S5.46.5,9,.5s6.41,1,6.41,2.32" fill="#e8e8e8" /><path d="M13.91,2.63c0,.82-2.2,1.48-4.91,1.48S4.08,3.45,4.08,2.64,6.28,1.16,9,1.16s4.91.66,4.91,1.47" fill="#50e6ff" /><path d="M9,3a11.649,11.649,0,0,0-3.9.57A11.535,11.535,0,0,0,9,4.11a11.471,11.471,0,0,0,3.89-.58A11.949,11.949,0,0,0,9,3Z" fill="#198ab3" /><path d="M12.154,8.991c0,.083-.027.24-.054.422a5.047,5.047,0,0,0-.074.63c0,.121.028.306.048.468.018.137.034.266.039.355a1.569,1.569,0,0,1-.258.863c-.011.024-.022.047-.034.07.033.041.067.081.1.12A10.551,10.551,0,0,0,13,9.53h0c.288-.95.322-1.634.092-1.925a2.638,2.638,0,0,0-2.724-.865,3.536,3.536,0,0,1,.926.678A2.269,2.269,0,0,1,12.154,8.991Zm-.314.083a1.165,1.165,0,0,0-.8.087c-.3.185-.206.551-.052,1.011a6.763,6.763,0,0,0,.349.855l.092.166,0,0c.049.087.086.154.11.2s.053.087.081.129a1.286,1.286,0,0,0,.186-.646c0-.078-.02-.2-.037-.333-.023-.178-.046-.362-.05-.5a4.935,4.935,0,0,1,.077-.686C11.814,9.261,11.83,9.153,11.84,9.074Zm-.31.406a.323.323,0,0,1-.183.1l-.035,0a.274.274,0,0,1-.248-.158l0-.008c-.011-.078.118-.138.252-.157a.517.517,0,0,1,.184,0c.058.014.094.042.1.078A.209.209,0,0,1,11.53,9.48Zm-4.777.9c.008-.074.015-.138.015-.171,0-.057,0-.116-.006-.177a5.3,5.3,0,0,1,.03-.956,5.273,5.273,0,0,1,.242-1.123,2.465,2.465,0,0,1,.576-.9A4.853,4.853,0,0,0,6.237,6.81a1.919,1.919,0,0,0-1.116.3,1.973,1.973,0,0,0-.644,1.831,12.49,12.49,0,0,0,.494,2.246c.355,1.15.743,1.849,1.092,1.963h0c.156.052.312-.018.477-.213.285-.342.551-.636.709-.8A1.869,1.869,0,0,1,6.753,10.378Zm.273.4a1.844,1.844,0,0,0,.057.556,1.24,1.24,0,0,0,.268.446,1.042,1.042,0,0,0,.356.249,1.069,1.069,0,0,0,.4.082,5.847,5.847,0,0,1,.227-.6,5.041,5.041,0,0,0,.219-.589,6.279,6.279,0,0,0,.028-1.113c-.015-.1-.033-.2-.057-.307A.461.461,0,0,0,8.4,9.232a.308.308,0,0,0-.027-.024.565.565,0,0,0-.29-.1,1.238,1.238,0,0,0-.244,0,1.635,1.635,0,0,0-.488.145,1.58,1.58,0,0,0-.279.177c0,.04,0,.077,0,.114.012.2.016.406.01.609V10.2a1.215,1.215,0,0,1-.01.156c-.008.131-.018.262-.034.392h0ZM7.7,9.433A.089.089,0,0,1,7.727,9.4a.415.415,0,0,1,.285-.04.549.549,0,0,1,.193.06c.091.049.1.105.091.134l0,.015a.311.311,0,0,1-.283.181l-.04,0c-.166-.024-.3-.191-.286-.279A.1.1,0,0,1,7.7,9.433Zm.749,2.986a.241.241,0,0,0-.136.068c-.057.064-.1.12-.138.166-.171.216-.243.284-.747.386a.582.582,0,0,0-.258.093.58.58,0,0,0,.245.12,1.185,1.185,0,0,0,.724,0,1.171,1.171,0,0,0,.361-.192.6.6,0,0,0,.2-.311.345.345,0,0,0-.1-.274A.183.183,0,0,0,8.447,12.419Zm4.7,0a1.725,1.725,0,0,1-1.156-.027.278.278,0,0,0-.143.006.293.293,0,0,0-.166.137.95.95,0,0,0-.036.317,1.893,1.893,0,0,0,1.125-.1,1.36,1.36,0,0,0,.486-.344A.677.677,0,0,0,13.143,12.417ZM10.7,10.269c-.139-.415-.347-1.042.182-1.368a1.383,1.383,0,0,1,.91-.146,3.219,3.219,0,0,0-.694-1.1c-.032-.034-.064-.066-.1-.1s-.043-.04-.065-.059l-.008-.008-.068-.06-.046-.037-.027-.023A2.752,2.752,0,0,0,9.1,6.787a1.77,1.77,0,0,0-1.028.264,2.138,2.138,0,0,0-.751,1,4.916,4.916,0,0,0-.214.977,1.694,1.694,0,0,1,1-.232.837.837,0,0,1,.775.914,7.01,7.01,0,0,1-.033,1.275,4.915,4.915,0,0,1-.234.636c-.069.167-.144.349-.19.489a.478.478,0,0,1,.392.143.646.646,0,0,1,.189.523h0c-.005.08-.008.161-.017.242a6.554,6.554,0,0,0,.237,2.451.582.582,0,0,0,.251.216.671.671,0,0,0,.318.1,1.351,1.351,0,0,0,.993-.337,1.015,1.015,0,0,0,.292-.664c.079-.456.23-1.713.25-1.974h0a.72.72,0,0,1,.094-.449.6.6,0,0,1,.273-.237A5.338,5.338,0,0,1,10.7,10.269Z" fill="#fff" /><ellipse cx="14.592" cy="14.873" rx="3.089" ry="2.241" transform="matrix(0.764, -0.645, 0.645, 0.764, -6.152, 12.915)" fill="#76bc2d" /><path d="M13.844,15.841a1.084,1.084,0,0,1,.044-1.833c1.159-.83,1.23.365.3.52,0,.43,1.208.379,1.728-.582.584-1.081-1.132-1.766-2.619-.127-.951,1.049-.975,2.484-.134,2.8a2.538,2.538,0,0,0,3.255-2.655C15.62,15.837,14.479,16.108,13.844,15.841Z" fill="#fff" /></svg>