<svg id="a81cfd0a-f55d-4a3a-80ec-9674de4090d8" xmlns="http://www.w3.org/2000/svg" width="18" height="18" viewBox="0 0 18 18"><defs><linearGradient id="f35c07bb-c9f1-4421-adc8-18b67234813b" x1="0.4" y1="10.06" x2="12.11" y2="10.06" gradientUnits="userSpaceOnUse"><stop offset="0" stop-color="#005ba1" /><stop offset="0.07" stop-color="#0060a9" /><stop offset="0.36" stop-color="#0071c8" /><stop offset="0.52" stop-color="#0078d4" /><stop offset="0.64" stop-color="#0074cd" /><stop offset="0.82" stop-color="#006abb" /><stop offset="1" stop-color="#005ba1" /></linearGradient><radialGradient id="a0e83ca8-5136-49ab-85fc-6e4ceacbf137" cx="6.58" cy="10.43" r="6.46" gradientUnits="userSpaceOnUse"><stop offset="0" stop-color="#f2f2f2" /><stop offset="0.58" stop-color="#eee" /><stop offset="1" stop-color="#e6e6e6" /></radialGradient></defs><title>Icon-other-351</title><g><g><path d="M6.26,5.48C3,5.48.4,4.53.4,3.36V14.64C.4,15.8,3,16.75,6.18,16.76h.08c3.23,0,5.85-1,5.85-2.12V3.36C12.11,4.53,9.49,5.48,6.26,5.48Z" fill="url(#f35c07bb-c9f1-4421-adc8-18b67234813b)" /><path d="M12.11,3.36c0,1.17-2.62,2.12-5.85,2.12S.4,4.53.4,3.36,3,1.24,6.26,1.24s5.85,1,5.85,2.12" fill="#e8e8e8" /><path d="M10.75,3.19c0,.74-2,1.35-4.49,1.35S1.77,3.93,1.77,3.19s2-1.35,4.49-1.35,4.49.6,4.49,1.35" fill="#50e6ff" /><path d="M6.26,3.5A10.93,10.93,0,0,0,2.7,4a10.48,10.48,0,0,0,3.56.53A10.41,10.41,0,0,0,9.81,4,10.86,10.86,0,0,0,6.26,3.5Z" fill="#198ab3" /><path d="M9.82,11.19V8.11H9v3.77h2.24v-.69ZM3.3,9.67a2.26,2.26,0,0,1-.47-.28.44.44,0,0,1-.11-.3.35.35,0,0,1,.14-.28.64.64,0,0,1,.39-.1A1.56,1.56,0,0,1,4.12,9V8.19A2.46,2.46,0,0,0,3.2,8a1.5,1.5,0,0,0-1,.31,1,1,0,0,0-.38.81,1.24,1.24,0,0,0,.87,1.11,2.6,2.6,0,0,1,.56.32.42.42,0,0,1,.14.3.32.32,0,0,1-.15.28.66.66,0,0,1-.4.11,1.48,1.48,0,0,1-1-.39v.84a2,2,0,0,0,1,.22,1.72,1.72,0,0,0,1.07-.3,1,1,0,0,0,.39-.83.92.92,0,0,0-.22-.64A2.21,2.21,0,0,0,3.3,9.67ZM8,11.12A2.14,2.14,0,0,0,8.34,10a2.09,2.09,0,0,0-.23-1,1.66,1.66,0,0,0-.63-.68A1.85,1.85,0,0,0,6.54,8a1.92,1.92,0,0,0-1,.25A1.65,1.65,0,0,0,4.88,9a2.38,2.38,0,0,0,0,2,1.72,1.72,0,0,0,.63.68A2,2,0,0,0,6.4,12l.78.87h1.1l-1.09-1A1.61,1.61,0,0,0,8,11.12Zm-.85-.23a.85.85,0,0,1-.7.32.83.83,0,0,1-.69-.33A1.4,1.4,0,0,1,5.54,10a1.37,1.37,0,0,1,.27-.89.83.83,0,0,1,.7-.34.81.81,0,0,1,.69.34,1.44,1.44,0,0,1,.25.9A1.36,1.36,0,0,1,7.19,10.89Z" fill="url(#a0e83ca8-5136-49ab-85fc-6e4ceacbf137)" /></g><path d="M14.58,1.34H10.93a.29.29,0,0,0-.29.29V9.5a.29.29,0,0,0,.29.29h6.33a.29.29,0,0,0,.29-.29V4.29A.29.29,0,0,0,17.26,4h-2.1a.29.29,0,0,1-.29-.29V1.63A.29.29,0,0,0,14.58,1.34Z" fill="#fff" /><path d="M14.45,1.71v2a.72.72,0,0,0,.72.72h2v5H11V1.71h3.42m.14-.43h-3.7a.29.29,0,0,0-.3.29v8a.29.29,0,0,0,.3.29h6.42a.29.29,0,0,0,.29-.29V4.27A.29.29,0,0,0,17.31,4H15.17a.29.29,0,0,1-.29-.29V1.57a.29.29,0,0,0-.29-.29Z" fill="#50e6ff" /><path d="M17.49,4l-2.71-2.7v2.2a.5.5,0,0,0,.49.5Z" fill="#32bedd" /><rect x="12.05" y="5.88" width="4.08" height="0.54" rx="0.27" fill="#32bedd" /><rect x="12.05" y="6.79" width="4.08" height="0.54" rx="0.27" fill="#32bedd" /><rect x="12.05" y="7.72" width="2.19" height="0.5" rx="0.25" fill="#32bedd" /></g></svg>