<svg xmlns="http://www.w3.org/2000/svg" viewBox="0 0 18 18"><defs><style>.cls-1{fill:#0078d4;}.cls-2{fill:url(#linear-gradient);}</style><linearGradient id="linear-gradient" x1="9.04" y1="9.54" x2="9.04" y2="1.5" gradientUnits="userSpaceOnUse"><stop offset="0" stop-color="#5e9624" /><stop offset="0.26" stop-color="#70a828" /><stop offset="0.79" stop-color="#9fd732" /><stop offset="1" stop-color="#b4ec36" /></linearGradient></defs><title>Icon408_Intune_Trends</title><g id="Layer_1"><g id="Icon408_Intune_Trends"><rect class="cls-1" x="6.19" y="9.18" width="2.17" height="7.32" rx="0.24" /><rect class="cls-1" x="9.64" y="11.38" width="2.17" height="5.12" rx="0.24" /><rect class="cls-1" x="13.09" y="7.05" width="2.17" height="9.45" rx="0.24" /><rect class="cls-1" x="2.74" y="11.38" width="2.17" height="5.12" rx="0.24" /><path class="cls-2" d="M15,5.58,14,4.52l-.5-.5L10,7.53a.16.16,0,0,1-.24,0L7.64,5.45l-4,4a.16.16,0,0,1-.24,0L2.87,9a.18.18,0,0,1,0-.25L7.52,4.11a.16.16,0,0,1,.24,0L9.84,6.18l2.89-2.89-.5-.5-1.05-1a.14.14,0,0,1,.09-.24h3.85a.14.14,0,0,1,.14.14V5.48A.14.14,0,0,1,15,5.58Z" /></g></g></svg>