<svg xmlns="http://www.w3.org/2000/svg" width="18" height="18" viewBox="0 0 18 18"><defs><linearGradient id="a0765024-843f-45d7-a5d2-6a61ef1f586b" x1="4.984" y1="18.749" x2="8.956" y2="4.782" gradientUnits="userSpaceOnUse"><stop offset="0" stop-color="#258277" /><stop offset="0.2" stop-color="#27887d" /><stop offset="0.5" stop-color="#2c9a8d" /><stop offset="1" stop-color="#37c2b1" /></linearGradient><linearGradient id="e27a2858-8f35-4dcb-84b5-7df910fff518" x1="6.489" y1="19.216" x2="9.98" y2="5.02" gradientUnits="userSpaceOnUse"><stop offset="0" stop-color="#258277" /><stop offset="0.3" stop-color="#2ea193" /><stop offset="0.7" stop-color="#34b9a9" /><stop offset="1" stop-color="#37c2b1" /></linearGradient><linearGradient id="b72a42b8-09e2-40b0-9869-677d3a3e051d" x1="10.741" y1="12.441" x2="10.741" y2="1.908" gradientUnits="userSpaceOnUse"><stop offset="0" stop-color="#37c2b1" /><stop offset="1" stop-color="#3cd4c2" /></linearGradient></defs><path d="M14.087,5.605H.442A.427.427,0,0,0,0,6.015v9.464a.428.428,0,0,0,.443.4H14.087a.42.42,0,0,0,.435-.4V6A.419.419,0,0,0,14.087,5.605Z" fill="url(#a0765024-843f-45d7-a5d2-6a61ef1f586b)" /><path d="M15.826,3.866H2.182a.428.428,0,0,0-.443.411V13.74a.426.426,0,0,0,.443.394H15.826a.418.418,0,0,0,.435-.394V4.26A.418.418,0,0,0,15.826,3.866Z" fill="url(#e27a2858-8f35-4dcb-84b5-7df910fff518)" /><path d="M17.556,2.149H3.933a.426.426,0,0,0-.441.411v9.448a.426.426,0,0,0,.442.394H17.556a.418.418,0,0,0,.434-.394V2.543A.417.417,0,0,0,17.556,2.149Z" fill="url(#b72a42b8-09e2-40b0-9869-677d3a3e051d)" /><rect x="13.527" y="3.414" width="1.234" height="7.53" rx="0.119" fill="#fff" opacity="0.9" /><rect x="4.803" y="9.392" width="6.904" height="1.56" rx="0.128" fill="#fff" opacity="0.6" /><rect x="15.419" y="6.494" width="1.234" height="4.45" rx="0.091" fill="#fff" opacity="0.9" /><polygon points="10.835 3.869 9.119 6.922 7.305 5.073 5.434 7.498 5.873 7.842 7.356 5.929 9.24 7.851 11.321 4.149 10.835 3.869" fill="#fff" /><ellipse cx="7.326" cy="5.499" rx="0.705" ry="0.709" fill="#fff" /><ellipse cx="9.24" cy="7.258" rx="0.705" ry="0.709" fill="#fff" /><ellipse cx="11.016" cy="4.097" rx="0.705" ry="0.709" fill="#fff" /><ellipse cx="5.727" cy="7.567" rx="0.705" ry="0.709" fill="#fff" />​
</svg>