<svg xmlns="http://www.w3.org/2000/svg" width="18" height="18" viewBox="0 0 18 18"><defs><linearGradient id="a59ad8ae-3a02-43f1-9a80-d69d1427296a" x1="9" y1="12.798" x2="9" y2="0.798" gradientUnits="userSpaceOnUse"><stop offset="0" stop-color="#76bc2d" /><stop offset="0.817" stop-color="#86d633" /></linearGradient><linearGradient id="a2c0bd49-b629-49f3-99aa-bb168c82df0b" x1="9" y1="17.434" x2="9" y2="12.798" gradientUnits="userSpaceOnUse"><stop offset="0.149" stop-color="#ccc" /><stop offset="1" stop-color="#707070" /></linearGradient></defs><g id="b914d40a-a5c1-44c6-9813-f068fd44847c"><g><rect y="0.798" width="18" height="12" rx="0.601" fill="url(#a59ad8ae-3a02-43f1-9a80-d69d1427296a)" /><g><polygon points="12 5.053 9 6.807 6 5.052 9 3.298 12 5.053" fill="#fff" /><polygon points="6 5.052 6 8.544 8.996 6.804 6 5.052" fill="#fff" opacity="0.8" /><polygon points="5.998 8.543 8.998 10.297 8.998 6.805 8.994 6.803 5.998 8.543" fill="#fff" /><polygon points="9 6.802 12 8.544 12 5.053 9 6.802" fill="#fff" opacity="0.6" /><polygon points="9 10.298 12 8.544 9 6.802 9 10.298" fill="#fff" opacity="0.8" /></g><path d="M12.607,16.428c-1.78-.278-1.85-1.562-1.844-3.63H7.232c0,2.068-.065,3.352-1.844,3.63A1.048,1.048,0,0,0,4.5,17.434h9A1.053,1.053,0,0,0,12.607,16.428Z" fill="url(#a2c0bd49-b629-49f3-99aa-bb168c82df0b)" /></g></g></svg>