<svg xmlns="http://www.w3.org/2000/svg" width="18" height="18" viewBox="0 0 18 18"><defs><linearGradient id="a171c895-de64-4d6a-a85f-92ddbef80d5b" x1="12.141" y1="7.014" x2="12.141" y2="17.81" gradientUnits="userSpaceOnUse"><stop offset="0" stop-color="#5ea0ef" /><stop offset="1" stop-color="#0078d4" /></linearGradient></defs><circle cx="10.475" cy="4.23" r="0.911" fill="#76bc2d" /><circle cx="7.567" cy="4.238" r="0.911" fill="#76bc2d" /><circle cx="4.66" cy="4.238" r="0.911" fill="#76bc2d" /><path d="M5.322,7.882,4.8,8.4a.235.235,0,0,1-.333,0h0L.605,4.554a.471.471,0,0,1,0-.666h0l.521-.523h0l4.2,4.183a.237.237,0,0,1,0,.334Z" fill="#50e6ff" /><path d="M4.721.08,5.244.6a.235.235,0,0,1,0,.333L1.122,5.068h0L.6,4.547a.473.473,0,0,1,0-.667h0L4.388.08A.235.235,0,0,1,4.721.08Z" fill="#1490df" /><path d="M11.494,6.355h1.159l1.813-1.808a.472.472,0,0,0,0-.666l-.522-.523-3.005,3Z" fill="#50e6ff" /><path d="M14.465,4.542l-.523.521h0L9.82.929A.235.235,0,0,1,9.82.6h0l.529-.527a.235.235,0,0,1,.333,0h0l3.789,3.8a.472.472,0,0,1,0,.667h0Z" fill="#1490df" /><path d="M17.539,13.124V11.9h-.162l-1.331-.413-.306-.918.666-1.439-.864-.864H15.38l-1.241.63-.828-.342-.54-1.494H11.494v.18l-.432,1.314-.846.342-1.4-.666-.864.864.09.162.5,1.331-.288.9-1.511.485v1.314h.18l1.313.432.306.809-.666,1.44.9.917.18-.09,1.223-.629.846.342L11.566,18h1.223v-.18l.432-1.313.846-.342,1.421.665.864-.863-.09-.162-.522-1.3.342-.845Zm-5.361,1.8h-.037a2.357,2.357,0,1,1,.037,0Z" fill="url(#a171c895-de64-4d6a-a85f-92ddbef80d5b)" />​
</svg>