<svg xmlns="http://www.w3.org/2000/svg" width="18" height="18" viewBox="0 0 18 18"><defs><linearGradient id="f3c9c6cf-71c9-42ca-b4dd-00d026ddcdcb" x1="12.764" y1="-0.269" x2="12.764" y2="16.422" gradientUnits="userSpaceOnUse"><stop offset="0" stop-color="#5ea0ef" /><stop offset="0.2" stop-color="#328de2" /><stop offset="0.4" stop-color="#0078d4" /><stop offset="0.7" stop-color="#006abb" /><stop offset="1" stop-color="#005ba1" /></linearGradient><linearGradient id="a375960d-7477-4345-8fc5-1463a0ab7dff" x1="9.367" y1="20.932" x2="9.367" y2="9.35" gradientUnits="userSpaceOnUse"><stop offset="0" stop-color="#198ab3" /><stop offset="0.4" stop-color="#29b8dc" /><stop offset="0.7" stop-color="#38d5f6" /><stop offset="1" stop-color="#9cebff" /></linearGradient></defs><path d="M17.407.055H8.132a.6.6,0,0,0-.6.593V13.917h.179a1.75,1.75,0,0,1,1.574-1.059h.013a1.74,1.74,0,1,1-.789,3.3,1.723,1.723,0,0,1-.773-.746h-.2v.737a.6.6,0,0,0,.6.593h9.275A.592.592,0,0,0,18,16.152V.648A.592.592,0,0,0,17.407.055Z" fill="url(#f3c9c6cf-71c9-42ca-b4dd-00d026ddcdcb)" /><path id="b19a0d7e-b21d-4954-a674-52d8fc27e153" d="M8.915,1.908H10.62a.148.148,0,0,1,.148.148h0v2.2a.148.148,0,0,1-.148.148h-1.7a.148.148,0,0,1-.148-.148h0v-2.2a.148.148,0,0,1,.148-.148Zm3,0h1.705a.148.148,0,0,1,.148.148h0v2.2a.148.148,0,0,1-.148.148h-1.7a.148.148,0,0,1-.148-.148h0v-2.2a.148.148,0,0,1,.148-.148Zm3.007,0h1.7a.148.148,0,0,1,.148.148h0v2.2a.148.148,0,0,1-.148.148h-1.7a.148.148,0,0,1-.148-.148h0v-2.2a.148.148,0,0,1,.148-.148Zm-6,3.981H10.62a.148.148,0,0,1,.148.148h0V8.26a.149.149,0,0,1-.148.149h-1.7a.149.149,0,0,1-.148-.149h0v-2.2a.149.149,0,0,1,.126-.168Zm3,0h1.705a.148.148,0,0,1,.148.148h0V8.26a.149.149,0,0,1-.148.149h-1.7a.149.149,0,0,1-.148-.149h0v-2.2a.148.148,0,0,1,.125-.168Zm3.007,0h1.7a.148.148,0,0,1,.148.148h0V8.26a.149.149,0,0,1-.148.149h-1.7a.149.149,0,0,1-.148-.149h0v-2.2A.148.148,0,0,1,14.9,5.89Zm-6,3.469H10.62a.148.148,0,0,1,.148.148h0V11.73a.148.148,0,0,1-.148.148h-1.7a.148.148,0,0,1-.148-.148h0v-2.2a.148.148,0,0,1,.126-.167Zm3,0h1.705a.148.148,0,0,1,.148.148h0V11.73a.148.148,0,0,1-.148.148h-1.7a.148.148,0,0,1-.148-.148h0v-2.2a.146.146,0,0,1,.125-.167Zm3.007,0h1.7a.148.148,0,0,1,.148.148h0V11.73a.148.148,0,0,1-.148.148h-1.7a.148.148,0,0,1-.148-.148h0v-2.2A.146.146,0,0,1,14.9,9.36Z" fill="#f2f2f2" opacity="0.4" /><path d="M15.181,11H3.553a.587.587,0,0,0-.588.587v2.327H7.707a1.75,1.75,0,0,1,1.574-1.059h.013a1.74,1.74,0,1,1-.789,3.3,1.723,1.723,0,0,1-.773-.746H2.965v1.943a.587.587,0,0,0,.588.587H15.181a.588.588,0,0,0,.588-.587V11.59A.588.588,0,0,0,15.181,11Z" fill="url(#a375960d-7477-4345-8fc5-1463a0ab7dff)" /><rect x="12.07" y="11.892" width="1.866" height="5.166" rx="0.238" fill="#fff" opacity="0.8" /><path d="M6.6,13.917V12.13a.238.238,0,0,0-.238-.238H4.973a.237.237,0,0,0-.238.238v1.787Z" fill="#fff" opacity="0.8" /><path d="M4.735,15.415V16.82a.237.237,0,0,0,.238.237h1.39A.238.238,0,0,0,6.6,16.82V15.415Z" fill="#fff" opacity="0.8" /><path d="M9.281,12.858h.013a1.742,1.742,0,0,1,.975.323V12.13a.238.238,0,0,0-.238-.238H8.64a.238.238,0,0,0-.238.238v.995A1.745,1.745,0,0,1,9.281,12.858Z" fill="#fff" opacity="0.8" /><path d="M9.833,16.242a1.736,1.736,0,0,1-1.328-.081c-.039-.019-.066-.034-.1-.055v.714a.238.238,0,0,0,.238.237h1.391a.238.238,0,0,0,.238-.237v-.811A1.753,1.753,0,0,1,9.833,16.242Z" fill="#fff" opacity="0.8" /><path d="M10.571,14.211a1.352,1.352,0,0,0-2.616.095H3.182a2.318,2.318,0,0,1-.5-.063,2.4,2.4,0,0,1,.265-4.752h.233l.074-.212a2.716,2.716,0,0,1,2.61-1.814,2.792,2.792,0,0,1,1.656.527V7.116a3.5,3.5,0,0,0-1.624-.4A3.478,3.478,0,0,0,2.62,8.78a3.12,3.12,0,0,0-.244,6.11,2.129,2.129,0,0,0,.774.127H7.955a1.369,1.369,0,0,0,2.616-.806Z" fill="#32bedd" />​
</svg>