<svg xmlns="http://www.w3.org/2000/svg" width="18" height="18" viewBox="0 0 18 18"><defs><linearGradient id="bd9dd92d-9e34-4cab-857e-a2a2fdebfa6c" x1="9" y1="17.052" x2="9" y2="10.292" gradientUnits="userSpaceOnUse"><stop offset="0" stop-color="#0078d4" /><stop offset="1" stop-color="#5ea0ef" /></linearGradient><linearGradient id="aad0839e-83c1-45ac-aa97-068c800d9ea6" x1="8.82" y1="15.612" x2="8.82" y2="0.528" gradientUnits="userSpaceOnUse"><stop offset="0" stop-color="#fea11b" /><stop offset="0.734" stop-color="#ffd70f" /></linearGradient></defs><g id="fe1f9649-1eed-45d1-a7ad-8e63013a7d88"><path d="M17.4,10.292H10.245v5.17a.676.676,0,0,1-.675.675H8.07a.676.676,0,0,1-.675-.675V14.7H6.27a.676.676,0,0,1-.675-.675v-1.5a.676.676,0,0,1,.675-.675H7.4V10.292H.6a.6.6,0,0,0-.6.6v5.56a.6.6,0,0,0,.6.6H17.4a.6.6,0,0,0,.6-.6v-5.56A.6.6,0,0,0,17.4,10.292Z" fill="url(#bd9dd92d-9e34-4cab-857e-a2a2fdebfa6c)" /><path d="M15.63,11.652h.78a.15.15,0,0,1,.15.15v.78a.15.15,0,0,1-.15.15h-.78a.15.15,0,0,1-.15-.15V11.8A.15.15,0,0,1,15.63,11.652Zm-2.16,0h.78a.15.15,0,0,1,.15.15v.78a.15.15,0,0,1-.15.15h-.78a.15.15,0,0,1-.15-.15V11.8A.15.15,0,0,1,13.47,11.652Zm-2.16,0h.78a.15.15,0,0,1,.15.15v.78a.15.15,0,0,1-.15.15h-.78a.15.15,0,0,1-.15-.15V11.8A.15.15,0,0,1,11.31,11.652Z" fill="#c3f1ff" /><path d="M12.564,4.272A3.744,3.744,0,1,0,7.92,7.9v4.319a.15.15,0,0,1-.15.15H6.27a.15.15,0,0,0-.15.15v1.5a.15.15,0,0,0,.15.15h1.5a.15.15,0,0,1,.15.15v1.14a.15.15,0,0,0,.15.15h1.5a.15.15,0,0,0,.15-.15V7.9A3.743,3.743,0,0,0,12.564,4.272ZM9.076,6.217a1.962,1.962,0,1,1,1.689-1.689A1.963,1.963,0,0,1,9.076,6.217Z" fill="url(#aad0839e-83c1-45ac-aa97-068c800d9ea6)" /></g></svg>