<svg xmlns="http://www.w3.org/2000/svg" width="18" height="18" viewBox="0 0 18 18"><g id="fa192b48-a9c1-4b8a-a5b7-069d1f4b2d9b"><path d="M9.014,15.118V18h-.12a.01.01,0,0,0-.01-.01.41.41,0,0,1-.11-.01c-.04-.01-.08-.03-.12-.04h-.01c-2.05-1.16-4.28-2.48-6.32-3.64-.15-.1-.53-.25-.5-.45l.02-2.88a.326.326,0,0,0,.19.27l6.54,3.77a.313.313,0,0,0,.1.05A.974.974,0,0,0,9.014,15.118Zm-.11-3.41a.865.865,0,0,1-.23-.06,1.037,1.037,0,0,1-.1-.04l-6.54-3.78a.314.314,0,0,1-.19-.27l-.02,2.88c-.03.2.35.35.5.45,2.04,1.17,4.27,2.49,6.32,3.64h.01l.1.03a.031.031,0,0,0,.02.01c.04.01.07.01.11.02h.13v-2.88Zm-.23-3.46c-.17-.07-6.48-3.75-6.64-3.83a.314.314,0,0,1-.19-.27l-.02,2.88c-.03.2.35.36.5.45,2.04,1.17,4.27,2.49,6.32,3.64h.01a.564.564,0,0,0,.12.04c.04.01.07.01.11.02h.01c.03,0,.06.01.09.01h.03V8.308A1.276,1.276,0,0,1,8.674,8.248Z" fill="#0078d4" /><path d="M13.434,4.368l-4.36,2.51a.382.382,0,0,1-.33,0l-4.16-2.37a.329.329,0,0,1,0-.57l4.36-2.51a.382.382,0,0,1,.33,0l4.16,2.37A.325.325,0,0,1,13.434,4.368Z" fill="#003067" /><path d="M16.164,4.218v.01l-.03.06a.348.348,0,0,1-.14.13L9.494,8.2a1.089,1.089,0,0,1-.32.1.57.57,0,0,1-.13.01h-.03v2.88a.487.487,0,0,0,.12-.01.873.873,0,0,0,.22-.05.433.433,0,0,0,.12-.05l4.75-2.76.43-.25,1.32-.77a.555.555,0,0,0,.08-.06c.02-.01.03-.03.05-.05v-.01h.01v-.01c.02-.01.02-.03.03-.05v-.01l.01-.01c0-.02.01-.04.01-.06l.02-2.88A.142.142,0,0,1,16.164,4.218Zm0,3.41v.01l-.03.06a.436.436,0,0,1-.14.13l-.05.03-.15.08-.12.07-.76.44-1.33.78-.6.35-.3.18-.6.35-.87.5-.99.57-.73.42a.869.869,0,0,1-.32.11h-.13a.019.019,0,0,1-.03,0v2.88h.12a.873.873,0,0,0,.22-.05.337.337,0,0,0,.12-.06l1.02-.59.49-.28,1.14-.66.6-.35.31-.18.6-.35,2.34-1.36a.555.555,0,0,0,.08-.06c.02-.01.03-.03.05-.05v-.01h.01v-.01c.02-.02.02-.04.03-.06a.01.01,0,0,1,.01-.01c0-.02.01-.04.01-.07l.02-2.87A.107.107,0,0,1,16.164,7.628Zm0,3.41v.01l-.03.06a.584.584,0,0,1-.14.13l-6.5,3.77a.708.708,0,0,1-.32.1.57.57,0,0,1-.13.01h-.03V18h.12a.873.873,0,0,0,.22-.05c.3-.12,6.36-3.7,6.62-3.84a.558.558,0,0,0,.08-.05l.05-.05V14h.01v-.01c.02-.02.02-.04.03-.06s0-.01.01-.01c0-.02.01-.05.01-.07l.02-2.88A.145.145,0,0,1,16.164,11.038Z" fill="#005ba1" /><path d="M15.994,11.238l-6.5,3.77a1.017,1.017,0,0,1-.93,0l-6.53-3.77c-.26-.15-.26-.38-.01-.53,2.143,1.246,4.462,2.6,6.62,3.82a.9.9,0,0,1,.11.03.952.952,0,0,0,.72-.08c.02-.01,6.5-3.765,6.51-3.78A.286.286,0,0,1,15.994,11.238Zm-.01-3.95a.01.01,0,0,1-.01.01s-6.49,3.77-6.5,3.78a1.014,1.014,0,0,1-.82.04h-.01C6.486,9.9,4.166,8.547,2.024,7.3c-.25.15-.25.38.01.53l6.53,3.77a1.017,1.017,0,0,0,.93,0l6.5-3.77A.286.286,0,0,0,15.984,7.288Zm.01-2.87L9.494,8.2a1.082,1.082,0,0,1-.93,0l-6.53-3.78a.278.278,0,0,1,0-.53L8.524.108a1.017,1.017,0,0,1,.93,0l6.53,3.78C16.244,4.038,16.244,4.278,15.994,4.418Zm-2.56-.62-4.16-2.37a.382.382,0,0,0-.33,0l-4.36,2.51a.329.329,0,0,0,0,.57l4.16,2.37a.382.382,0,0,0,.33,0l4.36-2.51A.325.325,0,0,0,13.434,3.8Zm2.144,9.962-.009-1.32a.042.042,0,0,0-.062-.036l-3.239,1.877a.042.042,0,0,0-.021.036l.01,1.32a.041.041,0,0,0,.061.035l3.24-1.877A.039.039,0,0,0,15.578,13.76Zm-.02-3.372-3.24,1.876a.04.04,0,0,1-.061-.035l-.01-1.32a.043.043,0,0,1,.021-.036L15.507,9a.041.041,0,0,1,.062.035l.009,1.32A.041.041,0,0,1,15.558,10.388Zm0-3.408-3.24,1.877a.041.041,0,0,1-.061-.036L12.247,7.5a.041.041,0,0,1,.021-.036l3.239-1.877a.041.041,0,0,1,.062.035l.009,1.32A.04.04,0,0,1,15.558,6.98Z" fill="#5ea0ef" /><path d="M7.789,15.371a.559.559,0,0,1,.256.444l0,.732c0,.164-.115.233-.258.15l-.637-.368a.57.57,0,0,1-.259-.448l0-.732c0-.165.118-.228.261-.146ZM7.152,11.6c-.143-.082-.261-.018-.261.146l0,.732a.573.573,0,0,0,.259.449l.637.367c.143.083.258.015.258-.15l0-.732a.561.561,0,0,0-.256-.444Zm0-3.407c-.143-.083-.261-.019-.261.145l0,.732a.573.573,0,0,0,.259.449l.637.368c.143.082.258.014.258-.15l0-.732a.561.561,0,0,0-.256-.445Z" fill="#50e6ff" /></g></svg>