<svg xmlns="http://www.w3.org/2000/svg" width="18" height="18" viewBox="0 0 18 18"><defs><linearGradient id="f729e66e-9651-4cb6-901a-b5d73e25fcd9" x1="6.436" y1="10.776" x2="6.436" y2="1.895" gradientUnits="userSpaceOnUse"><stop offset="0" stop-color="#0078d4" /><stop offset="0.156" stop-color="#1380da" /><stop offset="0.528" stop-color="#3c91e5" /><stop offset="0.822" stop-color="#559cec" /><stop offset="1" stop-color="#5ea0ef" /></linearGradient><linearGradient id="a7f21675-1098-4c1d-ba9e-5f8d8823a58d" x1="10.41" y1="10.763" x2="10.41" y2="7.476" gradientUnits="userSpaceOnUse"><stop offset="0" stop-color="#0078d4" /><stop offset="0.156" stop-color="#1380da" /><stop offset="0.528" stop-color="#3c91e5" /><stop offset="0.822" stop-color="#559cec" /><stop offset="1" stop-color="#5ea0ef" /></linearGradient><linearGradient id="abe2a540-f019-4b48-ae67-914fba2626c3" x1="-221.35" y1="-247.668" x2="-224.426" y2="-254.285" gradientTransform="matrix(0, -1, -1, 0, -243.245, -212.172)" gradientUnits="userSpaceOnUse"><stop offset="0.174" stop-color="#e6e6e6" /><stop offset="0.583" stop-color="#f6f6f6" /><stop offset="0.957" stop-color="#fff" /></linearGradient></defs><g id="ff053a1c-4957-4d4b-9e38-8d78499a63e4"><g><ellipse cx="12.861" cy="12.644" rx="4.879" ry="1.148" fill="#32bedd" /><path d="M17.74,14.9v-2.26h0c0,.634-2.184,1.148-4.879,1.148s-4.878-.514-4.878-1.148v2.313c0,.634,2.184,1.148,4.878,1.148,2.638,0,4.786-.493,4.875-1.109h0v-.014a.213.213,0,0,0,0-.025l0-.021V14.9Z" fill="#0078d4" /><g><path d="M7.609,8.446c0-.985,2.91-1.363,5-1.389a2.915,2.915,0,0,0-2.264-1.769A3.549,3.549,0,0,0,6.693,1.9,3.641,3.641,0,0,0,3.214,4.267,3.361,3.361,0,0,0,.26,7.5a3.41,3.41,0,0,0,3.529,3.276c.1,0,.208,0,.31-.013h3.51Z" fill="url(#f729e66e-9651-4cb6-901a-b5d73e25fcd9)" /><path d="M8.028,8.446v2.317H9.813a.536.536,0,0,0,.151-.023A2.848,2.848,0,0,0,12.791,8a2.539,2.539,0,0,0-.055-.519C9.648,7.49,8.028,8.111,8.028,8.446Z" fill="url(#a7f21675-1098-4c1d-ba9e-5f8d8823a58d)" /></g><path d="M12.847,9.706c-2.665,0-4.827-.5-4.874-1.127h0v2.292c0,.634,2.184,1.148,4.879,1.148,2.638,0,4.785-.493,4.874-1.109h0V10.9c0-.008,0-.017,0-.025l0-.022v-.031h0V8.558C17.725,9.192,15.541,9.706,12.847,9.706Z" fill="#5ea0ef" /><ellipse cx="12.847" cy="8.584" rx="4.879" ry="1.148" fill="#9cebff" /><path d="M12.854,12.578l-1.931,1.88c-.2.2-.381.129-.381-.2v-.833a.24.24,0,0,0-.245-.241c-1.245.028-4.7-.322-4.819-5.046a.242.242,0,0,1,.241-.249H6.941a.24.24,0,0,1,.24.263,2.9,2.9,0,0,0,3.118,3.5.242.242,0,0,0,.243-.241v-.772c0-.393.118-.458.381-.2l1.931,1.741A.24.24,0,0,1,12.854,12.578Z" fill="url(#abe2a540-f019-4b48-ae67-914fba2626c3)" /></g></g></svg>