<svg xmlns="http://www.w3.org/2000/svg" width="18" height="18" viewBox="0 0 18 18"><defs><linearGradient id="ed10159c-24a2-486a-934a-7022b18460c8" x1="9" y1="3.474" x2="9" y2="18.601" gradientUnits="userSpaceOnUse"><stop offset="0.215" stop-color="#5ea0ef" /><stop offset="1" stop-color="#0078d4" /></linearGradient><linearGradient id="a23fb1db-0cb8-4edc-a263-81c2a28d7bdd" x1="8.974" y1="-0.698" x2="8.974" y2="9.083" gradientUnits="userSpaceOnUse"><stop offset="0.225" stop-color="#a67af4" /><stop offset="0.999" stop-color="#773adc" /></linearGradient></defs><g id="f6bb4b44-b5d1-4f6f-aac5-362210a13e0f"><g><path d="M9.851,12.53a.877.877,0,0,0-.627.261l-.007.007a.358.358,0,0,1-.505-.006.352.352,0,0,1-.1-.262L8.6,9.546A.282.282,0,0,0,8.46,9.3L6.428,8.122a1.6,1.6,0,0,1-.186.5,1.6,1.6,0,0,1-2.19.586,1.612,1.612,0,0,1-.588-2.194A1.584,1.584,0,0,1,3.8,6.6L1.433,5.227a.285.285,0,0,0-.427.247l.008,5.089,0,2.87a.568.568,0,0,0,.284.492l6.885,3.989a.285.285,0,0,0,.428-.247l0-1.388,0-1.983a.361.361,0,0,1,.617-.26.881.881,0,0,0,1.51-.618A.891.891,0,0,0,9.851,12.53Zm3.708-5.594a.359.359,0,0,1-.527-.405h0a.875.875,0,0,0-.087-.678.882.882,0,1,0-.984,1.3.361.361,0,0,1,.268.335.372.372,0,0,1-.2.334L9.466,9.3a.284.284,0,0,0-.143.247l0,2.35a1.593,1.593,0,0,1,.525-.087,1.612,1.612,0,0,1,1.605,1.607,1.6,1.6,0,0,1-1.6,1.6,1.642,1.642,0,0,1-.525-.087l0,2.781a.285.285,0,0,0,.427.246l6.947-4.01a.571.571,0,0,0,.285-.5l0-2.452-.009-5.551a.285.285,0,0,0-.427-.246Z" fill="url(#ed10159c-24a2-486a-934a-7022b18460c8)" /><path d="M13.755,5.992a1.647,1.647,0,0,0-.187-.5,1.6,1.6,0,1,0-2.435,2.014L9.106,8.676a.285.285,0,0,1-.285,0L6.242,7.181a.366.366,0,0,0-.289-.042.362.362,0,0,0-.249.444.882.882,0,1,1-1.077-.625h0a.339.339,0,0,0,.248-.215.37.37,0,0,0-.173-.45L1.753,4.579a.285.285,0,0,1,0-.493L8.7.076a.569.569,0,0,1,.57,0L16.2,4.091a.285.285,0,0,1,0,.493Z" fill="url(#a23fb1db-0cb8-4edc-a263-81c2a28d7bdd)" /></g></g></svg>