<svg xmlns="http://www.w3.org/2000/svg" width="18" height="18" viewBox="0 0 18 18"><defs><linearGradient id="f5b2791b-41f8-4d32-bff4-6ce9da2e73b4" x1="9" y1="1.498" x2="9" y2="17.709" gradientUnits="userSpaceOnUse"><stop offset="0" stop-color="#6bb9f2" /><stop offset="1" stop-color="#1b93eb" /></linearGradient><linearGradient id="acd675da-3857-46da-a0a2-2904c98f7d1e" x1="9" y1="13.77" x2="9" y2="2.92" gradientUnits="userSpaceOnUse"><stop offset="0" stop-color="#e6e6e6" /><stop offset="1" stop-color="#fff" /></linearGradient><linearGradient id="a01df12f-c71c-4b2a-819d-ce4e745e9c40" x1="8.312" y1="7.64" x2="8.312" y2="11.257" gradientUnits="userSpaceOnUse"><stop offset="0.225" stop-color="#32d4f5" /><stop offset="0.473" stop-color="#31d1f3" /><stop offset="0.633" stop-color="#2ec9eb" /><stop offset="0.999" stop-color="#198ab3" /><stop offset="1" stop-color="#198ab3" /></linearGradient><linearGradient id="e3cf0cbe-9566-48f8-9fd6-02823758a017" x1="8.22" y1="5.701" x2="8.485" y2="8.985" gradientUnits="userSpaceOnUse"><stop offset="0.225" stop-color="#32d4f5" /><stop offset="0.473" stop-color="#31d1f3" /><stop offset="0.633" stop-color="#2ec9eb" /><stop offset="0.999" stop-color="#198ab3" /><stop offset="1" stop-color="#198ab3" /></linearGradient></defs><g id="ae94c2c0-3a93-4b61-bb6f-219b5f382d3f"><g><path d="M16.232,8.416c0,4.752-5.745,8.578-6.994,9.354a.449.449,0,0,1-.476,0c-1.249-.776-6.994-4.6-6.994-9.354V2.7a.454.454,0,0,1,.444-.453C6.68,2.123,5.651.162,9,.162s2.32,1.961,6.788,2.082a.454.454,0,0,1,.444.453Z" fill="#1b93eb" /><path d="M15.632,8.464c0,4.359-5.268,7.867-6.414,8.579a.413.413,0,0,1-.436,0c-1.146-.712-6.414-4.22-6.414-8.579V3.22A.417.417,0,0,1,2.775,2.8C6.872,2.693,5.929.9,9,.9s2.128,1.8,6.225,1.909a.417.417,0,0,1,.407.416Z" fill="url(#f5b2791b-41f8-4d32-bff4-6ce9da2e73b4)" /><path d="M10.981,4.741l-.729-.3a.223.223,0,0,1-.126-.131L9.678,3.069a.225.225,0,0,0-.211-.149h-.94a.225.225,0,0,0-.216.163L7.96,4.3a.224.224,0,0,1-.132.146L7.182,4.7A.224.224,0,0,1,7,4.7l-1.237-.59a.226.226,0,0,0-.255.044l-.664.658a.225.225,0,0,0-.046.255l.595,1.273A.227.227,0,0,1,5.4,6.5l-.223.7a.228.228,0,0,1-.146.146l-1.232.4a.224.224,0,0,0-.157.214v.97a.226.226,0,0,0,.163.216l1.21.35a.226.226,0,0,1,.148.136l.231.61a.224.224,0,0,1-.007.174l-.555,1.2a.226.226,0,0,0,.043.252l.669.682a.226.226,0,0,0,.261.044l.032-.016L6.963,12a.223.223,0,0,1,.187-.008l.65.263a.222.222,0,0,1,.128.132l.447,1.238a.225.225,0,0,0,.212.148h.886a.224.224,0,0,0,.216-.162l.351-1.214a.228.228,0,0,1,.132-.146l.647-.261a.219.219,0,0,1,.179.005l1.178.551a.224.224,0,0,0,.255-.044l.625-.625a.226.226,0,0,0,.037-.269h0l-.012-.025L12.6,10.393a.225.225,0,0,1,0-.169l.268-.662A.226.226,0,0,1,13,9.435l1.206-.446a.226.226,0,0,0,.147-.211V7.892a.226.226,0,0,0-.165-.217l-1.2-.333a.223.223,0,0,1-.153-.145L12.6,6.485a.222.222,0,0,1,.01-.166l.556-1.2a.224.224,0,0,0-.045-.254l-.608-.608A.28.28,0,0,0,12.2,4.2Z" fill="url(#acd675da-3857-46da-a0a2-2904c98f7d1e)" /><path d="M12.011,9.818A1.565,1.565,0,0,0,11,8.4a.817.817,0,1,0-.9-.007,1.449,1.449,0,0,0-1,1.425.26.26,0,0,0,.232.286l.026,0h2.4a.26.26,0,0,0,.26-.259A.162.162,0,0,0,12.011,9.818Z" fill="#198ab3" /><path d="M10.1,10.6a.387.387,0,0,0,.388-.386c0-.015,0-.031,0-.046a2.211,2.211,0,0,0-2.173-2.21c-1.348,0-2.044.84-2.179,2.213a.389.389,0,0,0,.347.427l.039,0Z" fill="url(#a01df12f-c71c-4b2a-819d-ce4e745e9c40)" /><path d="M8.336,8.251a1.213,1.213,0,0,1-.661-.2l.654,1.711.651-1.7A1.219,1.219,0,0,1,8.336,8.251Z" fill="#fff" opacity="0.8" /><circle cx="8.327" cy="7.029" r="1.222" fill="url(#e3cf0cbe-9566-48f8-9fd6-02823758a017)" /></g></g></svg>