<svg xmlns="http://www.w3.org/2000/svg" width="18" height="18" viewBox="0 0 18 18"><defs><linearGradient id="eaa7e9e5-1fe9-4121-914c-0bacec87275b" x1="7.028" y1="1.179" x2="7.028" y2="14.227" gradientUnits="userSpaceOnUse"><stop offset="0" stop-color="#5ea0ef" /><stop offset="0.373" stop-color="#378fe4" /><stop offset="0.844" stop-color="#0078d4" /></linearGradient><linearGradient id="bb0b380a-52e3-424d-9c11-5874d3ac2152" x1="10.348" y1="14.579" x2="10.348" y2="9.835" gradientUnits="userSpaceOnUse"><stop offset="0" stop-color="#32bedd" /><stop offset="0.262" stop-color="#3dcdea" /><stop offset="0.695" stop-color="#4bdff9" /><stop offset="1" stop-color="#50e6ff" /></linearGradient><linearGradient id="ae962d9d-94d1-4c8e-8f73-e3c6ad3a6c0c" x1="56.505" y1="97.131" x2="56.505" y2="94.734" gradientTransform="translate(-58.102 -75.985) rotate(-7.262)" gradientUnits="userSpaceOnUse"><stop offset="0" stop-color="#ccc" /><stop offset="0.221" stop-color="#d8d8d8" /><stop offset="1" stop-color="#fff" /></linearGradient><linearGradient id="bf8f55e8-175b-4723-b6c0-064f36c3d2d2" x1="53.843" y1="91.717" x2="53.843" y2="89.319" gradientUnits="userSpaceOnUse"><stop offset="0" stop-color="#ccc" /><stop offset="0.221" stop-color="#d8d8d8" /><stop offset="1" stop-color="#fff" /></linearGradient></defs><g id="ed16dc8c-f56a-4093-8f1c-037bcf15f150"><g><path d="M13.443,9.147a2.963,2.963,0,0,0-2.5-2.89A3.7,3.7,0,0,0,7.2,2.633,3.762,3.762,0,0,0,3.618,5.168a3.516,3.516,0,0,0-3,3.45,3.557,3.557,0,0,0,3.612,3.5c.108,0,.214-.005.319-.014h5.85a.557.557,0,0,0,.154-.024A2.979,2.979,0,0,0,13.443,9.147Z" fill="url(#eaa7e9e5-1fe9-4121-914c-0bacec87275b)" /><path d="M10.282,14.574c-.871,0-1.742-.006-2.613,0-.236,0-.321-.059-.315-.32a1.357,1.357,0,0,0-1.333-1.427,1.4,1.4,0,0,0-1.387,1.412c0,.321-.028.345-.352.33a.928.928,0,0,1-.8-1.484,1.194,1.194,0,0,0,.1-.344A1.252,1.252,0,0,1,4.5,11.692a6.121,6.121,0,0,0,2.005-1.029,4.387,4.387,0,0,1,2.521-.82,7.171,7.171,0,0,1,2.941.417,4.648,4.648,0,0,1,1.54.934,2.771,2.771,0,0,0,1.637.724,6.01,6.01,0,0,1,1.062.238,1.793,1.793,0,0,1,1.12,1.186.9.9,0,0,1-.736,1.218,1.772,1.772,0,0,1-.253.014c-.353,0-.353,0-.366-.358a1.427,1.427,0,0,0-1.4-1.385,1.384,1.384,0,0,0-1.343,1.428c.008.281-.091.324-.33.32C12.025,14.567,11.154,14.575,10.282,14.574Z" fill="url(#bb0b380a-52e3-424d-9c11-5874d3ac2152)" /><path d="M5.987,15.367a1.131,1.131,0,0,1,.018-2.262,1.131,1.131,0,0,1-.018,2.262Z" fill="#32bedd" /><path d="M13.486,14.236a1.1,1.1,0,0,1,1.108-1.131,1.131,1.131,0,0,1,0,2.262A1.1,1.1,0,0,1,13.486,14.236Z" fill="#32bedd" /><g><polygon points="9.732 12.273 6.351 7.188 7.04 6.711 10.422 11.797 9.732 12.273" fill="#fff" /><path d="M8.91,12.186a1.177,1.177,0,1,1,1.31,1.039A1.156,1.156,0,0,1,8.91,12.186Z" fill="url(#ae962d9d-94d1-4c8e-8f73-e3c6ad3a6c0c)" /><path d="M5.585,7.152A1.177,1.177,0,1,1,6.894,8.191,1.154,1.154,0,0,1,5.585,7.152Z" fill="url(#bf8f55e8-175b-4723-b6c0-064f36c3d2d2)" /></g></g></g></svg>