<svg xmlns="http://www.w3.org/2000/svg" width="18" height="18" viewBox="0 0 18 18"><defs><linearGradient id="e31a95c6-6798-4549-8566-dd78084ae7bf" x1="10.686" y1="0.143" x2="10.686" y2="5.035" gradientUnits="userSpaceOnUse"><stop offset="0" stop-color="#83b9f9" /><stop offset="1" stop-color="#5ea0ef" /></linearGradient><linearGradient id="ac3095d3-9da0-44dd-a254-60454b429440" x1="14.828" y1="4.906" x2="14.828" y2="17.857" gradientUnits="userSpaceOnUse"><stop offset="0.154" stop-color="#83b9f9" /><stop offset="1" stop-color="#5ea0ef" /></linearGradient><linearGradient id="ba653e53-3ea3-4454-abf1-fc2965528aaa" x1="10.579" y1="5.034" x2="10.579" y2="17.815" gradientUnits="userSpaceOnUse"><stop offset="0.192" stop-color="#5ea0ef" /><stop offset="1" stop-color="#0078d4" /></linearGradient><linearGradient id="a67c5f0e-9118-4088-a3ac-3d9cd2a04df9" x1="7.95" y1="0.66" x2="7.95" y2="7.625" gradientUnits="userSpaceOnUse"><stop offset="0.441" stop-color="#5ea0ef" /><stop offset="1" stop-color="#0078d4" /></linearGradient><linearGradient id="f2308f2e-4d50-4ce5-8097-2242624a6311" x1="3.554" y1="3.554" x2="3.554" y2="12.77" gradientUnits="userSpaceOnUse"><stop offset="0" stop-color="#0078d4" /><stop offset="1" stop-color="#005ba1" /></linearGradient><linearGradient id="a11e3782-5b2f-4df8-a471-2b37c8a05d6f" x1="6.163" y1="8.759" x2="6.163" y2="13.256" gradientUnits="userSpaceOnUse"><stop offset="0" stop-color="#0078d4" /><stop offset="1" stop-color="#005ba1" /></linearGradient><linearGradient id="b752ef50-cac2-4139-860e-b7f8806f47a8" x1="13.5" y1="9.366" x2="13.5" y2="17.428" gradientUnits="userSpaceOnUse"><stop offset="0.152" stop-color="#fff" /><stop offset="1" stop-color="#f2f2f2" /></linearGradient></defs><g id="aba8b247-88e3-4304-b2fe-4bc98644f771"><g><g><path d="M14.489,5.021a8.129,8.129,0,0,0-2.832.014A12.146,12.146,0,0,0,6.883.66,5.2,5.2,0,0,1,9.24.146,5.1,5.1,0,0,1,14.489,5.021Z" fill="url(#e31a95c6-6798-4549-8566-dd78084ae7bf)" /><path d="M18,13.373a4.5,4.5,0,0,1-4.5,4.484,4.4,4.4,0,0,1-.61-.042,12.187,12.187,0,0,0,1.149-4.964,11.743,11.743,0,0,0-.582-3.961,15.722,15.722,0,0,0-1.8-3.856,8.129,8.129,0,0,1,2.832-.014A4.045,4.045,0,0,1,18,8.908a4.064,4.064,0,0,1-.674,2.107A4.432,4.432,0,0,1,18,13.373Z" fill="url(#ac3095d3-9da0-44dd-a254-60454b429440)" /><path d="M14.039,12.851a12.187,12.187,0,0,1-1.149,4.964c-.131-.017-.259-.04-.387-.069A4.5,4.5,0,0,1,9,13.373a4.085,4.085,0,0,1,.027-.484H8.59A17.565,17.565,0,0,0,7.108,7.624,13.077,13.077,0,0,1,8.59,6.335a7.222,7.222,0,0,1,3.067-1.3,15.722,15.722,0,0,1,1.8,3.856A11.743,11.743,0,0,1,14.039,12.851Z" fill="url(#ba653e53-3ea3-4454-abf1-fc2965528aaa)" /><path d="M11.657,5.035a7.207,7.207,0,0,0-3.067,1.3,12.985,12.985,0,0,0-1.482,1.29c-.062-.135-.125-.267-.19-.4A12.014,12.014,0,0,0,4.244,3.554,5.229,5.229,0,0,1,6.883.66,12.146,12.146,0,0,1,11.657,5.035Z" fill="url(#a67c5f0e-9118-4088-a3ac-3d9cd2a04df9)" /><path d="M7.108,7.625A17.271,17.271,0,0,0,3.736,12.77,4.9,4.9,0,0,1,0,8.2,4.825,4.825,0,0,1,4.244,3.554,12.014,12.014,0,0,1,6.918,7.228C6.983,7.358,7.046,7.49,7.108,7.625Z" fill="url(#f2308f2e-4d50-4ce5-8097-2242624a6311)" /><path d="M8.59,12.891l-3.52.014a4.867,4.867,0,0,1-1.334-.135A17.271,17.271,0,0,1,7.108,7.625,17.547,17.547,0,0,1,8.59,12.891Z" fill="url(#a11e3782-5b2f-4df8-a471-2b37c8a05d6f)" /></g><g><ellipse cx="13.5" cy="13.373" rx="3.917" ry="3.901" fill="url(#b752ef50-cac2-4139-860e-b7f8806f47a8)" /><path d="M10.176,13.606a3.306,3.306,0,0,0,.963,2.118L12.2,14.665a1.871,1.871,0,0,1-.529-1.059Z" fill="#83b9f9" /><path d="M15.687,10.869a3.311,3.311,0,0,0-1.954-.81v1.477a1.806,1.806,0,0,1,.906.371Z" fill="#83b9f9" /><path d="M11.314,10.869l1.059,1.059a1.8,1.8,0,0,1,.905-.37v-1.5A3.314,3.314,0,0,0,11.314,10.869Z" fill="#83b9f9" /><path d="M14.972,12.235a1.906,1.906,0,0,1,.376.905h1.477a3.262,3.262,0,0,0-.81-1.942Z" fill="#83b9f9" /><path d="M12.029,12.235,10.97,11.176a3.264,3.264,0,0,0-.794,1.964h1.477A1.906,1.906,0,0,1,12.029,12.235Z" fill="#83b9f9" /><path d="M16.221,12.315a.238.238,0,0,0-.3-.133l-2.181.879.169.429,2.181-.863a.233.233,0,0,0,.138-.3Z" fill="#f04049" /><circle cx="13.5" cy="13.373" r="0.635" fill="#4f4f4f" /></g></g></g></svg>