<svg xmlns="http://www.w3.org/2000/svg" width="18" height="18" viewBox="0 0 18 18"><g id="b4e61687-1685-4b95-b0e0-cb4273a10651"><g><polygon points="15.433 9.341 13.721 10.347 12.005 11.354 8.998 13.119 5.992 11.354 4.279 10.347 2.567 9.341 8.998 5.559 15.433 9.341" fill="#a33a85" /><polygon points="15.433 9.341 15.433 12.563 8.998 16.341 2.567 12.563 2.567 9.341 4.279 10.347 5.992 11.354 8.998 13.119 12.005 11.354 13.721 10.347 15.433 9.341" fill="#59285f" /></g><g><path d="M16.755,4.794V13.21a.565.565,0,0,1-.281.49L9.288,17.922A.566.566,0,0,1,9,18V9.022l7.679-4.51A.569.569,0,0,1,16.755,4.794Z" fill="#a33a85" opacity="0.6" /><path d="M16.68,4.512,9,9.011v.011L1.32,4.511A.551.551,0,0,1,1.526,4.3L8.718.075a.569.569,0,0,1,.57,0l7.189,4.227A.567.567,0,0,1,16.68,4.512Z" fill="#dc92bf" opacity="0.6" /><path d="M9,9.022V18a.547.547,0,0,1-.284-.077L1.526,13.7a.565.565,0,0,1-.281-.49V4.791a.564.564,0,0,1,.075-.28Z" fill="#ce74b6" opacity="0.6" /></g></g></svg>