<svg xmlns="http://www.w3.org/2000/svg" width="18" height="18" viewBox="0 0 18 18"><defs><linearGradient id="b262a39f-334e-4f70-a28d-64b8b000186e" x1="8.44" y1="4.529" x2="8.44" y2="12.659" gradientUnits="userSpaceOnUse"><stop offset="0.196" stop-color="#5ea0ef" /><stop offset="1" stop-color="#0078d4" /></linearGradient></defs><g id="a6375933-6526-4f62-9a1f-14ee5bde2b0c"><g><path d="M14.006.47V9.049l-.047,0h-.028l-.592.005H13.3a.288.288,0,0,0-.041,0A4.7,4.7,0,0,0,9.894,11c-.028.038-.053.075-.078.112a.209.209,0,0,0-.027.039.238.238,0,0,0-.023.041l0,0-.01.022-.013.04H9.065a.573.573,0,0,0-.076-.362,1.057,1.057,0,0,0-.183-.234L7.168,8.874a.675.675,0,0,0-.218-.181.666.666,0,0,0-.3-.072.655.655,0,0,0-.513.248l-1.76,1.818a.669.669,0,0,0-.232.568H.477a.471.471,0,0,1-.469-.47V.461A.469.469,0,0,1,.477,0H13.536A.471.471,0,0,1,14.006.47Z" fill="#005ba1" /><g><path d="M15.318,4.529V9.317a4.7,4.7,0,0,0-6.179,3.342H2.024a.461.461,0,0,1-.461-.461V4.529Z" fill="url(#b262a39f-334e-4f70-a28d-64b8b000186e)" /><path d="M2.025,1.6H14.856a.461.461,0,0,1,.462.461V4.529H1.564V2.053A.46.46,0,0,1,2.025,1.6Z" fill="#0078d4" /><path d="M11.888,6.591A1.068,1.068,0,1,1,10.82,7.659,1.068,1.068,0,0,1,11.888,6.591ZM7.419,7.659A1.068,1.068,0,1,0,8.487,6.591,1.067,1.067,0,0,0,7.419,7.659Zm-3.493,0A1.068,1.068,0,1,0,4.993,6.591,1.067,1.067,0,0,0,3.926,7.659Z" fill="#fff" /></g><path d="M15.959,15.8h1.509a4.242,4.242,0,0,0,.524-1.909H16.338A5.267,5.267,0,0,1,15.959,15.8Zm.379-2.211h1.654a4.228,4.228,0,0,0-.523-1.909H15.934A4.918,4.918,0,0,1,16.338,13.586ZM14.094,18a4.285,4.285,0,0,0,3.192-1.9H15.81A5.111,5.111,0,0,1,14.094,18Zm1.688-6.625h1.5A4.28,4.28,0,0,0,14,9.471l-.066,0L14,9.508a5.343,5.343,0,0,1,1.784,1.867Zm-2.006,0h1.677c-.072-.114-.146-.224-.226-.33A5.16,5.16,0,0,0,14,9.865c-.072-.05-.146-.1-.222-.145Zm0,2.211h2.26a4.549,4.549,0,0,0-.433-1.909H13.776Zm0,2.211h1.845a4.882,4.882,0,0,0,.415-1.909h-2.26Zm1.7.3-1.7,0v1.751A4.984,4.984,0,0,0,15.474,16.1Zm-2,0H11.9a4.923,4.923,0,0,0,1.577,1.673Zm0-6.381a4.752,4.752,0,0,0-1.527,1.531l-.075.124h1.6Zm0,4.168h-2.14a4.847,4.847,0,0,0,.415,1.909l1.725,0Zm0-2.211H11.731a4.973,4.973,0,0,0-.264.8,4.891,4.891,0,0,0-.133,1.114l2.14,0ZM13.266,18a5.139,5.139,0,0,1-1.707-1.9h-1.41c.015.021.028.042.045.062a4.02,4.02,0,0,0,.356.454A4.288,4.288,0,0,0,13.266,18ZM13.3,9.473a4.291,4.291,0,0,0-3.072,1.778c-.03.041-.057.081-.084.121h1.4c.022-.04.043-.08.066-.121A4.983,4.983,0,0,1,13.3,9.473Zm-3.158,1.9,0,0h0Zm-.709,2.211h1.6a5.135,5.135,0,0,1,.126-1.114,5.364,5.364,0,0,1,.243-.795H9.962a4.211,4.211,0,0,0-.338.8A4.324,4.324,0,0,0,9.436,13.586ZM9.962,15.8H11.41c-.017-.044-.035-.089-.05-.133a5.175,5.175,0,0,1-.314-1.442c-.009-.11-.013-.222-.014-.334h-1.6c0,.07.007.14.013.209a3.947,3.947,0,0,0,.065.46A4.22,4.22,0,0,0,9.962,15.8Zm-.339.25A4.191,4.191,0,0,1,5.87,11.568a.2.2,0,0,0-.014-.087.207.207,0,0,0-.115-.124.232.232,0,0,0-.086-.018h-.8c-.309,0-.378-.167-.18-.368L6.451,9.143a.226.226,0,0,1,.084-.075.233.233,0,0,1,.212,0,.222.222,0,0,1,.083.075L8.473,10.93a.774.774,0,0,1,.122.152c.052.094.031.154-.062.188a.738.738,0,0,1-.24.03H7.557a.229.229,0,0,0-.23.23A2.743,2.743,0,0,0,9.06,14.39,4.618,4.618,0,0,0,9.623,16.047Z" fill="#50e6ff" /></g></g></svg>