<svg xmlns="http://www.w3.org/2000/svg" width="18" height="18" viewBox="0 0 18 18"><g id="ab1cca84-93cf-4d33-bcf8-b6b3fb73ddf0"><g><g><polygon points="15.434 9.798 13.724 10.808 12.004 11.808 8.994 13.578 5.994 11.808 4.284 10.808 2.564 9.798 3.914 9.008 8.994 11.988 14.084 9.008 15.434 9.798" fill="#a33a85" /><polygon points="15.434 9.798 15.434 11.518 8.994 15.298 2.564 11.518 2.564 9.798 4.284 10.808 5.994 11.808 8.994 13.578 12.004 11.808 13.724 10.808 15.434 9.798" fill="#59285f" /></g><g><polygon points="15.434 6.488 13.724 7.488 12.614 8.138 12.004 8.498 8.994 10.258 5.994 8.498 5.384 8.138 4.284 7.488 2.564 6.488 8.994 2.698 15.434 6.488" fill="#a33a85" /><polygon points="15.434 6.488 15.434 8.208 14.084 9.008 8.994 11.988 3.914 9.008 2.564 8.208 2.564 6.488 4.284 7.488 5.384 8.138 5.994 8.498 8.994 10.258 12.004 8.498 12.614 8.138 13.724 7.488 15.434 6.488" fill="#59285f" /></g></g><g><path d="M16.755,4.794V13.21a.565.565,0,0,1-.281.49L9.288,17.922A.566.566,0,0,1,9,18V9.022l7.679-4.51A.569.569,0,0,1,16.755,4.794Z" fill="#a33a85" opacity="0.6" /><path d="M16.68,4.512,9,9.011v.011L1.32,4.511A.551.551,0,0,1,1.526,4.3L8.718.075a.569.569,0,0,1,.57,0l7.189,4.227A.567.567,0,0,1,16.68,4.512Z" fill="#dc92bf" opacity="0.6" /><path d="M9,9.022V18a.547.547,0,0,1-.284-.077L1.526,13.7a.565.565,0,0,1-.281-.49V4.791a.564.564,0,0,1,.075-.28Z" fill="#ce74b6" opacity="0.6" /></g></g></svg>