<svg xmlns="http://www.w3.org/2000/svg" width="18" height="18" viewBox="0 0 18 18"><defs><linearGradient id="beb28238-b3e6-487a-91f1-cccd7febd38e" x1="79.78" y1="683.519" x2="79.78" y2="687.516" gradientTransform="matrix(1, 0, 0, -1, -72, 701.516)" gradientUnits="userSpaceOnUse"><stop offset="0.15" stop-color="#ccc" /><stop offset="1" stop-color="#707070" /></linearGradient><linearGradient id="bad3ebc7-f1a3-4498-8f96-e9df4e918f3b" x1="79.741" y1="687.34" x2="79.741" y2="697.693" gradientTransform="matrix(1, 0, 0, -1, -72, 701.516)" gradientUnits="userSpaceOnUse"><stop offset="0" stop-color="#0078d4" /><stop offset="0.82" stop-color="#5ea0ef" /></linearGradient><linearGradient id="a39a9ef4-4743-4e6b-a88d-f19edf5da27d" x1="11.608" y1="-0.318" x2="11.608" y2="10.689" gradientUnits="userSpaceOnUse"><stop offset="0.212" stop-color="#ffb34d" /><stop offset="1" stop-color="#faa21d" /></linearGradient></defs><g id="a74fd4ef-6683-4ebb-8127-08ae112797ad"><g><path d="M10.842,17.124c-1.531-.245-1.531-1.348-1.531-3.063H6.248c0,1.776,0,2.879-1.531,3.063A.9.9,0,0,0,3.951,18h7.657A.9.9,0,0,0,10.842,17.124Z" fill="url(#beb28238-b3e6-487a-91f1-cccd7febd38e)" /><rect y="3.823" width="15.482" height="10.337" rx="0.521" fill="url(#bad3ebc7-f1a3-4498-8f96-e9df4e918f3b)" /><g><path d="M5.217.649V8.365A.69.69,0,0,0,5.909,9h4.679a.165.165,0,0,1,.071.023l.949.633,1.044.692.376.246a.241.241,0,0,0,.117.047.259.259,0,0,0,.281-.222v-1.3a.108.108,0,0,1,.117-.106H17.3a.711.711,0,0,0,.7-.645V.649A.72.72,0,0,0,17.3,0H5.909A.709.709,0,0,0,5.217.649Z" fill="url(#a39a9ef4-4743-4e6b-a88d-f19edf5da27d)" /><path d="M11.882,4.117H7.9a.5.5,0,0,1,0-.99h3.987a.5.5,0,0,1,0,.99Zm2.97,1.394a.5.5,0,0,0-.5-.5H7.9a.5.5,0,0,0,0,.99h6.462A.5.5,0,0,0,14.852,5.511Z" fill="#fff" /></g></g></g></svg>