<svg xmlns="http://www.w3.org/2000/svg" width="18" height="18" viewBox="0 0 18 18"><defs><linearGradient id="b19ea74f-b8c7-4b64-9a97-b6e9eebc071e" x1="-554.999" y1="1012.218" x2="-554.999" y2="1024.977" gradientTransform="matrix(1, 0, 0, -1, 564, 1025.516)" gradientUnits="userSpaceOnUse"><stop offset="0" stop-color="#0078d4" /><stop offset="0.156" stop-color="#1380da" /><stop offset="0.528" stop-color="#3c91e5" /><stop offset="0.822" stop-color="#559cec" /><stop offset="1" stop-color="#5ea0ef" /></linearGradient></defs><g id="e30852a4-6a4b-4964-a805-0af64453874b"><g><path d="M17.992,12.77c-.105.675-1.083,1.057-1.639,1.26-1.7.619-14.109.429-15.535-.394C.777,13.613.74,13.589.7,13.565l-.064-.04c-.057-.038-.11-.076-.16-.115A1,1,0,0,1,0,12.655l0,2.438c0,1.093,2.118,1.535,2.9,1.737a20.963,20.963,0,0,0,4,.554,29.042,29.042,0,0,0,8.145-.529c.889-.2,2.594-.575,2.927-1.567a.675.675,0,0,0,.02-.1c0-.019,0-.037,0-.076l0-2.438A.894.894,0,0,1,17.992,12.77Z" fill="#5e9624" /><ellipse cx="9.001" cy="12.665" rx="2.358" ry="8.996" transform="translate(-3.673 21.652) rotate(-89.936)" fill="#76bc2d" /><path d="M11.5,14.308c-4.087.3-8.518-.188-9.9-1.1s.814-1.888,4.9-2.191,8.516.188,9.9,1.1S15.584,14.005,11.5,14.308Z" fill="#f2f2f2" /><path d="M18,9.3A4.042,4.042,0,0,0,14.49,5.414,5.1,5.1,0,0,0,9.242.541a5.227,5.227,0,0,0-5,3.407A4.823,4.823,0,0,0,0,8.6a4.9,4.9,0,0,0,5.068,4.7c.151,0,.3-.007.446-.02h8.205a.837.837,0,0,0,.217-.032A4.091,4.091,0,0,0,18,9.3Z" fill="url(#b19ea74f-b8c7-4b64-9a97-b6e9eebc071e)" /></g></g></svg>