<svg xmlns="http://www.w3.org/2000/svg" width="18" height="18" viewBox="0 0 18 18"><defs><linearGradient id="a6239b38-8870-45d5-a956-76fe314707f4" x1="-555" y1="1012.831" x2="-555" y2="1024.831" gradientTransform="matrix(1, 0, 0, -1, 564, 1025.516)" gradientUnits="userSpaceOnUse"><stop offset="0" stop-color="#0078d4" /><stop offset="0.82" stop-color="#5ea0ef" /></linearGradient><linearGradient id="b504b1da-6339-49fa-89c2-5db4100573e8" x1="-554.99" y1="1008.201" x2="-554.99" y2="1012.831" gradientTransform="matrix(1, 0, 0, -1, 564, 1025.516)" gradientUnits="userSpaceOnUse"><stop offset="0" stop-color="#1490df" /><stop offset="0.98" stop-color="#1f56a3" /></linearGradient></defs><g id="b97a6176-1c69-486e-8ea6-6486d0cb0f8d"><g><rect y="0.685" width="18" height="12" rx="0.6" fill="url(#a6239b38-8870-45d5-a956-76fe314707f4)" /><path d="M12.61,16.315c-1.78-.28-1.85-1.56-1.84-3.63H7.2c0,2.07,0,3.35-1.81,3.63a1,1,0,0,0-.88,1h9A1.061,1.061,0,0,0,12.61,16.315Z" fill="url(#b504b1da-6339-49fa-89c2-5db4100573e8)" /><g id="b4f96190-8db9-48f7-ad4e-c4a40f2a4cb2" data-name="b60cdf7c-998d-4b07-83eb-3c17ec41d74f"><g><rect x="7.304" y="5.7" width="2.793" height="2.793" rx="0.11" fill="#9cebff" /><path d="M11.864,3.73H9.225a.109.109,0,0,0-.109.108h0v.48a.109.109,0,0,0,.109.109h1.941a.218.218,0,0,1,.219.218h0V6.619a.108.108,0,0,0,.108.108h.481a.108.108,0,0,0,.109-.108V3.949a.219.219,0,0,0-.219-.219Z" fill="#773adc" /><path d="M10.938,7.187V8.924a.2.2,0,0,1-.2.2H6.772a.2.2,0,0,1-.2-.2h0V5.18a.2.2,0,0,1,.2-.2H8.761a.109.109,0,0,0,.108-.109h0V4.455a.109.109,0,0,0-.108-.109H6.137a.2.2,0,0,0-.2.2V9.56a.2.2,0,0,0,.2.2h5.237a.2.2,0,0,0,.2-.2V7.187a.109.109,0,0,0-.109-.109h-.418a.108.108,0,0,0-.109.108Z" fill="#fff" /></g></g></g></g></svg>