<svg xmlns="http://www.w3.org/2000/svg" width="18" height="18" viewBox="0 0 18 18"><defs><linearGradient id="b5a82a9d-878e-42f0-bd91-0f7360b5277c" x1="8.741" y1="-0.017" x2="8.741" y2="11.629" gradientUnits="userSpaceOnUse"><stop offset="0.18" stop-color="#5ea0ef" /><stop offset="1" stop-color="#0078d4" /></linearGradient><linearGradient id="a133814a-345d-46df-94f0-0652068a6de6" x1="6.97" y1="11.629" x2="6.97" y2="16.125" gradientUnits="userSpaceOnUse"><stop offset="0.202" stop-color="#1f56a3" /><stop offset="1" stop-color="#1490df" /></linearGradient><linearGradient id="b7020e43-799a-4c9b-9527-3e93de243b16" x1="13.657" y1="9.249" x2="13.657" y2="17.97" gradientUnits="userSpaceOnUse"><stop offset="0.131" stop-color="#b796f9" /><stop offset="1" stop-color="#773adc" /></linearGradient></defs><g id="a74f3650-7131-45c5-95f9-018d92ad8a11"><g><g><path d="M17.449.585v9.468a.28.28,0,0,1-.472.2,4.728,4.728,0,0,0-7.515,1.371H.618a.587.587,0,0,1-.586-.587V.586A.586.586,0,0,1,.618,0H16.864A.585.585,0,0,1,17.449.585Z" fill="url(#b5a82a9d-878e-42f0-bd91-0f7360b5277c)" /><path d="M9.165,16.056H4.478a1.018,1.018,0,0,1,.86-.983c1.724-.206,1.724-1.446,1.724-3.444h2.4a4.729,4.729,0,0,0-.041,4.032A.28.28,0,0,1,9.165,16.056Z" fill="url(#a133814a-345d-46df-94f0-0652068a6de6)" /></g><g id="bda3341c-070d-4f05-a4cb-fd8eda7c59c2"><g><rect x="7.025" y="4.814" width="2.697" height="2.697" rx="0.106" fill="#9cebff" /><path d="M11.427,2.912H8.879a.1.1,0,0,0-.105.1h0v.463a.1.1,0,0,0,.105.1h1.874a.212.212,0,0,1,.212.211h0V5.7a.1.1,0,0,0,.1.1h.465a.1.1,0,0,0,.1-.1V3.123a.21.21,0,0,0-.211-.211Z" fill="#773adc" /><path d="M10.533,6.249V7.927a.192.192,0,0,1-.193.192H6.511a.193.193,0,0,1-.193-.192h0V4.312a.193.193,0,0,1,.193-.193h1.92a.1.1,0,0,0,.1-.1h0v-.4a.1.1,0,0,0-.1-.1H5.9a.192.192,0,0,0-.193.191V8.541a.192.192,0,0,0,.193.192h5.056a.193.193,0,0,0,.193-.192V6.249a.1.1,0,0,0-.105-.1h-.4a.1.1,0,0,0-.106.1Z" fill="#fff" /></g></g><g><rect x="9.347" y="9.379" width="8.621" height="8.621" rx="4.311" fill="url(#b7020e43-799a-4c9b-9527-3e93de243b16)" /><path d="M15.866,16.209H11.449l.01-.026.9-2.054q.639-1.458,1.278-2.918a.057.057,0,0,1,.063-.041c.082,0,.082,0,.112.074q.737,1.782,1.474,3.562l.57,1.379ZM15,15.9l-1.47-3.614L11.937,15.9Z" fill="#fff" /></g></g></g></svg>