<svg xmlns="http://www.w3.org/2000/svg" width="18" height="18" viewBox="0 0 18 18"><defs><linearGradient id="ab7bd307-a1a5-47a9-9d75-d4a1e8a13c0c" x1="6.094" y1="15.213" x2="6.094" y2="0.303" gradientUnits="userSpaceOnUse"><stop offset="0" stop-color="#0078d4" /><stop offset="1" stop-color="#5ea0ef" /></linearGradient></defs><g id="b5e76b12-28ef-4cdc-a26c-07c5cd2a1965"><path d="M12.184.508v7.38l-.1.06-3.29,1.9a.407.407,0,0,0-.2.26v.02a.355.355,0,0,0-.02.1v4.68H.514A.512.512,0,0,1,0,14.4V.508A.512.512,0,0,1,.514,0h11.16A.512.512,0,0,1,12.184.508Z" fill="url(#ab7bd307-a1a5-47a9-9d75-d4a1e8a13c0c)" /><g><path d="M1.543,2.605H2.9a.254.254,0,0,1,.254.254v.992a.254.254,0,0,1-.254.254H1.543a.255.255,0,0,1-.255-.254V2.859A.255.255,0,0,1,1.543,2.605ZM1.3,5.615v.992a.255.255,0,0,0,.255.254H2.918a.254.254,0,0,0,.254-.254V5.615a.254.254,0,0,0-.254-.254H1.55A.255.255,0,0,0,1.3,5.615Z" fill="#fff" opacity="0.8" /><path d="M4.684,2.605h5.924a.254.254,0,0,1,.254.254v.992a.254.254,0,0,1-.254.254H4.684a.255.255,0,0,1-.255-.254V2.859A.255.255,0,0,1,4.684,2.605Zm-.255,3.01v.992a.255.255,0,0,0,.255.254h5.957a.255.255,0,0,0,.255-.254V5.615a.255.255,0,0,0-.255-.254H4.684A.255.255,0,0,0,4.429,5.615Z" fill="#fff" /></g><polygon points="18 10.21 18 15.406 13.505 18 13.501 17.992 13.501 12.8 18 10.21" fill="#50e6ff" /><polygon points="18 10.21 13.501 12.8 9.013 10.219 9.004 10.237 9.004 15.384 9 15.388 9 10.229 9.004 10.21 13.505 7.612 18 10.21" fill="#c3f1ff" /><polygon points="13.501 12.8 13.501 17.992 9.004 15.402 9.004 10.237 9.013 10.219 13.501 12.8" fill="#9cebff" /><g><path d="M13.716,7.246l-.07-.028c.012,0,.026.009.038.013S13.705,7.241,13.716,7.246Z" fill="#fff" /><g><path d="M12.184.508v7.38l-.1.06-3.29,1.9a.407.407,0,0,0-.2.26v.02a.355.355,0,0,0-.02.1v4.68H.514A.512.512,0,0,1,0,14.4V.508A.512.512,0,0,1,.514,0h11.16A.512.512,0,0,1,12.184.508Z" fill="url(#ab7bd307-a1a5-47a9-9d75-d4a1e8a13c0c)" /><g><path d="M1.543,2.605H2.9a.254.254,0,0,1,.254.254v.992a.254.254,0,0,1-.254.254H1.543a.255.255,0,0,1-.255-.254V2.859A.255.255,0,0,1,1.543,2.605ZM1.3,5.615v.992a.255.255,0,0,0,.255.254H2.918a.254.254,0,0,0,.254-.254V5.615a.254.254,0,0,0-.254-.254H1.55A.255.255,0,0,0,1.3,5.615Z" fill="#fff" opacity="0.8" /><path d="M4.684,2.605h5.924a.254.254,0,0,1,.254.254v.992a.254.254,0,0,1-.254.254H4.684a.255.255,0,0,1-.255-.254V2.859A.255.255,0,0,1,4.684,2.605Zm-.255,3.01v.992a.255.255,0,0,0,.255.254h5.957a.255.255,0,0,0,.255-.254V5.615a.255.255,0,0,0-.255-.254H4.684A.255.255,0,0,0,4.429,5.615Z" fill="#fff" /></g></g><path d="M13.716,7.246l-.07-.028c.012,0,.026.009.038.013S13.705,7.241,13.716,7.246Z" fill="#fff" /></g><path d="M16.39,9.279l-4.375,2.665-.005.846a.064.064,0,0,1-.066.063.079.079,0,0,1-.049-.022l-.581-.693a.067.067,0,0,0-.062-.021l-.541.114a.06.06,0,0,1-.076-.048.017.017,0,0,1,0-.014V11.15l4.385-2.664h.005Z" fill="#fff" opacity="0.5" /></g></svg>