<svg xmlns="http://www.w3.org/2000/svg" width="18" height="18" viewBox="0 0 18 18"><defs><linearGradient id="e528ba14-992e-47c5-bef0-663ca17820dc" x1="11.994" y1="-0.209" x2="11.994" y2="10.309" gradientUnits="userSpaceOnUse"><stop offset="0.141" stop-color="#0078d4" /><stop offset="1" stop-color="#005ba1" /></linearGradient><linearGradient id="b050b43a-c70e-4827-aa54-37799bdb11bc" x1="14.007" y1="773.156" x2="8.781" y2="782.207" gradientTransform="matrix(1, 0, 0, -1, 0, 791.516)" gradientUnits="userSpaceOnUse"><stop offset="0" stop-color="#005ba1" /><stop offset="0.765" stop-color="#0078d4" /></linearGradient><linearGradient id="bf6362c5-fa60-479b-82f4-db6db7ad3911" x1="3.561" y1="2.123" x2="7.189" y2="5.751" gradientUnits="userSpaceOnUse"><stop offset="0" stop-color="#50e6ff" /><stop offset="1" stop-color="#32bedd" /></linearGradient><linearGradient id="a3174f49-fd6f-4b79-8052-8c8487ba3867" x1="1.245" y1="9.432" x2="8.564" y2="16.751" gradientUnits="userSpaceOnUse"><stop offset="0" stop-color="#50e6ff" /><stop offset="1" stop-color="#32bedd" /></linearGradient><linearGradient id="b73ce571-9a63-4ed7-8627-af050cd0b779" x1="9.42" y1="4.015" x2="12.866" y2="7.46" gradientUnits="userSpaceOnUse"><stop offset="0.235" stop-color="#0078d4" /><stop offset="1" stop-color="#005ba1" /></linearGradient></defs><g id="fb3fffd4-fcab-4bf1-8ec6-bc44099bb14c"><g><path d="M11.108,0A5.675,5.675,0,0,0,7.27,1.486a.28.28,0,0,0,.011.425A2.8,2.8,0,0,1,8.14,3.037a.283.283,0,0,0,.461.1,3.59,3.59,0,1,1,4.546,5.524.28.28,0,0,0,.013.474,4.8,4.8,0,0,1,1.153.964.283.283,0,0,0,.391.033A5.7,5.7,0,0,0,11.108,0Z" fill="url(#e528ba14-992e-47c5-bef0-663ca17820dc)" /><g><g><path d="M9.322,18h5.157a.611.611,0,0,0,.6-.595V13.239a4.364,4.364,0,0,0-8.728,0Z" fill="url(#b050b43a-c70e-4827-aa54-37799bdb11bc)" /><path d="M5.553,6.5a2.38,2.38,0,1,0-2.38-2.38A2.38,2.38,0,0,0,5.553,6.5Z" fill="url(#bf6362c5-fa60-479b-82f4-db6db7ad3911)" /><path d="M1.785,18H9.322a.611.611,0,0,0,.6-.595V11.653a4.364,4.364,0,1,0-8.728,0v5.752A.611.611,0,0,0,1.785,18Z" fill="url(#a3174f49-fd6f-4b79-8052-8c8487ba3867)" /></g><circle cx="11.108" cy="5.702" r="2.38" fill="url(#b73ce571-9a63-4ed7-8627-af050cd0b779)" /></g></g></g></svg>