<svg xmlns="http://www.w3.org/2000/svg" width="18" height="18" viewBox="0 0 18 18"><defs><linearGradient id="a3e739ae-cb17-4b89-95d8-31ac90290d58" x1="9" y1="-0.052" x2="9" y2="17.947" gradientUnits="userSpaceOnUse"><stop offset="0.219" stop-color="#0078d4" /><stop offset="1" stop-color="#005ba1" /></linearGradient><linearGradient id="bc6bb556-6442-4211-ba5d-93a2c6e42561" x1="9.013" y1="4.425" x2="9.013" y2="13.575" gradientUnits="userSpaceOnUse"><stop offset="0.191" stop-color="#005ba1" /><stop offset="1" stop-color="#003067" /></linearGradient><linearGradient id="a5b82a41-94a6-4cb6-9b6d-96e201e4f28b" x1="6.033" y1="4.66" x2="12.241" y2="4.66" gradientUnits="userSpaceOnUse"><stop offset="0.314" stop-color="#9cebff" /><stop offset="1" stop-color="#50e6ff" /></linearGradient><linearGradient id="adf8b433-0d4b-44dc-9066-35193fbbfb85" x1="8.633" y1="8.328" x2="14.824" y2="8.328" gradientUnits="userSpaceOnUse"><stop offset="0.357" stop-color="#50e6ff" /><stop offset="1" stop-color="#32bedd" /></linearGradient><linearGradient id="e01e6017-d158-463b-ab8a-471754e6302c" x1="5.119" y1="13.34" x2="11.689" y2="13.34" gradientUnits="userSpaceOnUse"><stop offset="0.314" stop-color="#9cebff" /><stop offset="1" stop-color="#50e6ff" /></linearGradient><linearGradient id="b3c94a3b-6e49-4382-bec6-90a5495464b5" x1="6.164" y1="5.986" x2="6.164" y2="13.06" gradientUnits="userSpaceOnUse"><stop offset="0.357" stop-color="#50e6ff" /><stop offset="1" stop-color="#32bedd" /></linearGradient></defs><g id="ada12d3a-f453-4740-aeef-b7e744093c93"><g><path d="M18,9.617V8.4a.562.562,0,0,0-.385-.534l-2.029-.676a.284.284,0,0,1-.173-.166l-.437-1.136a.285.285,0,0,1,.011-.227L15.914,3.8a.562.562,0,0,0-.106-.648L14.9,2.246a.561.561,0,0,0-.649-.106l-1.858.927a.278.278,0,0,1-.226.01l-1.141-.439a.277.277,0,0,1-.162-.163L10.09.418A.563.563,0,0,0,9.564.053H8.344a.564.564,0,0,0-.532.378L7.135,2.376a.28.28,0,0,1-.148.163l-1.145.527a.283.283,0,0,1-.243,0L3.753,2.14a.563.563,0,0,0-.649.1l-.91.909a.565.565,0,0,0-.106.65L3.017,5.66a.285.285,0,0,1,.011.227l-.44,1.142a.282.282,0,0,1-.164.162L.365,7.963A.561.561,0,0,0,0,8.49V9.706a.561.561,0,0,0,.385.533l2.032.678a.282.282,0,0,1,.173.166l.438,1.137a.285.285,0,0,1-.011.227L2.088,14.3a.564.564,0,0,0,.1.65l.911.911a.561.561,0,0,0,.649.1l1.855-.928a.277.277,0,0,1,.227-.011l1.145.439a.283.283,0,0,1,.161.161l.767,1.962a.562.562,0,0,0,.524.358H9.655a.563.563,0,0,0,.534-.385l.677-2.029a.283.283,0,0,1,.166-.174l1.135-.436a.278.278,0,0,1,.226.01l1.858.926a.563.563,0,0,0,.649-.106l.9-.9a.562.562,0,0,0,.1-.658l-.913-1.745a.282.282,0,0,1-.013-.231l.438-1.14a.283.283,0,0,1,.164-.163l2.056-.77A.562.562,0,0,0,18,9.617ZM9.013,13.575A4.575,4.575,0,1,1,13.587,9,4.576,4.576,0,0,1,9.013,13.575Z" fill="url(#a3e739ae-cb17-4b89-95d8-31ac90290d58)" /><circle cx="9.013" cy="9" r="4.575" fill="url(#bc6bb556-6442-4211-ba5d-93a2c6e42561)" /><g><path d="M12.773,5.34c-.073-.039-.147-.076-.223-.112a4.661,4.661,0,0,0-3.917-.134A3.959,3.959,0,0,0,7,5.652a.318.318,0,0,1-.444-.131c-.115-.229-.231-.458-.352-.7a.319.319,0,0,1,.121-.417,4.8,4.8,0,0,1,4.753-.281A5.612,5.612,0,0,1,12.773,5.34Z" fill="url(#a5b82a41-94a6-4cb6-9b6d-96e201e4f28b)" /><path d="M12.541,11.755l-.976-1.947a.319.319,0,0,1,.35-.454l.584.123a3.376,3.376,0,0,0-.691-3.04A3.549,3.549,0,0,0,8.633,5.094a4.661,4.661,0,0,1,3.917.134c.076.036.15.073.223.112a5.045,5.045,0,0,1,1.256,3.774q-.012.327-.051.669l.124.026.47.1a.319.319,0,0,1,.138.556l-1.34,1.11c-.114.094-.227.189-.343.284A.318.318,0,0,1,12.541,11.755Z" fill="url(#adf8b433-0d4b-44dc-9066-35193fbbfb85)" /><g><path d="M5.119,12.66c.073.039.147.076.224.112a4.661,4.661,0,0,0,3.917.134,3.955,3.955,0,0,0,1.633-.558.318.318,0,0,1,.444.131l.352.7a.319.319,0,0,1-.121.417,4.8,4.8,0,0,1-4.753.281A5.624,5.624,0,0,1,5.119,12.66Z" fill="url(#e01e6017-d158-463b-ab8a-471754e6302c)" /><path d="M5.352,6.245l.975,1.947a.319.319,0,0,1-.35.454l-.584-.123a3.376,3.376,0,0,0,.691,3.04A3.549,3.549,0,0,0,9.26,12.906a4.661,4.661,0,0,1-3.917-.134c-.077-.036-.151-.073-.224-.112A5.04,5.04,0,0,1,3.864,8.886q.011-.327.051-.669l-.124-.026-.47-.1a.318.318,0,0,1-.138-.556c.454-.376.894-.74,1.339-1.11l.343-.284A.319.319,0,0,1,5.352,6.245Z" fill="url(#b3c94a3b-6e49-4382-bec6-90a5495464b5)" /></g></g></g></g></svg>