<svg xmlns="http://www.w3.org/2000/svg" width="18" height="18" viewBox="0 0 18 18"><defs><linearGradient id="f80faa5f-01d6-470d-9b4b-2f1d9b4be881" x1="7.955" y1="3.547" x2="7.955" y2="12.614" gradientUnits="userSpaceOnUse"><stop offset="0" stop-color="#5ea0ef" /><stop offset="1" stop-color="#0078d4" /></linearGradient><linearGradient id="e1178db9-a4a8-4a17-911c-51ece799d710" x1="13.499" y1="8.479" x2="13.499" y2="18.277" gradientUnits="userSpaceOnUse"><stop offset="0.232" stop-color="#50e6ff" /><stop offset="1" stop-color="#32bedd" /></linearGradient></defs><g id="a364ed68-2872-4715-baa2-ea7a446a6be8"><g><g><path d="M15.91,3.547v8.558a.52.52,0,0,1-.531.5H.531A.514.514,0,0,1,0,12.093V3.547Z" fill="url(#f80faa5f-01d6-470d-9b4b-2f1d9b4be881)" /><path d="M15.91,3.547H0V.791A.514.514,0,0,1,.531.279H15.366a.513.513,0,0,1,.53.512V3.547Z" fill="#0078d4" /></g><path d="M15.91,7.6v4.619a.519.519,0,0,1-.531.5h.531Z" fill="#fff" /><g id="e329fbbc-e606-4a71-8d43-e218db1d34ae"><path d="M17.022,17.72H9.975A.983.983,0,0,1,9,16.742V9.711a.983.983,0,0,1,.978-.978h7.047A.978.978,0,0,1,18,9.711v7.032a.978.978,0,0,1-.978.978Z" fill="url(#e1178db9-a4a8-4a17-911c-51ece799d710)" /></g></g><path d="M13.5,2.563H2.409A.269.269,0,0,1,2.137,2.3V1.5a.268.268,0,0,1,.272-.262H13.5a.268.268,0,0,1,.272.262v.814A.267.267,0,0,1,13.5,2.563Zm-.744,10.474-1.9-1.9a.117.117,0,0,0-.165,0l-.257.258h0a.117.117,0,0,0,0,.165l1.65,1.645-1.614,1.619a.116.116,0,0,0,0,.164l.259.258h0a.115.115,0,0,0,.164,0l1.87-1.875a.245.245,0,0,0,0-.337Zm3.64,1.609h-2.92a.2.2,0,0,0-.2.2v.3a.2.2,0,0,0,.2.2H16.4a.2.2,0,0,0,.2-.2v-.3A.2.2,0,0,0,16.4,14.646Z" fill="#fff" /></g></svg>