<svg xmlns="http://www.w3.org/2000/svg" width="18" height="18" viewBox="0 0 18 18"><defs><linearGradient id="aedd8519-b5df-4807-b867-727f58e24416" x1="13.689" y1="9.249" x2="13.689" y2="17.97" gradientUnits="userSpaceOnUse"><stop offset="0.131" stop-color="#b796f9" /><stop offset="1" stop-color="#773adc" /></linearGradient><linearGradient id="b96ac090-fa87-4154-8258-6d615c48a534" x1="9.949" y1="0.702" x2="9.949" y2="15.185" gradientUnits="userSpaceOnUse"><stop offset="0" stop-color="#999" /><stop offset="0.999" stop-color="#767676" /></linearGradient><linearGradient id="feb72bf8-4385-41c6-9050-4cbf27b81957" x1="9.949" y1="4.513" x2="9.949" y2="11.352" gradientUnits="userSpaceOnUse"><stop offset="0.001" stop-color="#b3b3b3" /><stop offset="1" stop-color="#999" /></linearGradient><linearGradient id="e02f0a2c-a24a-438b-88e7-4e821460f3b3" x1="5.139" y1="-0.223" x2="5.139" y2="16.194" gradientUnits="userSpaceOnUse"><stop offset="0" stop-color="#0078d4" /><stop offset="1" stop-color="#005ba1" /></linearGradient></defs><g id="b7418aa3-6ee4-4999-aafc-ab2571c67735"><g><g><rect x="9.379" y="9.379" width="8.621" height="8.621" rx="4.311" fill="url(#aedd8519-b5df-4807-b867-727f58e24416)" /><path d="M15.9,16.209H11.481l.01-.026.9-2.054q.64-1.458,1.278-2.918a.057.057,0,0,1,.063-.041c.082,0,.082,0,.112.075q.738,1.781,1.474,3.561l.57,1.379Zm-.87-.31-1.47-3.614L11.969,15.9Z" fill="#fff" /></g><g><path d="M16.952,7.912a7.059,7.059,0,0,1-.2,1.681.281.281,0,0,1-.427.167,4.733,4.733,0,0,0-7.368,3.925,4.778,4.778,0,0,0,.152,1.192,7.012,7.012,0,0,1-5.816-4.786h0a7.009,7.009,0,0,1-.345-2.178,6.958,6.958,0,0,1,.1-1.19,6.862,6.862,0,0,1,.231-.953A7.008,7.008,0,0,1,9.949.9c.111,0,.221,0,.329.007A7.011,7.011,0,0,1,16.952,7.912Z" fill="url(#b96ac090-fa87-4154-8258-6d615c48a534)" /><path d="M13.251,7.912A3.242,3.242,0,0,1,13.068,9,4.747,4.747,0,0,0,9.66,11.207,3.3,3.3,0,0,1,7.307,9.9a3.248,3.248,0,0,1-.518-1.025h0a3.313,3.313,0,0,1,0-1.919l0,0h0A3.3,3.3,0,0,1,9.949,4.606a3.249,3.249,0,0,1,.329.017A3.3,3.3,0,0,1,13.251,7.912Z" fill="url(#feb72bf8-4385-41c6-9050-4cbf27b81957)" /><g><path d="M10.278.5V10.41a4.733,4.733,0,0,0-1.323,3.275,4.778,4.778,0,0,0,.152,1.192,4.864,4.864,0,0,0,.2.587.28.28,0,0,1-.262.382H.5a.5.5,0,0,1-.5-.5V.5A.5.5,0,0,1,.5,0H9.783A.5.5,0,0,1,10.278.5Z" fill="url(#e02f0a2c-a24a-438b-88e7-4e821460f3b3)" /><g><polygon points="7.909 6.286 7.928 9.526 5.163 11.17 5.143 7.923 7.909 6.286" fill="#50e6ff" /><polygon points="7.909 6.286 5.143 7.93 2.35 6.32 5.123 4.676 7.909 6.286" fill="#c3f1ff" /><polygon points="5.143 7.93 5.163 11.17 2.37 9.56 2.35 6.32 5.143 7.93" fill="#9cebff" /><polygon points="2.37 9.56 5.143 7.923 5.163 11.17 2.37 9.56" fill="#c3f1ff" /><polygon points="7.928 9.526 5.143 7.923 5.163 11.17 7.928 9.526" fill="#9cebff" /></g></g></g></g></g></svg>