<svg xmlns="http://www.w3.org/2000/svg" width="18" height="18" viewBox="0 0 18 18"><defs><linearGradient id="e881218a-e4bf-4e0e-bbcf-da090b5b5cbf" x1="10.564" y1="1.333" x2="10.564" y2="16.765" gradientUnits="userSpaceOnUse"><stop offset="0" stop-color="#999" /><stop offset="0.999" stop-color="#767676" /></linearGradient><linearGradient id="aab4f9d9-9377-4fd9-b798-ac0a7f7cafdb" x1="10.564" y1="5.379" x2="10.564" y2="12.655" gradientUnits="userSpaceOnUse"><stop offset="0.001" stop-color="#b3b3b3" /><stop offset="1" stop-color="#999" /></linearGradient><linearGradient id="b836196c-4c51-4b78-af87-4d352c55cb07" x1="5.456" y1="0.351" x2="5.456" y2="17.782" gradientUnits="userSpaceOnUse"><stop offset="0" stop-color="#0078d4" /><stop offset="1" stop-color="#005ba1" /></linearGradient></defs><g id="ffc139e1-9759-4c62-86f0-fb6d6244ccb9"><g><path d="M18,8.989a7.465,7.465,0,0,1-.418,2.468c-.058.165-.122.327-.19.486a7.106,7.106,0,0,1-.378.756,7.449,7.449,0,0,1-4.647,3.518l-.014,0-.062.016-.031.006a7.274,7.274,0,0,1-.9.154c-.146.016-.294.027-.443.033-.027,0-.054,0-.081,0-.089,0-.178.006-.267.006A7.44,7.44,0,0,1,3.494,11.3a7.288,7.288,0,0,1-.249-1,7.435,7.435,0,0,1-.116-1.318,7.521,7.521,0,0,1,.106-1.264,7.442,7.442,0,0,1,7.329-6.183c.116,0,.232,0,.348.008A7.443,7.443,0,0,1,18,8.989Z" fill="url(#e881218a-e4bf-4e0e-bbcf-da090b5b5cbf)" /><ellipse cx="10.564" cy="8.989" rx="3.505" ry="3.511" fill="url(#aab4f9d9-9377-4fd9-b798-ac0a7f7cafdb)" /><g><rect y="0.588" width="10.912" height="16.825" rx="0.526" fill="url(#b836196c-4c51-4b78-af87-4d352c55cb07)" /><g><polygon points="8.397 7.262 8.418 10.702 5.481 12.447 5.46 9 8.397 7.262" fill="#50e6ff" /><polygon points="8.397 7.262 5.461 9.007 2.495 7.297 5.44 5.552 8.397 7.262" fill="#c3f1ff" /><polygon points="5.461 9.007 5.481 12.447 2.516 10.738 2.495 7.297 5.461 9.007" fill="#9cebff" /><polygon points="2.516 10.738 5.46 9 5.481 12.447 2.516 10.738" fill="#c3f1ff" /><polygon points="8.418 10.702 5.46 9 5.481 12.447 8.418 10.702" fill="#9cebff" /></g></g></g></g></svg>