<svg xmlns="http://www.w3.org/2000/svg" width="18" height="18" viewBox="0 0 18 18"><defs><linearGradient id="a849a14b-05f7-4f2b-a39b-e6e661c86e4e" x1="13.498" y1="8.688" x2="13.498" y2="18.04" gradientUnits="userSpaceOnUse"><stop offset="0" stop-color="#a67af4" /><stop offset="0.999" stop-color="#773adc" /></linearGradient></defs><g id="a33e055d-3348-498a-b16e-ad3e7c19b6b3"><path d="M10.381,9.7a4.89,4.89,0,0,0-1.8,3.629v.007c-.207.005-.415.006-.625.006-4.311,0-7.819-.81-7.927-1.817a.4.4,0,0,1,0-.048.716.716,0,0,1,.331-.536c.976-.769,4.008-1.331,7.6-1.331C8.8,9.611,9.617,9.642,10.381,9.7ZM.005,6.681c0,1.03,3.55,1.865,7.929,1.865s7.929-.835,7.929-1.865-3.55-1.866-7.929-1.866S.005,5.65.005,6.681Zm0-4.815c0,1.03,3.55,1.865,7.929,1.865s7.929-.835,7.929-1.865S12.313,0,7.934,0,.005.835.005,1.866Z" fill="#83b9f9" /><path d="M9.739,16.671a.236.236,0,0,1-.169.388H9.565c-.206.01-.412.015-.623.023q-.486.014-.985.014C3.579,17.1.03,16.262.03,15.229V11.472a.412.412,0,0,0,.01.092v0c.205.966,3.543,1.739,7.678,1.768.08,0,.159,0,.239,0s.165,0,.248,0l.377-.005v.007c0,.055,0,.11,0,.166A4.893,4.893,0,0,0,9.739,16.671ZM15.862,6.658h0C15.813,7.68,12.282,8.5,7.935,8.5S.089,7.692.013,6.673V10.4a.725.725,0,0,0,.345.544h0c.99.764,4.01,1.32,7.583,1.32.27,0,.535,0,.8-.01A4.92,4.92,0,0,1,10.381,9.7h0a4.906,4.906,0,0,1,5.142-.681.237.237,0,0,0,.339-.214V6.658ZM7.934,3.689C3.6,3.689.089,2.877.013,1.858h0V5.582c0,1.031,3.549,1.866,7.929,1.866,4.287,0,7.776-.8,7.921-1.8h0V5.5h0V1.823C15.861,2.854,12.312,3.689,7.934,3.689Z" fill="#0078d4" /><path d="M18,13.5A4.5,4.5,0,0,1,9,13.5c0-.059,0-.118,0-.176V13.32a4.378,4.378,0,0,1,.176-1.081A4.5,4.5,0,0,1,18,13.5Z" fill="url(#a849a14b-05f7-4f2b-a39b-e6e661c86e4e)" /><path d="M14.483,14.522c.02.084.037.165.057.246.051.2.1.4.159.6a.288.288,0,0,0,.209.22.3.3,0,0,0,.254-.075,1.59,1.59,0,0,0,.388-.4c.036-.053.066-.11.1-.167l-.092-.044a1.145,1.145,0,0,1-.11.164,1.629,1.629,0,0,1-.22.2c-.057.044-.105.025-.139-.037a.6.6,0,0,1-.054-.141q-.123-.5-.242-1.008l-.052-.217c-.024-.087-.046-.162-.066-.237a1.162,1.162,0,0,0-.268-.53.072.072,0,0,0-.073-.023c-.2.038-.406.072-.608.109-.079.014-.079.016-.065.105h.046a1.776,1.776,0,0,1,.179,0,.4.4,0,0,1,.374.337c.063.209.114.424.166.636Z" fill="#e6e6e6" /><path d="M14.494,14.522c-.119.185-.226.369-.348.543a3.96,3.96,0,0,1-.319.378.5.5,0,0,1-.282.149.271.271,0,0,1-.309-.17A.205.205,0,0,1,13.3,15.2a.191.191,0,0,1,.234-.022c.042.027.084.056.123.087.056.044.087.05.139,0A1.342,1.342,0,0,0,14,15.032c.147-.221.284-.448.422-.674l.327-.5.067-.1a2.474,2.474,0,0,1,.329-.44.927.927,0,0,1,.351-.242.292.292,0,0,1,.3.055.212.212,0,0,1,.046.238.175.175,0,0,1-.169.109.374.374,0,0,1-.169-.027.282.282,0,0,0-.37.1c-.117.151-.223.31-.331.467Zm-.131-3.346a.285.285,0,0,1-.091.212.311.311,0,0,1-.219.083,1.886,1.886,0,0,1-.342-.053.783.783,0,0,0-.153-.021c-.059,0-.118.046-.177.136a1.512,1.512,0,0,0-.187.484l-.083.351h.632l-.035.156-.038.169-.023.1H13l-.348,1.432a2.24,2.24,0,0,1-.594,1.115,1.33,1.33,0,0,1-.919.391.49.49,0,0,1-.3-.085.3.3,0,0,1-.131-.246.271.271,0,0,1,.1-.218.362.362,0,0,1,.233-.075c.055,0,.11.006.164.013a2.59,2.59,0,0,0,.3.021.352.352,0,0,0,.252-.072,1.216,1.216,0,0,0,.182-.486l.445-1.79h-.571l.04-.158.043-.17.025-.1h.57a2.936,2.936,0,0,1,.314-.828,1.473,1.473,0,0,1,.517-.5,1.228,1.228,0,0,1,.614-.185.466.466,0,0,1,.3.084A.294.294,0,0,1,14.363,11.176Zm-3.451,4.366a.307.307,0,0,0,.112.047.278.278,0,0,1-.11-.048.216.216,0,0,1-.059-.065.216.216,0,0,0,.059.065Z" fill="#fff" /></g></svg>