<svg xmlns="http://www.w3.org/2000/svg" width="18" height="18" viewBox="0 0 18 18"><defs><linearGradient id="a4ccd0c3-fde6-4875-800b-333de0a25cb9" x1="9" y1="2" x2="9" y2="16" gradientUnits="userSpaceOnUse"><stop offset="0.18" stop-color="#5ea0ef" /><stop offset="1" stop-color="#0078d4" /></linearGradient></defs><g id="e0962381-da5c-47a2-ae4c-adf850116f2b"><g><rect y="2" width="18" height="14" rx="0.76" fill="url(#a4ccd0c3-fde6-4875-800b-333de0a25cb9)" /><path d="M8.3178,4.81s-.0039.0158-.0088.0425a3.9705,3.9705,0,0,0-1.213.573A2.8294,2.8294,0,0,0,4.9338,5.5a3.0919,3.0919,0,0,0,.5588,2.0973A5.2491,5.2491,0,0,0,5.2178,8.789a2.7967,2.7967,0,0,0-1.3537,1.5729,2.9791,2.9791,0,0,0,1.888,1.0647l.0027-.0021a4.4086,4.4086,0,0,0,.6684.9033,2.3478,2.3478,0,0,0,.0447,1.665,2.7075,2.7075,0,0,0,1.7419-.531,4.3848,4.3848,0,0,0,1.5871.2225,1.9523,1.9523,0,0,0,1.2621.7458,2.0114,2.0114,0,0,0,.6046-1.33h0l-.0006-.0267h0l-.0016-.0278a3.5138,3.5138,0,0,0,.9835-1.0413,1.6,1.6,0,0,0,1.1035-.4007,1.6822,1.6822,0,0,0-.5719-1.0653h0l-.0158-.0115h0l-.0142-.0092a2.8079,2.8079,0,0,0-2.8519-3.1529c-2.8346-.103-2.5312,4.8885.2838,3.5118.1731-.4159-.4839.0239-.6621-.0694A1.1684,1.1684,0,0,1,8.8341,9.58a1.47,1.47,0,0,1,2.2554-1.1c1.8829,1.0529.5374,3.9916-1.4289,3.8272.0136,0-.0022,0-.0017-.0006a3.0673,3.0673,0,0,1-2.99-3.0487A3.3064,3.3064,0,0,1,9.8666,5.8439C11.7835,5.6625,13.24,7.22,13.7853,8.8311a3.4406,3.4406,0,0,0-1.1344-2.95,1.581,1.581,0,0,0-.1859-1.134,1.68,1.68,0,0,0-1.0942.2813,4.253,4.253,0,0,0-1.0947-.3036A2.0325,2.0325,0,0,0,9.29,3.57a2.1574,2.1574,0,0,0-.972,1.24" fill="#f2f2f2" /></g></g></svg>