<svg xmlns="http://www.w3.org/2000/svg" width="18" height="18" viewBox="0 0 18 18"><defs><linearGradient id="ef87fcf1-80a8-4017-8aaf-e37f828c17d2" x1="2.935" y1="10.418" x2="12.643" y2="10.418" gradientUnits="userSpaceOnUse"><stop offset="0" stop-color="#50e6ff" /><stop offset="1" stop-color="#32bedd" /></linearGradient><linearGradient id="b6e8c397-1df9-4a37-b232-5186d1c03b98" x1="9.134" y1="9.759" x2="15.163" y2="9.759" gradientUnits="userSpaceOnUse"><stop offset="0" stop-color="#005ba1" /><stop offset="1" stop-color="#003067" /></linearGradient></defs><g id="fba98268-b63d-4c69-beec-25f1b3b4a5cd"><g><path d="M17.064,12.255l-7.5,4.363a1.252,1.252,0,0,1-1.073,0L.961,12.257a.32.32,0,0,1,0-.611L8.447,7.284a1.174,1.174,0,0,1,1.073,0l7.532,4.36C17.352,11.817,17.352,12.094,17.064,12.255Z" fill="#e6e6e6" /><g><path d="M8.62,16.676c-.2-.081-7.474-4.326-7.659-4.418a.363.363,0,0,1-.219-.312L.719,13.2c-.035.23.4.415.577.519,2.353,1.349,4.925,2.872,7.29,4.2H8.6a.69.69,0,0,0,.139.047c.046.011.08.011.127.023h.011c.035,0,.069.011.1.011h.035V16.745A1.494,1.494,0,0,1,8.62,16.676Z" fill="#b3b3b3" /><path d="M17.26,12.027v.012l-.035.069a.4.4,0,0,1-.161.15l-7.5,4.362a1.289,1.289,0,0,1-.369.116.685.685,0,0,1-.15.011H9.013V18a.586.586,0,0,0,.138-.012A1.007,1.007,0,0,0,9.4,17.93a.5.5,0,0,0,.138-.057l5.479-3.184.5-.288,1.523-.889a.614.614,0,0,0,.092-.069c.023-.011.035-.034.058-.057v-.012H17.2v-.011c.023-.012.023-.035.035-.058v-.012l.011-.011c0-.023.012-.046.012-.069l.023-1.253A.172.172,0,0,1,17.26,12.027Z" fill="#999" /><path d="M12.643,10.778v.01a.266.266,0,0,1-.03.12c-.01.01-.02.03-.04.04s-.01.02-.02.02-.02.02-.03.02l-3.369,1.95S3,9.389,2.935,9.349a.2.2,0,0,1,.09-.09L5.364,7.9l.81.47-1.29.74a.245.245,0,0,0,0,.43c.75.44,4.07,2.359,4.25,2.459a.275.275,0,0,0,.25,0l2.439-1.41a.22.22,0,0,0,.12-.2V8.459c.05-.03.69-.4.69-.4Z" fill="url(#ef87fcf1-80a8-4017-8aaf-e37f828c17d2)" /><path d="M8.677,9.812c-.346.2-1.325.765-1.662.96-.735-.423-1.642-.949-2.358-1.361a.1.1,0,0,1,0-.17l1.514-.874Z" fill="#005ba1" /><path d="M9.954.57v2.6a.251.251,0,0,1-.12.22L7.364,4.809l-.37.21c-.83-.47-1.66-.96-2.32-1.34l-.18-.1.17-.1.01-.009L9.914.45A.159.159,0,0,1,9.954.57Z" fill="#005ba1" /><path d="M15.073,3.759c-.06.03-.16.09-.29.17-1.7.97-3.589,2.082-5.3,3.06a2.032,2.032,0,0,1-.22.13c-.06.03-.11.06-.13.07a.746.746,0,0,1-.12-.07L2.915,3.6a.267.267,0,0,1,.09-.09C3.048,3.48,8.994.05,9.024.03c.01-.01.02-.01.04-.01A.149.149,0,0,1,9.154,0a.309.309,0,0,1,.08.02.06.06,0,0,1,.04.01l.55.33a.2.2,0,0,1,.09.09L4.674,3.47l-.01.009a.117.117,0,0,0,.01.2c.66.38,1.49.87,2.32,1.34.12.07.25.15.38.22.45.26.89.52,1.28.74.19.11.37.21.54.31a.091.091,0,0,0,.1,0l.45-.26L14.323,3.39a.25.25,0,0,1,.24,0l.45.259a.236.236,0,0,1,.09.08Q15.1,3.744,15.073,3.759Z" fill="#50e6ff" /><path d="M15.163,12.218a.244.244,0,0,1-.12.21l-5.559,3.21-.2.12a.308.308,0,0,1-.13.03v-2.85l3.369-1.95c.01,0,.02-.01.03-.02s.01-.01.02-.02.03-.03.04-.04a.266.266,0,0,0,.03-.12v-.01l-.01-2.549a.093.093,0,0,0-.14-.08c-.17.09-.49.28-.86.5l-.06.03c-.84.48-1.869,1.08-2.389,1.37-.01.01-.02.01-.04.01h-.01V7.149a.277.277,0,0,0,.13-.03,2.032,2.032,0,0,0,.22-.13c1.707-.968,3.6-2.094,5.3-3.06.13-.08.23-.14.29-.17l.03-.03a.157.157,0,0,1,.03.1C15.133,4.3,15.163,11.7,15.163,12.218Z" fill="url(#b6e8c397-1df9-4a37-b232-5186d1c03b98)" /><path d="M2.935,9.349a.213.213,0,0,0-.03.12c0,.52-.01,2.3-.01,2.679a.11.11,0,0,0,.06.1l6.079,3.51a.266.266,0,0,0,.12.03v-2.85S3.018,9.4,2.935,9.349Z" fill="#0078d4" /><path d="M9.144,10.059h-.01a.076.076,0,0,1-.04-.01s-5.849-3.38-6.089-3.52a.245.245,0,0,1-.13-.21c0-.49.01-2.11.01-2.6a.238.238,0,0,1,.03-.12l6.1,3.52a.266.266,0,0,0,.12.03v.04Z" fill="#0078d4" /></g></g></g></svg>