<svg xmlns="http://www.w3.org/2000/svg" width="18" height="18" viewBox="0 0 18 18"><defs><linearGradient id="ea92f3d0-328e-4fe4-9d95-6ae0d7936a5b" x1="7.944" y1="0.233" x2="7.944" y2="15.56" gradientUnits="userSpaceOnUse"><stop offset="0.134" stop-color="#005ba1" /><stop offset="1" stop-color="#003067" /></linearGradient><linearGradient id="ecc835d6-5424-424c-957e-1035b6112a71" x1="7.945" y1="-0.041" x2="7.945" y2="15.754" gradientUnits="userSpaceOnUse"><stop offset="0" stop-color="#5ea0ef" /><stop offset="1" stop-color="#0078d4" /></linearGradient></defs><g id="a2e1a287-5e7a-455d-b968-e9a737e3e90b"><g><g><path d="M15.888,7.947a8.031,8.031,0,0,1-.041.81.282.282,0,0,1-.4.226,4.921,4.921,0,0,0-6.471,6.468.283.283,0,0,1-.225.4,8.026,8.026,0,0,1-.809.041,7.945,7.945,0,1,1,7.943-7.943Z" fill="url(#ea92f3d0-328e-4fe4-9d95-6ae0d7936a5b)" /><path d="M14.443.528V8.671a4.921,4.921,0,0,0-5.464,6.78.283.283,0,0,1-.225.4,8.026,8.026,0,0,1-.809.041,7.931,7.931,0,0,1-6.5-3.373V.527A.529.529,0,0,1,1.976,0H13.914A.529.529,0,0,1,14.443.528Z" fill="url(#ecc835d6-5424-424c-957e-1035b6112a71)" /></g><g><path d="M18,13.5A4.5,4.5,0,1,1,13.5,9,4.5,4.5,0,0,1,18,13.5Z" fill="#fff" /><path d="M18,13.5A4.5,4.5,0,1,1,13.5,9,4.5,4.5,0,0,1,18,13.5Z" fill="#57a300" /></g></g><path d="M6.768,4.524h4.973a.283.283,0,0,1,.282.283v.726a.283.283,0,0,1-.282.283H6.768a.283.283,0,0,1-.283-.283V4.807A.283.283,0,0,1,6.768,4.524ZM6.526,7.583V8.31a.283.283,0,0,0,.283.283h4.972a.283.283,0,0,0,.283-.283V7.583a.283.283,0,0,0-.283-.282H6.809A.282.282,0,0,0,6.526,7.583Zm.27,2.494a.283.283,0,0,0-.282.283v.726a.283.283,0,0,0,.282.283H9.063a4.913,4.913,0,0,1,.9-1.292Zm6.055,5.579a.281.281,0,0,0,.427-.018l2.739-3.507a.225.225,0,0,0-.045-.312l-.51-.393a.227.227,0,0,0-.318.041L13,14.21l-1.2-1.29a.227.227,0,0,0-.32-.012l-.47.434a.23.23,0,0,0-.073.16.226.226,0,0,0,.06.164Z" fill="#fff" /><path d="M4.073,4.524H5.1a.291.291,0,0,1,.291.292v.708a.291.291,0,0,1-.291.292H4.073a.291.291,0,0,1-.291-.292V4.816A.291.291,0,0,1,4.073,4.524ZM3.822,7.592V8.3a.292.292,0,0,0,.292.292H5.139A.292.292,0,0,0,5.431,8.3V7.592A.291.291,0,0,0,5.139,7.3H4.114A.291.291,0,0,0,3.822,7.592ZM3.81,10.369v.708a.291.291,0,0,0,.291.292H5.127a.291.291,0,0,0,.291-.292v-.708a.291.291,0,0,0-.291-.292H4.1A.291.291,0,0,0,3.81,10.369Z" fill="#fff" opacity="0.8" /></g></svg>