<svg xmlns="http://www.w3.org/2000/svg" width="18" height="18" viewBox="0 0 18 18"><defs><linearGradient id="e6400ba9-49d8-4b02-9a0f-1333bc33e50e" x1="-1516.205" y1="1550.824" x2="-1516.205" y2="1560.012" gradientTransform="matrix(1, 0, 0, -1, 1524, 1565.516)" gradientUnits="userSpaceOnUse"><stop offset="0.001" stop-color="#773adc" /><stop offset="0.229" stop-color="#7b3fde" /><stop offset="0.507" stop-color="#864ee4" /><stop offset="0.811" stop-color="#9867ed" /><stop offset="1" stop-color="#a67af4" /></linearGradient><linearGradient id="bb9c78f3-a270-43d5-9dc3-e0d9ffcbf24b" x1="-551.781" y1="1016.108" x2="-551.781" y2="1009.663" gradientTransform="matrix(1, 0, 0, -1, 564, 1025.516)" gradientUnits="userSpaceOnUse"><stop offset="0" stop-color="#50e6ff" /><stop offset="1" stop-color="#32bedd" /></linearGradient></defs><g id="f9629a3f-8b8f-4b71-a4c2-ffa806f15130"><g><path d="M.02,5.5H15.569v8.669a.52.52,0,0,1-.519.52H.54a.52.52,0,0,1-.52-.52V5.5Z" fill="url(#e6400ba9-49d8-4b02-9a0f-1333bc33e50e)" /><path d="M.542,2.19H15.047a.519.519,0,0,1,.519.52h0V5.5H.02V2.71a.52.52,0,0,1,.52-.52Z" fill="#773adc" /><path d="M1.847,10.723V6.892c0-.1.06-.183.134-.183H7.319c.074,0,.134.082.134.183v3.831c0,.1-.06.182-.134.182H1.981C1.907,10.905,1.847,10.824,1.847,10.723Z" fill="#f2f2f2" /><path d="M7.146,13.486H2.154c-.17,0-.307-.082-.307-.182V12.031c0-.1.137-.182.307-.182H7.146c.17,0,.307.081.307.182V13.3C7.453,13.4,7.316,13.486,7.146,13.486Z" fill="#b796f9" /><path d="M14,8.226H8.827c-.176,0-.318-.081-.318-.182V6.787c0-.1.142-.182.318-.182H14c.176,0,.318.081.318.182V8.044C14.317,8.145,14.175,8.226,14,8.226Z" fill="#b796f9" /><path d="M17.643,14.8l-3.277-1.525a.381.381,0,0,1-.233-.389V12.36a.386.386,0,0,1,.233-.39l3.277-1.524c.175-.045.337.142.337.389V14.41C17.98,14.658,17.816,14.844,17.643,14.8Z" fill="#32bedd" /><rect x="8.544" y="9.388" width="7.35" height="6.422" rx="0.385" fill="url(#bb9c78f3-a270-43d5-9dc3-e0d9ffcbf24b)" /><path d="M10.79,12.623V11.244a.382.382,0,0,1,.573-.331l1.2.69,1.194.689a.383.383,0,0,1,0,.662l-1.194.689-1.2.69A.382.382,0,0,1,10.79,14Z" fill="#c3f1ff" /></g></g></svg>