<svg xmlns="http://www.w3.org/2000/svg" width="18" height="18" viewBox="0 0 18 18"><defs><linearGradient id="a3a44093-b157-426e-a8fe-cec9f9c23978" x1="11.729" y1="4.88" x2="11.729" y2="13.099" gradientUnits="userSpaceOnUse"><stop offset="0.001" stop-color="#773adc" /><stop offset="0.528" stop-color="#6635bb" /><stop offset="1" stop-color="#552f99" /></linearGradient><linearGradient id="ad838859-03f4-472f-81bc-ebc921d71335" x1="6.35" y1="13.914" x2="6.35" y2="4.198" gradientUnits="userSpaceOnUse"><stop offset="0.001" stop-color="#773adc" /><stop offset="0.307" stop-color="#793ddd" /><stop offset="0.532" stop-color="#8046e1" /><stop offset="0.731" stop-color="#8c56e7" /><stop offset="0.915" stop-color="#9c6def" /><stop offset="1" stop-color="#a67af4" /></linearGradient></defs><g id="ae82470d-7a6c-4dfe-8533-59d8ff948629"><g><path d="M8.617,8.644H.639V1.784A1.16,1.16,0,0,1,1.788.624H8.617ZM1.63,7.653h6V1.594H1.788a.158.158,0,0,0-.158.158h0Z" fill="#949494" /><path d="M17.5,8.644H9.523V.624h6.828A1.16,1.16,0,0,1,17.5,1.784Zm-6.987-.991h6V1.784a.157.157,0,0,0-.123-.187.2.2,0,0,0-.035,0H10.513Z" fill="#949494" /><path d="M8.617,17.485H1.788A1.149,1.149,0,0,1,.639,16.347V9.476H8.617ZM1.63,10.467v5.88a.158.158,0,0,0,.158.158H7.626V10.467Z" fill="#949494" /><path d="M16.351,17.485H9.523V9.476H17.5v6.871A1.149,1.149,0,0,1,16.351,17.485Zm-5.838-.991h5.838a.157.157,0,0,0,.158-.158V10.467h-6Z" fill="#949494" /><path d="M14.6,6.294a.294.294,0,0,0-.2-.278L9.044,4.205A.128.128,0,0,0,9,4.2H9a.132.132,0,0,0-.133.133v9.445A.133.133,0,0,0,9,13.911H9a.138.138,0,0,0,.049-.01l5.365-2.145a.292.292,0,0,0,.184-.272Z" fill="url(#a3a44093-b157-426e-a8fe-cec9f9c23978)" /><path d="M8.966,4.2l-5.293.966a.161.161,0,0,0-.13.158V12.63a.16.16,0,0,0,.126.157L8.962,13.91a.161.161,0,0,0,.191-.121.22.22,0,0,0,0-.036V4.358A.16.16,0,0,0,9,4.2.163.163,0,0,0,8.966,4.2Z" fill="url(#ad838859-03f4-472f-81bc-ebc921d71335)" /><path d="M6.52,5.656v6.8l1.842.3V5.335Zm-2.262.367v5.955l1.6.326V5.754Z" fill="#b796f9" opacity="0.5" /></g></g></svg>