<svg xmlns="http://www.w3.org/2000/svg" width="18" height="18" viewBox="0 0 18 18"><defs><linearGradient id="bd8b454e-57d0-4e9e-b7dd-7f2f7c4a6f28" x1="8.18" y1="6.52" x2="8.18" y2="15.24" gradientUnits="userSpaceOnUse"><stop offset="0" stop-color="#fff" /><stop offset="0.48" stop-color="#f6f6f6" /><stop offset="1" stop-color="#e6e6e6" /></linearGradient></defs><title>Icon-azurestack-5</title><g id="b8fb34d8-c6b4-42d0-9bd3-048bd69add65"><g><path id="e7683ea0-9914-452a-a6ce-eba81ed14626" d="M15.14,4.7h-1V17.51l1-1.93Z" fill="#50e6ff" /><path id="b2cfc25a-7db2-4d82-94f3-4ad5068ca79d" d="M15.14,15.57h0l-1,1.93,1-.8,1.23-1Z" fill="#9cebff" /><path id="e6582dd3-817c-4e32-88b3-34fb1b6c9cec" d="M8.57,2.79A1.57,1.57,0,0,1,10.2,1.28a1.57,1.57,0,0,1,1.62,1.51V4.7h.79V2.79a2.41,2.41,0,0,0-4.82,0V4.7h.78Z" fill="#a3a3a3" /><path id="b506684c-dab5-49dd-a805-0ff2e9fb2f29" d="M6.18,2.79A1.57,1.57,0,0,1,7.8,1.28,1.57,1.57,0,0,1,9.43,2.79V4.7h.78V2.79A2.36,2.36,0,0,0,7.8.49a2.35,2.35,0,0,0-2.4,2.3V4.7h.78Z" fill="#767676" /><polygon points="14.1 4.7 14.1 17.51 1.63 16.52 2 4.7 14.1 4.7" fill="#32bedd" /><polygon points="15.14 4.7 15.14 15.58 16.37 15.76 16 4.7 15.14 4.7" fill="#32bedd" /><path d="M10.41,6.52H6a.29.29,0,0,0-.29.29v8A.29.29,0,0,0,6,15.1l4.46.14a.28.28,0,0,0,.28-.29V6.81A.28.28,0,0,0,10.41,6.52ZM7.22,12.25a.08.08,0,0,1-.08.07H6.32a.08.08,0,0,1-.07-.07V11.19a.08.08,0,0,1,.07-.07h.82a.08.08,0,0,1,.08.07Zm0-1.92a.08.08,0,0,1-.08.07H6.32a.08.08,0,0,1-.07-.07V9.27a.08.08,0,0,1,.07-.07h.82a.08.08,0,0,1,.08.07Zm0-1.93a.09.09,0,0,1-.08.08H6.32a.09.09,0,0,1-.07-.08V7.34a.08.08,0,0,1,.07-.07h.82a.08.08,0,0,1,.08.07Zm1.42,6.32a.07.07,0,0,1-.07.07l-.8,0a.07.07,0,0,1-.07-.07V13.12a.07.07,0,0,1,.07-.07h.82a.07.07,0,0,1,.07.07Zm0-2.47a.07.07,0,0,1-.07.07H7.77a.07.07,0,0,1-.07-.07V11.19a.07.07,0,0,1,.07-.07h.82a.07.07,0,0,1,.07.07Zm0-1.92a.07.07,0,0,1-.07.07H7.77a.07.07,0,0,1-.07-.07V9.27a.07.07,0,0,1,.07-.07h.82a.07.07,0,0,1,.07.07Zm0-1.93a.08.08,0,0,1-.07.08H7.77A.08.08,0,0,1,7.7,8.4V7.34a.07.07,0,0,1,.07-.07h.82a.07.07,0,0,1,.07.07Zm1.44,3.85a.07.07,0,0,1-.07.07H9.21a.07.07,0,0,1-.07-.07V11.19a.07.07,0,0,1,.07-.07H10a.07.07,0,0,1,.07.07Zm0-1.92a.07.07,0,0,1-.07.07H9.21a.07.07,0,0,1-.07-.07V9.27a.07.07,0,0,1,.07-.07H10a.07.07,0,0,1,.07.07Zm0-1.93a.08.08,0,0,1-.07.08H9.21a.08.08,0,0,1-.07-.08V7.34a.07.07,0,0,1,.07-.07H10a.07.07,0,0,1,.07.07Z" fill="url(#bd8b454e-57d0-4e9e-b7dd-7f2f7c4a6f28)" /></g></g></svg>