<svg xmlns="http://www.w3.org/2000/svg" xmlns:xlink="http://www.w3.org/1999/xlink" width="18" height="18" viewBox="0 0 18 18"><defs><linearGradient id="f471a08e-ef3a-4f8c-a080-5da9199c21f4" x1="8.9" y1="1.31" x2="8.9" y2="12.11" gradientUnits="userSpaceOnUse"><stop offset="0" stop-color="#5ea0ef" /><stop offset="0.18" stop-color="#559cec" /><stop offset="0.47" stop-color="#3c91e5" /><stop offset="0.84" stop-color="#1380da" /><stop offset="1" stop-color="#0078d4" /></linearGradient><linearGradient id="b6f9179b-e6d9-447e-a08b-5190cf63e24d" x1="8.88" y1="16.72" x2="8.88" y2="13.85" gradientUnits="userSpaceOnUse"><stop offset="0" stop-color="#0078d4" /><stop offset="0.16" stop-color="#1380da" /><stop offset="0.53" stop-color="#3c91e5" /><stop offset="0.82" stop-color="#559cec" /><stop offset="1" stop-color="#5ea0ef" /></linearGradient></defs><title>Icon-484-EdgeManagementArtboard 1</title><g id="bc5f08d8-e18b-48db-a908-1aa1ac861315" data-name="Layer 1"><path d="M16.4,8.7a3.39,3.39,0,0,0-2.92-3.29A4.27,4.27,0,0,0,9.1,1.28,4.37,4.37,0,0,0,4.94,4.16,4.08,4.08,0,0,0,1.4,8.09a4.12,4.12,0,0,0,4.23,4l.37,0h6.84L13,12A3.44,3.44,0,0,0,16.4,8.7Z" fill="url(#f471a08e-ef3a-4f8c-a080-5da9199c21f4)" /><path d="M13.21,12.7h-4v-5H8.61v5h-4a.3.3,0,0,0-.3.3v1.17a.3.3,0,0,0,.3.3.29.29,0,0,0,.29-.3v-.88H8.61v.61H9.2v-.61h3.72v1.09a.3.3,0,0,0,.29.3.31.31,0,0,0,.3-.3V13A.3.3,0,0,0,13.21,12.7Z" fill="#949494" /><path d="M14.23,16.72H12.15a.36.36,0,0,1-.37-.37V14.22a.37.37,0,0,1,.37-.37h2.08a.38.38,0,0,1,.37.37v2.13A.37.37,0,0,1,14.23,16.72Zm-3.94-.37V14.22a.38.38,0,0,0-.37-.37H7.84a.37.37,0,0,0-.37.37v2.13a.36.36,0,0,0,.37.37H9.92A.37.37,0,0,0,10.29,16.35ZM6,16.35V14.22a.38.38,0,0,0-.37-.37H3.52a.38.38,0,0,0-.37.37v2.13a.37.37,0,0,0,.37.37H5.61A.37.37,0,0,0,6,16.35Z" fill="url(#b6f9179b-e6d9-447e-a08b-5190cf63e24d)" /><path d="M12,6.6V5.91l-.1,0-.74-.24-.19-.47.37-.8-.48-.48-.1.05L10,4.28l-.48-.19-.3-.84H8.57l0,.1-.24.74-.47.19L7,3.9l-.48.49.05.09L7,5.17l-.2.47L5.92,6v.68l.09,0,.74.24.19.47-.37.8.48.48.1,0,.69-.35.47.19.3.83H9.3l0-.09.24-.74.47-.19.8.37.48-.48-.05-.1-.35-.69.19-.47Zm-3,1a1.33,1.33,0,1,1,1.32-1.33A1.32,1.32,0,0,1,8.94,7.6Z" fill="#fff" /></g></svg>