<svg id="a1f33b3c-3faf-4020-87e6-f8edac0a12a2" xmlns="http://www.w3.org/2000/svg" width="18" height="18" viewBox="0 0 18 18"><defs><linearGradient id="e41cab83-4c54-4068-816f-b081f152f701" x1="9" y1="0.5" x2="9" y2="17.5" gradientUnits="userSpaceOnUse"><stop offset="0" stop-color="#5ea0ef" /><stop offset="0.18" stop-color="#559cec" /><stop offset="0.47" stop-color="#3c91e5" /><stop offset="0.84" stop-color="#1380da" /><stop offset="1" stop-color="#0078d4" /></linearGradient></defs><title>Icon-intune-334</title><path d="M14,1.07V16.93a.56.56,0,0,1-.56.57H4.57A.56.56,0,0,1,4,16.93V1.07A.56.56,0,0,1,4.57.5h8.86A.56.56,0,0,1,14,1.07Z" fill="url(#e41cab83-4c54-4068-816f-b081f152f701)" /><path id="a1bc77ea-5288-41a0-8f9a-2d282cf54a86" d="M5.33,2.27H7a.14.14,0,0,1,.14.14v2.1A.14.14,0,0,1,7,4.65H5.33a.15.15,0,0,1-.15-.14V2.41A.15.15,0,0,1,5.33,2.27Zm2.86,0H9.81a.14.14,0,0,1,.14.14v2.1a.14.14,0,0,1-.14.14H8.19a.14.14,0,0,1-.14-.14V2.41A.14.14,0,0,1,8.19,2.27Zm2.86,0h1.62a.15.15,0,0,1,.15.14v2.1a.15.15,0,0,1-.15.14H11.05a.14.14,0,0,1-.14-.14V2.41A.14.14,0,0,1,11.05,2.27ZM5.33,6.08H7a.14.14,0,0,1,.14.14v2.1A.15.15,0,0,1,7,8.47H5.33a.15.15,0,0,1-.15-.15V6.22A.15.15,0,0,1,5.33,6.08Zm2.86,0H9.81a.14.14,0,0,1,.14.14v2.1a.15.15,0,0,1-.14.15H8.19a.15.15,0,0,1-.14-.15V6.22A.14.14,0,0,1,8.19,6.08Zm2.86,0h1.62a.15.15,0,0,1,.15.14v2.1a.15.15,0,0,1-.15.15H11.05a.15.15,0,0,1-.14-.15V6.22A.14.14,0,0,1,11.05,6.08ZM5.33,9.9H7a.14.14,0,0,1,.14.14v2.1a.14.14,0,0,1-.14.14H5.33a.15.15,0,0,1-.15-.14V10A.15.15,0,0,1,5.33,9.9Zm2.86,0H9.81A.14.14,0,0,1,10,10v2.1a.14.14,0,0,1-.14.14H8.19a.14.14,0,0,1-.14-.14V10A.14.14,0,0,1,8.19,9.9Zm0,3.81H9.81a.14.14,0,0,1,.14.14V17a.14.14,0,0,1-.14.14H8.19A.14.14,0,0,1,8.05,17V13.85A.14.14,0,0,1,8.19,13.71ZM11.05,9.9h1.62a.15.15,0,0,1,.15.14v2.1a.15.15,0,0,1-.15.14H11.05a.14.14,0,0,1-.14-.14V10A.14.14,0,0,1,11.05,9.9Z" fill="#f2f2f2" /></svg>