<svg xmlns="http://www.w3.org/2000/svg" width="18" height="18" viewBox="0 0 18 18"><defs><linearGradient id="ac751aac-6970-402f-a3f2-9aa52d04f60f" x1="9" y1="-0.691" x2="9" y2="19.486" gradientUnits="userSpaceOnUse"><stop offset="0" stop-color="#5e9624" /><stop offset="0.316" stop-color="#619a25" /><stop offset="0.659" stop-color="#69a728" /><stop offset="0.999" stop-color="#76bc2d" /></linearGradient><linearGradient id="abb5031d-e11a-49a5-b40f-a5fec69f99f1" x1="9" y1="17.788" x2="9" y2="-0.966" gradientUnits="userSpaceOnUse"><stop offset="0" stop-color="#5e9624" /><stop offset="0.546" stop-color="#6dad2a" /><stop offset="0.999" stop-color="#76bc2d" /></linearGradient></defs><g id="a77f7262-f5c6-4c37-9570-216c2d38da89"><g><path d="M16.218,8.417c0,4.743-5.734,8.562-6.98,9.336a.449.449,0,0,1-.476,0c-1.246-.774-6.98-4.593-6.98-9.336V2.709a.454.454,0,0,1,.443-.452C6.685,2.136,5.658.179,9,.179s2.315,1.957,6.775,2.078a.454.454,0,0,1,.443.452Z" fill="url(#ac751aac-6970-402f-a3f2-9aa52d04f60f)" /><path d="M15.619,8.465c0,4.35-5.258,7.852-6.4,8.562a.413.413,0,0,1-.436,0c-1.143-.71-6.4-4.212-6.4-8.562V3.231a.414.414,0,0,1,.406-.414C6.877,2.706,5.935.911,9,.911s2.123,1.8,6.213,1.906a.414.414,0,0,1,.406.414Z" fill="url(#abb5031d-e11a-49a5-b40f-a5fec69f99f1)" /><g><path d="M12.222,10.152H5.778a.684.684,0,0,0-.684.684v.848a.114.114,0,0,0,.114.114h7.584a.114.114,0,0,0,.114-.114v-.848A.684.684,0,0,0,12.222,10.152Z" fill="#fff" /><path d="M12.194,12.643H5.806a.081.081,0,0,0-.081.081v.428a.487.487,0,0,0,.487.487h5.576a.487.487,0,0,0,.487-.487v-.428A.081.081,0,0,0,12.194,12.643Z" fill="#fff" /><path d="M10.484,6.428c.451-.655.767-.531.51-2.044s-1.94-1.5-2.043-1.5-1.786-.016-2.043,1.5.059,1.389.509,2.044a8.845,8.845,0,0,1,.411,2.839h2.246A8.867,8.867,0,0,1,10.484,6.428Z" fill="#fff" /></g></g></g></svg>