<svg xmlns="http://www.w3.org/2000/svg" width="18" height="18" viewBox="0 0 18 18"><defs><radialGradient id="bb939890-e5c9-4401-bac3-d94dd8e0e7c1" cx="5.614" cy="6.147" r="7.443" gradientTransform="translate(1.878 1.801) scale(0.944)" gradientUnits="userSpaceOnUse"><stop offset=".183" stop-color="#5ea0ef" /><stop offset=".555" stop-color="#5c9fee" /><stop offset=".689" stop-color="#559ced" /><stop offset=".785" stop-color="#4a97e9" /><stop offset=".862" stop-color="#3990e4" /><stop offset=".928" stop-color="#2387de" /><stop offset=".985" stop-color="#087bd6" /><stop offset="1" stop-color="#0078d4" /></radialGradient><radialGradient id="986fec79-aad0-473e-a309-44607edb7ba9" cx="6.45" cy="6.92" r="1.041" gradientTransform="translate(1.124 1.09) scale(0.943)" gradientUnits="userSpaceOnUse"><stop offset="0" stop-color="#7f7f7f" /><stop offset="1" stop-color="#5e5e5e" /></radialGradient></defs><circle cx="7.18" cy="7.607" r="7.03" fill="url(#bb939890-e5c9-4401-bac3-d94dd8e0e7c1)" /><circle cx="7.208" cy="7.607" r="6.121" fill="#fff" /><path d="M7.038 11.73h.338v1.05h-.338zm-3.7-7.75l.24-.24.742.742-.24.24zm.052 7.2l.742-.742.24.24-.742.742zM1.945 7.43h1.05v.338h-1.05zm7.8 2.054L7.957 7.706a.43.43 0 0 0-.291-.123.411.411 0 0 0 .054-.2V2.858a.431.431 0 0 0-.43-.43h-.082a.431.431 0 0 0-.431.43v4.53a.431.431 0 0 0 .431.43h.048a.427.427 0 0 0 .035.555l1.78 1.777a.432.432 0 0 0 .608 0l.058-.058a.432.432 0 0 0 0-.608z" fill="#7a7a7a" /><circle cx="7.212" cy="7.596" r=".996" fill="url(#986fec79-aad0-473e-a309-44607edb7ba9)" /><path d="M8.855 16.582l5.535-6.324a2.9 2.9 0 0 0 2.763-.875 2.691 2.691 0 0 0 .558-2.661l-1.465 1.645-1.567-.29-.52-1.487 1.466-1.62a2.866 2.866 0 0 0-2.643.885 2.647 2.647 0 0 0-.54 2.651l-5.9 6.745a1.309 1.309 0 0 0 1.97 1.724z" fill="#949494" /></svg>