<svg xmlns="http://www.w3.org/2000/svg" width="18" height="18" viewBox="0 0 18 18"><defs><linearGradient id="e99916c9-b051-498f-b46f-4f5044dbba62" x1="2594.032" y1="1204.356" x2="2594.005" y2="1194.252" gradientTransform="translate(-1290.942 -587.969) rotate(0.115) scale(0.5)" gradientUnits="userSpaceOnUse"><stop offset="0" stop-color="#ef7100" /><stop offset="1" stop-color="#faa21d" /></linearGradient><linearGradient id="a0ed916a-7de8-4752-b310-46b03649d111" x1="15.32" y1="781.498" x2="15.32" y2="786.545" gradientTransform="matrix(1, 0, 0, -1, 0, 791.516)" gradientUnits="userSpaceOnUse"><stop offset="0" stop-color="#ef7100" /><stop offset="1" stop-color="#faa21d" /></linearGradient><linearGradient id="a5d38888-21ca-4b0b-b256-879c324f8b8f" x1="2.68" y1="781.498" x2="2.68" y2="786.545" gradientTransform="matrix(1, 0, 0, -1, 0, 791.516)" gradientUnits="userSpaceOnUse"><stop offset="0" stop-color="#ef7100" /><stop offset="1" stop-color="#faa21d" /></linearGradient><linearGradient id="a1de6ccd-9f87-48b1-8877-5017a5a16db6" x1="8.883" y1="786.102" x2="8.883" y2="791.149" gradientTransform="matrix(1, 0, 0, -1, 0, 791.516)" gradientUnits="userSpaceOnUse"><stop offset="0" stop-color="#ef7100" /><stop offset="1" stop-color="#faa21d" /></linearGradient><linearGradient id="b66fd1a6-63c4-4aab-9757-0828eb179fa7" x1="12.368" y1="17.633" x2="12.368" y2="10.172" gradientUnits="userSpaceOnUse"><stop offset="0" stop-color="#773adc" /><stop offset="0.204" stop-color="#7b3fde" /><stop offset="0.459" stop-color="#864fe4" /><stop offset="0.741" stop-color="#9968ed" /><stop offset="0.899" stop-color="#a67af4" /></linearGradient></defs><g id="fc76b553-f888-48b1-b563-f11d1fa8fc27"><g><g><polygon points="10.15 2.978 8.883 2.048 7.637 2.968 1.732 7.177 4.03 14.125 4.511 15.596 6.405 15.596 6.405 14.126 5.573 14.125 3.53 7.77 8.883 3.908 14.278 7.78 13.921 8.889 15.468 8.889 15.468 8.945 16.035 7.228 16.035 7.177 10.15 2.978" fill="#e27908" /><circle cx="4.868" cy="15.054" r="2.524" fill="url(#e99916c9-b051-498f-b46f-4f5044dbba62)" /><circle cx="15.32" cy="7.494" r="2.524" fill="url(#a0ed916a-7de8-4752-b310-46b03649d111)" /><circle cx="2.68" cy="7.494" r="2.524" fill="url(#a5d38888-21ca-4b0b-b256-879c324f8b8f)" /><circle cx="8.883" cy="2.891" r="2.524" fill="url(#a1de6ccd-9f87-48b1-8877-5017a5a16db6)" /></g><path id="efa99d43-d35f-4e03-9f1b-ab1b8dbdefcd" d="M13.211,16.532l.583-.244,1.012.466.606-.606-.059-.118-.421-.8.17-.606.968-.4v-.864l-.045-.037-.9-.31-.229-.591.458-.887.044-.1-.273-.295L14.8,10.8l-.118.059-.865.443-.591-.17-.376-.96h-.857l-.045.044-.295.879-.606.229-1-.473-.606.606.059.118.451.857-.244.591L8.667,13.4v.864l.126.037.916.3.244.628-.473,1,.606.613.118-.051.864-.443.591.243.377,1.042h.872m-.466-2.608a1.212,1.212,0,1,1,1.205-1.219h0A1.219,1.219,0,0,1,12.442,15.025Z" fill="url(#b66fd1a6-63c4-4aab-9757-0828eb179fa7)" /></g></g></svg>