<svg xmlns="http://www.w3.org/2000/svg" width="18" height="18" viewBox="0 0 18 18"><defs><linearGradient id="a743bfbf-43b1-4b79-b3a1-696091f8e2ab" x1="7.725" y1="12.859" x2="7.725" y2="2.896" gradientUnits="userSpaceOnUse"><stop offset="0" stop-color="#0078d4" /><stop offset="0.817" stop-color="#5ea0ef" /></linearGradient></defs><g id="e9d3fb42-bcb8-4f88-a8f9-d56e280aed3b"><g><g><path d="M8.574,12.334h0a.231.231,0,0,1-.226-.236c0-.123,0-.25,0-.381H7.962a.231.231,0,0,1,0-.462h.616a.231.231,0,0,1,.231.231q0,.327,0,.622A.231.231,0,0,1,8.574,12.334Z" fill="#37c2b1" /><path d="M7.685,14.541a.231.231,0,0,1-.1-.438,1.171,1.171,0,0,0,.629-.814.231.231,0,0,1,.445.124,1.642,1.642,0,0,1-.869,1.105A.233.233,0,0,1,7.685,14.541Z" fill="#37c2b1" /><path d="M6.926,15.566H6.31a.23.23,0,0,1-.231-.231,1.057,1.057,0,0,1,.286-.717.231.231,0,0,1,.339.315.627.627,0,0,0-.114.171h.336a.231.231,0,0,1,0,.462Z" fill="#37c2b1" /><path d="M11.918,15.566H10.67a.231.231,0,0,1,0-.462h1.248a.231.231,0,0,1,0,.462Z" fill="#37c2b1" /><path d="M13.782,15.566h-.616a.231.231,0,0,1,0-.462H13.5a.636.636,0,0,0-.114-.17.231.231,0,0,1,.337-.315,1.048,1.048,0,0,1,.289.716A.231.231,0,0,1,13.782,15.566Z" fill="#37c2b1" /><path d="M12.405,14.542a.23.23,0,0,1-.1-.023,1.641,1.641,0,0,1-.872-1.1.231.231,0,1,1,.445-.125,1.176,1.176,0,0,0,.631.814.231.231,0,0,1-.1.438Z" fill="#37c2b1" /><path d="M11.513,12.334a.231.231,0,0,1-.231-.226c0-.2,0-.4,0-.622a.232.232,0,0,1,.231-.231h.616a.231.231,0,0,1,0,.462H11.74c0,.131,0,.258,0,.381a.231.231,0,0,1-.226.236Z" fill="#37c2b1" /><path d="M16.967,11.717h-1.21a.231.231,0,0,1,0-.462h1.21a.231.231,0,1,1,0,.462Zm-2.421,0h-1.21a.231.231,0,0,1,0-.462h1.21a.231.231,0,0,1,0,.462Zm-7.8,0H5.535a.231.231,0,0,1,0-.462H6.746a.231.231,0,0,1,0,.462Zm-2.421,0H3.114a.231.231,0,0,1,0-.462H4.325a.231.231,0,0,1,0,.462Zm13.191-.876a.23.23,0,0,1-.231-.231V9.4a.231.231,0,0,1,.462,0v1.21A.231.231,0,0,1,17.516,10.841Zm-14.944,0a.231.231,0,0,1-.231-.231V9.394a.231.231,0,0,1,.462,0v1.211A.232.232,0,0,1,2.572,10.836ZM17.516,8.42a.23.23,0,0,1-.231-.231V6.979a.231.231,0,0,1,.462,0v1.21A.231.231,0,0,1,17.516,8.42ZM2.572,8.415a.231.231,0,0,1-.231-.231V6.973a.231.231,0,0,1,.462,0V8.184A.232.232,0,0,1,2.572,8.415ZM17.516,6a.23.23,0,0,1-.231-.231V4.558a.231.231,0,0,1,.462,0v1.21A.231.231,0,0,1,17.516,6ZM2.572,5.993a.23.23,0,0,1-.231-.231V4.552a.231.231,0,0,1,.462,0v1.21A.231.231,0,0,1,2.572,5.993ZM17.516,3.578a.23.23,0,0,1-.231-.231V2.137a.231.231,0,1,1,.462,0v1.21A.231.231,0,0,1,17.516,3.578ZM2.572,3.572a.23.23,0,0,1-.231-.231V2.131a.231.231,0,1,1,.462,0v1.21A.231.231,0,0,1,2.572,3.572ZM16.7,1.755H15.494a.231.231,0,0,1,0-.462H16.7a.231.231,0,1,1,0,.462Zm-2.422,0h-1.21a.231.231,0,0,1,0-.462h1.21a.231.231,0,1,1,0,.462Zm-2.421,0h-1.21a.231.231,0,0,1,0-.462h1.21a.231.231,0,1,1,0,.462Zm-2.421,0H8.231a.231.231,0,0,1,0-.462h1.21a.231.231,0,1,1,0,.462Zm-2.421,0H5.81a.231.231,0,0,1,0-.462H7.02a.231.231,0,1,1,0,.462Zm-2.421,0H3.389a.231.231,0,0,1,0-.462H4.6a.231.231,0,0,1,0,.462Z" fill="#37c2b1" /></g><rect x="0.253" y="2.896" width="14.944" height="9.963" rx="0.499" fill="url(#a743bfbf-43b1-4b79-b3a1-696091f8e2ab)" /><path d="M10.722,15.872c-1.477-.231-1.535-1.3-1.531-3.013H6.26c0,1.716-.054,2.782-1.532,3.013a.87.87,0,0,0-.736.835h7.472A.875.875,0,0,0,10.722,15.872Z" fill="#1f56a3" /><g><polygon points="9.987 6.379 9.987 9.01 7.725 10.337 7.725 7.699 9.987 6.379" fill="#50e6ff" /><polygon points="9.987 6.379 7.733 7.706 5.464 6.379 7.733 5.06 9.987 6.379" fill="#c3f1ff" /><polygon points="7.725 7.706 7.725 10.337 5.464 9.01 5.464 6.379 7.725 7.706" fill="#9cebff" /><polygon points="5.464 9.01 7.725 7.699 7.725 10.337 5.464 9.01" fill="#c3f1ff" /><polygon points="9.987 9.01 7.725 7.699 7.725 10.337 9.987 9.01" fill="#9cebff" /><path d="M4.619,4.08H2.546a.5.5,0,0,0-.5.5v2.08a.249.249,0,0,0,.249.249h.166a.249.249,0,0,0,.249-.249V4.736H4.619a.248.248,0,0,0,.241-.249V4.329A.248.248,0,0,0,4.619,4.08Z" fill="#fff" /><path d="M4.619,10.609H2.7V8.7a.248.248,0,0,0-.248-.248H2.3a.249.249,0,0,0-.249.248v2.111a.5.5,0,0,0,.49.505H4.619a.255.255,0,0,0,.244-.268l0-.026v-.165A.248.248,0,0,0,4.619,10.609Z" fill="#fff" /><path d="M12.935,4.1H10.892a.248.248,0,0,0-.249.248V4.51a.247.247,0,0,0,.225.27H12.8V6.673a.248.248,0,0,0,.249.249h.173a.248.248,0,0,0,.249-.249V4.6a.5.5,0,0,0-.5-.5Z" fill="#fff" /><path d="M13.191,8.468h-.158a.248.248,0,0,0-.249.248h0v1.915H10.892a.249.249,0,0,0-.249.249v.166a.249.249,0,0,0,.249.249h2.073a.505.505,0,0,0,.505-.5V8.716a.249.249,0,0,0-.247-.25A.172.172,0,0,0,13.191,8.468Z" fill="#fff" /></g></g></g></svg>