<svg xmlns="http://www.w3.org/2000/svg" width="18" height="18" viewBox="0 0 18 18"><defs><linearGradient id="a18914d5-8a89-48b3-bae4-149b9074db77" x1="8.2847" y1="15.1269" x2="8.2847" y2="1.8539" gradientUnits="userSpaceOnUse"><stop offset="0" stop-color="#0078d4" /><stop offset="1" stop-color="#5ea0ef" /></linearGradient><linearGradient id="ac29d2d9-9057-4b40-8516-a65ccd601b42" x1="11.1552" y1="10.195" x2="8.6297" y2="8.4859" gradientUnits="userSpaceOnUse"><stop offset="0" stop-color="#32bedd" /><stop offset="1" stop-color="#9cebff" /></linearGradient><linearGradient id="eee72526-55f6-4d04-9d33-4129482f2960" x1="6.8371" y1="11.7653" x2="6.8371" y2="6.6988" gradientUnits="userSpaceOnUse"><stop offset="0" stop-color="#32bedd" /><stop offset="1" stop-color="#9cebff" /></linearGradient></defs><g id="e92da4b8-0e94-4ea1-8791-2400b1993254"><g><circle cx="11.3518" cy="8.4904" r="6.5969" fill="#005ba1" /><g><path d="M6.72,1.7007A6.8467,6.8467,0,0,0,4.266,14.1383l.2354-.591a.1294.1294,0,0,1,.2234-.0327l1.6915,2.1832a.1337.1337,0,0,1-.0214.1858.1293.1293,0,0,1-.0645.0275l-2.7156.387a.1314.1314,0,0,1-.1472-.1143.1349.1349,0,0,1,.0081-.0663L3.82,15.243A7.9655,7.9655,0,0,1,.281,10.4318,6.9661,6.9661,0,0,1,5.15,1.9307,6.7606,6.7606,0,0,1,6.72,1.7007Z" fill="#86d633" /><path d="M8.2847,1.8539A6.6309,6.6309,0,0,0,3.49,13.071a6.3841,6.3841,0,0,0,.6181.539l.0751-.1885a.4744.4744,0,0,1,.45-.3.4684.4684,0,0,1,.1664.0346.4731.4731,0,0,1,.1957.1484l1.1267,1.4543A6.6343,6.6343,0,1,0,8.2847,1.8539Z" fill="url(#a18914d5-8a89-48b3-bae4-149b9074db77)" /><g><g><polygon points="11.18 6.699 11.18 10.067 8.285 11.765 8.285 8.388 11.18 6.699" fill="url(#ac29d2d9-9057-4b40-8516-a65ccd601b42)" /><polygon points="11.18 6.699 8.294 8.397 5.39 6.699 8.294 5.01 11.18 6.699" fill="#c3f1ff" /><polygon points="8.285 8.397 8.285 11.765 5.39 10.067 5.39 6.699 8.285 8.397" fill="url(#eee72526-55f6-4d04-9d33-4129482f2960)" /></g><g><path d="M6.3625,4.34H4.3113a.4924.4924,0,0,0-.4923.4923V6.8907a.2461.2461,0,0,0,.2461.2461h.1641a.2461.2461,0,0,0,.2462-.2461V4.9886H6.3625a.2461.2461,0,0,0,.2387-.2462V4.5858A.2462.2462,0,0,0,6.3625,4.34Z" fill="#fff" /><path d="M6.3625,11.94H4.4679V10.0528a.2461.2461,0,0,0-.2461-.2461H4.0651a.2461.2461,0,0,0-.2461.2461v2.0886a.4923.4923,0,0,0,.4848.5H6.3625a.2535.2535,0,0,0,.2412-.2654L6.6012,12.35v-.1641A.2461.2461,0,0,0,6.3625,11.94Z" fill="#fff" /><path d="M12.2208,4.3627H10.1994a.2461.2461,0,0,0-.2461.2462v.1566a.246.246,0,0,0,.2227.2675c.0078.0007.0156.0011.0234.0011h1.8872V6.9063a.2461.2461,0,0,0,.2461.2461h.1716a.2461.2461,0,0,0,.2461-.2461V4.855a.4923.4923,0,0,0-.4909-.4937C12.2466,4.3613,12.2337,4.3618,12.2208,4.3627Z" fill="#fff" /><path d="M12.4744,9.8223h-.1566a.2462.2462,0,0,0-.2462.2462h0v1.8946H10.1994a.2461.2461,0,0,0-.2461.2461v.1641a.2461.2461,0,0,0,.2461.2462h2.0513a.5.5,0,0,0,.5-.4923V10.0685a.2462.2462,0,0,0-.2443-.248A.24.24,0,0,0,12.4744,9.8223Z" fill="#fff" /></g></g></g></g></g></svg>