<svg xmlns="http://www.w3.org/2000/svg" width="18" height="18" viewBox="0 0 18 18"><defs><linearGradient id="af862b2f-912b-4adf-988d-c65b03491a8e" x1="9.8894" y1="15.8246" x2="9.8894" y2="1.0402" gradientUnits="userSpaceOnUse"><stop offset="0" stop-color="#0078d4" /><stop offset="1" stop-color="#5ea0ef" /></linearGradient><linearGradient id="b1d8509c-68e4-4a13-9172-0f8640cd1690" x1="13.0867" y1="10.3311" x2="10.2737" y2="8.4273" gradientUnits="userSpaceOnUse"><stop offset="0" stop-color="#32bedd" /><stop offset="1" stop-color="#9cebff" /></linearGradient><linearGradient id="a3f99339-bcb3-465e-873c-8a678cba5a40" x1="8.277" y1="12.0802" x2="8.277" y2="6.4367" gradientUnits="userSpaceOnUse"><stop offset="0" stop-color="#32bedd" /><stop offset="1" stop-color="#9cebff" /></linearGradient></defs><g id="b92231ef-0661-4a04-8798-1e07bc05a7de"><g><path d="M8.1465.87A7.6263,7.6263,0,0,0,5.4131,14.7234l.2622-.6583a.1443.1443,0,0,1,.2489-.0364l1.884,2.4318a.1488.1488,0,0,1-.0238.2069.1443.1443,0,0,1-.0718.0307l-3.0248.4311a.1464.1464,0,0,1-.164-.1274.15.15,0,0,1,.009-.0738l.3831-.9741A8.8733,8.8733,0,0,1,.9743,10.5948a7.7593,7.7593,0,0,1,5.423-9.4691A7.5337,7.5337,0,0,1,8.1465.87Z" fill="#86d633" /><path d="M9.8894,1.04A7.3859,7.3859,0,0,0,4.5488,13.5346a7.08,7.08,0,0,0,.6884.6l.0836-.21a.5285.5285,0,0,1,.5014-.3336.5257.5257,0,0,1,.4033.2038l1.255,1.62A7.39,7.39,0,1,0,9.8894,1.04Z" fill="url(#af862b2f-912b-4adf-988d-c65b03491a8e)" /><g><g><polygon points="13.114 6.437 13.114 10.188 9.889 12.08 9.889 8.318 13.114 6.437" fill="url(#b1d8509c-68e4-4a13-9172-0f8640cd1690)" /><polygon points="13.114 6.437 9.9 8.329 6.665 6.437 9.9 4.556 13.114 6.437" fill="#c3f1ff" /><polygon points="9.889 8.329 9.889 12.08 6.665 10.188 6.665 6.437 9.889 8.329" fill="url(#a3f99339-bcb3-465e-873c-8a678cba5a40)" /></g><g><path d="M7.7484,3.809H5.4635a.5483.5483,0,0,0-.5483.5483V6.6505a.2742.2742,0,0,0,.2741.2742h.1828a.2742.2742,0,0,0,.2742-.2742V4.5318H7.7484a.2741.2741,0,0,0,.2658-.2742V4.0831A.2741.2741,0,0,0,7.7484,3.809Z" fill="#fff" /><path d="M7.7484,12.2748H5.638V10.1727a.2742.2742,0,0,0-.2742-.2742H5.1893a.2742.2742,0,0,0-.2741.2742v2.3264a.5483.5483,0,0,0,.54.5566l.0083,0H7.7484A.2825.2825,0,0,0,8.017,12.76l-.0028-.0284V12.549A.2741.2741,0,0,0,7.7484,12.2748Z" fill="#fff" /><path d="M14.2738,3.8347H12.0222a.2741.2741,0,0,0-.2742.2742v.1744a.2742.2742,0,0,0,.2481.298.2531.2531,0,0,0,.0261.0011h2.102V6.6679a.2742.2742,0,0,0,.2742.2742H14.59a.2742.2742,0,0,0,.2742-.2742V4.383a.5485.5485,0,0,0-.5468-.55C14.3025,3.8331,14.2881,3.8336,14.2738,3.8347Z" fill="#fff" /><path d="M14.5563,9.9159h-.1745a.2742.2742,0,0,0-.2742.2742h0v2.11H12.0222a.2741.2741,0,0,0-.2742.2742v.1828a.2741.2741,0,0,0,.2742.2741H14.307a.5566.5566,0,0,0,.5567-.5483V10.19a.2743.2743,0,0,0-.3074-.2742Z" fill="#fff" /></g></g></g></g></svg>