<svg id="a0f448ad-2648-4cd6-b442-513e4a5b2ace" xmlns="http://www.w3.org/2000/svg" width="18" height="18" viewBox="0 0 18 18"><defs><linearGradient id="b45e255d-bffa-451b-8846-6f6c550d3933" x1="10.03" y1="6.02" x2="10.03" y2="1.92" gradientUnits="userSpaceOnUse"><stop offset="0" stop-color="#198ab3" /><stop offset="0.1" stop-color="#1c93bb" /><stop offset="0.7" stop-color="#2cc2e5" /><stop offset="1" stop-color="#32d4f5" /></linearGradient><linearGradient id="b7f9cef7-9703-4b9c-b1cd-681c80a1857e" x1="10.03" y1="12.18" x2="10.03" y2="8.08" href="#b45e255d-bffa-451b-8846-6f6c550d3933" /><linearGradient id="afc15d94-3b96-41df-93b4-2a0f23c10140" x1="9.66" y1="17.45" x2="9.66" y2="14.44" href="#b45e255d-bffa-451b-8846-6f6c550d3933" /></defs><title>Icon-other-346</title><g><path d="M14,.55H2a.68.68,0,0,0-.69.68V4.31A.69.69,0,0,0,2,5H14a.69.69,0,0,0,.69-.69V1.23A.69.69,0,0,0,14,.55Zm0,6.16H2a.68.68,0,0,0-.69.68v3.08a.69.69,0,0,0,.69.69H14a.69.69,0,0,0,.69-.69V7.39A.68.68,0,0,0,14,6.71Z" fill="#198ab3" /><path d="M9.15,5h1V15.26h-1Z" fill="#32bedd" /><path d="M16.13,1.92H3.92a.57.57,0,0,0-.57.57v3A.57.57,0,0,0,3.92,6H16.13a.57.57,0,0,0,.57-.57v-3A.57.57,0,0,0,16.13,1.92Z" fill="url(#b45e255d-bffa-451b-8846-6f6c550d3933)" /><g><rect x="14.51" y="2.49" width="1.05" height="1.05" rx="0.15" fill="#b4ec36" /><rect x="14.51" y="4.3" width="1.05" height="1.05" rx="0.15" fill="#b4ec36" /></g><path d="M16.13,8.08H3.92a.57.57,0,0,0-.57.57v3a.57.57,0,0,0,.57.57H16.13a.57.57,0,0,0,.57-.57v-3A.57.57,0,0,0,16.13,8.08Z" fill="url(#b7f9cef7-9703-4b9c-b1cd-681c80a1857e)" /><circle cx="9.66" cy="15.95" r="1.51" fill="url(#afc15d94-3b96-41df-93b4-2a0f23c10140)" /><g><rect x="14.51" y="8.7" width="1.05" height="1.05" rx="0.15" fill="#b4ec36" /><rect x="14.51" y="10.51" width="1.05" height="1.05" rx="0.15" fill="#b4ec36" /></g></g></svg>