<svg id="f76232ac-3a76-4330-97ca-3f381bd6f190" xmlns="http://www.w3.org/2000/svg" width="18" height="18" viewBox="0 0 18 18"><defs><linearGradient id="aa3419c0-cd8f-4ac0-8da9-8de597fd3cbf" x1="9.02" y1="5.46" x2="9.02" y2="0.65" gradientUnits="userSpaceOnUse"><stop offset="0" stop-color="#198ab3" /><stop offset="1" stop-color="#32d4f5" /></linearGradient><linearGradient id="a07223d6-5912-4349-a93f-23c27741ba44" x1="8.98" y1="11.97" x2="8.98" y2="7.17" gradientUnits="userSpaceOnUse"><stop offset="0" stop-color="#198ab3" /><stop offset="1" stop-color="#32d4f5" /></linearGradient><linearGradient id="f8b2b35f-4e8d-49ce-8b60-0d07f0c093e9" x1="9.02" y1="17.34" x2="9.02" y2="14.32" gradientUnits="userSpaceOnUse"><stop offset="0" stop-color="#198ab3" /><stop offset="1" stop-color="#32d4f5" /></linearGradient></defs><title>Icon-other-347</title><g><path d="M8.46,5.46h1v9.6h-1Z" fill="#32bedd" /><path d="M15.48.65H2.56A.58.58,0,0,0,2,1.23V4.88a.58.58,0,0,0,.57.58H15.48a.57.57,0,0,0,.57-.58V1.23A.57.57,0,0,0,15.48.65Z" fill="url(#aa3419c0-cd8f-4ac0-8da9-8de597fd3cbf)" /><path d="M15.44,7.17H2.52A.57.57,0,0,0,2,7.74V11.4a.56.56,0,0,0,.57.57H15.44A.57.57,0,0,0,16,11.4V7.74A.58.58,0,0,0,15.44,7.17Z" fill="url(#a07223d6-5912-4349-a93f-23c27741ba44)" /><circle cx="9.06" cy="15.84" r="1.51" fill="#7fba00" /><circle cx="9.02" cy="15.83" r="1.51" fill="url(#f8b2b35f-4e8d-49ce-8b60-0d07f0c093e9)" /><g><rect x="13.72" y="1.55" width="1.05" height="1.05" rx="0.15" fill="#b4ec36" /><rect x="13.72" y="3.36" width="1.05" height="1.05" rx="0.15" fill="#b4ec36" /></g><g><rect x="13.72" y="8.04" width="1.05" height="1.05" rx="0.15" fill="#b4ec36" /><rect x="13.72" y="9.85" width="1.05" height="1.05" rx="0.15" fill="#b4ec36" /></g></g></svg>