<svg xmlns="http://www.w3.org/2000/svg" width="18" height="18" viewBox="0 0 18 18"><defs><linearGradient id="ba3d4428-273b-47d2-80ac-53671019b795" x1="-1267.23" y1="3.07" x2="-1267.52" y2="14.64" gradientTransform="matrix(-1, 0, 0, 1, -1256.13, 0)" gradientUnits="userSpaceOnUse"><stop offset="0" stop-color="#32d4f5" /><stop offset="0.23" stop-color="#31d0f1" /><stop offset="0.46" stop-color="#2cc3e6" /><stop offset="0.7" stop-color="#25afd4" /><stop offset="0.94" stop-color="#1c92ba" /><stop offset="1" stop-color="#198ab3" /></linearGradient></defs><g id="bce83c25-9afe-4c01-b0b0-4312ccacb0c8"><g><path d="M17.28,3.9h-.91a4.16,4.16,0,0,0-.55,0,.68.68,0,0,1-.59-1l.39-.7a1.83,1.83,0,0,0-.51-.29l-.93,1.66a.7.7,0,0,1-.6.35h-.83a.66.66,0,0,0-.32.08h0L10.86,5a.25.25,0,0,1-.16,0H5.27A.29.29,0,0,0,5,5.32v4.82l-1.75.54.13.56L5,11V13.9a.29.29,0,0,0,.29.29h9.37l1.15,1.49.49-.31-.68-1.18h1.68a.29.29,0,0,0,.3-.29V4.2A.3.3,0,0,0,17.28,3.9Z" fill="#005ba1" /><circle cx="15.88" cy="1.08" r="1.09" fill="#50e5ff" /><circle cx="16.58" cy="16.59" r="1.42" fill="#50e5ff" /><circle cx="1.77" cy="11.44" r="1.77" fill="#50e5ff" /><g><path d="M15.17,4.75l-6.91-1H8.12a1,1,0,0,0-1,.87L6.86,6.31H16L16,5.9A1,1,0,0,0,15.17,4.75Z" fill="#0078d4" /><path d="M15.1,5.18l-6.9-1H8.11a.58.58,0,0,0-.57.5L7.3,6.31h8.22l.07-.47A.58.58,0,0,0,15.1,5.18Z" fill="#fff" /></g><path d="M5.26,5h6.05a.33.33,0,0,1,.21.09l1,1a.29.29,0,0,0,.21.09h4.6a.3.3,0,0,1,.3.29V13.9a.3.3,0,0,1-.3.29h-12A.29.29,0,0,1,5,13.9V5.32A.3.3,0,0,1,5.26,5Z" fill="url(#ba3d4428-273b-47d2-80ac-53671019b795)" /></g></g></svg>