<svg xmlns="http://www.w3.org/2000/svg" width="18" height="18" viewBox="0 0 18 18"><defs><linearGradient id="b774912a-6f06-40f4-8e31-f2d4dd61d2af" x1="13.398" y1="1.747" x2="13.398" y2="7.447" gradientUnits="userSpaceOnUse"><stop offset="0" stop-color="#5ea0ef" /><stop offset="1" stop-color="#0078d4" /></linearGradient><linearGradient id="b0e57c80-1696-42e1-919b-c03f7e5b85f1" x1="2.85" y1="5.341" x2="2.85" y2="11.041" gradientUnits="userSpaceOnUse"><stop offset="0" stop-color="#a67af4" /><stop offset="1" stop-color="#773adc" /></linearGradient><linearGradient id="e7877f44-c141-4bbe-939d-1da5b61be46b" x1="11.829" y1="12.149" x2="11.829" y2="20.004" gradientUnits="userSpaceOnUse"><stop offset="0" stop-color="#3cd4c2" /><stop offset="1" stop-color="#258277" /></linearGradient></defs><path d="M14.428,6.615a.526.526,0,0,1-.438-.235L11.351,2.415a2.643,2.643,0,0,0-4.443,0L5.43,4.7a.525.525,0,0,1-.882-.57L6.026,1.839a3.694,3.694,0,0,1,6.2,0L14.865,5.8a.526.526,0,0,1-.437.817Z" fill="#0078d4" /><path d="M14.3,15.538H11.131a.526.526,0,0,1,0-1.051H14.3a2.644,2.644,0,0,0,2.22-4.078L15.342,8.581a.525.525,0,0,1,.883-.569L17.4,9.84a3.694,3.694,0,0,1-3.1,5.7Z" fill="#37c2b1" /><path d="M7.269,15.538H4.322a3.694,3.694,0,0,1-3.1-5.7L3.166,6.863a.525.525,0,0,1,.879.575L2.1,10.412a2.643,2.643,0,0,0,2.221,4.075H7.269a.526.526,0,0,1,0,1.051Z" fill="#a67af4" /><circle cx="13.398" cy="4.597" r="2.85" fill="url(#b774912a-6f06-40f4-8e31-f2d4dd61d2af)" /><path d="M2.849,5.382A2.85,2.85,0,1,0,5.7,8.231,2.85,2.85,0,0,0,2.849,5.382Z" fill="url(#b0e57c80-1696-42e1-919b-c03f7e5b85f1)" /><path d="M11.828,12.149A2.85,2.85,0,1,0,14.679,15,2.851,2.851,0,0,0,11.828,12.149Z" fill="url(#e7877f44-c141-4bbe-939d-1da5b61be46b)" />​
</svg>