<svg xmlns="http://www.w3.org/2000/svg" width="18" height="18" viewBox="0 0 18 18"><defs><linearGradient id="e83464b6-e4e6-4ff1-9a65-7dbf37634849" x1="9" y1="15.296" x2="9" y2="2.704" gradientUnits="userSpaceOnUse"><stop offset="0" stop-color="#0078d4" /><stop offset="0.817" stop-color="#5ea0ef" /></linearGradient></defs><g id="f8e7d926-8142-4aed-8527-70db4199d4e9"><g><path d="M17.884,11.352a3.992,3.992,0,0,0-3.465-3.837A5.031,5.031,0,0,0,9.237,2.7,5.162,5.162,0,0,0,4.3,6.067,4.765,4.765,0,0,0,.116,10.651a4.834,4.834,0,0,0,5,4.645c.149,0,.295-.007.441-.019h8.1a.791.791,0,0,0,.214-.032A4.039,4.039,0,0,0,17.884,11.352Z" fill="url(#e83464b6-e4e6-4ff1-9a65-7dbf37634849)" /><path d="M9.465,10.534A4.675,4.675,0,1,0,4.792,15.3c.052,0,.1,0,.155,0h4.52V10.534Z" fill="#005ba1" /><polygon points="7.654 9.172 7.654 12.483 4.792 14.147 4.792 10.831 7.654 9.172" fill="#32bedd" /><polygon points="7.654 9.172 4.792 10.835 1.929 9.171 4.792 7.507 7.654 9.172" fill="#9cebff" /><polygon points="4.792 10.835 4.792 14.147 1.929 12.483 1.929 9.171 4.792 10.835" fill="#50e6ff" /></g></g></svg>