<?xml version="1.0" encoding="UTF-8"?>
<svg width="32px" height="33px" viewBox="0 0 32 33" version="1.1" xmlns="http://www.w3.org/2000/svg" xmlns:xlink="http://www.w3.org/1999/xlink">
    <!-- Generator: Sketch 53 (72520) - https://sketchapp.com -->
    <title>crypto-32</title>
    <desc>Created with Sketch.</desc>
    <g id="crypto-32" stroke="none" stroke-width="1" fill="none" fill-rule="evenodd" transform="translate(0.000000, 1.000000)">
        <path d="M27.6910935,7.24515763 L16,0.502939623 C10.7811984,3.51260661 6.86709716,5.76985686 4.25769634,7.27469035 M3.25394846,9.51002875 C4.32690187,15.4466791 6.07558571,20.0764893 8.5,23.3994594 C10.6138408,26.2967488 12.645879,28.2874167 14.5961147,29.3714631 M17.385069,29.3556643 C19.882722,28.021115 22.087699,25.8689695 24,22.8992279 C26.0857228,19.6601679 27.6667218,15.1766421 28.742997,9.44865067" id="shield" stroke="#000000" stroke-linejoin="round"></path>
        <path d="M29,10 C27.8954305,10 27,9.1045695 27,8 C27,6.8954305 27.8954305,6 29,6 C30.1045695,6 31,6.8954305 31,8 C31,9.1045695 30.1045695,10 29,10 Z M29,9 C29.5522847,9 30,8.55228475 30,8 C30,7.44771525 29.5522847,7 29,7 C28.4477153,7 28,7.44771525 28,8 C28,8.55228475 28.4477153,9 29,9 Z" id="circle" fill="#000000" fill-rule="nonzero"></path>
        <path d="M3,10 C1.8954305,10 1,9.1045695 1,8 C1,6.8954305 1.8954305,6 3,6 C4.1045695,6 5,6.8954305 5,8 C5,9.1045695 4.1045695,10 3,10 Z M3,9 C3.55228475,9 4,8.55228475 4,8 C4,7.44771525 3.55228475,7 3,7 C2.44771525,7 2,7.44771525 2,8 C2,8.55228475 2.44771525,9 3,9 Z" id="circle" fill="#000000" fill-rule="nonzero"></path>
        <path d="M16,32 C14.8954305,32 14,31.1045695 14,30 C14,28.8954305 14.8954305,28 16,28 C17.1045695,28 18,28.8954305 18,30 C18,31.1045695 17.1045695,32 16,32 Z M16,31 C16.5522847,31 17,30.5522847 17,30 C17,29.4477153 16.5522847,29 16,29 C15.4477153,29 15,29.4477153 15,30 C15,30.5522847 15.4477153,31 16,31 Z" id="circle" fill="#000000" fill-rule="nonzero"></path>
        <path d="M11,13 L11,10.6814815 C11,8.07727316 13.2534704,6 16,6 C18.7465296,6 21,8.07727316 21,10.6814815 L21,13 L23.4642857,13 C23.7601525,13 24,13.2238576 24,13.5 L24,23.515253 C24,23.8169643 23.7988281,23.9973028 23.4787946,23.9973028 C23.265439,23.9973028 18.4381639,23.9973028 8.99696927,23.9973028 L8.31110491,23 L23.000464,23 L23.000464,14 L8.99696927,14 L8.99696927,19.0035921 C8.99696927,19.2797345 8.79586683,19.5 8.5,19.5 C8.20413317,19.5 8,19.2797345 8,19.0035921 L8,13.5 C8,13.2238576 8.23984746,13 8.53571429,13 L11,13 Z M12,13 L20,13 L20,10.6814815 C20,8.70377188 18.2240332,7.06666667 16,7.06666667 C13.7759668,7.06666667 12,8.70377188 12,10.6814815 L12,13 Z" id="lock" fill="#000000" fill-rule="nonzero"></path>
    </g>
</svg>