<svg xmlns="http://www.w3.org/2000/svg" width="18" height="18" viewBox="0 0 18 18"><defs><linearGradient id="e693c899-5f5d-478d-b979-b6888a267030" x1="7.762" y1="2.476" x2="7.762" y2="15.391" gradientUnits="userSpaceOnUse"><stop offset="0.002" stop-color="#a67af4" /><stop offset="1" stop-color="#773adc" /></linearGradient><linearGradient id="ec7a0191-6903-4b3c-9f74-799112b8ee09" x1="13.926" y1="7.376" x2="13.926" y2="15.524" gradientUnits="userSpaceOnUse"><stop offset="0" stop-color="#c3f1ff" /><stop offset="1" stop-color="#50e6ff" /></linearGradient></defs><g id="beab6721-a8e3-4493-b90b-351ab8c715db"><path d="M.9,2.476H14.623a.844.844,0,0,1,.9.774v9.386a.846.846,0,0,1-.9.774H9.007a.168.168,0,0,0-.091.027l-2.881,1.9a.3.3,0,0,1-.481-.205V13.539a.141.141,0,0,0-.15-.129H.9a.845.845,0,0,1-.9-.774V3.25A.846.846,0,0,1,.9,2.476Z" fill="url(#e693c899-5f5d-478d-b979-b6888a267030)" /><path d="M11.031,6.661a1.025,1.025,0,1,1-1.025,1.025A1.025,1.025,0,0,1,11.031,6.661ZM6.737,7.7A1.025,1.025,0,1,0,7.762,6.67,1.025,1.025,0,0,0,6.737,7.7Zm-3.27,0A1.025,1.025,0,1,0,4.492,6.67,1.025,1.025,0,0,0,3.467,7.7Z" fill="#fff" opacity="0.8" /><circle cx="13.926" cy="11.45" r="4.074" fill="url(#ec7a0191-6903-4b3c-9f74-799112b8ee09)" /><path d="M16.164,13.638l-.537-.814a.3.3,0,0,0-.4-.1l-.385.207a.194.194,0,0,1-.23-.034,6,6,0,0,1-.689-.828l-.308-.523a5.945,5.945,0,0,1-.365-1.014.2.2,0,0,1,.087-.216l.373-.227a.3.3,0,0,0,.114-.39L13.4,8.824a.285.285,0,0,0-.372-.133,1.722,1.722,0,0,0-.78.971c-.352.815.28,1.774.747,2.59H13c.467.816.976,1.846,1.856,1.956a1.719,1.719,0,0,0,1.232-.182A.283.283,0,0,0,16.164,13.638Z" fill="#0078d4" /></g>​
</svg>