<svg xmlns="http://www.w3.org/2000/svg" width="18" height="18" viewBox="0 0 18 18"><defs><linearGradient id="be498472-290a-4c5c-bc9d-5cbbb87cffd8" x1="9" x2="9" y2="13.5" gradientUnits="userSpaceOnUse"><stop offset="0" stop-color="#e83231" /><stop offset="1" stop-color="#ce1817" /></linearGradient><linearGradient id="b82c9bb2-f176-43c7-bfca-cd1403ce50b4" x1="16.61" y1="16.75" x2="4.38" y2="4.3" gradientUnits="userSpaceOnUse"><stop offset="0.04" stop-color="#a80000" /><stop offset="0.32" stop-color="#a30302" /><stop offset="0.63" stop-color="#960c06" /><stop offset="0.71" stop-color="#910f08" /><stop offset="0.74" stop-color="#8b0e07" /><stop offset="0.79" stop-color="#790a05" /><stop offset="0.85" stop-color="#5b0502" /><stop offset="0.89" stop-color="#400" /></linearGradient><linearGradient id="bc4aed38-f5ae-441b-bbb4-f69eb55fcecf" x1="17.38" y1="16.32" x2="11.61" y2="7.64" gradientUnits="userSpaceOnUse"><stop offset="0.35" stop-color="#a80000" /><stop offset="0.52" stop-color="#a20402" /><stop offset="0.75" stop-color="#910f08" /><stop offset="0.8" stop-color="#8b0e07" /><stop offset="0.87" stop-color="#790a05" /><stop offset="0.94" stop-color="#5b0502" /><stop offset="0.99" stop-color="#400" /></linearGradient></defs><path d="M10.18,9V3.32L0,13.5V4A4.9,4.9,0,0,1,1.33,1.31,4.43,4.43,0,0,1,4.27,0H13.5L18,4.5,13.5,9Z" fill="url(#be498472-290a-4c5c-bc9d-5cbbb87cffd8)" /><path d="M7.82,9v5.68L18,4.5V14a4.9,4.9,0,0,1-1.33,2.71A4.49,4.49,0,0,1,13.73,18H4.5L0,13.5,4.5,9Z" fill="url(#b82c9bb2-f176-43c7-bfca-cd1403ce50b4)" /><path d="M7.82,14.68,18,4.5V14a4.9,4.9,0,0,1-1.33,2.71A4.49,4.49,0,0,1,13.73,18Z" fill="url(#bc4aed38-f5ae-441b-bbb4-f69eb55fcecf)" /></svg>