<svg xmlns="http://www.w3.org/2000/svg" width="18" height="18" viewBox="0 0 18 18"><defs><linearGradient id="a15d23b7-d69e-4d72-8039-5ceb7e59206e" x1="8.999" y1="6.807" x2="8.999" y2="13.192" gradientUnits="userSpaceOnUse"><stop offset="0" stop-color="#50e6ff" /><stop offset="0.949" stop-color="#32bedd" /></linearGradient></defs><g id="ac810569-986a-4a1d-9c74-a74bd3510360"><g><path d="M14.975,9.021c0,.052,0,.1,0,.155A5.977,5.977,0,0,1,9,15H8.937L8.08,13.545a.871.871,0,0,0-.759-.435.88.88,0,0,0-.821.554l-.262.657c-.1-.053-.2-.11-.3-.167L5.849,14.1c-.041-.023-.08-.049-.12-.076l-.115-.078c-.027-.019-.054-.038-.08-.058s-.054-.038-.08-.058-.031-.023-.048-.036l-.134-.1v0l0,0c-.046-.037-.092-.075-.135-.113s-.077-.066-.115-.1l0,0A.063.063,0,0,1,5,13.455c-.076-.066-.15-.137-.223-.21l-.114-.116a.081.081,0,0,1-.016-.016c-.069-.074-.138-.15-.2-.229-.036-.041-.07-.083-.1-.125s-.069-.086-.1-.13-.066-.087-.1-.13-.064-.09-.1-.137-.06-.091-.09-.138a.839.839,0,0,1-.05-.081c-.02-.03-.037-.059-.055-.09-.035-.059-.07-.12-.1-.182-.026-.042-.048-.085-.071-.129-.043-.083-.084-.167-.122-.255-.021-.046-.042-.092-.062-.14s-.044-.1-.063-.153-.04-.1-.056-.152-.031-.08-.044-.123-.021-.062-.031-.094-.023-.072-.032-.107c-.017-.055-.033-.108-.047-.163s-.028-.108-.041-.163-.025-.111-.036-.166a5.964,5.964,0,0,1-.111-.842c0-.048-.006-.1-.007-.147,0-.071,0-.143,0-.216A5.955,5.955,0,0,1,3.1,8.08c.011-.074.025-.15.039-.226s.026-.121.04-.182A.645.645,0,0,1,3.2,7.588c.014-.062.029-.124.048-.186l0-.017c.018-.064.038-.129.059-.194l0-.012A5.978,5.978,0,0,1,8.982,3.046l.831,1.41a.883.883,0,0,0,1.581-.121l.265-.665c.08.039.161.082.238.125s.139.079.208.123l.047.026c.05.033.1.065.151.1.089.058.176.118.261.182.112.081.222.17.327.263.052.045.1.091.155.139a5.921,5.921,0,0,1,1.873,3.586c.01.067.018.136.025.205.012.12.021.24.026.361,0,.051,0,.1,0,.154C14.975,8.963,14.975,8.991,14.975,9.021Z" fill="url(#a15d23b7-d69e-4d72-8039-5ceb7e59206e)" /><g><g opacity="0.8"><polygon points="11.964 11.806 10.103 8.548 9.918 8.654 10.069 8.542 7.962 5.546 7.576 5.825 9.443 8.48 5.307 8.821 5.346 9.302 9.443 8.961 8.085 11.219 8.493 11.465 9.89 9.14 11.551 12.041 11.964 11.806" fill="#fff" opacity="0.6" /><path d="M11.775,11.119h-.006a.879.879,0,0,0-.187.018.856.856,0,0,0-.679.826v.017a.866.866,0,1,0,.872-.861Zm-2.913-.27a.728.728,0,0,0-.431-.205.457.457,0,0,0-.083-.006H8.342a.746.746,0,0,0-.75.738v.006a.75.75,0,1,0,1.27-.533ZM5.984,8.765a.743.743,0,1,0,.088.353A.742.742,0,0,0,5.984,8.765ZM7.833,4.8H7.806a.928.928,0,0,0,.017,1.856.954.954,0,0,0,.3-.049.933.933,0,0,0,.628-.873A.927.927,0,0,0,7.833,4.8ZM9.918,7.615A1.119,1.119,0,0,0,9.48,7.7a1.123,1.123,0,0,0-.661.83A.984.984,0,0,0,8.8,8.7v.027a1.131,1.131,0,0,0,.314.776,1.106,1.106,0,0,0,.4.266,1.125,1.125,0,0,0,.407.078,1.147,1.147,0,0,0,.348-.055,1.118,1.118,0,0,0-.348-2.181Z" fill="#fff" /></g><path d="M16.5,11.493a.463.463,0,0,1-.611.288l-.539-.216a.461.461,0,0,1-.263-.574A6.408,6.408,0,0,0,11.431,3.1l-.156.391L11,4.179a.461.461,0,0,1-.825.062L9.482,3.064,8.589,1.549A.461.461,0,0,1,8.861.872L11.867.018a.462.462,0,0,1,.555.616L11.99,1.711A7.909,7.909,0,0,1,16.5,11.493Z" fill="#0078d4" /><path d="M9.032,17.129l-3.006.852a.46.46,0,0,1-.554-.614l.433-1.081A7.907,7.907,0,0,1,1.5,6.55a.464.464,0,0,1,.611-.288l.529.212a.467.467,0,0,1,.274.574A6.409,6.409,0,0,0,6.462,14.9l.157-.391.273-.682a.461.461,0,0,1,.826-.063l.714,1.212.872,1.48A.461.461,0,0,1,9.032,17.129Z" fill="#0078d4" /></g></g></g></svg>