<svg xmlns="http://www.w3.org/2000/svg" width="18" height="18" viewBox="0 0 18 18"><defs><linearGradient id="bd7a88a6-b2a0-4bbd-bde5-8454bb7d344f" x1="8.006" y1="1.867" x2="8.006" y2="12.695" gradientUnits="userSpaceOnUse"><stop offset="0" stop-color="#5ea0ef" /><stop offset="1" stop-color="#0078d4" /></linearGradient><linearGradient id="b1c3bb17-1c64-46b8-b65c-c043f47f3b01" x1="14.119" y1="8.901" x2="14.119" y2="16.873" gradientUnits="userSpaceOnUse"><stop offset="0" stop-color="#faa21d" /><stop offset="0.4" stop-color="#f79415" /><stop offset="1" stop-color="#ef7100" /></linearGradient></defs><path d="M9.637,12.782A4.487,4.487,0,0,1,14.119,8.3h0a4.426,4.426,0,0,1,1.891.434A3.672,3.672,0,0,0,12.945,5.8a4.592,4.592,0,0,0-4.69-4.467,4.7,4.7,0,0,0-4.467,3.1A4.352,4.352,0,0,0,0,8.725a4.413,4.413,0,0,0,4.529,4.289H9.661C9.657,12.935,9.637,12.862,9.637,12.782Z" fill="url(#bd7a88a6-b2a0-4bbd-bde5-8454bb7d344f)" /><circle cx="4.314" cy="8.63" r="0.657" fill="#e3e3e3" /><path d="M6.627,8.88V8.353H6.553l-.565-.185L5.84,7.807,6.127,7.2l-.37-.37H5.683L5.156,7.1,4.8,6.955l-.232-.638H4.036v.074l-.185.564L3.462,7.1l-.6-.287-.37.37v.074l.268.527-.148.361-.648.231v.574h.074l.565.185L2.75,9.5l-.287.611.37.37h.074l.528-.269.36.148L4.027,11h.527v-.074l.185-.565.361-.148.611.287.37-.37v-.074l-.269-.527.148-.361Zm-2.313.768a1.008,1.008,0,1,1,.018,0Z" fill="#fff" /><circle cx="8.718" cy="5.799" r="0.777" fill="#e3e3e3" /><path d="M11.494,6.1V5.466H11.41l-.684-.213-.158-.472.343-.74L10.467,3.6h-.084l-.638.324-.426-.176-.277-.768H8.385v.092l-.222.676-.435.176-.722-.343-.444.444.046.084.259.684-.148.463-.777.25v.675h.093L6.71,6.4l.157.417-.342.74.463.472.092-.046.629-.324.435.175.278.768h.629V8.51l.222-.676.435-.175L10.439,8l.444-.444-.046-.083-.269-.667.176-.434ZM8.718,7.02A1.221,1.221,0,1,1,9.939,5.8h0a1.212,1.212,0,0,1-1.2,1.221Z" fill="#fff" /><path d="M14.121,8.9h0A3.882,3.882,0,1,0,18,12.782,3.882,3.882,0,0,0,14.119,8.9Z" fill="url(#b1c3bb17-1c64-46b8-b65c-c043f47f3b01)" /><path d="M16.1,10.615l-2.288.014a.135.135,0,0,0-.1.232l.823.807L13,13.207l-.806-.822a.136.136,0,0,0-.233.094l-.014,2.288a.183.183,0,0,0,.183.183l2.288-.014a.135.135,0,0,0,.135-.136.139.139,0,0,0-.04-.1l-.823-.807,1.539-1.539.807.822a.137.137,0,0,0,.233-.094l.014-2.288A.183.183,0,0,0,16.1,10.615Z" fill="#fff" />​
</svg>