<svg xmlns="http://www.w3.org/2000/svg" width="18" height="18" viewBox="0 0 18 18"><defs><linearGradient id="bc28d075-e521-4396-a6ce-a58a84c669db" x1="5.368" y1="2.599" x2="9.681" y2="7.232" gradientUnits="userSpaceOnUse"><stop offset="0" stop-color="#5ea0ef" /><stop offset="0.2" stop-color="#83b9f9" /><stop offset="0.5" stop-color="#83b9f9" /><stop offset="0.75" stop-color="#83b9f9" /><stop offset="0.9" stop-color="#6facf4" /><stop offset="1" stop-color="#5ea0ef" /></linearGradient><linearGradient id="a7ec1ec3-6991-48ca-bc13-e2e2f72b726d" x1="8.32" y1="6.332" x2="12.637" y2="10.969" gradientUnits="userSpaceOnUse"><stop offset="0" stop-color="#5ea0ef" /><stop offset="0.2" stop-color="#83b9f9" /><stop offset="0.5" stop-color="#83b9f9" /><stop offset="0.75" stop-color="#83b9f9" /><stop offset="0.9" stop-color="#6facf4" /><stop offset="1" stop-color="#5ea0ef" /></linearGradient></defs><path d="M6.218,10.879a1.615,1.615,0,0,1-.7-1.265V8.887A1.313,1.313,0,0,1,5.5,8.638c0-.927.88-1.591,2.108-1.979-.039,0-.074,0-.113,0-2.42,0-4.381.806-4.381,1.8a.791.791,0,0,0,.023.187v.789c0,.767,1.205,1.419,2.846,1.677A2.145,2.145,0,0,1,6.218,10.879Z" fill="#0078d4" /><path d="M10.386,6.254c.919-.33,1.51-.809,1.51-1.349,0-.994-1.961-1.8-4.381-1.8s-4.382.805-4.382,1.8S5.07,6.692,7.468,6.7A9.54,9.54,0,0,1,10.386,6.254Z" fill="url(#bc28d075-e521-4396-a6ce-a58a84c669db)" /><ellipse cx="7.626" cy="4.882" rx="1.455" ry="0.397" fill="#005ba1" /><path d="M10.467,6.253a10.79,10.79,0,0,1,1.29.085.845.845,0,0,0,.137-.407V4.868c0,.564-.619,1.058-1.61,1.388C10.345,6.255,10.406,6.253,10.467,6.253Z" fill="#5ea0ef" /><path d="M7.6,6.661l-.061,0c-2.442,0-4.4-.806-4.381-1.8V5.881c0,.764,1.194,1.413,2.824,1.674A3.943,3.943,0,0,1,7.6,6.661Z" fill="#5ea0ef" /><path d="M14.828,12.187c0-.994-1.962-1.8-4.382-1.8s-4.381.806-4.381,1.8a.783.783,0,0,0,.023.186v.789c0,.993,2.01,1.8,4.382,1.8s4.3-.789,4.381-1.753l-.023-.748Z" fill="#0078d4" /><ellipse cx="10.557" cy="12.163" rx="1.455" ry="0.397" fill="#005ba1" /><ellipse cx="10.467" cy="8.638" rx="4.382" ry="1.799" fill="url(#a7ec1ec3-6991-48ca-bc13-e2e2f72b726d)" /><ellipse cx="10.578" cy="8.615" rx="1.455" ry="0.397" fill="#005ba1" /><path d="M10.465,10.431c2.425,0,4.382-.806,4.382-1.8h0V9.7h0c-.082.964-2.01,1.753-4.382,1.753s-4.381-.807-4.381-1.8V8.632C6.06,9.625,8.023,10.431,10.465,10.431Z" fill="#5ea0ef" /><path d="M0,15.587a.174.174,0,0,0,.086.15l1.221.708,2.075,1.2a.169.169,0,0,0,.232-.061l0,0,.7-1.215a.175.175,0,0,0-.063-.236l-2.428-1.4a.169.169,0,0,1-.086-.149V3.422a.169.169,0,0,1,.086-.149L4.251,1.864a.175.175,0,0,0,.063-.235L3.616.414A.172.172,0,0,0,3.383.349h0L1.349,1.53.086,2.263A.172.172,0,0,0,0,2.412Z" fill="#949494" /><path d="M4.314,1.629,3.616.414A.171.171,0,0,0,3.442.33a.161.161,0,0,0-.086.021L1.324,1.53.061,2.263A.175.175,0,0,0,0,2.323l.02.012A.173.173,0,0,0,0,2.412l1.739,1.01a.167.167,0,0,1,.086-.149L4.251,1.864A.175.175,0,0,0,4.314,1.629Z" fill="#a3a3a3" /><path d="M4.314,16.372l-.7,1.215a.172.172,0,0,1-.174.084.161.161,0,0,1-.086-.021L1.322,16.47.061,15.738A.178.178,0,0,1,0,15.677l.02-.011A.165.165,0,0,1,0,15.588l1.739-1.009a.169.169,0,0,0,.086.149l2.426,1.408A.175.175,0,0,1,4.314,16.372Z" fill="#a3a3a3" /><path d="M18,2.413a.174.174,0,0,0-.086-.15l-1.221-.708L14.616.351a.169.169,0,0,0-.232.061l0,0-.7,1.215a.175.175,0,0,0,.063.236l2.426,1.408a.169.169,0,0,1,.086.149V14.578a.169.169,0,0,1-.086.149l-2.426,1.409a.175.175,0,0,0-.063.235l.7,1.215a.172.172,0,0,0,.233.065h0l2.033-1.18,1.263-.733A.172.172,0,0,0,18,15.588Z" fill="#949494" /><path d="M13.684,16.371l.7,1.215a.171.171,0,0,0,.174.084.161.161,0,0,0,.086-.021l2.032-1.179,1.263-.733a.175.175,0,0,0,.061-.06l-.02-.012a.173.173,0,0,0,.02-.077l-1.739-1.01a.167.167,0,0,1-.086.149l-2.426,1.409A.174.174,0,0,0,13.684,16.371Z" fill="#a3a3a3" /><path d="M13.684,1.628l.7-1.215a.172.172,0,0,1,.174-.084.161.161,0,0,1,.086.021l2.032,1.18,1.263.732A.172.172,0,0,1,18,2.323l-.02.011a.165.165,0,0,1,.02.078L16.259,3.421a.169.169,0,0,0-.086-.149L13.747,1.864A.175.175,0,0,1,13.684,1.628Z" fill="#a3a3a3" /></svg>