<svg xmlns="http://www.w3.org/2000/svg" width="18" height="18" viewBox="0 0 18 18"><defs><linearGradient id="f0659998-b74a-473e-b9c7-4711d5880464" x1="9" y1="13.08" x2="9" y2="1.019" gradientUnits="userSpaceOnUse"><stop offset="0" stop-color="#005ba1" /><stop offset="0.16" stop-color="#005fa8" stop-opacity="0.866" /><stop offset="0.491" stop-color="#0069b9" stop-opacity="0.52" /><stop offset="0.939" stop-color="#0078d4" stop-opacity="0" /></linearGradient><linearGradient id="a948df1a-09e7-439a-b0c5-b89ebd143bcd" x1="9.443" y1="16.981" x2="9.443" y2="14.094" gradientUnits="userSpaceOnUse"><stop offset="0" stop-color="#005ba1" /><stop offset="0.15" stop-color="#0063af" /><stop offset="0.439" stop-color="#006fc3" /><stop offset="0.724" stop-color="#0076d0" /><stop offset="1" stop-color="#0078d4" /></linearGradient></defs><g id="f29c5748-a781-4790-a8fa-f6353a67e6ef"><g><path d="M16.674,16.136H1.884a.474.474,0,1,1,0-.948h14.79a.474.474,0,1,1,0,.948Z" fill="#76bc2d" /><rect x="8.893" y="12.704" width="1.129" height="2.994" fill="#76bc2d" /><g><rect x="6.971" y="-5.452" width="4.058" height="17" rx="0.567" transform="translate(12.048 -5.952) rotate(90)" fill="#5ea0ef" /><rect x="6.971" y="-1.479" width="4.058" height="17" rx="0.567" transform="translate(16.021 -1.979) rotate(90)" fill="#0078d4" /><rect x="6.971" y="2.551" width="4.058" height="17" rx="0.567" transform="translate(20.051 2.051) rotate(90)" fill="#005ba1" /></g><path d="M17.5,4.511V1.586a.567.567,0,0,0-.567-.567H1.067A.567.567,0,0,0,.5,1.586V4.511a.567.567,0,0,0,.352.524A.566.566,0,0,0,.5,5.559V8.484a.566.566,0,0,0,.444.552A.566.566,0,0,0,.5,9.589v2.924a.567.567,0,0,0,.567.567H16.933a.567.567,0,0,0,.567-.567V9.589a.566.566,0,0,0-.444-.553.566.566,0,0,0,.444-.552V5.559a.566.566,0,0,0-.352-.524A.567.567,0,0,0,17.5,4.511Z" fill="url(#f0659998-b74a-473e-b9c7-4711d5880464)" /><circle cx="3.215" cy="2.939" r="0.933" fill="#f2f2f2" /><circle cx="6.088" cy="2.939" r="0.933" fill="#f2f2f2" /><circle cx="3.215" cy="6.825" r="0.933" fill="#83b9f9" /><circle cx="6.088" cy="6.825" r="0.933" fill="#83b9f9" /><circle cx="3.215" cy="10.673" r="0.933" fill="#83b9f9" /><circle cx="6.088" cy="10.673" r="0.933" fill="#83b9f9" /><rect x="6.882" y="14.094" width="5.122" height="2.887" rx="1.443" fill="url(#a948df1a-09e7-439a-b0c5-b89ebd143bcd)" /></g></g></svg>