<svg xmlns="http://www.w3.org/2000/svg" width="18" height="18" viewBox="0 0 18 18"><defs><linearGradient id="f93e1a0b-1f40-42b1-92e3-ab3846770c18" x1="9" y1="1.047" x2="9" y2="15.591" gradientUnits="userSpaceOnUse"><stop offset="0" stop-color="#a67af4" /><stop offset="1" stop-color="#773adc" /></linearGradient><radialGradient id="bcdecc57-8bc5-4d98-919b-9ddd2125aa48" cx="11.996" cy="1.934" r="2.254" gradientUnits="userSpaceOnUse"><stop offset="0" stop-color="#c3f1ff" /><stop offset="1" stop-color="#9cebff" /></radialGradient><radialGradient id="ef1e15ea-6524-46d3-9551-8a943cb61c8a" cx="13.718" cy="13.162" r="2.254" gradientUnits="userSpaceOnUse"><stop offset="0" stop-color="#c3f1ff" /><stop offset="1" stop-color="#9cebff" /></radialGradient><radialGradient id="fa94a0d5-0c4a-40bc-8227-dc698d4d328a" cx="3.342" cy="9.716" r="2.254" gradientUnits="userSpaceOnUse"><stop offset="0" stop-color="#c3f1ff" /><stop offset="1" stop-color="#9cebff" /></radialGradient><radialGradient id="ac53146d-ca88-4cb5-856e-dfed53f1fa34" cx="10.341" cy="7.144" r="4.431" gradientUnits="userSpaceOnUse"><stop offset="0" stop-color="#c3f1ff" /><stop offset="1" stop-color="#9cebff" /></radialGradient></defs><g id="f5036bae-c0f7-4b1e-91dc-9cfbb130437f"><circle cx="9" cy="9" r="9" fill="url(#f93e1a0b-1f40-42b1-92e3-ab3846770c18)" /><path d="M11.385,15.476a.141.141,0,0,1-.059.223,7.09,7.09,0,0,1-8.211-2.746A.14.14,0,0,1,3.2,12.74a2.132,2.132,0,0,0,.727-.346.139.139,0,0,1,.2.035,5.963,5.963,0,0,0,6.7,2.253.137.137,0,0,1,.175.086A2.151,2.151,0,0,0,11.385,15.476ZM9,1.909A7.1,7.1,0,0,0,1.931,8.448a.141.141,0,0,0,.178.144,2.127,2.127,0,0,1,.55-.072,2.088,2.088,0,0,1,.251.015.139.139,0,0,0,.152-.127A5.975,5.975,0,0,1,9,3.034c.059,0,.117,0,.175,0-.005-.051-.006-.1-.006-.155A2.14,2.14,0,0,1,9.315,2.1a.139.139,0,0,0-.128-.191C9.125,1.91,9.063,1.909,9,1.909Zm4.326,1.715a2.178,2.178,0,0,1-.417.69.138.138,0,0,0,.016.2,5.96,5.96,0,0,1,1.181,7.577.136.136,0,0,0,.043.19,2.178,2.178,0,0,1,.6.541.141.141,0,0,0,.23-.007,7.08,7.08,0,0,0-1.431-9.249A.14.14,0,0,0,13.326,3.624Z" fill="#fff" /><circle cx="9" cy="9.153" r="6.529" fill="#b796f9" opacity="0.6" /><path d="M13.036,2.875c0,.039,0,.078,0,.118a1.722,1.722,0,0,1-3.41.206,1.648,1.648,0,0,1-.031-.324,1.723,1.723,0,1,1,3.445,0Z" fill="url(#bcdecc57-8bc5-4d98-919b-9ddd2125aa48)" /><path d="M14.759,14.1a1.724,1.724,0,1,1-.109-.6A1.7,1.7,0,0,1,14.759,14.1Z" fill="url(#ef1e15ea-6524-46d3-9551-8a943cb61c8a)" /><path d="M4.382,10.657a1.722,1.722,0,0,1-1.723,1.722H2.612a1.722,1.722,0,0,1,.047-3.444,1.754,1.754,0,0,1,.515.077A1.725,1.725,0,0,1,4.382,10.657Z" fill="url(#fa94a0d5-0c4a-40bc-8227-dc698d4d328a)" /><circle cx="9" cy="8.992" r="3.387" fill="url(#ac53146d-ca88-4cb5-856e-dfed53f1fa34)" /></g></svg>