<svg xmlns="http://www.w3.org/2000/svg" width="18" height="18" viewBox="0 0 18 18"><defs><linearGradient id="bd2169b4-22fa-40fa-93d7-5f862b02b343" x1="-485.564" y1="-607.983" x2="-485.564" y2="-600.613" gradientTransform="translate(567.077 439.786) scale(1.147 0.716)" gradientUnits="userSpaceOnUse"><stop offset="0.302" stop-color="#0078d4" /><stop offset="1" stop-color="#005ba1" /></linearGradient><linearGradient id="ec805316-488d-40aa-9f6c-9c749797063b" x1="-465.421" y1="-302.323" x2="-465.421" y2="-299.441" gradientTransform="translate(120.615 555.622) rotate(45)" gradientUnits="userSpaceOnUse"><stop offset="0" stop-color="#9cebff" /><stop offset="1" stop-color="#50e6ff" /></linearGradient><linearGradient id="b56f8c72-405c-403f-ace7-a288a3d66de0" x1="-465.421" y1="-307.134" x2="-465.421" y2="-302.876" gradientTransform="translate(120.615 555.622) rotate(45)" gradientUnits="userSpaceOnUse"><stop offset="0" stop-color="#5ea0ef" /><stop offset="1" stop-color="#0078d4" /></linearGradient></defs><g id="a459b97a-7f0c-4c67-b0da-ba41df41ce0c"><g><path d="M9.192,17.636a.445.445,0,0,1,0-.889A7.9,7.9,0,0,0,14.664,3.224,7.9,7.9,0,0,0,1.233,8.918a.445.445,0,1,1-.889.007A8.784,8.784,0,0,1,15.287,2.59,8.784,8.784,0,0,1,9.2,17.636Z" fill="#e6e6e6" /><path d="M4.212,17.93A4.246,4.246,0,0,1,.131,14.316a4,4,0,0,1-.041-.628c.007-.281.143-.45.363-.454s.4.163.4.451a3.259,3.259,0,0,0,.281,1.43A3.382,3.382,0,0,0,3.9,17.164c.161.021.325.03.487.038.261.012.4.13.4.356s-.14.358-.389.372C4.336,17.933,4.274,17.93,4.212,17.93Z" fill="#b3b3b3" opacity="0.51" /><path d="M4.248,16.533A2.809,2.809,0,0,1,1.5,13.658a1.111,1.111,0,0,1,.043-.275.333.333,0,0,1,.335-.24.335.335,0,0,1,.346.224.922.922,0,0,1,.038.369A2.052,2.052,0,0,0,4.3,15.765a1.8,1.8,0,0,1,.233.006.392.392,0,0,1,.345.425.348.348,0,0,1-.373.336C4.42,16.536,4.334,16.533,4.248,16.533Z" fill="#b3b3b3" opacity="0.51" /><rect x="2.842" y="6.296" width="14.353" height="3.541" rx="0.49" transform="translate(8.638 -4.721) rotate(45)" fill="url(#bd2169b4-22fa-40fa-93d7-5f862b02b343)" /><rect x="5.076" y="11.562" width="0.902" height="1.887" transform="translate(10.461 -0.246) rotate(45)" fill="#005ba1" /><circle cx="4.202" cy="13.83" r="1.134" fill="url(#ec805316-488d-40aa-9f6c-9c749797063b)" /><rect x="6.07" y="9.155" width="4.686" height="0.928" transform="translate(9.266 -3.131) rotate(45)" fill="#005ba1" /><path d="M11.157,4.817h2.465a.229.229,0,0,1,.229.229V6.468a0,0,0,0,1,0,0H10.928a0,0,0,0,1,0,0V5.046a.229.229,0,0,1,.229-.229Z" transform="translate(7.619 -7.108) rotate(45)" fill="#005ba1" /><path d="M8.5,5.59h3.543a.576.576,0,0,1,.576.576V9.932a0,0,0,0,1,0,0h-4.7a0,0,0,0,1,0,0V6.166A.576.576,0,0,1,8.5,5.59Z" transform="translate(8.496 -4.99) rotate(45)" fill="#50e6ff" /><path d="M7.725,14.275l-3.972-3.96a.786.786,0,0,1,.331-1.3l2.4-.767,3.324,3.324L9.02,13.949A.787.787,0,0,1,7.725,14.275Z" fill="url(#b56f8c72-405c-403f-ace7-a288a3d66de0)" /></g></g></svg>