<svg xmlns="http://www.w3.org/2000/svg" width="16" height="16" viewBox="0 0 16 16"><defs><linearGradient id="fb8197e5-ce0a-4fc0-8526-2caeb74e11a0" x1="7.961" y1="3.179" x2="7.961" y2="0.271" gradientUnits="userSpaceOnUse"><stop offset="0.001" stop-color="#37c2b1" /><stop offset="0.496" stop-color="#3acebc" /><stop offset="1" stop-color="#3cd4c2" /></linearGradient><linearGradient id="b688dcb1-f610-4662-9e2d-9cf426254622" x1="12.562" y1="15.074" x2="12.562" y2="12.166" gradientUnits="userSpaceOnUse"><stop offset="0.001" stop-color="#37c2b1" /><stop offset="0.496" stop-color="#3acebc" /><stop offset="1" stop-color="#3cd4c2" /></linearGradient><linearGradient id="aa1639ba-e769-4daa-96c5-bac9df990f81" x1="3.116" y1="15.074" x2="3.116" y2="12.166" gradientUnits="userSpaceOnUse"><stop offset="0.001" stop-color="#37c2b1" /><stop offset="0.496" stop-color="#3acebc" /><stop offset="1" stop-color="#3cd4c2" /></linearGradient><linearGradient id="b66bb66e-2b56-4d23-9d88-f46273b9ce09" x1="-419.126" y1="-214.048" x2="-419.126" y2="-221.784" gradientTransform="matrix(1, 0, 0, -1, 427.126, -209.758)" gradientUnits="userSpaceOnUse"><stop offset="0" stop-color="#9d79eb" /><stop offset="1" stop-color="#7548d6" /></linearGradient></defs><g id="b328d40f-0ca8-4181-86d1-5e25737a1ed0"><g><ellipse cx="7.961" cy="1.725" rx="1.4" ry="1.454" fill="url(#fb8197e5-ce0a-4fc0-8526-2caeb74e11a0)" /><path d="M9.694,1.826a1.846,1.846,0,0,1-.172.689,6.321,6.321,0,0,1,4.6,6.147,6.492,6.492,0,0,1-.892,3.287,1.73,1.73,0,0,1,.571.4,7.228,7.228,0,0,0,1.006-3.685A7.019,7.019,0,0,0,9.694,1.826Z" fill="#37c2b1" /><ellipse cx="12.562" cy="13.62" rx="1.4" ry="1.454" fill="url(#b688dcb1-f610-4662-9e2d-9cf426254622)" /><ellipse cx="3.116" cy="13.62" rx="1.4" ry="1.454" fill="url(#aa1639ba-e769-4daa-96c5-bac9df990f81)" /><g><path d="M10.931,14.238A5.886,5.886,0,0,1,4.8,14.067a1.822,1.822,0,0,1-.3.645,6.559,6.559,0,0,0,6.793.135A1.835,1.835,0,0,1,10.931,14.238Z" fill="#37c2b1" /><path d="M2.721,11.861a6.492,6.492,0,0,1-.841-3.2A6.324,6.324,0,0,1,6.41,2.533a1.833,1.833,0,0,1-.18-.687A7.023,7.023,0,0,0,1.2,8.662a7.232,7.232,0,0,0,.9,3.5A1.693,1.693,0,0,1,2.721,11.861Z" fill="#37c2b1" /></g><path d="M10.84,12.012A2.455,2.455,0,0,0,13.2,9.606,2.406,2.406,0,0,0,11.173,7.24a3.037,3.037,0,0,0-5.916-.9,2.85,2.85,0,0,0,.478,5.672Z" fill="url(#b66bb66e-2b56-4d23-9d88-f46273b9ce09)" /><g id="a5e23e34-aacd-488d-848d-cf0f76a1a7ad"><path d="M10.273,8.588v-.54l-.028-.027-.531-.186-.136-.371L9.841,6.9l.028-.063L9.7,6.661l-.2-.208-.069.036-.519.277-.358-.105-.227-.6H7.815l-.026.027-.179.551-.363.142-.6-.3-.367.378.035.071.266.539-.149.371L5.8,8.071v.54l.074.023.554.19.149.372L6.3,9.82l.367.386.069-.036.52-.276.357.154.228.651h.519l.022-.077.183-.575.353-.154.607.295.367-.381-.035-.073L9.588,9.2l.1-.377Zm-2.187.5a.757.757,0,1,1,.725-.761V8.33A.745.745,0,0,1,8.086,9.086Z" fill="#fff" /></g></g></g></svg>