<svg xmlns="http://www.w3.org/2000/svg" width="18" height="18" viewBox="0 0 18 18"><defs><linearGradient id="b34ec488-362d-4e56-ba08-b30b594400e7" x1="9" y1="2.619" x2="9" y2="15.381" gradientUnits="userSpaceOnUse"><stop offset="0" stop-color="#5ea0ef" /><stop offset="1" stop-color="#0078d4" /></linearGradient><linearGradient id="a991103a-cd8c-4c10-9187-45efb6afaa60" x1="9.001" y1="6.17" x2="9.001" y2="15.458" gradientUnits="userSpaceOnUse"><stop offset="0.33" stop-color="#b4ec36" /><stop offset="1" stop-color="#86d633" /></linearGradient><linearGradient id="b85f8f17-e712-4c0f-bc80-cfc59ff8aa95" x1="9" y1="9.652" x2="9" y2="15.442" gradientUnits="userSpaceOnUse"><stop offset="0.429" stop-color="#86d633" /><stop offset="0.999" stop-color="#76bc2d" /></linearGradient></defs><g id="fcc94818-5718-45fa-b758-f361ca38dd4e"><g><path d="M18,11.383a4.093,4.093,0,0,1-3.667,3.922,3.919,3.919,0,0,1-.394.021.825.825,0,0,1-.216.033H5.516c-.138.012-.285.019-.431.019H5.07A4.894,4.894,0,0,1,0,10.677,4.824,4.824,0,0,1,4.244,6.029a5.228,5.228,0,0,1,5-3.407A5.1,5.1,0,0,1,14.49,7.5,4.042,4.042,0,0,1,18,11.383Z" fill="url(#b34ec488-362d-4e56-ba08-b30b594400e7)" /><path d="M11.441,9.279H10.146a.15.15,0,0,0-.15.15v5.93H8V9.429a.15.15,0,0,0-.15-.15H6.56a.15.15,0,0,1-.113-.248L8.886,6.2a.151.151,0,0,1,.228,0l2.441,2.827A.15.15,0,0,1,11.441,9.279Z" fill="url(#a991103a-cd8c-4c10-9187-45efb6afaa60)" /><path d="M13.51,9.693l-1.642,1.9a.15.15,0,0,0,.114.248h.783a.151.151,0,0,1,.15.151v3.366h.808a.825.825,0,0,0,.216-.033,3.919,3.919,0,0,0,.394-.021V11.993a.151.151,0,0,1,.15-.151h.783a.15.15,0,0,0,.114-.248l-1.642-1.9A.15.15,0,0,0,13.51,9.693Zm-9.248,0-1.642,1.9a.15.15,0,0,0,.114.248h.783a.151.151,0,0,1,.15.151v3.233a4.9,4.9,0,0,0,1.4.152h.015V11.993a.151.151,0,0,1,.15-.151h.783a.15.15,0,0,0,.114-.248L4.49,9.693A.15.15,0,0,0,4.262,9.693Z" opacity="0.9" fill="url(#b85f8f17-e712-4c0f-bc80-cfc59ff8aa95)" /></g></g></svg>