<svg id="fd80ac9d-06c5-44f1-af2c-5229a0b96475" xmlns="http://www.w3.org/2000/svg" width="18" height="18" viewBox="0 0 18 18"><defs><linearGradient id="e1fd5424-e3e0-4424-a9d1-7106ce30814e" x1="5.993" y1="0.381" x2="5.993" y2="15.291" gradientUnits="userSpaceOnUse"><stop offset="0" stop-color="#b3b2b3" /><stop offset="0.375" stop-color="#afaeaf" /><stop offset="0.763" stop-color="#a2a2a2" /><stop offset="1" stop-color="#979797" /></linearGradient><linearGradient id="e8c11bc1-8ee7-4871-89db-9bf449a4fe59" x1="12.098" y1="11.148" x2="12.098" y2="17.619" gradientUnits="userSpaceOnUse"><stop offset="0" stop-color="#5ea0ef" /><stop offset="1" stop-color="#0078d4" /></linearGradient><linearGradient id="feefbe4c-6188-45d9-9656-bc24920d0de2" x1="12.109" y1="9.062" x2="12.109" y2="11.148" gradientUnits="userSpaceOnUse"><stop offset="0" stop-color="#3b3b3b" /><stop offset="0.389" stop-color="#373737" /><stop offset="0.791" stop-color="#2a2a2a" /><stop offset="0.997" stop-color="#212121" /></linearGradient></defs><g><path d="M10.833,14.785a.535.535,0,0,1-.559.506H1.712a.535.535,0,0,1-.559-.506V.887A.535.535,0,0,1,1.712.381h8.562a.535.535,0,0,1,.559.506Z" fill="url(#e1fd5424-e3e0-4424-a9d1-7106ce30814e)" /><path d="M2.576,6.755A1.109,1.109,0,0,1,3.628,5.6H8.445A1.109,1.109,0,0,1,9.5,6.755h0a1.11,1.11,0,0,1-1.052,1.16H3.628a1.11,1.11,0,0,1-1.052-1.16Z" fill="#003067" /><path d="M2.576,3.311A1.109,1.109,0,0,1,3.628,2.152H8.445A1.109,1.109,0,0,1,9.5,3.311h0a1.11,1.11,0,0,1-1.052,1.16H3.628a1.11,1.11,0,0,1-1.052-1.16Z" fill="#003067" /><circle cx="3.93" cy="3.311" r="0.778" fill="#50e6ff" /><circle cx="3.93" cy="6.755" r="0.778" fill="#50e6ff" /><path d="M7.366,17.619v-5.86a.612.612,0,0,1,.612-.611h8.24a.612.612,0,0,1,.612.611v5.86Z" fill="url(#e8c11bc1-8ee7-4871-89db-9bf449a4fe59)" /><path d="M14.764,11.148h-.716V10.116a.334.334,0,0,0-.338-.338h-3.2a.333.333,0,0,0-.337.338v1.032H9.453V10.116a1.043,1.043,0,0,1,1.054-1.054h3.2a1.043,1.043,0,0,1,1.054,1.054Z" fill="url(#feefbe4c-6188-45d9-9656-bc24920d0de2)" /><path d="M16.847,13.406H7.366v.456h3.771v.64a.275.275,0,0,0,.274.274h1.508a.275.275,0,0,0,.274-.274v-.64h3.654Z" fill="#fff" /></g></svg>