<?xml version="1.0" encoding="utf-8"?>
<!-- Generator: Adobe Illustrator 22.0.1, SVG Export Plug-In . SVG Version: 6.00 Build 0)  -->
<svg version="1.1" id="Layer_1" xmlns="http://www.w3.org/2000/svg" xmlns:xlink="http://www.w3.org/1999/xlink" x="0px" y="0px"
	 viewBox="0 0 32 32" style="enable-background:new 0 0 32 32;" xml:space="preserve">
<style type="text/css">
	.st0{fill:#41D6C3;}
	.st1{fill:#FFFFFF;}
	.st2{fill:#00639F;}
</style>
<rect x="11.2" y="8.2" transform="matrix(0.7071 -0.7071 0.7071 0.7071 -5.729 18.1074)" class="st0" width="15.6" height="15.6"/>
<title>DDE_32</title>
<rect x="16" y="20.5" transform="matrix(0.7071 -0.7071 0.7071 0.7071 -9.5928 18.8213)" class="st1" width="3.9" height="1"/>
<polygon class="st1" points="21.9,13.9 21.2,14.6 22.6,16 21.2,17.4 21.9,18.1 24,16 "/>
<rect x="6.1" y="10.3" transform="matrix(0.7071 -0.7071 0.7071 0.7071 -5.2894 8.8323)" class="st2" width="3.9" height="1"/>
<polygon class="st2" points="13,6.4 14.4,7.8 15.1,7.1 13,5 10.9,7.1 11.6,7.8 "/>
<polygon class="st2" points="13,25.6 11.6,24.2 10.9,24.9 13,27 15.1,24.9 14.4,24.2 "/>
<polygon class="st2" points="4.1,13.9 2,16 4.1,18.1 4.8,17.4 3.4,16 4.8,14.6 "/>
<rect x="7.5" y="19.1" transform="matrix(0.7071 -0.7071 0.7071 0.7071 -12.5301 11.8294)" class="st2" width="1" height="3.9"/>
<rect x="17.4" y="9" transform="matrix(0.7071 -0.7071 0.7071 0.7071 -2.5132 15.8715)" class="st1" width="1" height="3.9"/>
</svg>
