<svg id="eec17d46-3393-4b50-8d12-b9ccbeeb95af" xmlns="http://www.w3.org/2000/svg" width="18" height="18" viewBox="0 0 18 18"><defs><radialGradient id="e8b60f10-f807-4931-b22c-ee0ff4f50905" cx="8.95" cy="6.18" r="5.51" gradientUnits="userSpaceOnUse"><stop offset="0" stop-color="#6bb9f2" /><stop offset="0.2" stop-color="#65b6f1" /><stop offset="0.45" stop-color="#55aef0" /><stop offset="0.74" stop-color="#3aa2ee" /><stop offset="1" stop-color="#1b93eb" /></radialGradient><linearGradient id="aa2db4a1-6677-4793-9372-6c604298c9d2" x1="5.67" y1="-0.43" x2="5.67" y2="12.53" gradientUnits="userSpaceOnUse"><stop offset="0" stop-color="#fff" /><stop offset="1" stop-color="#ccc" /></linearGradient></defs><title>Icon-machinelearning-161</title><path d="M10.86,16.49l-.85.89a.4.4,0,0,1-.29.12H8.28A.4.4,0,0,1,8,17.38l-.85-.89a.42.42,0,0,1-.12-.3V14.1h4v2.09A.42.42,0,0,1,10.86,16.49Z" fill="#a3a3a3" /><path d="M9,.5A5.85,5.85,0,0,0,3.13,7c.27,2.45,2.61,3.59,3.27,6.7a.48.48,0,0,0,.47.38h4.26a.48.48,0,0,0,.47-.38c.66-3.11,3-4.25,3.27-6.7A5.85,5.85,0,0,0,9,.5ZM7.06,14.1" fill="url(#e8b60f10-f807-4931-b22c-ee0ff4f50905)" /><path d="M13.33,2.58l-1,1a.14.14,0,0,1-.15,0l-1.29-.43a.16.16,0,0,0-.18.09l-.13.39a.15.15,0,0,0,.09.18L12,4.3a.16.16,0,0,1,.09.09l.45,1.35a.15.15,0,0,0,.18.09l.39-.13a.16.16,0,0,0,.09-.18l-.43-1.29a.14.14,0,0,1,0-.15l1-1a.15.15,0,0,0,0-.19,4.19,4.19,0,0,0-.26-.33A.14.14,0,0,0,13.33,2.58Z" fill="#f2f2f2" /><path d="M10.7,11.79l-.06-.12a.28.28,0,0,0-.38-.12L9.43,12V7l1.15-.57a.28.28,0,0,0,.12-.38l-.06-.12a.28.28,0,0,0-.38-.13l-.83.42V.91A.42.42,0,0,1,9.65.54a5.3,5.3,0,0,0-1.3,0,.42.42,0,0,1,.22.37V6.23l-.83-.42a.28.28,0,0,0-.38.13l-.06.12a.28.28,0,0,0,.12.38L8.57,7v5l-.83-.42a.28.28,0,0,0-.38.12l-.06.12a.28.28,0,0,0,.12.38l1.15.57v1a.42.42,0,0,1-.21.37H9.64a.42.42,0,0,1-.21-.37v-1l1.15-.57A.28.28,0,0,0,10.7,11.79Z" fill="#f2f2f2" /><path d="M6.79,3.24,5.71,3.6a.31.31,0,0,1-.29-.07L4.69,2.8a.28.28,0,0,0-.42,0l-.08.1a.29.29,0,0,0,0,.37L4.93,4A.29.29,0,0,1,5,4.31L4.64,5.38a.28.28,0,0,0,.18.36l.12,0a.29.29,0,0,0,.36-.17l.38-1.15a.29.29,0,0,1,.18-.18L7,3.9a.28.28,0,0,0,.18-.36l0-.12A.28.28,0,0,0,6.79,3.24Z" fill="url(#aa2db4a1-6677-4793-9372-6c604298c9d2)" /><path d="M12.57,8.64l-.14-1.55-.69.07.14,1.62L10.67,9.87l.47.52L12.35,9.3l1.27.49c.14-.2.27-.4.4-.6Z" fill="#f2f2f2" /><path d="M7.12,9.68l-.9-.8a.27.27,0,0,1-.09-.24l.1-1.2A.28.28,0,0,0,6,7.13H5.85a.28.28,0,0,0-.31.26l-.1,1.08a.27.27,0,0,1-.18.24l-1,.37a.27.27,0,0,0-.13.42l.07.11a.3.3,0,0,0,.34.11l.9-.35a.26.26,0,0,1,.29.06l.87.78a.27.27,0,0,0,.4,0l.09-.1A.28.28,0,0,0,7.12,9.68Z" fill="#f2f2f2" /><path d="M11,15.31l-4,.82v.06a.42.42,0,0,0,.12.3l0,0L11,15.74Z" fill="#e6e6e6" /><polygon points="7.01 15.57 10.98 14.75 10.98 14.32 7.01 15.14 7.01 15.57" fill="#e6e6e6" /></svg>