<svg xmlns="http://www.w3.org/2000/svg" width="18" height="18" viewBox="0 0 18 18"><defs><linearGradient id="ec04b9e1-5ea3-46c5-94db-3c9863f3d653" x1="11.499" y1="2.355" x2="11.499" y2="12.575" gradientUnits="userSpaceOnUse"><stop offset="0" stop-color="#42e8ca" /><stop offset="1" stop-color="#37c2b1" /></linearGradient></defs><g id="a343eb99-efc4-4032-9206-bef826348e05"><path d="M7.846,9.132h0L11.188,2.55a.357.357,0,0,1,.633-.006l3.334,6.291a2.243,2.243,0,0,1,.333,1.285c0,1.356-1.786,2.455-3.989,2.455S7.51,11.476,7.51,10.12A1.691,1.691,0,0,1,7.846,9.132Z" fill="url(#ec04b9e1-5ea3-46c5-94db-3c9863f3d653)" style="isolation: isolate" /><polygon points="10.548 8.127 10.548 12.868 6.45 15.25 6.45 10.502 10.548 8.127" fill="#50e6ff" /><polygon points="6.45 10.508 6.45 15.25 2.352 12.868 2.352 8.126 6.45 10.508" fill="#9cebff" /><polygon points="10.548 8.127 6.451 10.508 2.352 8.126 6.451 5.744 10.548 8.127" fill="#c3f1ff" /><path d="M10.688,8.207l.139-.08-.139-.081V7.882l-.14.082L6.45,5.581l-4.1,2.382-.14-.082v.164l-.14.081.14.081v4.742l4.1,2.382V15.5l.141-.082.14.082v-.164l4.1-2.382ZM6.45,5.906l3.817,2.22L6.445,10.342,5.5,9.791,2.632,8.126ZM2.493,12.787V8.371l3.816,2.218v4.416Zm4.1,2.218V10.589l3.817-2.218v4.416Z" fill="#32bedd" /><g><path d="M.6,4.908a.574.574,0,0,1-.575-.574V.574A.574.574,0,0,1,.6,0h3.52a.575.575,0,0,1,0,1.149H1.176V4.334A.574.574,0,0,1,.6,4.908Z" fill="#50e6ff" /><path d="M17.4,4.908a.574.574,0,0,1-.574-.574V1.149H13.878a.575.575,0,0,1,0-1.149H17.4a.574.574,0,0,1,.575.574v3.76A.574.574,0,0,1,17.4,4.908Z" fill="#50e6ff" /><path d="M4.122,18H.6a.574.574,0,0,1-.575-.574v-3.76a.575.575,0,0,1,1.149,0v3.185H4.122a.575.575,0,0,1,0,1.149Z" fill="#50e6ff" /><path d="M17.4,18h-3.52a.575.575,0,0,1,0-1.149h2.946V13.666a.575.575,0,0,1,1.149,0v3.76A.574.574,0,0,1,17.4,18Z" fill="#50e6ff" /></g><path d="M2.855,8.152a.467.467,0,1,1-.466-.466A.467.467,0,0,1,2.855,8.152ZM6.45,5.3a.466.466,0,1,0,.466.466A.465.465,0,0,0,6.45,5.3Zm4.091,2.386a.467.467,0,1,0,.466.466A.466.466,0,0,0,10.541,7.686ZM6.45,10.042a.467.467,0,1,0,.466.466A.466.466,0,0,0,6.45,10.042ZM2.389,12.453a.467.467,0,1,0,.466.467A.467.467,0,0,0,2.389,12.453ZM6.45,14.784a.466.466,0,1,0,.466.466A.466.466,0,0,0,6.45,14.784Zm4.091-2.331a.467.467,0,1,0,.466.467A.467.467,0,0,0,10.541,12.453Z" fill="#198ab3" /></g></svg>