<svg id="adba0893-37e1-4f7d-b5c1-84a49b4b1271" xmlns="http://www.w3.org/2000/svg" width="18" height="18" viewBox="0 0 18 18"><defs><linearGradient id="bf123a67-f518-4ef5-98b7-581849ab5886" x1="9" y1="0.5" x2="9" y2="17.5" gradientUnits="userSpaceOnUse"><stop offset="0" stop-color="#faa21d" /><stop offset="0.28" stop-color="#f99e1b" /><stop offset="0.57" stop-color="#f69113" /><stop offset="0.87" stop-color="#f27d07" /><stop offset="1" stop-color="#ef7100" /></linearGradient><linearGradient id="aa72cb41-12a0-478d-a1d4-69ceb2dfaac2" x1="9.95" y1="5.55" x2="10.08" y2="5.82" gradientUnits="userSpaceOnUse"><stop offset="0" stop-color="#003c90" /><stop offset="0.15" stop-color="#194f9b" stop-opacity="0.9" /><stop offset="1" stop-color="#194f9b" stop-opacity="0" /></linearGradient></defs><title>Icon-machinelearning-164</title><path d="M11.69,9.11c0-1.6-1.57-2.66-2.69-3.22-1.12.56-2.69,1.62-2.69,3.22,0,.24.14,1.45,2.69,2.67C11.55,10.56,11.69,9.35,11.69,9.11Z" fill="none" /><path d="M10,12.23l-.25-.11,0,0c-.27-.11-.51-.21-.73-.32-.22.11-.46.21-.73.32l0,0L8,12.23l-.68.3A10.6,10.6,0,0,0,9,13.39a10.6,10.6,0,0,0,1.69-.86Z" fill="url(#bf123a67-f518-4ef5-98b7-581849ab5886)" /><path d="M10.67,5.15a5.53,5.53,0,0,1-.74.36c-.35.12-.93.38-.93.38l.43.23.82-.33A5.09,5.09,0,0,0,11,5.37Z" opacity="0.3" fill="url(#aa72cb41-12a0-478d-a1d4-69ceb2dfaac2)" /><path d="M6.56,15a2.47,2.47,0,0,0-.42.91h6.25v.5H6.05c0,.12,0,.25,0,.38a.74.74,0,0,1-.72.75h0a.74.74,0,0,1-.74-.72,4.46,4.46,0,0,1,2.74-4.25A10.6,10.6,0,0,0,9,13.39l-.15.07-.28.12A6.11,6.11,0,0,0,7,14.45h5.35V15ZM10,12.23l-.25-.11,0,0c-.27-.11-.51-.21-.73-.32-.22.11-.46.21-.73.32l0,0L8,12.23l-.68.3A10.6,10.6,0,0,0,9,13.39a10.6,10.6,0,0,0,1.69-.86ZM12.76,1.59H6.07a1.78,1.78,0,0,1,0-.28.73.73,0,1,0-1.46-.14c0,.09-.19,2.32,2.75,4A9.82,9.82,0,0,1,9,4.27L8.37,4a5.35,5.35,0,0,1-.9-.54h4V3H6.88a3.16,3.16,0,0,1-.64-.9h6.52ZM10.67,5.15l-.43.23-.11,0A8.93,8.93,0,0,0,9,5.89a6.46,6.46,0,0,1,1.91,1.37H5.38v.5h5.91a2.63,2.63,0,0,1,.35.89H5.38v.51h6.3a1.8,1.8,0,0,1-.38.91H5.38v.51h5.47A7.47,7.47,0,0,1,9,11.78c.22.11.46.21.73.32l0,0,.25.11.68.3c2.19-1.36,2.47-2.79,2.47-3.42A4.87,4.87,0,0,0,10.67,5.15Z" fill="#0078d4" /><path d="M8,12.23l-.68.3C5.12,11.17,4.84,9.74,4.84,9.11a4.87,4.87,0,0,1,2.49-4l.43.23.11,0A8.93,8.93,0,0,1,9,5.89c-1.12.56-2.69,1.62-2.69,3.22,0,.24.14,1.45,2.69,2.67-.22.11-.46.21-.73.32l0,0ZM13.42,1.17a.74.74,0,0,0-.8-.67.71.71,0,0,0-.66.81s.33,1.33-2.07,2.59L9,4.27a9.82,9.82,0,0,1,1.67.88C13.61,3.49,13.43,1.26,13.42,1.17ZM10.69,12.53A10.6,10.6,0,0,1,9,13.39l.15.07.28.12c1.24.54,2.57,1.26,2.53,3.17a.74.74,0,0,0,.72.75h0a.74.74,0,0,0,.74-.72A4.46,4.46,0,0,0,10.69,12.53Zm-.25-7.26.23-.12A9.82,9.82,0,0,0,9,4.27a9.82,9.82,0,0,0-1.67.88l.43.23.11,0A8.93,8.93,0,0,1,9,5.89c.59-.23.95-.38,1.17-.48l.07,0h0a1.12,1.12,0,0,0,.2-.11Z" fill="#32bedd" /></svg>