<?xml version="1.0" encoding="UTF-8" standalone="no"?>
<!-- Created with Inkscape (http://www.inkscape.org/) -->

<svg
   xmlns:dc="http://purl.org/dc/elements/1.1/"
   xmlns:cc="http://creativecommons.org/ns#"
   xmlns:rdf="http://www.w3.org/1999/02/22-rdf-syntax-ns#"
   xmlns:svg="http://www.w3.org/2000/svg"
   xmlns="http://www.w3.org/2000/svg"
   xmlns:sodipodi="http://sodipodi.sourceforge.net/DTD/sodipodi-0.dtd"
   xmlns:inkscape="http://www.inkscape.org/namespaces/inkscape"
   inkscape:export-ydpi="101.6"
   inkscape:export-xdpi="101.6"
   inkscape:export-filename="/home/marverix/Dropbox/Designing/Branding/Bitbar Cloud/logo/logo.png"
   sodipodi:docname="signet.svg"
   inkscape:version="0.92.2 (unknown)"
   id="svg467"
   version="1.1"
   viewBox="0 0 72 72"
   height="72mm"
   width="72mm">
  <defs
     id="defs461" />
  <sodipodi:namedview
     inkscape:guide-bbox="true"
     showguides="true"
     inkscape:snap-page="true"
     inkscape:window-maximized="1"
     inkscape:window-y="0"
     inkscape:window-x="1366"
     inkscape:window-height="1176"
     inkscape:window-width="1920"
     inkscape:showpageshadow="false"
     showgrid="false"
     inkscape:current-layer="layer1"
     inkscape:document-units="mm"
     inkscape:cy="125.91715"
     inkscape:cx="186.6027"
     inkscape:zoom="1"
     inkscape:pageshadow="2"
     inkscape:pageopacity="1"
     borderopacity="1.0"
     bordercolor="#666666"
     pagecolor="#ffffff"
     id="base"
     inkscape:pagecheckerboard="true" />
  <metadata
     id="metadata464">
    <rdf:RDF>
      <cc:Work
         rdf:about="">
        <dc:format>image/svg+xml</dc:format>
        <dc:type
           rdf:resource="http://purl.org/dc/dcmitype/StillImage" />
        <dc:title></dc:title>
      </cc:Work>
    </rdf:RDF>
  </metadata>
  <g
     inkscape:label="Layer 1"
     inkscape:groupmode="layer"
     id="layer1"
     transform="translate(0,-225)">
    <path
       inkscape:connector-curvature="0"
       id="path942-5"
       d="m 28.257474,234.14874 v 0 A 18.337402,18.33737 0 0 0 9.9206289,252.48555 18.337402,18.33737 0 0 0 9.9978679,254.03719 11.460877,11.460857 0 0 0 1.4975507e-8,265.39312 11.460877,11.460857 0 0 0 11.460998,276.85413 h 47.704748 v -0.0109 a 12.900345,12.900322 0 0 0 12.345605,-9.3608 12.900345,12.900322 0 0 0 -5.073615,-14.12686 l -9.665479,9.66615 H 42.342294 c -0.86827,2.67411 -3.392203,4.63101 -6.340135,4.63101 -3.65626,0 -6.66352,-3.00798 -6.66352,-6.66429 0,-3.65624 3.00726,-6.66434 6.66352,-6.66434 2.921323,0 5.423883,1.92284 6.313867,4.55973 h 12.740257 l 7.388329,-7.386 a 12.900345,12.900322 0 0 0 -5.972485,-0.17017 8.0627161,8.0627021 0 0 0 -5.82166,-7.04245 8.0627161,8.0627021 0 0 0 -5.758626,0.52588 18.337402,18.33737 0 0 0 -16.634391,-10.6663 z m 7.744709,24.31677 c -1.419865,0 -2.526284,1.1071 -2.526284,2.52706 0,1.41991 1.106419,2.52627 2.526284,2.52627 1.419901,0 2.527053,-1.10636 2.527053,-2.52627 0,-1.41996 -1.107152,-2.52706 -2.527053,-2.52706 z"
       style="opacity:1;fill:#00b5e2;fill-opacity:1;stroke:none;stroke-width:0.40655148;stroke-miterlimit:4;stroke-dasharray:none;stroke-dashoffset:0;stroke-opacity:1" />
  </g>
</svg>
