<?xml version="1.0" encoding="utf-8"?>
<!-- Generator: Adobe Illustrator 24.1.0, SVG Export Plug-In . SVG Version: 6.00 Build 0)  -->
<svg version="1.1" id="MDM" xmlns="http://www.w3.org/2000/svg" xmlns:xlink="http://www.w3.org/1999/xlink" x="0px" y="0px"
	 viewBox="0 0 32 32" style="enable-background:new 0 0 32 32;" xml:space="preserve">
<style type="text/css">
	.st0{fill:url(#_Line_4_);}
	.st1{fill:url(#_Line_5_);}
	.st2{fill:url(#_Line_6_);}
	.st3{fill:url(#_G3__1_);}
	.st4{fill:url(#_G2__1_);}
	.st5{fill:url(#_G1__1_);}
	.st6{fill:#061F80;}
</style>
<linearGradient id="_Line_4_" gradientUnits="userSpaceOnUse" x1="5.1031" y1="794.8531" x2="36.9231" y2="763.1031" gradientTransform="matrix(1 0 0 1 0 -758)">
	<stop  offset="0.1" style="stop-color:#A66EFA"/>
	<stop  offset="0.9" style="stop-color:#0062FF"/>
</linearGradient>
<path id="_Line_3_" class="st0" d="M28,26h-2V12c0-1.1-0.9-2-2-2h-2V8h2c2.2,0,4,1.8,4,4V26z"/>
<linearGradient id="_Line_5_" gradientUnits="userSpaceOnUse" x1="2.425" y1="791.275" x2="33.765" y2="759.935" gradientTransform="matrix(1 0 0 1 0 -758)">
	<stop  offset="0.1" style="stop-color:#A66EFA"/>
	<stop  offset="0.9" style="stop-color:#0062FF"/>
</linearGradient>
<rect id="_Line_2_" x="15" y="13" class="st1" width="2" height="13.4"/>
<linearGradient id="_Line_6_" gradientUnits="userSpaceOnUse" x1="-3.6914" y1="784.9086" x2="27.0386" y2="754.0386" gradientTransform="matrix(1 0 0 1 0 -758)">
	<stop  offset="0" style="stop-color:#A66EFA;stop-opacity:0"/>
	<stop  offset="0.1" style="stop-color:#A66EFA"/>
	<stop  offset="0.9" style="stop-color:#0062FF"/>
</linearGradient>
<path id="_Line_1_" class="st2" d="M6,26H4V12c0-2.2,1.8-4,4-4h2v2H8c-1.1,0-2,0.9-2,2V26z"/>
<linearGradient id="_G3__1_" gradientUnits="userSpaceOnUse" x1="-2336.4302" y1="2057.7102" x2="-2344.4302" y2="2057.7102" gradientTransform="matrix(6.123234e-17 1 -1 6.123234e-17 2062.71 2364.4302)">
	<stop  offset="0.19" style="stop-color:#FFFFFF"/>
	<stop  offset="0.22" style="stop-color:#FFFFFF;stop-opacity:0.95"/>
	<stop  offset="0.61" style="stop-color:#FFFFFF;stop-opacity:0.45"/>
	<stop  offset="0.88" style="stop-color:#FFFFFF;stop-opacity:0.13"/>
	<stop  offset="1" style="stop-color:#FFFFFF;stop-opacity:0"/>
</linearGradient>
<rect id="_G3_" x="4" y="20" class="st3" width="2" height="8"/>
<linearGradient id="_G2__1_" gradientUnits="userSpaceOnUse" x1="-2336.4302" y1="2046.7101" x2="-2344.4302" y2="2046.7101" gradientTransform="matrix(6.123234e-17 1 -1 6.123234e-17 2062.71 2364.4302)">
	<stop  offset="0.19" style="stop-color:#FFFFFF"/>
	<stop  offset="0.22" style="stop-color:#FFFFFF;stop-opacity:0.95"/>
	<stop  offset="0.61" style="stop-color:#FFFFFF;stop-opacity:0.45"/>
	<stop  offset="0.88" style="stop-color:#FFFFFF;stop-opacity:0.13"/>
	<stop  offset="1" style="stop-color:#FFFFFF;stop-opacity:0"/>
</linearGradient>
<rect id="_G2_" x="15" y="20" class="st4" width="2" height="8"/>
<linearGradient id="_G1__1_" gradientUnits="userSpaceOnUse" x1="-2336.4302" y1="2035.7101" x2="-2344.4302" y2="2035.7101" gradientTransform="matrix(6.123234e-17 1 -1 6.123234e-17 2062.71 2364.4302)">
	<stop  offset="0.19" style="stop-color:#FFFFFF"/>
	<stop  offset="0.22" style="stop-color:#FFFFFF;stop-opacity:0.95"/>
	<stop  offset="0.61" style="stop-color:#FFFFFF;stop-opacity:0.45"/>
	<stop  offset="0.88" style="stop-color:#FFFFFF;stop-opacity:0.13"/>
	<stop  offset="1" style="stop-color:#FFFFFF;stop-opacity:0"/>
</linearGradient>
<rect id="_G1_" x="26" y="20" class="st5" width="2" height="8"/>
<path id="circle_1" class="st6" d="M5,26c-1.1,0-2,0.9-2,2s0.9,2,2,2s2-0.9,2-2S6.1,26,5,26z"/>
<path id="circle_2" class="st6" d="M16,26c-1.1,0-2,0.9-2,2s0.9,2,2,2s2-0.9,2-2S17.1,26,16,26z"/>
<path id="circle_3" class="st6" d="M27,26c-1.1,0-2,0.9-2,2s0.9,2,2,2s2-0.9,2-2S28.1,26,27,26z"/>
<polygon id="_Star_" class="st6" points="16,2 17.5,5 20.8,5.4 18.4,7.7 19,11 16.1,9.4 13,11 13.6,7.7 11.2,5.4 14.6,5 "/>
</svg>
