<svg id="a8898592-bf29-4eda-b1ea-2b18c7285ba5" xmlns="http://www.w3.org/2000/svg" width="18" height="18" viewBox="0 0 18 18"><defs><linearGradient id="b818bdbf-e663-48cc-a78e-2514f2e62555" x1="5.626" y1="20.16" x2="7.185" y2="2.336" gradientTransform="matrix(1, 0, 0, -1, 0, 20)" gradientUnits="userSpaceOnUse"><stop offset="0.5" stop-color="#b796f9" /><stop offset="0.9" stop-color="#a67af4" /></linearGradient><linearGradient id="a95912e5-4bbc-452c-a181-55ee58dce6cf" x1="-21.467" y1="2.275" x2="-21.129" y2="-1.588" gradientTransform="matrix(1, 0, 0, -1, 27.6, 7.804)" gradientUnits="userSpaceOnUse"><stop offset="0" stop-color="#a67af4" /><stop offset="0.241" stop-color="#9065db" /><stop offset="0.748" stop-color="#653eab" /><stop offset="1" stop-color="#552f99" /></linearGradient><linearGradient id="b84ce264-95e1-4f08-a0d6-a2024606ee73" x1="-21.32" y1="5.276" x2="-21.023" y2="1.887" gradientTransform="matrix(1, 0, 0, -1, 27.6, 7.804)" gradientUnits="userSpaceOnUse"><stop offset="0" stop-color="#a67af4" /><stop offset="0.241" stop-color="#9065db" /><stop offset="0.748" stop-color="#653eab" /><stop offset="1" stop-color="#552f99" /></linearGradient><linearGradient id="ec05d69e-0e76-48d4-9c6c-f76452764ef1" x1="13.248" y1="2.252" x2="13.248" y2="10.977" gradientTransform="matrix(1, 0, 0, -1, 0, 20)" gradientUnits="userSpaceOnUse"><stop offset="0" stop-color="#76bc2d" /><stop offset="0.309" stop-color="#7ac22e" /><stop offset="0.718" stop-color="#84d332" /><stop offset="0.785" stop-color="#86d633" /></linearGradient></defs><g id="e03b036e-5bec-4222-90fa-7efd07c18487"><g><rect x="0.356" y="0.252" width="12.099" height="17" rx="0.585" fill="url(#b818bdbf-e663-48cc-a78e-2514f2e62555)" /><rect x="2.927" y="12.987" width="6.957" height="1.24" rx="0.306" fill="#773adc" /><rect x="2.927" y="10.582" width="6.957" height="1.24" rx="0.306" fill="#773adc" /><path d="M8.9,9.175a.52.52,0,0,0,.539-.5V8.658a.342.342,0,0,0,0-.064c-.214-1.7-1.18-3.075-3.021-3.075S3.571,6.689,3.371,8.581a.543.543,0,0,0,.486.594Z" fill="url(#a95912e5-4bbc-452c-a181-55ee58dce6cf)" /><path d="M6.44,5.923a1.681,1.681,0,0,1-.9-.271l.9,2.38.91-2.363A1.72,1.72,0,0,1,6.44,5.923Z" fill="#f2f2f2" /><circle cx="6.429" cy="4.222" r="1.701" fill="url(#b84ce264-95e1-4f08-a0d6-a2024606ee73)" /></g><g><path d="M13.684,9.152l.5.323a.793.793,0,0,0,.432.127h.6a.8.8,0,0,1,.727.468l.249.544a.785.785,0,0,0,.295.34l.5.323a.8.8,0,0,1,.359.786l-.085.592a.786.786,0,0,0,.064.446l.248.544a.8.8,0,0,1-.123.855l-.391.452a.788.788,0,0,0-.187.41l-.086.592a.8.8,0,0,1-.566.653l-.573.169a.8.8,0,0,0-.379.243l-.392.452a.8.8,0,0,1-.829.244l-.574-.169a.8.8,0,0,0-.45,0l-.574.169a.8.8,0,0,1-.829-.244l-.392-.452a.807.807,0,0,0-.379-.243l-.574-.169a.8.8,0,0,1-.565-.653l-.086-.592a.8.8,0,0,0-.187-.41L9.046,14.5a.8.8,0,0,1-.123-.855l.248-.544a.8.8,0,0,0,.064-.446l-.085-.592a.8.8,0,0,1,.359-.786l.5-.323a.8.8,0,0,0,.295-.34l.249-.544A.8.8,0,0,1,11.28,9.6h.6a.8.8,0,0,0,.432-.127l.5-.323A.8.8,0,0,1,13.684,9.152Z" fill="url(#ec05d69e-0e76-48d4-9c6c-f76452764ef1)" /><path d="M13.155,10.465a3,3,0,1,0,3,3h0A3,3,0,0,0,13.155,10.465Z" fill="#b4ec36" /></g></g></svg>