<svg xmlns="http://www.w3.org/2000/svg" width="18" height="18" viewBox="0 0 18 18"><defs><linearGradient id="a16adbb9-578e-482b-adfc-4d82cc09754e" x1="8.011" y1="6.499" x2="8.011" y2="19.191" gradientUnits="userSpaceOnUse"><stop offset="0.225" stop-color="#32d4f5" /><stop offset="0.473" stop-color="#31d1f3" /><stop offset="0.633" stop-color="#2ec9eb" /><stop offset="0.999" stop-color="#198ab3" /><stop offset="1" stop-color="#198ab3" /></linearGradient><linearGradient id="aee8c9ca-fb88-4033-9f01-0af417440dda" x1="7.649" y1="-0.304" x2="8.575" y2="11.219" gradientUnits="userSpaceOnUse"><stop offset="0.225" stop-color="#32d4f5" /><stop offset="0.473" stop-color="#31d1f3" /><stop offset="0.633" stop-color="#2ec9eb" /><stop offset="0.999" stop-color="#198ab3" /><stop offset="1" stop-color="#198ab3" /></linearGradient><linearGradient id="a9bad8b8-57b0-4671-9bb7-bde0d12c5e5b" x1="14.349" y1="17.929" x2="14.349" y2="13.063" gradientUnits="userSpaceOnUse"><stop offset="0" stop-color="#a67af4" /><stop offset="0.999" stop-color="#773adc" /></linearGradient></defs><g id="b8825e32-a13e-4dfe-984b-acf88935f544"><g><g><path d="M14.29,16.9a1.358,1.358,0,0,0,1.364-1.354,1.488,1.488,0,0,0-.009-.164c-.534-4.272-2.972-7.751-7.622-7.751-4.731,0-7.172,2.946-7.647,7.762a1.366,1.366,0,0,0,1.219,1.5c.045,0,.091.007.137.007Z" fill="url(#a16adbb9-578e-482b-adfc-4d82cc09754e)" /><path d="M8.023,8.644A4.262,4.262,0,0,1,5.7,7.961l2.3,6L10.281,8A4.256,4.256,0,0,1,8.023,8.644Z" fill="#fff" opacity="0.8" /><circle cx="8.023" cy="4.358" r="4.287" fill="url(#aee8c9ca-fb88-4033-9f01-0af417440dda)" /></g><path id="f44074e4-c42e-42c6-8df9-7a396ecfe859" d="M16.178,13.063a2.7,2.7,0,0,1-3.609,0l-.224,4.48a.356.356,0,0,0,.609.268l1.4-.887,1.389.9a.356.356,0,0,0,.61-.264Z" fill="url(#a9bad8b8-57b0-4671-9bb7-bde0d12c5e5b)" /><ellipse id="a1389c58-3ec0-4325-aa99-bedaec9edf9e" cx="14.41" cy="10.767" rx="3.221" ry="3.232" fill="#a67af4" /><ellipse id="a2a2e69d-d43b-4ef8-b3dd-f3eae8b8900d" cx="14.41" cy="10.767" rx="2.444" ry="2.452" fill="#ffe452" /></g></g></svg>