<svg id="acef4c1b-4fcc-497b-8109-e31afd8e3681" xmlns="http://www.w3.org/2000/svg" width="18" height="18" viewBox="0 0 18 18"><defs><linearGradient id="bbfb4699-b795-47f6-84ec-c1e1836a6830" x1="8.59" y1="-7.79" x2="9.12" y2="20.05" gradientUnits="userSpaceOnUse"><stop offset="0.22" stop-color="#32d4f5" /><stop offset="1" stop-color="#198ab3" /></linearGradient><linearGradient id="a2bb64ee-7d95-444b-a162-7941c501325a" x1="6.16" y1="14.55" x2="5.73" y2="12.09" gradientUnits="userSpaceOnUse"><stop offset="0" stop-color="#ccc" /><stop offset="1" stop-color="#fcfcfc" /></linearGradient><linearGradient id="b180557a-2006-4217-886d-74d75d6b8621" x1="11.73" y1="11.87" x2="11.3" y2="9.41" gradientUnits="userSpaceOnUse"><stop offset="0" stop-color="#ccc" /><stop offset="1" stop-color="#fcfcfc" /></linearGradient><linearGradient id="f1a15bf3-bc36-4523-9b3b-6283cbe7b300" x1="11.73" y1="17.34" x2="11.3" y2="14.88" gradientUnits="userSpaceOnUse"><stop offset="0" stop-color="#ccc" /><stop offset="1" stop-color="#fcfcfc" /></linearGradient></defs><title>Icon-identity-229</title><path d="M15.06,8.67h-1V5.59a5.81,5.81,0,0,0-1.49-3.92A4.79,4.79,0,0,0,8.91,0a4.79,4.79,0,0,0-3.7,1.67A5.73,5.73,0,0,0,3.72,5.59V8.67H2.91a.7.7,0,0,0-.69.69v8a.7.7,0,0,0,.69.69H15.06a.71.71,0,0,0,.7-.69V9.36A.71.71,0,0,0,15.06,8.67Zm-3.37,0H6.13V5.54A3.18,3.18,0,0,1,7,3.39a2.51,2.51,0,0,1,1.88-.86,2.54,2.54,0,0,1,1.89.86,3.19,3.19,0,0,1,.32.43h0a3,3,0,0,1,.61,1.71Z" fill="url(#bbfb4699-b795-47f6-84ec-c1e1836a6830)" /><path d="M15.09,8.67H2.92a.66.66,0,0,0-.44.17l13.05,9a.67.67,0,0,0,.25-.52v-8A.71.71,0,0,0,15.09,8.67Z" fill="#50e6ff" /><path d="M2.94,8.67H15.1a.7.7,0,0,1,.45.17l-13.06,9a.7.7,0,0,1-.25-.52v-8A.72.72,0,0,1,2.94,8.67Z" fill="#fff" opacity="0.2" /><polygon points="11.42 16.4 5.2 13.3 11.42 10.23 11.7 10.81 6.65 13.3 11.7 15.83 11.42 16.4" fill="#198ab3" /><circle cx="5.94" cy="13.32" r="1.25" fill="url(#a2bb64ee-7d95-444b-a162-7941c501325a)" /><circle cx="11.51" cy="10.64" r="1.25" fill="url(#b180557a-2006-4217-886d-74d75d6b8621)" /><circle cx="11.51" cy="16.11" r="1.25" fill="url(#f1a15bf3-bc36-4523-9b3b-6283cbe7b300)" /></svg>