<svg id="b8136398-1b89-4ae1-8cab-956dfcf4bf4f" xmlns="http://www.w3.org/2000/svg" width="18" height="18" viewBox="0 0 18 18"><defs><linearGradient id="a5343145-d273-4c33-b7fa-c9c00479c96c" x1="9" y1="17.37" x2="9" y2="0.63" gradientUnits="userSpaceOnUse"><stop offset="0" stop-color="#773adc" /><stop offset="0.82" stop-color="#a67af4" /></linearGradient></defs><title>Icon-identity-234</title><g><circle cx="9" cy="9" r="8.37" fill="url(#a5343145-d273-4c33-b7fa-c9c00479c96c)" /><polygon points="3.28 9.34 8.97 13.03 14.76 9.33 15.49 10.17 8.97 14.37 2.55 10.18 3.28 9.34" fill="#c3f1ff" /><polygon points="3.71 8.87 8.97 2.6 14.34 8.88 8.97 12.27 3.71 8.87" fill="#fff" /><polygon points="8.97 2.6 8.97 12.27 3.71 8.87 8.97 2.6" fill="#c3f1ff" /><polygon points="8.97 2.6 8.97 12.27 14.34 8.88 8.97 2.6" fill="#50e6ff" /><polygon points="8.97 7.59 14.34 8.88 8.97 12.27 8.97 7.59" fill="#32bedd" /><polygon points="8.97 12.27 3.71 8.87 8.97 7.59 8.97 12.27" fill="#9cebff" /><polygon points="8.97 14.37 15.49 10.17 14.76 9.33 8.97 13.03 8.97 14.37" fill="#32bedd" /></g></svg>