<svg xmlns="http://www.w3.org/2000/svg" width="18" height="18" viewBox="0 0 18 18"><defs><linearGradient id="bbbdacde-fc39-4f4f-8de6-56ecf27025cd" x1="7.673" y1="0.689" x2="7.673" y2="16.067" gradientUnits="userSpaceOnUse"><stop offset="0" stop-color="#5ea0ef" /><stop offset="1" stop-color="#0078d4" /></linearGradient><linearGradient id="b9261a50-a039-4783-bc48-00686bbc2b23" x1="12.837" y1="13.342" x2="12.837" y2="11.165" gradientUnits="userSpaceOnUse"><stop offset="0" stop-color="#0078d4" /><stop offset="1" stop-color="#5ea0ef" /></linearGradient></defs><path d="M15.345,5.27H10.807V.7l3.9-.043a.64.64,0,0,1,.64.641Zm-5.339.043V.657H5.382l.086,4.656ZM.043,10.7H4.667V6.039H0ZM0,15.394a.64.64,0,0,0,.641.64H4.667V11.421H0ZM0,1.3.043,5.27H4.667V.657H.641A.641.641,0,0,0,0,1.3Z" fill="url(#bbbdacde-fc39-4f4f-8de6-56ecf27025cd)" /><path d="M6.38,6.634h.911V9.161a.205.205,0,0,1-.205.205H6.175a.2.2,0,0,1-.2-.205V7.043a.4.4,0,0,1,.395-.409Z" fill="#a3a3a3" /><path d="M6.38,6.634h.911V9.161a.205.205,0,0,1-.205.205H6.175a.2.2,0,0,1-.2-.205V7.043a.4.4,0,0,1,.395-.409Z" fill="#a3a3a3" opacity="0.5" /><path d="M16.68,6.634h.911a.4.4,0,0,1,.4.4V9.161a.205.205,0,0,1-.2.205h-.9a.205.205,0,0,1-.205-.205V6.634Z" fill="#a3a3a3" /><path d="M16.68,6.634h.911a.4.4,0,0,1,.4.4V9.161a.205.205,0,0,1-.2.205h-.9a.205.205,0,0,1-.205-.205V6.634Z" fill="#a3a3a3" opacity="0.5" /><path d="M17.993,7.029v.882h-12V7.029a.4.4,0,0,1,.4-.4h11.2A.4.4,0,0,1,17.993,7.029Z" fill="#949494" /><path d="M6.175,14.59h.911a.2.2,0,0,1,.205.2v2.549H6.38a.4.4,0,0,1-.41-.395.17.17,0,0,1,0-.022V14.809a.2.2,0,0,1,.19-.219Z" fill="#a3a3a3" /><path d="M6.175,14.59h.911a.2.2,0,0,1,.205.2v2.549H6.38a.4.4,0,0,1-.41-.395.17.17,0,0,1,0-.022V14.809a.2.2,0,0,1,.19-.219Z" fill="#a3a3a3" opacity="0.5" /><path d="M16.885,14.59h.91a.2.2,0,0,1,.2.2h0v2.118a.4.4,0,0,1-.4.4H16.68V14.809a.2.2,0,0,1,.19-.219Z" fill="#a3a3a3" /><path d="M16.885,14.59h.91a.2.2,0,0,1,.2.2h0v2.118a.4.4,0,0,1-.4.4H16.68V14.809a.2.2,0,0,1,.19-.219Z" fill="#a3a3a3" opacity="0.5" /><path d="M5.971,16.941v-.883h12v.883a.4.4,0,0,1-.4.4H6.373A.4.4,0,0,1,5.971,16.941Z" fill="#949494" /><path d="M14.6,13.516h0a.071.071,0,0,0,.055-.026l1.43-1.422a.158.158,0,0,0,0-.213l-1.43-1.446a.071.071,0,0,0-.056-.027.079.079,0,0,0-.044.014.074.074,0,0,0-.026.068v.888a.071.071,0,0,1-.062.079H11.141a.823.823,0,0,0-.653-.322.781.781,0,0,0-.083,0,.864.864,0,0,0-.081,1.725.738.738,0,0,0,.082,0,.75.75,0,0,0,.082,0,.849.849,0,0,0,.66-.33h3.317a.072.072,0,0,1,.071.063v.881A.07.07,0,0,0,14.6,13.516Z" fill="url(#b9261a50-a039-4783-bc48-00686bbc2b23)" /><path d="M11.909,13.035A1.836,1.836,0,1,1,11.9,10.9h1a2.7,2.7,0,1,0,0,2.139Z" fill="#773adc" />​
</svg>