<svg xmlns="http://www.w3.org/2000/svg" width="18" height="18" viewBox="0 0 18 18"><defs><linearGradient id="afabc161-f396-4e7f-b876-f2c2e874649d" x1="3.907" y1="835.989" x2="3.907" y2="840.232" gradientTransform="matrix(1, 0, 0, -1, 0, 847.139)" gradientUnits="userSpaceOnUse"><stop offset="0" stop-color="#773adc" /><stop offset="1" stop-color="#a67af4" /></linearGradient></defs><path d="M.613.993H1.976V4.775a.306.306,0,0,1-.306.306H.307A.306.306,0,0,1,0,4.775V1.606A.6.6,0,0,1,.592.993Z" fill="#a3a3a3" /><path d="M.613.993H1.976V4.775a.306.306,0,0,1-.306.306H.307A.306.306,0,0,1,0,4.775V1.606A.6.6,0,0,1,.592.993Z" fill="#a3a3a3" opacity="0.5" /><path d="M16.025.993h1.362a.6.6,0,0,1,.6.6v3.18a.306.306,0,0,1-.306.306H16.331a.306.306,0,0,1-.306-.306V.993Z" fill="#a3a3a3" /><path d="M16.025.993h1.362a.6.6,0,0,1,.6.6v3.18a.306.306,0,0,1-.306.306H16.331a.306.306,0,0,1-.306-.306V.993Z" fill="#a3a3a3" opacity="0.5" /><path d="M17.989,1.585v1.32H.032V1.585a.6.6,0,0,1,.6-.6H17.387A.6.6,0,0,1,17.989,1.585Z" fill="#949494" /><path d="M.307,12.9H1.67a.306.306,0,0,1,.306.306v3.813H.613A.6.6,0,0,1,0,16.426c0-.011,0-.021,0-.032V13.225A.306.306,0,0,1,.285,12.9Z" fill="#a3a3a3" /><path d="M.307,12.9H1.67a.306.306,0,0,1,.306.306v3.813H.613A.6.6,0,0,1,0,16.426c0-.011,0-.021,0-.032V13.225A.306.306,0,0,1,.285,12.9Z" fill="#a3a3a3" opacity="0.5" /><path d="M16.331,12.9h1.363A.306.306,0,0,1,18,13.2h0v3.169a.6.6,0,0,1-.6.6H16.025v-3.75a.306.306,0,0,1,.284-.327Z" fill="#a3a3a3" /><path d="M16.331,12.9h1.363A.306.306,0,0,1,18,13.2h0v3.169a.6.6,0,0,1-.6.6H16.025v-3.75a.306.306,0,0,1,.284-.327Z" fill="#a3a3a3" opacity="0.5" /><path d="M0,16.415V15.1H17.958v1.32a.6.6,0,0,1-.6.6H.6A.6.6,0,0,1,0,16.415Z" fill="#949494" /><path d="M13.672,9.409V8.614H8.709V5.263h4.14V4.468H8.709a.8.8,0,0,0-.795.8V8.614H4.383v.8h3.54v3.328a.8.8,0,0,0,.8.794h4.131v-.795H8.718V9.409Z" fill="#0078d4" /><circle cx="14.042" cy="8.97" r="1.213" fill="#5ea0ef" /><circle cx="3.907" cy="9.008" r="1.72" fill="url(#afabc161-f396-4e7f-b876-f2c2e874649d)" /><circle cx="12.947" cy="13.171" r="1.213" fill="#5ea0ef" /><circle cx="12.947" cy="4.829" r="1.213" fill="#5ea0ef" />​
</svg>