<svg id="b62fe53d-d102-488e-bedf-3b7a48aa14bf" xmlns="http://www.w3.org/2000/svg" width="18" height="18" viewBox="0 0 18 18"><defs><linearGradient id="bbaa244d-7a73-4def-ae33-b68783fa5b51" x1="9" y1="15.63" x2="9" y2="-2.51" gradientUnits="userSpaceOnUse"><stop offset="0" stop-color="#0078d4" /><stop offset="0.16" stop-color="#1380da" /><stop offset="0.53" stop-color="#3c91e5" /><stop offset="0.82" stop-color="#559cec" /><stop offset="1" stop-color="#5ea0ef" /></linearGradient><linearGradient id="fa74d148-d6d0-4c75-94f7-94732b8c62b0" x1="12.26" y1="7.17" x2="12.26" y2="17.21" gradientUnits="userSpaceOnUse"><stop offset="0" stop-color="#ffd70f" /><stop offset="0.27" stop-color="#ffd310" /><stop offset="0.54" stop-color="#ffc613" /><stop offset="0.83" stop-color="#feb217" /><stop offset="1" stop-color="#fea11b" /></linearGradient></defs><title>Icon-integration-219</title><path d="M17.41,8.4a3.77,3.77,0,0,0-3.28-3.63A4.76,4.76,0,0,0,9.22.21,4.92,4.92,0,0,0,4.53,3.4,4.48,4.48,0,0,0,.59,7.73a4.58,4.58,0,0,0,4.74,4.4,2.75,2.75,0,0,0,.41,0h7.67a.64.64,0,0,0,.2,0A3.82,3.82,0,0,0,17.41,8.4Z" fill="url(#bbaa244d-7a73-4def-ae33-b68783fa5b51)" /><path id="ba7b3762-4752-4c4a-8a7e-af4c5e383796" d="M8.14,16v-.6l0,0-.61-.21-.16-.41.31-.62,0-.07-.19-.19-.23-.23-.08,0-.6.3-.41-.11-.26-.67H5.32l0,0-.2.61L4.67,14,4,13.62,3.56,14l0,.08.3.59-.17.41L3,15.38V16l.09,0,.63.21.17.41-.32.69.42.42.08,0,.6-.3.41.17.26.72h.59l0-.09.21-.63.4-.17.7.32.42-.42,0-.08-.3-.59.11-.42Zm-2.51.55a.84.84,0,1,1,.83-.84h0A.84.84,0,0,1,5.63,16.51Z" fill="#76bc2d" /><path id="bff6fc37-370d-4b52-9427-43a5a5385267" d="M17.28,12.64V11.47l-.06-.05L16,11l-.31-.8L16.31,9l.06-.13L16,8.47,15.56,8l-.16.08-1.17.6-.8-.23-.51-1.3H11.76l-.06.06-.4,1.19-.82.31L9.13,8.07l-.82.82.08.16L9,10.21l-.33.8-1.41.51v1.17l.17.05,1.24.41L9,14l-.64,1.35.82.83.16-.07,1.17-.6.8.33.51,1.41H13L13,17l.41-1.24.79-.33,1.37.63.82-.82-.08-.16L15.74,14l.23-.82Zm-4.91,1.08A1.64,1.64,0,1,1,14,12.07h0A1.65,1.65,0,0,1,12.37,13.72Z" fill="url(#fa74d148-d6d0-4c75-94f7-94732b8c62b0)" /><path d="M12.37,13.72A1.64,1.64,0,1,1,14,12.07h0A1.65,1.65,0,0,1,12.37,13.72Z" fill="#fff" /></svg>