<svg id="f7bf0037-9a5e-4bb7-8b50-ac71cb035d97" xmlns="http://www.w3.org/2000/svg" width="18" height="18" viewBox="0 0 18 18"><defs><linearGradient id="acc4deac-96b1-4d46-9a2c-4b829b24be19" x1="4.76" y1="9.66" x2="4.76" y2="17.06" gradientUnits="userSpaceOnUse"><stop offset="0" stop-color="#008bf1" /><stop offset="1" stop-color="#004dae" /></linearGradient><linearGradient id="a6951013-a0d6-4369-a16b-d4a62b78c934" x1="4.83" y1="1.06" x2="4.83" y2="6.38" gradientUnits="userSpaceOnUse"><stop offset="0" stop-color="#76bc2d" /><stop offset="1" stop-color="#5e9624" /></linearGradient><linearGradient id="b9ef11bd-7128-47a8-8cf1-427a2a8cc53d" x1="14.4" y1="10.64" x2="14.4" y2="15.95" gradientUnits="userSpaceOnUse"><stop offset="0" stop-color="#76bc2d" /><stop offset="1" stop-color="#5e9624" /></linearGradient></defs><title>Icon-integration-210</title><polygon points="5.36 12.77 5.36 6.38 4.31 6.38 4.31 12.77 4.31 13.36 4.31 13.82 12.65 13.82 12.65 12.77 5.36 12.77" fill="#949494" /><path id="bcfff480-0908-4673-8dd3-211accb6f5e9" d="M4.38,9.82,1.22,13a.55.55,0,0,0,0,.77L4.38,16.9a.55.55,0,0,0,.77,0l3.16-3.16a.55.55,0,0,0,0-.77L5.15,9.82A.55.55,0,0,0,4.38,9.82Z" fill="url(#acc4deac-96b1-4d46-9a2c-4b829b24be19)" /><path id="a2e9ce98-ac6d-463e-9773-5eed323da406" d="M7.49,5.84V1.6A.54.54,0,0,0,7,1.06H2.71a.54.54,0,0,0-.54.54V5.84a.54.54,0,0,0,.54.54H7A.54.54,0,0,0,7.49,5.84Z" fill="url(#a6951013-a0d6-4369-a16b-d4a62b78c934)" /><path id="abb7af69-4e26-4379-92b2-a9feddec43db" d="M11.74,11.18v4.23a.54.54,0,0,0,.54.54h4.24a.54.54,0,0,0,.54-.54V11.18a.54.54,0,0,0-.54-.54H12.28A.54.54,0,0,0,11.74,11.18Z" fill="url(#b9ef11bd-7128-47a8-8cf1-427a2a8cc53d)" /></svg>