<?xml version="1.0" encoding="utf-8"?>
<!-- Generator: Adobe Illustrator 24.0.0, SVG Export Plug-In . SVG Version: 6.00 Build 0)  -->
<svg version="1.1" id="Citrix_Virtual_Apps" xmlns="http://www.w3.org/2000/svg" xmlns:xlink="http://www.w3.org/1999/xlink"
	 x="0px" y="0px" viewBox="0 0 32 32" style="enable-background:new 0 0 32 32;" xml:space="preserve">
<style type="text/css">
	.st0{fill:url(#Cloud_2_);}
	.st1{fill:url(#Fade_2_);}
	.st2{fill:#001D6C;}
</style>
<linearGradient id="Cloud_2_" gradientUnits="userSpaceOnUse" x1="-0.5587" y1="30.1981" x2="29.3067" y2="0.3328">
	<stop  offset="0.1" style="stop-color:#08BDBA"/>
	<stop  offset="0.9" style="stop-color:#0F62FE"/>
</linearGradient>
<path id="Cloud_1_" class="st0" d="M16,4L16,4C16,4,16,4,16,4C16,4,16,4,16,4L16,4c-4.3,0-7.9,3-8.8,7.1c-3,0.6-5.2,3.3-5.2,6.4
	C2,21.1,4.9,24,8.5,24H19v-2H8.5C6,22,4,20,4,17.5c0-2.3,1.8-4.3,4.1-4.5L9,13l0.1-0.8C9.5,8.6,12.5,6,16,6c3.9,0,7,3.1,7,7h2
	C25,8,21,4,16,4z"/>
<linearGradient id="Fade_2_" gradientUnits="userSpaceOnUse" x1="89.0004" y1="-24.4996" x2="100.0004" y2="-24.4996" gradientTransform="matrix(1 0 0 1 -80.0004 46.9996)">
	<stop  offset="6.597684e-04" style="stop-color:#FFFFFF;stop-opacity:0"/>
	<stop  offset="0.8" style="stop-color:#FFFFFF"/>
</linearGradient>
<rect id="Fade_1_" x="9" y="19" class="st1" width="11" height="7"/>
<path id="Squares_1_" class="st2" d="M19,16h4v4h-4V16z M19,27h4v-4h-4V27z M26,27h4v-4h-4V27z M26,16v4h4v-4H26z"/>
</svg>
