<?xml version="1.0" encoding="utf-8"?>
<!-- Generator: Adobe Illustrator 24.3.0, SVG Export Plug-In . SVG Version: 6.00 Build 0)  -->
<svg version="1.1" id="Layer_1" xmlns="http://www.w3.org/2000/svg" xmlns:xlink="http://www.w3.org/1999/xlink" x="0px" y="0px"
	 viewBox="0 0 32 32" style="enable-background:new 0 0 32 32;" xml:space="preserve">
<style type="text/css">
	.st0{fill:#737373;}
	.st1{fill:#F7991C;}
	.st2{fill:#A6A6A6;}
	.st3{fill:#F7991F;stroke:#404040;stroke-width:1.1862;stroke-miterlimit:10;}
</style>
<path class="st0" d="M17.4,24.2c0,0.8-0.6,1.4-1.4,1.4c-0.8,0-1.4-0.6-1.4-1.4s0.6-1.4,1.4-1.4C16.8,22.8,17.4,23.4,17.4,24.2z"/>
<path class="st1" d="M16.5,31.3c0,0.3-0.2,0.5-0.5,0.5c-0.3,0-0.5-0.2-0.5-0.5c0-0.3,0.2-0.5,0.5-0.5C16.3,30.8,16.5,31,16.5,31.3z"
	/>
<path class="st0" d="M22.8,21c0.5,0.5,0.5,1.4,0,2c-0.5,0.5-1.4,0.5-2,0c-0.5-0.5-0.5-1.4,0-2C21.4,20.4,22.2,20.4,22.8,21z"/>
<path class="st1" d="M27.1,26.7c0.2,0.2,0.2,0.5,0,0.7c-0.2,0.2-0.5,0.2-0.7,0c-0.2-0.2-0.2-0.5,0-0.7
	C26.6,26.5,26.9,26.5,27.1,26.7z"/>
<path class="st0" d="M11.3,23.2c-0.5,0.5-1.4,0.5-2,0c-0.5-0.5-0.5-1.4,0-2c0.5-0.5,1.4-0.5,2,0C11.8,21.8,11.8,22.7,11.3,23.2z"/>
<path class="st1" d="M5.7,27.6c-0.2,0.2-0.5,0.2-0.7,0c-0.2-0.2-0.2-0.5,0-0.7c0.2-0.2,0.5-0.2,0.7,0C5.9,27.1,5.9,27.4,5.7,27.6z"
	/>
<path class="st2" d="M16.8,28.1c0,0.4-0.4,0.8-0.8,0.8c-0.4,0-0.8-0.4-0.8-0.8c0-0.4,0.4-0.8,0.8-0.8C16.5,27.3,16.8,27.6,16.8,28.1
	z"/>
<path class="st2" d="M25.1,24.2c0.3,0.3,0.3,0.8,0,1.1c-0.3,0.3-0.8,0.3-1.1,0c-0.3-0.3-0.3-0.8,0-1.1
	C24.3,23.9,24.8,23.9,25.1,24.2z"/>
<path class="st2" d="M8.1,25.6c-0.3,0.3-0.8,0.3-1.1,0c-0.3-0.3-0.3-0.8,0-1.1c0.3-0.3,0.8-0.3,1.1,0C8.4,24.8,8.4,25.3,8.1,25.6z"
	/>
<path class="st0" d="M9.5,10.6c-0.5-0.5-0.5-1.4,0-2c0.5-0.5,1.4-0.5,2,0c0.5,0.5,0.5,1.4,0,2C10.9,11.1,10,11.1,9.5,10.6z"/>
<path class="st1" d="M5.1,4.9C5,4.7,5,4.4,5.2,4.2C5.4,4,5.7,4,5.9,4.2c0.2,0.2,0.2,0.5,0,0.7C5.7,5.1,5.3,5.1,5.1,4.9z"/>
<path class="st0" d="M20.6,8.5c0.5-0.5,1.4-0.5,2,0c0.5,0.5,0.5,1.4,0,2c-0.5,0.5-1.4,0.5-2,0C20,9.9,20,9.1,20.6,8.5z"/>
<path class="st2" d="M7.2,7.4c-0.3-0.3-0.3-0.8,0-1.1c0.3-0.3,0.8-0.3,1.1,0c0.3,0.3,0.3,0.8,0,1.1C8,7.7,7.5,7.7,7.2,7.4z"/>
<path class="st2" d="M23.7,6.2c0.3-0.3,0.8-0.3,1.1,0c0.3,0.3,0.3,0.8,0,1.1c-0.3,0.3-0.8,0.3-1.1,0C23.4,7,23.4,6.5,23.7,6.2z"/>
<path class="st1" d="M26.2,4.1c0.2-0.2,0.5-0.2,0.7,0c0.2,0.2,0.2,0.5,0,0.7c-0.2,0.2-0.5,0.2-0.7,0C26,4.7,26,4.3,26.2,4.1z"/>
<path class="st0" d="M14.6,7.8c0-0.8,0.6-1.4,1.4-1.4c0.8,0,1.4,0.6,1.4,1.4c0,0.8-0.6,1.4-1.4,1.4C15.2,9.2,14.6,8.6,14.6,7.8z"/>
<path class="st1" d="M15.5,0.7c0-0.3,0.2-0.5,0.5-0.5c0.3,0,0.5,0.2,0.5,0.5c0,0.3-0.2,0.5-0.5,0.5C15.7,1.2,15.5,1,15.5,0.7z"/>
<path class="st2" d="M15.2,3.9c0-0.4,0.4-0.8,0.8-0.8c0.4,0,0.8,0.4,0.8,0.8c0,0.4-0.4,0.8-0.8,0.8C15.6,4.7,15.2,4.4,15.2,3.9z"/>
<path class="st3" d="M19.4,15.9c0,1.9-1.5,3.4-3.4,3.4c-1.9,0-3.4-1.5-3.4-3.4c0-1.9,1.5-3.4,3.4-3.4C17.9,12.5,19.4,14,19.4,15.9z"
	/>
<path class="st0" d="M24.2,14.5c0.8,0,1.4,0.6,1.4,1.4c0,0.8-0.6,1.4-1.4,1.4c-0.8,0-1.4-0.6-1.4-1.4C22.8,15.1,23.5,14.5,24.2,14.5
	z"/>
<path class="st2" d="M28.1,15.1c0.4,0,0.8,0.4,0.8,0.8c0,0.4-0.4,0.8-0.8,0.8c-0.4,0-0.8-0.4-0.8-0.8C27.3,15.4,27.7,15.1,28.1,15.1
	z"/>
<path class="st1" d="M31.3,15.4c0.3,0,0.5,0.2,0.5,0.5c0,0.3-0.2,0.5-0.5,0.5c-0.3,0-0.5-0.2-0.5-0.5C30.8,15.6,31,15.4,31.3,15.4z"
	/>
<path class="st0" d="M7.8,17.4c-0.8,0-1.4-0.6-1.4-1.4c0-0.8,0.6-1.4,1.4-1.4c0.8,0,1.4,0.6,1.4,1.4C9.2,16.8,8.5,17.4,7.8,17.4z"/>
<path class="st2" d="M3.9,16.8c-0.4,0-0.8-0.4-0.8-0.8c0-0.4,0.4-0.8,0.8-0.8c0.4,0,0.8,0.4,0.8,0.8C4.7,16.5,4.3,16.8,3.9,16.8z"/>
<path class="st1" d="M0.7,16.5c-0.3,0-0.5-0.2-0.5-0.5c0-0.3,0.2-0.5,0.5-0.5c0.3,0,0.5,0.2,0.5,0.5C1.2,16.3,1,16.5,0.7,16.5z"/>
</svg>
