<?xml version="1.0" encoding="UTF-8"?>
<svg width="32px" height="32px" viewBox="0 0 32 32" version="1.1" xmlns="http://www.w3.org/2000/svg" xmlns:xlink="http://www.w3.org/1999/xlink">
    <!-- Generator: Sketch 49 (51002) - http://www.bohemiancoding.com/sketch -->
    <title>IBM Cloud Functions Logo Primary 32px</title>
    <desc>Created with Sketch.</desc>
    <defs></defs>
    <g id="IBM-Cloud-Functions-Logo-Primary-32px" stroke="none" stroke-width="1" fill="none" fill-rule="evenodd">
        <g id="IBM-Cloud-Functions-Logo-Primary">
            <path d="M25.28126,4.05048212 C24.7776809,4.16168457 24.146,4.57120859 23.807,5.41520859 C23.417,6.38220859 23.22,7.83720859 23.114,9.33520859 L23.943,9.50020859 C24.419,9.59220859 26.793,10.2022086 26.806,13.2282086 C26.818,16.2582086 24.45,16.8882086 23.997,16.9792086 L22.951,17.1972086 C22.735,23.2962086 20.881,27.9022086 17.428,30.9042086 C17.286,31.0272086 17.142,31.1392086 17,31.2532086 C20.621,30.9782086 24.164,29.4842086 26.934,26.7152086 C33.092,20.5582086 33.092,10.5742086 26.934,4.41620859 C26.843,4.32520859 26.2097095,3.84545804 25.28126,4.05048212 Z" id="Fill-1-Copy-3" fill="#50E3C2"></path>
            <path d="M8.5805,17.323 L7.5945,17.122 C7.1185,17.029 4.7465,16.408 4.7465,13.381 C4.7465,10.352 7.1195,9.733 7.5735,9.643 L9.1765,9.316 C9.9905,5.511 11.6505,2.5 14.1265,0.348 C14.2675,0.226 14.4105,0.114 14.5535,0 C10.9325,0.276 7.3875,1.77 4.6185,4.538 C-1.39501171,10.5524883 -1.5361098,20.2136328 4.19520575,26.3973853 C4.98948802,27.1496827 7.39478717,26.7733656 7.9555,25.218 C8.4625,23.394 8.5615,20.397 8.5805,17.323 Z" id="Fill-4-Copy-3" fill="#50E3C2"></path>
            <path d="M6.52739858,31.454 C6.58939858,31.464 7.07939858,31.535 7.83839858,31.535 C9.57139858,31.535 12.7073986,31.163 15.3793986,28.842 C18.4523986,26.17 19.9683986,21.754 19.8883986,15.723 L19.8883986,15.382 C19.8883986,15.237 19.8893986,15.1 19.8893986,14.957 L23.3023986,14.244 C23.7073986,14.163 23.7263986,13.842 23.7243986,13.442 C23.7233986,13.043 23.6993986,12.725 23.2943986,12.647 L19.9243986,11.978 C20.0773986,5.595 20.8743986,1.816 24.7623986,1.764 C25.2013986,1.758 25.2573986,1.415 25.2893986,0.977 C25.3193986,0.538 25.3143986,0.149 24.8793986,0.082 C24.8193986,0.072 24.3293986,0 23.5703986,0 C21.8383986,0 18.7003986,0.372 16.0293986,2.692 C13.6643986,4.749 12.2313986,7.852 11.7283986,11.924 L8.10939858,12.662 C7.70439858,12.742 7.68239858,13.06 7.68239858,13.461 C7.68239858,13.86 7.70439858,14.179 8.10939858,14.259 L11.5383986,14.957 C11.5343986,15.246 11.5173986,15.52 11.5203986,15.816 L11.5203986,16.145 C11.5143986,24.584 11.1833986,29.711 6.64539858,29.772 C6.20539858,29.778 6.03539858,30.121 6.00439858,30.558 C5.97439858,30.998 6.09239858,31.387 6.52739858,31.454" id="Fill-7-Copy-2" fill="#236B5B"></path>
        </g>
    </g>
</svg>