<?xml version="1.0" encoding="UTF-8"?>
<svg width="32px" height="32px" viewBox="0 0 32 32" version="1.1" xmlns="http://www.w3.org/2000/svg" xmlns:xlink="http://www.w3.org/1999/xlink">
	<style type="text/css">
	.st0{fill:none;stroke:#000000;stroke-linejoin:round;}
</style>
        <path id="shield" class="st0" d="M27.7,7.2L16,1C4.3,7.3,16,1,4.3,7.3 M3.3,9.5c1.1,5.9,2.8,10.6,5.2,13.9c2.1,2.9,4.1,4.9,6.1,6
	 M17.4,29.4c2.5-1.3,4.7-3.5,6.6-6.5c2.1-3.2,3.7-7.7,4.7-13.5"/>
        <path d="M29,10 C27.8954305,10 27,9.1045695 27,8 C27,6.8954305 27.8954305,6 29,6 C30.1045695,6 31,6.8954305 31,8 C31,9.1045695 30.1045695,10 29,10 Z M29,9 C29.5522847,9 30,8.55228475 30,8 C30,7.44771525 29.5522847,7 29,7 C28.4477153,7 28,7.44771525 28,8 C28,8.55228475 28.4477153,9 29,9 Z" id="circle" fill="#000000" fill-rule="nonzero"></path>
        <path d="M3,10 C1.8954305,10 1,9.1045695 1,8 C1,6.8954305 1.8954305,6 3,6 C4.1045695,6 5,6.8954305 5,8 C5,9.1045695 4.1045695,10 3,10 Z M3,9 C3.55228475,9 4,8.55228475 4,8 C4,7.44771525 3.55228475,7 3,7 C2.44771525,7 2,7.44771525 2,8 C2,8.55228475 2.44771525,9 3,9 Z" id="circle" fill="#000000" fill-rule="nonzero"></path>
        <path d="M16,32 C14.8954305,32 14,31.1045695 14,30 C14,28.8954305 14.8954305,28 16,28 C17.1045695,28 18,28.8954305 18,30 C18,31.1045695 17.1045695,32 16,32 Z M16,31 C16.5522847,31 17,30.5522847 17,30 C17,29.4477153 16.5522847,29 16,29 C15.4477153,29 15,29.4477153 15,30 C15,30.5522847 15.4477153,31 16,31 Z" id="circle" fill="#000000" fill-rule="nonzero"></path>
        <path d="M20.7187159,8.67649507 L25.0944783,11.136781 C25.4267509,11.3236023 25.4361387,11.7986223 25.111507,11.9984261 L20.7404509,14.6887157 L25.0944783,17.136781 C25.4267509,17.3236023 25.4361387,17.7986223 25.111507,17.9984261 L16.2364725,23.460816 C16.0778314,23.5584562 15.8780641,23.5598103 15.7181138,23.4643297 L6.56745596,18.0019398 C6.24194222,17.8076277 6.242634,17.3358964 6.56871624,17.1425399 L9.2208213,15.5699252 C9.45834508,15.429081 9.76507287,15.5074554 9.90591698,15.7449792 C10.0467611,15.982503 9.96838674,16.2892307 9.73086296,16.4300748 L7.80163072,17.5740488 L15.9704318,22.4503295 L23.863867,17.5920924 L20.0288348,15.4358337 C19.9456383,15.3890563 19.8809933,15.3220288 19.8376029,15.2443989 L16.2364725,17.460816 C16.0778314,17.5584562 15.8780641,17.5598103 15.7181138,17.4643297 L6.56745596,12.0019398 C6.24194222,11.8076277 6.242634,11.3358964 6.56871624,11.1425399 L9.2208213,9.56992515 C9.45834508,9.42908104 9.76507287,9.50745539 9.90591698,9.74497917 C10.0467611,9.98250295 9.96838674,10.2892307 9.73086296,10.4300748 L7.80163072,11.5740488 L15.9704318,16.4503295 L23.863867,11.5920924 L20.0288348,9.43583374 C19.9401754,9.38598471 19.8725837,9.31313905 19.8293311,9.22897224 L15.9831205,11.6182009 L8.24698349,7.12761921 C8.00816027,6.98898992 7.92693704,6.6830042 8.06556633,6.44418098 C8.20419563,6.20535776 8.51018134,6.12413453 8.74900456,6.26276382 L15.9656694,10.4518084 L24.2791114,5.28757907 C24.5136804,5.14186708 24.8219591,5.21389993 24.9676711,5.44846895 C25.1133831,5.68303797 25.0413502,5.99131664 24.8067812,6.13702864 L20.7187159,8.67649507 Z" id="vserver" fill="#000000" fill-rule="nonzero"></path>
</svg>