<?xml version="1.0" encoding="utf-8"?>
<!-- Generator: Adobe Illustrator 23.0.4, SVG Export Plug-In . SVG Version: 6.00 Build 0)  -->
<svg version="1.1" id="IBMPower" xmlns="http://www.w3.org/2000/svg" xmlns:xlink="http://www.w3.org/1999/xlink" x="0px" y="0px"
	 viewBox="0 0 32 32" style="enable-background:new 0 0 32 32;" xml:space="preserve">
<style type="text/css">
	.st0{fill:url(#GradientStroke_1_);}
	.st1{fill:url(#RightMask_1_);}
	.st2{fill:url(#LeftMask_1_);}
	.st3{fill:url(#BottomMask_1_);}
	.st4{fill:url(#TopMask_1_);}
	.st5{fill:#061F80;}
</style>
<linearGradient id="GradientStroke_1_" gradientUnits="userSpaceOnUse" x1="1.535735e-02" y1="31.9846" x2="31.5974" y2="0.4026">
	<stop  offset="0.1" style="stop-color:#00BAB6"/>
	<stop  offset="0.9" style="stop-color:#0062FF"/>
</linearGradient>
<path id="GradientStroke" class="st0" d="M9.1,17h-2C7,16.7,7,16.3,7,16c0-5,4-9,9-9c2.2,0,4.2,0.8,5.8,2.1l-1.3,1.5
	C19.3,9.6,17.7,9,16,9c-3.9,0-7,3.1-7,7C9,16.3,9,16.7,9.1,17z M13,4.4C14,4.1,15,4,16,4c6.6,0,12,5.4,12,12c0,3.3-1.3,6.3-3.5,8.5
	l1.4,1.4c2.5-2.5,4.1-6,4.1-9.9c0-7.7-6.3-14-14-14c-1,0-2,0.1-3,0.3V4.4z M19,27.6c-1,0.2-2,0.4-3,0.4C9.4,28,4,22.6,4,16
	c0-3.3,1.3-6.3,3.5-8.5L6.1,6.1C3.6,8.6,2,12.1,2,16c0,7.7,6.3,14,14,14c1,0,2-0.1,3-0.3V27.6z M23,16c0,3.9-3.1,7-7,7
	c-1.7,0-3.3-0.6-4.5-1.7l-1.3,1.5c1.6,1.3,3.6,2.1,5.8,2.1c5,0,9-4,9-9c0-0.3,0-0.7-0.1-1h-2C23,15.3,23,15.7,23,16z"/>
<linearGradient id="RightMask_1_" gradientUnits="userSpaceOnUse" x1="18.6665" y1="1543.7086" x2="22.1365" y2="1530.7585" gradientTransform="matrix(1 0 0 1 0 -1516)">
	<stop  offset="0.29" style="stop-color:#FFFFFF;stop-opacity:0"/>
	<stop  offset="0.87" style="stop-color:#FFFFFF"/>
</linearGradient>
<path id="RightMask" class="st1" d="M22,14l-6,9l7,2l3-10L22,14z"/>
<linearGradient id="LeftMask_1_" gradientUnits="userSpaceOnUse" x1="-567.3335" y1="792.7086" x2="-563.8635" y2="779.7586" gradientTransform="matrix(-1 0 0 -1 -554 797)">
	<stop  offset="0.29" style="stop-color:#FFFFFF;stop-opacity:0"/>
	<stop  offset="0.87" style="stop-color:#FFFFFF"/>
</linearGradient>
<path id="LeftMask" class="st2" d="M10,18l6-9L9,7L6,17L10,18z"/>
<linearGradient id="BottomMask_1_" gradientUnits="userSpaceOnUse" x1="-1148.1216" y1="4.5" x2="-1132.8074" y2="4.5" gradientTransform="matrix(-1 0 0 -1 -1124 32)">
	<stop  offset="0.3931" style="stop-color:#FFFFFF"/>
	<stop  offset="1" style="stop-color:#FFFFFF;stop-opacity:0"/>
</linearGradient>
<path id="BottomMask" class="st3" d="M8,24v7h12v-5L8,24z"/>
<linearGradient id="TopMask_1_" gradientUnits="userSpaceOnUse" x1="7.8785" y1="1520.5" x2="23.1926" y2="1520.5" gradientTransform="matrix(1 0 0 1 0 -1516)">
	<stop  offset="0.3931" style="stop-color:#FFFFFF"/>
	<stop  offset="1" style="stop-color:#FFFFFF;stop-opacity:0"/>
</linearGradient>
<path id="TopMask" class="st4" d="M24,8V1H12v5L24,8z"/>
<path id="SolidStroke_1_" class="st5" d="M16,14c1.1,0,2,0.9,2,2s-0.9,2-2,2s-2-0.9-2-2S14.9,14,16,14z M9,4c0.6,0,1,0.4,1,1
	S9.6,6,9,6S8,5.6,8,5S8.4,4,9,4z M23,26c0.6,0,1,0.4,1,1s-0.4,1-1,1s-1-0.4-1-1S22.4,26,23,26z M23,11c0.6,0,1,0.4,1,1s-0.4,1-1,1
	s-1-0.4-1-1S22.4,11,23,11z M9,19c0.6,0,1,0.4,1,1s-0.4,1-1,1s-1-0.4-1-1S8.4,19,9,19z"/>
</svg>
