<?xml version="1.0" encoding="UTF-8"?>
<svg width="31px" height="30px" viewBox="0 0 31 30" version="1.1" xmlns="http://www.w3.org/2000/svg" xmlns:xlink="http://www.w3.org/1999/xlink">
    <!-- Generator: Sketch 59.1 (86144) - https://sketch.com -->
    <title>elements/logos/grey</title>
    <desc>Created with Sketch.</desc>
    <defs>
        <path d="M15.4761022,0.000166058484 C17.8814594,0.000166058484 20.2004661,0.691799644 22.1757318,1.81643073 C20.9734683,1.55696435 19.7712049,1.38384838 18.5689415,1.38384838 C12.90012,1.38384838 8.08982086,4.23880886 7.40275388,8.04486931 C6.9734927,9.86113398 7.83243021,11.5046978 9.55030522,12.4562129 C10.4088276,12.9751457 11.3537004,13.2346121 12.2985731,13.2346121 C14.1023834,13.2346121 15.7347383,12.283097 16.5932607,11.7641642 C16.7651312,11.7641642 16.8506513,11.6773986 16.9370017,11.5910482 C19.512984,10.1206004 21.7468857,9.42855163 23.6362161,9.42855163 C27.4152921,9.42855163 29.8206492,12.0236306 30.2499104,16.0023919 C30.2499104,24.2197959 23.2928902,30.0156522 15.4761022,30.0156522 C13.0715754,30.0156522 10.7525686,29.3236034 8.77688783,28.1993875 C9.9795664,28.5452043 11.1818298,28.6319699 12.3845084,28.6319699 C17.9669795,28.6319699 22.7776938,25.7770094 23.5502809,21.9709489 C23.8940219,20.1546843 23.1210197,18.5111204 21.4027295,17.5596053 C20.5442072,17.1270229 19.5997495,16.8675566 18.6544616,16.8675566 C16.8506513,16.8675566 15.2191267,17.7327213 14.2738388,18.251654 C14.1879035,18.3380044 14.1023834,18.3380044 13.9305129,18.42477 C10.3228923,20.6732019 2.76474042,23.1823456 0.703124346,14.0997768 C0.703124346,5.795192 7.66014453,0.000166058484 15.4761022,0.000166058484 Z M-0.000133333334,15.085583 C1.63512759,21.3032278 5.50844172,24.2391418 14.4598243,19.489454 C15.6645786,18.7986507 18.2463729,17.0720576 20.9149327,18.5400146 C21.2590889,18.7986507 22.9807003,19.7489203 22.5497785,21.8213302 C21.0868032,29.333816 0.774114348,31.5789267 -0.000133333334,15.6041006 L-0.000133333334,15.6041006 Z M18.5627143,2.50158803 L18.8212463,2.50380937 C24.4270322,2.60021127 30.2814615,5.84372259 30.8751206,14.060504 L30.8751206,14.060504 L30.8751206,14.9298201 C29.2390294,8.67190615 25.3653001,5.89084169 16.4965316,10.6712503 C15.2054269,11.2794395 12.7079073,13.0176567 9.95299705,11.5401513 C9.60842569,11.3666202 7.97274963,10.3229426 8.40325625,8.32442877 C9.00604854,4.84799441 13.6556861,2.50158803 18.5627143,2.50158803 L18.5627143,2.50158803 Z" id="path-1"></path>
    </defs>
    <g id="Page-1" stroke="none" stroke-width="1" fill="none" fill-rule="evenodd">
        <g id="Artboard" transform="translate(-57.000000, -10.000000)">
            <g id="elements/logos/grey" transform="translate(57.000000, 10.000000)">
                <mask id="mask-2" fill="white">
                    <use xlink:href="#path-1"></use>
                </mask>
                <use id="Combined-Shape" fill="#9A9B9B" xlink:href="#path-1"></use>
            </g>
        </g>
    </g>
</svg>