<svg xmlns="http://www.w3.org/2000/svg" width="32" height="32"><path d="M16.04 24.413c0 .576-.408 1.042-.91 1.042-.503 0-.91-.466-.91-1.042s.407-1.041.91-1.041c.502 0 .91.466.91 1.041zm1.502-9.597a.522.522 0 0 0 .35-.647.512.512 0 0 0-.64-.355 1.473 1.473 0 0 1-.654.042.515.515 0 0 0-.59.434.52.52 0 0 0 .428.597 2.467 2.467 0 0 0 1.106-.071zm-1.599-.598a.522.522 0 0 0-.349-.648l-.852-.255a.522.522 0 0 0-.292 1l.852.255a.517.517 0 0 0 .641-.353zm2.67.238l.845-.284a.524.524 0 0 0 .326-.66.515.515 0 0 0-.653-.33l-.844.284a.524.524 0 0 0 .164 1.017.522.522 0 0 0 .163-.027zm-4.588-.811a.523.523 0 0 0-.349-.648l-.851-.254a.515.515 0 0 0-.642.352.523.523 0 0 0 .35.648l.851.255a.516.516 0 0 0 .641-.353zm6.486.172l.843-.285a.524.524 0 0 0 .326-.66.516.516 0 0 0-.653-.33l-.843.285a.524.524 0 0 0 .164 1.017.508.508 0 0 0 .163-.027zm-8.403-.745a.523.523 0 0 0-.349-.648l-.852-.254a.515.515 0 0 0-.641.353.523.523 0 0 0 .348.648l.853.254a.516.516 0 0 0 .641-.353zm10.3.106l.843-.284a.524.524 0 0 0 .327-.66.518.518 0 0 0-.654-.33l-.842.283a.524.524 0 0 0 .163 1.017.521.521 0 0 0 .163-.026zM10.191 12.5a.522.522 0 0 0-.35-.648l-.852-.255a.522.522 0 0 0-.292 1l.852.256a.517.517 0 0 0 .641-.353zm17.908-1.24l.843-.284a.524.524 0 0 0 .326-.66.516.516 0 0 0-.653-.33l-.843.284a.524.524 0 0 0 .163 1.017.508.508 0 0 0 .164-.027zm-23.661-.477a.523.523 0 0 0-.35-.649l-.852-.254a.517.517 0 0 0-.64.353.523.523 0 0 0 .348.648l.852.254a.517.517 0 0 0 .641-.353zm25.557-.162l.843-.284a.524.524 0 0 0 .243-.817.485.485 0 0 0 .277.051.52.52 0 0 0 .466-.568c-.049-.514-.397-.931-.937-1.076-.277-.075-.531.1-.605.378-.073.278.117.57.392.645.073.02.114.07.121.152a.53.53 0 0 0 .108.272.52.52 0 0 0-.392-.027l-.843.283a.524.524 0 0 0 .164 1.017.522.522 0 0 0 .163-.026zM2.52 10.21a.523.523 0 0 0-.349-.648l-.779-.233a.539.539 0 0 1-.085-.262c0-.02.003-.036.008-.05a.516.516 0 1 0-.965-.372c-.051.135-.076.28-.075.426 0 .318.12.665.322.927.051.066.105.132.175.166a.514.514 0 0 0 .255.144l.852.254a.517.517 0 0 0 .641-.353zm-.63-1.398l.859-.233a.523.523 0 0 0-.268-1.008l-.858.233a.523.523 0 0 0 .268 1.008zm28.29-.533a.523.523 0 0 0-.367-.638l-.858-.23a.513.513 0 0 0-.631.371.523.523 0 0 0 .366.638l.86.23a.517.517 0 0 0 .63-.371zm-26.358.008l.858-.234a.523.523 0 0 0 .364-.64.517.517 0 0 0-.633-.368l-.858.234a.523.523 0 0 0 .134 1.026c.045 0 .09-.006.135-.018zm24.425-.525a.522.522 0 0 0-.367-.637l-.859-.23a.522.522 0 0 0-.264 1.009l.859.23a.517.517 0 0 0 .63-.372zm-22.495 0l.858-.234a.523.523 0 0 0-.268-1.008l-.858.233a.523.523 0 0 0 .268 1.008zm20.562-.516a.522.522 0 0 0-.366-.637l-.86-.23a.522.522 0 0 0-.264 1.009l.86.23a.517.517 0 0 0 .63-.372zm-18.631-.01l.858-.234a.523.523 0 0 0-.268-1.008l-.858.233a.523.523 0 0 0 .268 1.008zm16.698-.506a.522.522 0 0 0-.367-.638l-.859-.229a.522.522 0 0 0-.264 1.009l.859.23a.517.517 0 0 0 .631-.372zM9.614 6.71l.858-.234a.523.523 0 0 0 .364-.64.517.517 0 0 0-.633-.368l-.858.234a.523.523 0 0 0 .134 1.026c.045 0 .09-.006.135-.018zm12.834-.496a.522.522 0 0 0-.367-.638l-.86-.229a.522.522 0 0 0-.264 1.009l.86.23a.517.517 0 0 0 .63-.372zm-10.904-.03l.858-.233a.523.523 0 0 0-.268-1.008l-.858.233a.523.523 0 0 0 .268 1.008zm8.971-.486a.522.522 0 0 0-.367-.638l-.86-.23a.522.522 0 0 0-.264 1.009l.86.23a.517.517 0 0 0 .631-.371zm-7.04-.04l.858-.233a.523.523 0 0 0-.268-1.008l-.858.233a.523.523 0 0 0 .268 1.008zm5.107-.477a.522.522 0 0 0-.367-.637l-.86-.23a.522.522 0 0 0-.264 1.009l.86.23a.517.517 0 0 0 .63-.372zm-3.176-.048l.179-.049c.156-.044.32-.053.485-.027.277.044.544-.152.587-.437s-.15-.55-.432-.594a2.204 2.204 0 0 0-.909.05l-.18.05a.523.523 0 0 0 .135 1.025c.045 0 .09-.006.135-.018zM32 17.833v3.889c0 .799-.498 1.499-1.24 1.741l-13.563 4.45a1.746 1.746 0 0 1-1.046.014l-14.87-4.472C.52 23.226-.007 22.496 0 21.682l.036-3.739a1.43 1.43 0 0 1 1.036-1.368l3.522-.918-3.567-1.065a1.205 1.205 0 0 1-.859-1.184 1.204 1.204 0 0 1 .886-1.165l3.56-.969a.514.514 0 0 1 .54-.822l.853.255a.502.502 0 0 1 .209.131l9.1-2.478a2.176 2.176 0 0 1 1.137-.002l9.481 2.53.784-.263a.516.516 0 0 1 .653.33.516.516 0 0 1-.006.316l3.573.954c.516.138.873.596.89 1.14a1.21 1.21 0 0 1-.818 1.198l-3.166 1.067 3.102.815c.62.161 1.054.732 1.054 1.388zm-15.588.264c.294.089.6.084.891-.015l13.38-4.509c.097-.033.115-.113.113-.175 0-.06-.024-.138-.122-.164l-5.188-1.385a.514.514 0 0 1-.338.405l-.844.284a.518.518 0 0 1-.653-.33.523.523 0 0 1 .327-.66l.17-.056-7.96-2.125a1.163 1.163 0 0 0-.603.001L8.124 11.4c.14.13.206.331.149.528a.516.516 0 0 1-.641.353l-.853-.254a.504.504 0 0 1-.257-.19l-5.2 1.415c-.099.027-.12.107-.121.169 0 .062.019.142.118.171l15.093 4.506zM2.12 17.38l14.441 4.46c.064.02.138.018.205-.005l13.398-4.515-4.118-1.083-8.417 2.836a2.476 2.476 0 0 1-1.51.025l-9.597-2.864-4.402 1.146zm28.848.77l-13.88 4.677a1.406 1.406 0 0 1-.823.012L1.066 18.145l-.034 3.547a.783.783 0 0 0 .544.763l14.869 4.471c.143.043.292.04.433-.005l13.563-4.45a.778.778 0 0 0 .527-.75V18.15z" fill="#69a1d6"/></svg>