<svg id="bbea868e-8a71-493f-b725-c934b9a84f18" xmlns="http://www.w3.org/2000/svg" width="18" height="18" viewBox="0 0 18 18"><defs><radialGradient id="a81c9c09-6274-4ca3-a4e1-ccea67c24c15" cx="-3179.5" cy="28295.77" r="40.52" gradientTransform="translate(435.73 -3785.18) scale(0.13)" gradientUnits="userSpaceOnUse"><stop offset="0.18" stop-color="#5ea0ef" /><stop offset="0.56" stop-color="#5c9fee" /><stop offset="0.69" stop-color="#559ced" /><stop offset="0.78" stop-color="#4a97e9" /><stop offset="0.86" stop-color="#3990e4" /><stop offset="0.93" stop-color="#2387de" /><stop offset="0.99" stop-color="#087bd6" /><stop offset="1" stop-color="#0078d4" /></radialGradient></defs><title>Icon-manage-308</title><circle cx="9.39" cy="9" r="5.43" fill="url(#a81c9c09-6274-4ca3-a4e1-ccea67c24c15)" /><circle cx="9.41" cy="9" r="4.73" fill="#fff" /><rect id="b42eed36-9db4-477b-a93a-b71dd9eafb01" x="11.59" y="6.29" width="0.81" height="0.26" transform="translate(-1.03 10.36) rotate(-45)" fill="#7a7a7a" /><rect id="ad8c6ead-147d-43b2-a109-456e78be7081" x="12.62" y="8.87" width="0.81" height="0.26" fill="#7a7a7a" /><rect id="fe21f182-2c9c-417d-b5d9-d14559b34877" x="11.82" y="11.13" width="0.26" height="0.81" transform="translate(-4.66 11.83) rotate(-45)" fill="#7a7a7a" /><rect id="ac180879-4dfd-4584-a8aa-5ef507fe43af" x="9.28" y="12.19" width="0.26" height="0.81" fill="#7a7a7a" /><rect id="b4e17954-3f15-4e0f-a45d-bd11f26be64c" x="6.68" y="5.99" width="0.26" height="0.81" transform="translate(-2.53 6.69) rotate(-45)" fill="#7a7a7a" /><rect id="aa99a954-37ab-43d9-b437-1be309bf32b2" x="6.44" y="11.43" width="0.81" height="0.26" transform="translate(-6.17 8.23) rotate(-45)" fill="#7a7a7a" /><rect id="a6cfd9f5-a8af-49cb-b4d2-8cb476152496" x="5.35" y="8.87" width="0.81" height="0.26" fill="#7a7a7a" /><path d="M11.37,10.46,10,9.08A.3.3,0,0,0,9.75,9a.44.44,0,0,0,.06-.16V5.33A.33.33,0,0,0,9.48,5H9.41a.33.33,0,0,0-.33.33v3.5a.34.34,0,0,0,.33.34h.05a.32.32,0,0,0,0,.43L10.85,11a.33.33,0,0,0,.47,0l0,0A.33.33,0,0,0,11.37,10.46Z" fill="#7a7a7a" /><circle cx="9.42" cy="9" r="0.77" fill="#4f4f4f" /><g><path d="M.5,15.08a.16.16,0,0,0,.08.14l1.16.65L3.7,17a.17.17,0,0,0,.23-.06l.66-1.12a.16.16,0,0,0-.06-.21l-2.3-1.3a.17.17,0,0,1-.08-.14V3.85a.16.16,0,0,1,.08-.14l2.3-1.3a.16.16,0,0,0,.06-.21L3.93,1.08A.17.17,0,0,0,3.7,1L1.78,2.11l-1.2.67a.16.16,0,0,0-.08.14V15.08Z" fill="#949494" /><path d="M2.14,3.77l.06-.06,2.3-1.3a.14.14,0,0,0,.06-.21L3.9,1.08A.15.15,0,0,0,3.68,1L1.75,2.11.56,2.78s-.05,0-.06.06l.9.51Z" fill="#a3a3a3" /><path d="M4.5,15.59l-2.3-1.3a.22.22,0,0,1-.07-.09l-1.62,1,.05,0,1.15.65,2,1.11a.15.15,0,0,0,.22-.06l.66-1.12A.14.14,0,0,0,4.5,15.59Z" fill="#a3a3a3" /></g><g><path d="M17.51,15.08a.16.16,0,0,1-.08.14l-1.16.65-2,1.11a.15.15,0,0,1-.22-.06l-.66-1.12a.15.15,0,0,1,.05-.21l2.3-1.3a.17.17,0,0,0,.08-.14V3.85a.16.16,0,0,0-.08-.14l-2.3-1.3a.15.15,0,0,1-.05-.21l.66-1.12A.15.15,0,0,1,14.31,1l1.92,1.09,1.2.67a.16.16,0,0,1,.08.14V15.08Z" fill="#949494" /><path d="M15.87,3.77l-.06-.06-2.3-1.3a.14.14,0,0,1-.06-.21l.66-1.12A.15.15,0,0,1,14.33,1l1.93,1.09,1.19.67s.05,0,.06.06l-.9.51Z" fill="#a3a3a3" /><path d="M13.51,15.59l2.3-1.3a.16.16,0,0,0,.07-.09l1.62,1-.05,0-1.15.65-2,1.11a.15.15,0,0,1-.22-.06l-.66-1.12A.14.14,0,0,1,13.51,15.59Z" fill="#a3a3a3" /></g><path d="M7.94,3.35h0a.49.49,0,0,0-.64-.3A6.56,6.56,0,0,0,3,9.24a6.13,6.13,0,0,0,2,4.35l-.34.46a.21.21,0,0,0,.16.34l1.88.13a.22.22,0,0,0,.23-.31l-.79-1.64a.23.23,0,0,0-.39,0l-.19.26A5.23,5.23,0,0,1,4,9.2,5.58,5.58,0,0,1,7.65,3.92.47.47,0,0,0,7.94,3.35Z" fill="#76bc2d" /></svg>