<svg xmlns="http://www.w3.org/2000/svg" width="18" height="18" viewBox="0 0 18 18"><defs><linearGradient id="50358913-a3f3-4ca9-bc32-c82c3eb7e3ee" x1="8.15" y1="17.5" x2="8.15" y2="2.1" gradientUnits="userSpaceOnUse"><stop offset="0" stop-color="#773adc" /><stop offset=".25" stop-color="#9255e6" /><stop offset=".5" stop-color="#a669ee" /><stop offset=".76" stop-color="#b376f2" /><stop offset="1" stop-color="#b77af4" /></linearGradient></defs><path d="M1.93 2.1L3.15.7A.58.58 0 0 1 3.59.5h11.6a.81.81 0 0 1 .88.83v14.5a.6.6 0 0 1-.19.44l-1.3 1.2H2.72l-.8-.34z" fill="#773adc" /><path d="M2.9 2.1l.74-.85A.53.53 0 0 1 4 1.08h10.88a.52.52 0 0 1 .52.52v13.78a.52.52 0 0 1-.17.39l-1.15 1.05z" fill="#fff" /><path d="M14,2.1H2a0,0,0,0,0-.05,0v15a.39.39,0,0,0,.38.39H14a.39.39,0,0,0,.38-.39V2.48A.38.38,0,0,0,14,2.1Z" fill="url(#50358913-a3f3-4ca9-bc32-c82c3eb7e3ee)" /><g fill="#fff"><path d="M8.35 11.18l-1.6-.88a.05.05 0 0 1 0 0V8.5a.05.05 0 0 1 0 0l1.57.87v1.75M6.3 10l-1.6-.85a.08.08 0 0 1 0 0v-1.8a.05.05 0 0 1 0 0 0 0 0 0 1 0 0l1.57.87V10a.05.05 0 0 1 0 0" /><path d="M7 8l1.57-.85 1.6.85a.05.05 0 0 1 0 0l-1.56.85L7 8" opacity=".8" /><path d="M5 6.87L6.52 6h.05l1.53.84a.05.05 0 0 1 0 .08l-1.55.85L5 6.93m4.08-.03l1.56-.9a0 0 0 0 1 0 0l1.53.84a.05.05 0 0 1 0 0 .08.08 0 0 1 0 0l-1.55.85h-.05L9.1 7a0 0 0 0 1 0 0M7 5.8l1.56-.84h.05l1.55.83a.05.05 0 0 1 0 0l-1.57.84L7 5.86" opacity=".8" /><path d="M8.82 11.18l1.57-.87V8.5l-1.58.87a.05.05 0 0 0 0 0v1.75a.05.05 0 0 0 0 0zm3.63-3.86a0 0 0 0 0 0 0l-1.58.87a.05.05 0 0 0 0 0V10a.05.05 0 0 0 0 0h.05l1.57-.87a.05.05 0 0 0 0 0V7.36s-.02-.04-.04-.04zM9 12.2c.32 0 .65.1.67.5a.57.57 0 0 1 0 .23l.8-.33a.05.05 0 0 0 0 0v-1.8a.05.05 0 0 0 0 0l-1.58.87v.53zm3.4-2.58l-1.58.87v1.75a.05.05 0 0 0 0 0h.05l1.57-.87v-1.7z" opacity=".6" /><path d="M7.32 11.9c.1.15.2.3.3.32h.78v-.54a.05.05 0 0 0 0 0l-1.6-.9v.5a2.07 2.07 0 0 1 .52.63zm-1.17-.76a1.3 1.3 0 0 1 .21 0v-.65a.05.05 0 0 0 0 0l-1.6-.87a.05.05 0 0 0 0 0v1.68a2.57 2.57 0 0 0 .5-.08 4.36 4.36 0 0 1 .89-.08z" /><path d="M11.88 13l-1 .6-1.1.65a1.56 1.56 0 0 1-.86.11h-.33l-1 .05h-.53c-.43 0-1.06-.45-1.4-.76l-.17-.16A2 2 0 0 0 4.1 13h-.58v-1.47H4.7a2.21 2.21 0 0 0 .54-.08 4.28 4.28 0 0 1 .92-.11 1.24 1.24 0 0 1 1 .67c.14.2.26.37.43.4s.58 0 .95 0H9c.4 0 .48.12.5.3a.43.43 0 0 1-.11.33 2.41 2.41 0 0 1-.69.11c-.33 0-1.2.1-1.42-.1l-.6-.53-.12.15.6.52a1.21 1.21 0 0 0 .81.19c.16 0 .54 0 .75-.05a3.24 3.24 0 0 0 .67-.09.12.12 0 0 0 .08 0c.06 0 1.4-.6 1.77-.77s1-.22 1.05 0-.1.36-.4.52z" /></g></svg>