<svg id="b165814b-e5d3-4a73-8b60-71fa2d0cb816" xmlns="http://www.w3.org/2000/svg" width="18" height="18" viewBox="0 0 18 18"><defs><linearGradient id="a900f86d-5158-4de7-b0f9-968553d5dad2" x1="9" y1="12.68" x2="9" y2="0.68" gradientUnits="userSpaceOnUse"><stop offset="0" stop-color="#0078d4" /><stop offset="0.82" stop-color="#5ea0ef" /></linearGradient><linearGradient id="ba7aba1e-2982-4235-b222-37c6e8ce6a5d" x1="9" y1="17.32" x2="9" y2="12.68" gradientUnits="userSpaceOnUse"><stop offset="0" stop-color="#1490df" /><stop offset="0.98" stop-color="#1f56a3" /></linearGradient></defs><title>Icon-manage-311</title><rect y="0.68" width="18" height="12" rx="0.6" fill="url(#a900f86d-5158-4de7-b0f9-968553d5dad2)" /><rect x="1" y="1.68" width="16" height="10" rx="0.33" fill="#fff" /><path d="M12.61,16.31c-1.78-.28-1.85-1.56-1.84-3.63H7.23c0,2.07-.06,3.35-1.84,3.63a1.05,1.05,0,0,0-.89,1h9A1.05,1.05,0,0,0,12.61,16.31Z" fill="url(#ba7aba1e-2982-4235-b222-37c6e8ce6a5d)" /><path d="M6,5.79h.95a.29.29,0,0,1,.29.29V9.84a.29.29,0,0,1-.29.29H6.29A.29.29,0,0,1,6,9.84v-4a0,0,0,0,1,0,0Z" transform="translate(16.92 8.92) rotate(135)" fill="#86d633" /><path d="M10.11,1.88h.95a0,0,0,0,1,0,0v8.63a.29.29,0,0,1-.29.29h-.65a.29.29,0,0,1-.29-.29V2.17a.29.29,0,0,1,.29-.29Z" transform="translate(13.33 18.21) rotate(-135)" fill="#5e9624" /></svg>