<svg id="e9454006-76a6-4438-aef9-4ccceadcc834" xmlns="http://www.w3.org/2000/svg" width="18" height="18" viewBox="0 0 18 18"><defs><linearGradient id="fe391986-8d36-4070-8f1d-71788a8b17d8" x1="7.86" y1="17.94" x2="7.86" y2="5.72" gradientUnits="userSpaceOnUse"><stop offset="0" stop-color="#773adc" /><stop offset="1" stop-color="#b77af4" /></linearGradient><linearGradient id="a1a60fdb-02e5-449a-8bb9-d305c0513076" x1="7.87" y1="9.28" x2="7.87" y2="-1.85" gradientUnits="userSpaceOnUse"><stop offset="0" stop-color="#773adc" /><stop offset="1" stop-color="#b77af4" /></linearGradient></defs><title>Icon-manage-314</title><path d="M13.9,16.85a1.31,1.31,0,0,0,1.32-1.3c0-.05,0-.11,0-.16-.52-4.11-2.86-7.46-7.34-7.46S1,10.76.51,15.4a1.32,1.32,0,0,0,1.17,1.45H13.9Z" fill="url(#fe391986-8d36-4070-8f1d-71788a8b17d8)" /><path d="M7.87,8.9a4.13,4.13,0,0,1-2.23-.65L7.85,14,10,8.28A4,4,0,0,1,7.87,8.9Z" fill="#fff" /><circle cx="7.87" cy="4.78" r="4.13" fill="url(#a1a60fdb-02e5-449a-8bb9-d305c0513076)" /><rect x="9.08" y="13.2" width="8.42" height="4.15" rx="0.56" fill="#50e6ff" /><path d="M13.29,13.2H9.64a.56.56,0,0,0-.56.56v3a.56.56,0,0,0,.56.56h3.65Z" fill="#32bedd" /><path d="M12.68,14.36l-.09-.1a.15.15,0,0,0-.2,0L10.63,16,10,15.37a.17.17,0,0,0-.21,0l-.09.1a.13.13,0,0,0,0,.2l.84.85.05,0a.16.16,0,0,0,.16,0l1.95-2A.13.13,0,0,0,12.68,14.36Z" fill="#fff" /><path d="M16.51,16.22l-.84-.83.83-.83a.14.14,0,0,0,0-.19l-.11-.11a.12.12,0,0,0-.19,0l-.83.83-.82-.82a.14.14,0,0,0-.21,0l-.1.09a.14.14,0,0,0,0,.19l.83.84-.82.82a.16.16,0,0,0,0,.22l.1.09a.11.11,0,0,0,.18,0l.84-.83.84.83a.14.14,0,0,0,.19,0l.11-.11A.14.14,0,0,0,16.51,16.22Z" fill="#f2f2f2" /></svg>