<svg xmlns="http://www.w3.org/2000/svg" width="128pt" height="128pt" viewBox="0 0 128 128"><path d="M98.668 93.434h24.453v24.468H98.668zM4.879 10.098h24.457v24.468H4.879zm0 0" fill="#ff8959"/><path d="M97.223 21.617V8.652h27.343v27.36H97.223v-12.95H83.996v23.426h-1.445v-24.87zm25.898 12.95v-24.47H98.668v24.47zM16.383 74.57V36.012H3.433V8.652h27.348v27.36H17.828v37.113h66.168v21.352h-1.445V74.57zM4.879 34.566h24.457V10.098H4.879zm0 0" fill="#1d1d1b"/><path d="M111.617 59.73v32.258h12.95v27.36H97.222v-27.36h12.949V61.176h-45.95V36.617H44.02v-1.445h21.648V59.73zm11.504 58.172V93.434H98.668v24.468zM56.074 91.988v25.914h27.2v1.446H54.628V93.434H43.875v12.964H30.781v12.95H3.434v-27.36H30.78v12.965h11.65V91.988zm-26.738 25.914V93.434H4.879v24.468zm0 0" fill="#1d1d1b"/><path d="M4.879 93.434h24.457v24.468H4.879zm93.789-83.336h24.453v24.468H98.668zm0 0" fill="#99a4e3"/></svg>