<svg height="512" viewBox="0 0 512 512" width="512" xmlns="http://www.w3.org/2000/svg"><path fill="#FF8959" d="M394.667 373.732h97.819v97.881h-97.819zM19.516 40.386h97.821v97.876H19.516z"/><path d="M388.884 86.462V34.605h109.383v109.439H388.884V92.243h-52.895v93.715h-5.781V86.462h58.676zm103.602 51.8V40.386h-97.819v97.876h97.819zM65.531 298.287V144.044H13.733V34.605h109.386v109.439H71.313v148.462H335.99v85.393h-5.781v-79.611H65.531zM19.516 138.262h97.821V40.386H19.516v97.876z" fill="#1D1D1B"/><path d="M446.467 238.916v129.035h51.8v109.443H388.884V367.951h51.8V244.697H256.896v-98.225h-80.82v-5.782h86.602v98.226h183.789zm46.019 232.697v-97.881h-97.819v97.881h97.819zM224.292 367.951v103.662h108.806v5.781H218.511V373.732h-43.016v51.863h-52.376v51.799H13.733V367.951h109.386v51.861h46.594v-51.861h54.579zM117.337 471.613v-97.881H19.516v97.881h97.821z" fill="#1D1D1B"/><path fill="#99A4E3" d="M19.516 373.732h97.821v97.881H19.516zM394.667 40.386h97.819v97.876h-97.819z"/></svg>